<?xml version="1.0" encoding="UTF-8"?>
<svg id="Calque_1" xmlns="http://www.w3.org/2000/svg" baseProfile="tiny" version="1.2" viewBox="0 0 141.7 141.7">
  <!-- Generator: Adobe Illustrator 30.2.1, SVG Export Plug-In . SVG Version: 2.1.1 Build 1)  -->
  <path d="M97.8,12.5h-53.8c-8.4,0-15.3,6.9-15.3,15.3v86.2c0,8.4,6.9,15.3,15.3,15.3h53.8c8.4,0,15.3-6.9,15.3-15.3V27.8c0-8.4-6.9-15.3-15.3-15.3ZM104.1,114c0,3.5-2.8,6.3-6.3,6.3h-53.8c-3.5,0-6.3-2.8-6.3-6.3V27.8c0-3.5,2.8-6.3,6.3-6.3h53.8c3.5,0,6.3,2.8,6.3,6.3v86.2Z" fill="#dadcdd"/>
  <path d="M75.1,101.4c-.1-.3-.2-.5-.4-.8-.2-.2-.4-.5-.6-.7-1-1-2.6-1.5-4.1-1.2-.3,0-.6.1-.8.2-.3.1-.5.3-.8.4-.2.2-.5.4-.7.6s-.4.4-.6.7c-.2.2-.3.5-.4.8-.1.3-.2.5-.3.8,0,.3,0,.6,0,.9,0,1.2.5,2.3,1.3,3.2.2.2.4.4.7.6.2.2.5.3.8.4.3.1.5.2.8.3.3,0,.6,0,.9,0s.6,0,.9,0c.3,0,.6-.1.8-.3.3-.1.5-.2.8-.4.2-.2.5-.3.7-.6.8-.8,1.3-2,1.3-3.2s0-.6,0-.9c0-.3-.2-.6-.3-.8Z" fill="#dadcdd"/>
  <path d="M90.2,66.1c-1.4,0-2.5,1.1-2.5,2.5v8.6c0,1-.8,1.8-1.8,1.8h-29.9c-1,0-1.8-.8-1.8-1.8v-8.6c0-1.4-1.1-2.5-2.5-2.5s-2.5,1.1-2.5,2.5v8.6c0,3.7,3.1,6.8,6.8,6.8h29.9c3.7,0,6.8-3.1,6.8-6.8v-8.6c0-1.4-1.1-2.5-2.5-2.5Z" fill="#dadcdd"/>
  <path d="M69.2,70.4c.5.5,1.1.7,1.8.7s1.3-.3,1.8-.7l10.7-10.7c1-1,1-2.6,0-3.5-1-1-2.6-1-3.5,0l-6.4,6.4v-19.8c0-1.4-1.1-2.5-2.5-2.5s-2.5,1.1-2.5,2.5v19.8l-6.4-6.4c-1-1-2.6-1-3.5,0-1,1-1,2.6,0,3.5l10.7,10.7Z" fill="#dadcdd"/>
</svg>