<svg width="24" height="24" viewBox="0 0 24 24" fill="none" xmlns="http://www.w3.org/2000/svg">
<path d="M9.67106 4.13603C9.72616 3.55637 9.99539 3.01807 10.4262 2.62631C10.8569 2.23454 11.4183 2.01746 12.0006 2.01746C12.5828 2.01746 13.1442 2.23454 13.575 2.62631C14.0057 3.01807 14.275 3.55637 14.3301 4.13603C14.3632 4.51048 14.486 4.87145 14.6882 5.18837C14.8904 5.50529 15.1659 5.76884 15.4915 5.95671C15.8171 6.14457 16.1832 6.25123 16.5588 6.26765C16.9343 6.28407 17.3083 6.20977 17.6491 6.05103C18.1782 5.81081 18.7777 5.77605 19.3311 5.95352C19.8844 6.13098 20.3519 6.50798 20.6426 7.01113C20.9333 7.51429 21.0263 8.1076 20.9037 8.6756C20.7811 9.2436 20.4515 9.74565 19.9791 10.084C19.6714 10.2999 19.4203 10.5866 19.247 10.9201C19.0736 11.2535 18.9831 11.6237 18.9831 11.9995C18.9831 12.3753 19.0736 12.7456 19.247 13.079C19.4203 13.4124 19.6714 13.6992 19.9791 13.915C20.4515 14.2534 20.7811 14.7555 20.9037 15.3235C21.0263 15.8915 20.9333 16.4848 20.6426 16.9879C20.3519 17.4911 19.8844 17.8681 19.3311 18.0455C18.7777 18.223 18.1782 18.1883 17.6491 17.948C17.3083 17.7893 16.9343 17.715 16.5588 17.7314C16.1832 17.7478 15.8171 17.8545 15.4915 18.0424C15.1659 18.2302 14.8904 18.4938 14.6882 18.8107C14.486 19.1276 14.3632 19.4886 14.3301 19.863C14.275 20.4427 14.0057 20.981 13.575 21.3727C13.1442 21.7645 12.5828 21.9816 12.0006 21.9816C11.4183 21.9816 10.8569 21.7645 10.4262 21.3727C9.99539 20.981 9.72616 20.4427 9.67106 19.863C9.638 19.4884 9.51516 19.1273 9.31293 18.8103C9.11069 18.4933 8.83503 18.2296 8.50929 18.0418C8.18355 17.8539 7.81733 17.7472 7.44164 17.7309C7.06595 17.7146 6.69186 17.7891 6.35106 17.948C5.82195 18.1883 5.22239 18.223 4.66906 18.0455C4.11573 17.8681 3.64823 17.4911 3.35754 16.9879C3.06685 16.4848 2.97377 15.8915 3.09642 15.3235C3.21907 14.7555 3.54866 14.2534 4.02106 13.915C4.32868 13.6992 4.57979 13.4124 4.75315 13.079C4.92651 12.7456 5.01701 12.3753 5.01701 11.9995C5.01701 11.6237 4.92651 11.2535 4.75315 10.9201C4.57979 10.5866 4.32868 10.2999 4.02106 10.084C3.54932 9.74547 3.22031 9.24362 3.09796 8.67601C2.97561 8.1084 3.06867 7.51557 3.35904 7.01274C3.64942 6.50991 4.11637 6.13301 4.66915 5.95527C5.22193 5.77753 5.82104 5.81166 6.35006 6.05103C6.69082 6.20977 7.0648 6.28407 7.44036 6.26765C7.81592 6.25123 8.18199 6.14457 8.5076 5.95671C8.8332 5.76884 9.10875 5.50529 9.31093 5.18837C9.5131 4.87145 9.63594 4.51048 9.66906 4.13603M15.0001 12C15.0001 13.6569 13.6569 15 12.0001 15C10.3432 15 9.00006 13.6569 9.00006 12C9.00006 10.3432 10.3432 9.00003 12.0001 9.00003C13.6569 9.00003 15.0001 10.3432 15.0001 12Z" stroke="white" stroke-width="1.5" stroke-linecap="round" stroke-linejoin="round"/>
</svg>
