<?xml version="1.0" encoding="UTF-8"?>
<svg id="Calque_1" xmlns="http://www.w3.org/2000/svg" baseProfile="tiny" version="1.2" viewBox="0 0 141.7 141.7">
  <!-- Generator: Adobe Illustrator 30.2.1, SVG Export Plug-In . SVG Version: 2.1.1 Build 1)  -->
  <path d="M69.9,126.2c-4.6-.5-8.2-4.1-8.7-8.7-.5-4.9-2.8-9.4-6.5-12.5-3.3-2.8-7.5-4.3-11.8-4.3s-1,0-1.5,0c-2.5,0-4.5.8-6.4,1.6-4.7,2.1-10.4,0-12.5-4.7,0,0,0,0,0-.1-2-4.1-.6-8.9,3.2-11.7,4-2.9,6.6-7.1,7.5-11.9.9-4.9-.2-9.7-3.1-13.7-1.3-2-2.9-3.3-4.2-4.3,0,0-.1,0-.2-.1-4.3-3.1-5.2-9-2.1-13.5,2.6-3.8,7.4-5,11.6-3.1,9,4.4,20.1.4,24.7-8.8,1.1-2.1,1.6-4.4,1.7-6.6.3-2.4,1.5-4.7,3.4-6.3,2-1.7,4.5-2.4,6.9-2.2,4.6.5,8.2,4.1,8.7,8.7.9,10.1,9.8,17.6,19.8,16.8,2.5,0,4.5-.8,6.4-1.6,4.7-2.1,10.4,0,12.5,4.7h0c2,4.2.6,9-3.2,11.8-4,2.9-6.6,7.1-7.5,11.9-.9,4.9.2,9.7,3.1,13.7,1.2,1.7,2.6,2.9,3.8,3.9l5.8-5.8c.2-.2.4-.4.7-.6-.1-.1-.3-.2-.4-.3-1-.8-1.8-1.4-2.4-2.3,0,0,0-.1-.1-.2-1.5-2-2-4.4-1.6-6.9.4-2.5,1.9-4.7,4-6.3,7.2-5.3,9.7-14.9,6-22.8-4.2-9.2-15.1-13.3-24.3-9.2-1.4.6-2.2.8-3,.8s-.3,0-.4,0c-5.1.5-9.7-3.4-10.2-8.7-1-8.9-7.8-15.8-16.8-16.7-4.9-.5-9.7,1-13.6,4.2-3.8,3.2-6.2,7.6-6.7,12.6,0,.1,0,.3,0,.4,0,.9-.3,1.9-.7,2.8-2.4,4.7-8.2,6.9-12.8,4.6-8.2-3.8-17.8-1.2-22.8,6.1-5.9,8.4-4.2,19.8,4.1,25.8,1,.8,1.8,1.4,2.4,2.3,0,0,0,.1.1.2,3,4.1,1.9,10-2.4,13.2-7.2,5.3-9.7,14.9-6,22.8,4.2,9.2,15.1,13.3,24.3,9.2,1.4-.6,2.2-.8,3-.8s.3,0,.4,0c2.5-.2,4.9.5,6.8,2.2,1.9,1.6,3.1,3.9,3.4,6.5,1,8.9,7.8,15.8,16.8,16.7.6,0,1.2,0,1.8,0,6.6,0,12.5-3.5,15.8-8.8l-6.7-6.7c-1.4,4.1-5.5,6.9-9.9,6.5Z" fill="#dadcdd"/>
  <path d="M48.4,70.7c0,12.4,10.1,22.5,22.5,22.5s22.5-10.1,22.5-22.5-10.1-22.5-22.5-22.5-22.5,10.1-22.5,22.5ZM84.4,70.7c0,7.4-6.1,13.5-13.5,13.5s-13.5-6.1-13.5-13.5,6.1-13.5,13.5-13.5,13.5,6.1,13.5,13.5Z" fill="#dadcdd"/>
  <path d="M135.3,84.6c-.3-.3-.6-.6-1-.8-.4-.2-.7-.4-1.1-.6-.8-.3-1.6-.5-2.4-.5s-.8,0-1.2.1c-.8.2-1.6.5-2.3.9-.2.2-.5.3-.7.5-.1,0-.2.2-.3.3l-6.5,6.5-11.8,11.8-7,7-1.6,1.6-1.7-1.7-7.1-7.1-2.3-2.3c-.5-.5-1-.8-1.5-1.1-.6-.3-1.1-.5-1.7-.6-.4,0-.8-.1-1.2-.1-.6,0-1.2,0-1.8.3-.4.1-.8.3-1.1.5-.6.3-1.1.7-1.5,1.1-.8.8-1.3,1.7-1.6,2.7-.3,1.2-.3,2.4,0,3.6.3,1,.8,1.9,1.6,2.7l2.5,2.5,7.4,7.4,5.7,5.7c1.2,1.2,2.8,1.9,4.5,1.9h.1c.6,0,1.2,0,1.8-.3.4-.1.8-.3,1.1-.5.5-.3,1.1-.7,1.5-1.1l14.2-14.2,9.3-9.3,7.9-7.9c2.5-2.5,2.5-6.5,0-9Z" fill="#dadcdd"/>
</svg>