<?xml version="1.0" encoding="utf-8"?>
<!-- Generator: Adobe Illustrator 27.0.0, SVG Export Plug-In . SVG Version: 6.00 Build 0)  -->
<svg version="1.1" id="Calque_1" xmlns="http://www.w3.org/2000/svg" xmlns:xlink="http://www.w3.org/1999/xlink" x="0px" y="0px"
	 viewBox="0 0 141.7 141.7" style="enable-background:new 0 0 141.7 141.7;" xml:space="preserve">
<style type="text/css">
	.st0{fill:#18A1C9;stroke:#24607E;stroke-width:4.9021;stroke-linecap:round;stroke-linejoin:round;stroke-miterlimit:10;}
	.st1{fill:#8BB53C;stroke:#24607E;stroke-width:5.638;stroke-linecap:round;stroke-linejoin:round;stroke-miterlimit:10;}
</style>
<g>
	<g>
		<g>
			<path class="st0" d="M122.3,78.4V63.3c0-2.2-1.8-3.9-3.9-3.9h-8.1c-0.9,0-1.7-0.6-2-1.5c-0.7-2.3-1.7-4.6-2.8-6.7
				c-0.4-0.8-0.3-1.8,0.4-2.5l5.7-5.7c1.5-1.5,1.5-4,0-5.5L101,26.9c-1.5-1.5-4-1.5-5.5,0l-5.7,5.7c-0.6,0.6-1.6,0.8-2.5,0.4
				c-2.1-1.1-4.4-2-6.7-2.8c-0.9-0.3-1.5-1.1-1.5-2v-8.1c0-2.2-1.8-3.9-3.9-3.9H60.1c-2.2,0-3.9,1.8-3.9,3.9v8.1
				c0,0.9-0.6,1.7-1.5,2c-2.3,0.7-4.6,1.7-6.7,2.8c-0.8,0.4-1.8,0.3-2.5-0.4l-5.7-5.7c-1.5-1.5-4-1.5-5.5,0L23.6,37.5
				c-1.5,1.5-1.5,4,0,5.5l5.7,5.7c0.7,0.7,0.8,1.6,0.4,2.5c-1.1,2.1-2,4.4-2.8,6.7c-0.3,0.9-1.1,1.5-2,1.5h-8.1
				c-2.2,0-3.9,1.8-3.9,3.9v15.1c0,2.2,1.8,3.9,3.9,3.9h8.1c0.9,0,1.7,0.6,2,1.5c0.7,2.3,1.7,4.6,2.8,6.7c0.4,0.8,0.3,1.8-0.4,2.5
				l-5.7,5.7c-1.5,1.5-1.5,4,0,5.5l10.7,10.7c1.5,1.5,4,1.5,5.5,0l5.7-5.7c0.6-0.7,1.6-0.8,2.5-0.4c2.1,1.1,4.4,2,6.7,2.8
				c0.9,0.3,1.5,1.1,1.5,2v8.1c0,2.2,1.8,3.9,3.9,3.9h15.1c2.2,0,3.9-1.8,3.9-3.9v-8.1c0-0.9,0.6-1.7,1.5-2c2.3-0.7,4.6-1.7,6.7-2.8
				c0.8-0.4,1.8-0.3,2.5,0.4l5.7,5.7c1.5,1.5,4,1.5,5.5,0l10.7-10.7c1.5-1.5,1.5-4,0-5.5L106,93c-0.6-0.6-0.8-1.6-0.4-2.5
				c1.1-2.1,2-4.4,2.8-6.7c0.3-0.9,1.1-1.5,2-1.5h8.1C120.6,82.3,122.3,80.6,122.3,78.4z M67.6,94.8c-13.2,0-23.9-10.7-23.9-23.9
				C43.7,57.7,54.4,47,67.6,47s23.9,10.7,23.9,23.9S80.8,94.8,67.6,94.8z"/>
		</g>
		<polygon class="st1" points="67.9,79.7 79.3,93.5 113.2,58.6 128.8,74.8 82.1,121.9 52,96 		"/>
	</g>
</g>
</svg>
