<?xml version="1.0" encoding="utf-8"?>
<!-- Generator: Adobe Illustrator 27.0.0, SVG Export Plug-In . SVG Version: 6.00 Build 0)  -->
<svg version="1.1" id="Calque_1" xmlns="http://www.w3.org/2000/svg" xmlns:xlink="http://www.w3.org/1999/xlink" x="0px" y="0px"
	 viewBox="0 0 141.7 141.7" style="enable-background:new 0 0 141.7 141.7;" xml:space="preserve">
<style type="text/css">
	.st0{fill:#8BB53C;stroke:#24607E;stroke-width:3.8176;stroke-linecap:round;stroke-linejoin:round;stroke-miterlimit:10;}
</style>
<g>
	<g>
		<g>
			<g>
				<g>
					<path class="st0" d="M47.9,70.2c-3.8,3-8.6,4.8-13.8,4.8s-10-1.8-13.8-4.8c-5.9,0.5-10.5,5.3-10.5,11.3v1.8v15.5
						c0,2.5,2,4.5,4.5,4.5H54c2.5,0,4.5-2,4.5-4.5V83.3v-1.8C58.4,75.5,53.8,70.6,47.9,70.2z"/>
				</g>
				<path class="st0" d="M47.2,52.6c0-7.2-5.9-13.1-13.1-13.1S21,45.4,21,52.6s5.9,13.1,13.1,13.1C41.3,65.6,47.2,59.8,47.2,52.6z"
					/>
			</g>
			<g>
				<g>
					<path class="st0" d="M121.5,70.2c-3.8,3-8.6,4.8-13.8,4.8c-5.2,0-10-1.8-13.8-4.8c-5.9,0.5-10.5,5.3-10.5,11.3v1.8v15.5
						c0,2.5,2,4.5,4.5,4.5h39.7c2.5,0,4.5-2,4.5-4.5V83.3v-1.8C132,75.5,127.3,70.6,121.5,70.2z"/>
				</g>
				<path class="st0" d="M120.7,52.6c0-7.2-5.9-13.1-13.1-13.1s-13.1,5.9-13.1,13.1s5.9,13.1,13.1,13.1
					C114.9,65.6,120.7,59.8,120.7,52.6z"/>
			</g>
		</g>
		<g>
			<g>
				<path class="st0" d="M88.5,69.3c-4.9,3.8-11,6.1-17.6,6.1c-6.7,0-12.8-2.3-17.6-6.1c-7.5,0.6-13.4,6.8-13.4,14.4V86v19.8
					c0,3.2,2.6,5.7,5.7,5.7h50.6c3.2,0,5.7-2.6,5.7-5.7V86v-2.3C101.9,76.1,96,69.9,88.5,69.3z"/>
			</g>
			<path class="st0" d="M87.5,46.8c0-9.2-7.5-16.7-16.7-16.7s-16.7,7.5-16.7,16.7s7.5,16.7,16.7,16.7C80.1,63.5,87.5,56.1,87.5,46.8
				z"/>
		</g>
	</g>
</g>
</svg>
