<?xml version="1.0" encoding="utf-8"?>
<!-- Generator: Adobe Illustrator 27.0.0, SVG Export Plug-In . SVG Version: 6.00 Build 0)  -->
<svg version="1.1" id="Calque_1" xmlns="http://www.w3.org/2000/svg" xmlns:xlink="http://www.w3.org/1999/xlink" x="0px" y="0px"
	 viewBox="0 0 141.7 141.7" style="enable-background:new 0 0 141.7 141.7;" xml:space="preserve">
<style type="text/css">
	.st0{fill:#8BB53C;stroke:#24607E;stroke-width:3.8477;stroke-linecap:round;stroke-linejoin:round;stroke-miterlimit:10;}
</style>
<g>
	<path class="st0" d="M39,72.6c0,0.1,0,0.2,0,0.3l4.3-4.3c2.5-2.5,6.6-2.5,9.1,0s2.5,6.6,0,9.1L37.8,92.4c-2.5,2.5-6.4,2.5-9,0.1
		L13.9,79.4c-2.5-2.5-2.4-6.6,0.1-9.1c2.3-2.2,5.8-2.4,8.3-0.5l3.8,3.4l0,0c-0.5-10.5,2.2-20.9,7.7-29.8s13.5-15.8,23.1-19.9
		c3.4-1.5,6.9-2.6,10.6-3.4c24-5.4,48.3,7.2,57.7,29.9c1.5,3.4,2.6,6.9,3.3,10.6c1.8,8.6,1.4,17.5-1.3,25.9
		c-2.7,8.3-7.5,15.8-14,21.8c-6.2,5.8-13.6,10.1-21.7,12.6c-13.2,3.9-27.4,1.9-38.9-5.7c-3-1.9-3.8-5.9-1.9-8.9
		c1.9-3,5.9-3.8,8.9-1.9c1.7,1.1,3.5,2.1,5.3,2.9s3.6,1.4,5.5,1.8c5.8,1.4,11.8,1.2,17.5-0.5c6.2-1.9,11.9-5.2,16.6-9.7
		c4.9-4.5,8.5-10.1,10.5-16.4c2-6.2,2.3-12.9,1-19.3c-0.6-2.8-1.5-5.5-2.6-8.2c-7-17-25.3-26.4-43.2-22.3c-2.8,0.6-5.6,1.5-8.2,2.6
		c-7.2,3-13.2,8.2-17.3,14.8C40.7,56.9,38.6,64.7,39,72.6z M70.1,51.6c0-3.2,2.6-5.9,5.9-5.9s5.9,2.6,5.9,5.9v18.3l14.3,7.9
		c2.8,1.6,3.8,5.1,2.3,8c-1.6,2.8-5.1,3.8-8,2.3l0,0l-16.9-9.4c-2.1-0.9-3.5-3-3.5-5.4C70.1,73.3,70.1,51.6,70.1,51.6z"/>
</g>
</svg>
