<?xml version="1.0" encoding="utf-8"?>
<!-- Generator: Adobe Illustrator 27.0.0, SVG Export Plug-In . SVG Version: 6.00 Build 0)  -->
<svg version="1.1" id="Calque_1" xmlns="http://www.w3.org/2000/svg" xmlns:xlink="http://www.w3.org/1999/xlink" x="0px" y="0px"
	 viewBox="0 0 141.7 141.7" style="enable-background:new 0 0 141.7 141.7;" xml:space="preserve">
<style type="text/css">
	.st0{fill:#8BB53C;stroke:#24607E;stroke-width:3.8176;stroke-linecap:round;stroke-linejoin:round;stroke-miterlimit:10;}
	.st1{fill:#8BB53C;stroke:#24607E;stroke-width:3.988;stroke-linecap:round;stroke-linejoin:round;stroke-miterlimit:10;}
</style>
<g>
	<g>
		<g>
			<path class="st0" d="M95.8,68.6c-6.9,5.4-15.5,8.7-24.9,8.7S52.8,74,46,68.6C35.3,69.5,27,78.2,27,89v3.3v28
				c0,4.5,3.6,8.1,8.1,8.1h71.6c4.5,0,8.1-3.6,8.1-8.1v-28V89C114.7,78.2,106.4,69.5,95.8,68.6z"/>
		</g>
		<path class="st1" d="M94.4,36.9c0-13-10.6-23.6-23.6-23.6S47.2,23.9,47.2,36.9s10.6,23.6,23.6,23.6C83.9,60.5,94.4,49.9,94.4,36.9
			z"/>
	</g>
</g>
</svg>
