<svg version="1.1" id="Calque_1" xmlns="http://www.w3.org/2000/svg" xmlns:xlink="http://www.w3.org/1999/xlink" x="0px" y="0px"
	 viewBox="0 0 141.7 141.7" style="enable-background:new 0 0 141.7 141.7;" xml:space="preserve">
<path d="M113.7 50.4H15C12.8 50.4 11.1 48.7 11.1 46.7V32.3C11.1 30.3 12.9 28.6 15 28.6H113.8C116 28.6 117.7 30.3 117.7 32.3V46.7C117.7 48.7 115.9 50.4 113.7 50.4Z" fill="white" stroke="#24607E" stroke-width="3.9851" stroke-miterlimit="10" stroke-linecap="round" stroke-linejoin="round"/>
<path d="M114 94H65.9H15C12.8 94 11.1 92.3 11.1 90.3V75.9C11.1 73.9 12.9 72.2 15 72.2H114C116 72.2 117.7 73.8 117.7 75.7V90.5C117.7 92.5 116 94 114 94Z" fill="white" stroke="#24607E" stroke-width="3.9851" stroke-miterlimit="10" stroke-linecap="round" stroke-linejoin="round"/>
<path d="M105.9 83.6C105.9 85.9 103.9 87.8 101.5 87.8C99.1 87.8 97.1 85.9 97.1 83.6C97.1 81.3 99.1 79.4 101.5 79.4C103.9 79.4 105.9 81.3 105.9 83.6Z" fill="#8BB53C" stroke="#24607E" stroke-width="3.9851" stroke-miterlimit="10" stroke-linecap="round" stroke-linejoin="round"/>
<path d="M80 83.6H18" stroke="#24607E" stroke-width="3.9851" stroke-miterlimit="10" stroke-linecap="round" stroke-linejoin="round"/>
<path d="M80 40.1H18" stroke="#24607E" stroke-width="3.9851" stroke-miterlimit="10" stroke-linecap="round" stroke-linejoin="round"/>
<path d="M113.7 72.2H15C12.8 72.2 11.1 70.5 11.1 68.5V54.1C11.1 52.1 12.9 50.4 15 50.4H113.8C116 50.4 117.7 52.1 117.7 54.1V68.5C117.7 70.6 115.9 72.2 113.7 72.2Z" fill="white" stroke="#24607E" stroke-width="3.9851" stroke-miterlimit="10" stroke-linecap="round" stroke-linejoin="round"/>
<path d="M80 62.6H18" stroke="#24607E" stroke-width="3.9851" stroke-miterlimit="10" stroke-linecap="round" stroke-linejoin="round"/>
<path d="M105.9 61.9001C105.9 64.2001 103.9 66.1001 101.5 66.1001C99.1 66.1001 97.1 64.2001 97.1 61.9001C97.1 59.6001 99.1 57.7001 101.5 57.7001C103.9 57.8001 105.9 59.6001 105.9 61.9001Z" fill="#8BB53C" stroke="#24607E" stroke-width="3.9851" stroke-miterlimit="10" stroke-linecap="round" stroke-linejoin="round"/>
<path d="M105.9 40.1C105.9 42.4 103.9 44.3 101.5 44.3C99.1 44.3 97.1 42.4 97.1 40.1C97.1 37.8 99.1 35.9 101.5 35.9C103.9 35.9 105.9 37.8 105.9 40.1Z" fill="#8BB53C" stroke="#24607E" stroke-width="3.9851" stroke-miterlimit="10" stroke-linecap="round" stroke-linejoin="round"/>
<path d="M130.7 89.6C130.7 102.6 119.5 113.2 105.8 113.2C92 113.2 80.9 102.7 80.9 89.6C80.9 76.5 92 66 105.8 66C119.5 66 130.7 76.6 130.7 89.6Z" fill="#8BB53C" stroke="#24607E" stroke-width="4.184" stroke-miterlimit="10" stroke-linecap="round" stroke-linejoin="round"/>
<path d="M115.27 91.4926C114.99 92.6135 115.672 93.7493 116.793 94.0295C117.913 94.3098 119.049 93.6283 119.33 92.5074L115.27 91.4926ZM99.3914 103.568C100.478 103.96 101.677 103.396 102.068 102.309C102.46 101.222 101.896 100.023 100.809 99.6317L99.3914 103.568ZM126.709 95.0316C127.61 94.3085 127.755 92.9918 127.032 92.0907C126.309 91.1895 124.992 91.0453 124.091 91.7684L126.709 95.0316ZM115.991 98.2684C115.09 98.9915 114.945 100.308 115.668 101.209C116.392 102.11 117.708 102.255 118.609 101.532L115.991 98.2684ZM110.1 91.4606C109.194 90.7428 107.878 90.895 107.161 91.8004C106.443 92.7059 106.595 94.0217 107.501 94.7394L110.1 91.4606ZM115.701 101.239C116.606 101.957 117.922 101.805 118.639 100.9C119.357 99.9941 119.205 98.6783 118.3 97.9606L115.701 101.239ZM119.33 92.5074C119.572 91.5364 119.692 90.5658 119.692 89.5H115.508C115.508 90.2342 115.428 90.8636 115.27 91.4926L119.33 92.5074ZM119.692 89.5C119.692 81.1446 112.955 74.408 104.6 74.408V78.592C110.645 78.592 115.508 83.4554 115.508 89.5H119.692ZM104.6 74.408C96.2446 74.408 89.508 81.1446 89.508 89.5H93.692C93.692 83.4554 98.5554 78.592 104.6 78.592V74.408ZM89.508 89.5C89.508 96.008 93.586 101.478 99.3914 103.568L100.809 99.6317C96.614 98.1216 93.692 94.192 93.692 89.5H89.508ZM124.091 91.7684L115.991 98.2684L118.609 101.532L126.709 95.0316L124.091 91.7684ZM107.501 94.7394L115.701 101.239L118.3 97.9606L110.1 91.4606L107.501 94.7394Z" fill="#24607E"/>
</svg>
