<?xml version="1.0" encoding="UTF-8"?>
<svg id="Calque_1" xmlns="http://www.w3.org/2000/svg" baseProfile="tiny" version="1.2" viewBox="0 0 141.7 141.7">
  <!-- Generator: Adobe Illustrator 30.2.1, SVG Export Plug-In . SVG Version: 2.1.1 Build 1)  -->
  <path d="M124.7,50.3l-7.6-7.6c2.1-3.4,3.3-7.4,3.3-11.6,0-12.1-9.9-22-22-22s-22,9.9-22,22,9.9,22,22,22,8.2-1.2,11.6-3.3l7.6,7.6c1,1,2.2,1.5,3.5,1.5s2.5-.5,3.5-1.5c1.9-1.9,1.9-5.1,0-7h.1ZM86.4,31.1c0-6.6,5.4-12,12-12s12,5.4,12,12-1.2,6-3.2,8.2c-.1,0-.3.2-.4.3-.1,0-.2.2-.3.4-2.1,2-5,3.2-8.2,3.2-6.6,0-12-5.4-12-12h0Z" fill="#dadcdd"/>
  <path d="M107.5,59.1c-2.5,0-4.5,2-4.5,4.5v53.6c0,3.6-2.9,6.5-6.5,6.5h-54.8c-3.6,0-6.5-2.9-6.5-6.5V29.5c0-3.6,2.9-6.5,6.5-6.5h24.7c2.5,0,4.5-2,4.5-4.5s-2-4.5-4.5-4.5h-24.7c-8.5,0-15.5,6.9-15.5,15.5v87.6c0,8.5,6.9,15.5,15.5,15.5h54.8c8.5,0,15.5-6.9,15.5-15.5v-53.6c0-2.5-2-4.5-4.5-4.5h0Z" fill="#dadcdd"/>
  <path d="M69.2,101.7c-2.5,0-4.5,2-4.5,4.5s2,4.5,4.5,4.5,4.5-2,4.5-4.5-2-4.5-4.5-4.5h0Z" fill="#dadcdd"/>
</svg>