<?xml version="1.0" encoding="utf-8"?>
<!-- Generator: Adobe Illustrator 27.0.0, SVG Export Plug-In . SVG Version: 6.00 Build 0)  -->
<svg version="1.1" id="Calque_1" xmlns="http://www.w3.org/2000/svg" xmlns:xlink="http://www.w3.org/1999/xlink" x="0px" y="0px"
	 viewBox="0 0 141.7 141.7" style="enable-background:new 0 0 141.7 141.7;" xml:space="preserve">
<style type="text/css">
	.st0{fill:#8BB53C;stroke:#24607E;stroke-width:4.9897;stroke-linecap:round;stroke-linejoin:round;stroke-miterlimit:10;}
	.st1{fill:#FFFFFF;stroke:#24607E;stroke-width:2.4948;stroke-linecap:round;stroke-linejoin:round;stroke-miterlimit:10;}
	.st2{fill:#8BB53C;}
	.st3{fill:#24607E;}
</style>
<g>
	<path class="st0" d="M112.3,115.8h-83c-4.5,0-8.2-3.7-8.2-8.2V47.7h99.4v59.8C120.6,112.1,116.9,115.8,112.3,115.8z"/>
	<path class="st1" d="M54.8,76.5h-14c-2.7,0-4.9,2.2-4.9,4.9v32.4h23.7V81.3C59.6,78.7,57.5,76.5,54.8,76.5z"/>
	<path class="st1" d="M100.7,98.7H78.3c-2.3,0-4.2-1.9-4.2-4.2V76.5c0-2.3,1.9-4.2,4.2-4.2h22.4c2.3,0,4.2,1.9,4.2,4.2v18.1
		C104.9,96.8,103,98.7,100.7,98.7z"/>
	<g>
		<path class="st2" d="M26.1,63.3c-8.2,0-14.9-6.7-14.9-14.9l0-0.7l9.4-25.5H46l-5.1,27C39.7,54.4,35.2,63.3,26.1,63.3z"/>
		<path class="st3" d="M41.5,25.9L41.5,25.9 M41.5,25.9l-4.2,22.4c0,0-2.5,11.1-11.2,11.1c-6.2,0-11.1-5-11.2-11.1l8.2-22.4H41.5
			 M50.5,18.4h-9H23.2h-5.2l-1.8,4.9L7.9,45.8L7.4,47l0,1.3C7.5,58.6,15.8,67,26.1,67c11.5,0,17-10.7,18.5-17l0-0.1l0-0.1l4.2-22.4
			L50.5,18.4L50.5,18.4z M41.5,18.4L41.5,18.4L41.5,18.4L41.5,18.4z M41.5,33.4L41.5,33.4L41.5,33.4L41.5,33.4z"/>
	</g>
	<g>
		<path class="st2" d="M55.7,63.3c-4.6,0-8.3-1.4-11-4.2c-4.1-4.3-3.9-10.2-3.9-10.9l0-0.2l4.6-25.7h25.2v26.2
			C70.6,54.4,64.4,63.3,55.7,63.3z"/>
		<path class="st3" d="M66.9,25.9c0,0,0,19.8,0,22.5c0,4.3-5,11.1-11.2,11.1c-11.7,0-11.1-11.2-11.1-11.2l4-22.4H66.9 M74.4,18.4
			h-7.5H48.6h-6.3l-1.1,6.2l-4,22.4l-0.1,0.5l0,0.5c0,0.8-0.3,8.2,4.9,13.6c2.3,2.5,6.6,5.4,13.7,5.4c10.3,0,18.6-10.2,18.6-18.6
			V25.9V18.4L74.4,18.4z"/>
	</g>
	<g>
		<path class="st2" d="M115.6,63.3c-9.2,0-13.6-8.8-14.8-14.1l-5.1-27h25.4l9.4,25.5v0.7C130.5,56.6,123.8,63.3,115.6,63.3z"/>
		<path class="st3" d="M118.5,25.9l8.2,22.4c0,6.2-5,11.1-11.2,11.1c-8.6,0-11.2-11.1-11.2-11.1l-4.2-22.4H118.5 M123.8,18.4h-5.2
			h-18.3h-9l1.7,8.9l4.2,22.4l0,0.1l0,0.1c1.4,6.3,6.9,17,18.5,17c10.3,0,18.6-8.4,18.6-18.6l0-1.3l-0.5-1.2l-8.2-22.4L123.8,18.4
			L123.8,18.4z"/>
	</g>
	<g>
		<path class="st2" d="M86,63.3c-8.6,0-14.9-8.9-14.9-14.9V22.2h25.2l4.6,25.7l0,0.2c0,0.7,0.2,6.5-3.9,10.9
			C94.3,61.8,90.6,63.3,86,63.3z"/>
		<path class="st3" d="M93.1,25.9l4,22.4c0,0,0.6,11.2-11.1,11.2c-6.1,0-11.2-6.9-11.2-11.1c0-2.6,0-22.5,0-22.5H93.1 M99.4,18.4
			h-6.3H74.8h-7.5v7.5v22.5C67.3,56.8,75.6,67,86,67c7.1,0,11.4-2.9,13.7-5.4c5.2-5.5,5-12.8,4.9-13.6l0-0.5l-0.1-0.5l-4-22.4
			L99.4,18.4L99.4,18.4z"/>
	</g>
</g>
</svg>
