<?xml version="1.0" encoding="UTF-8"?>
<svg id="Calque_1" xmlns="http://www.w3.org/2000/svg" baseProfile="tiny" version="1.2" viewBox="0 0 141.7 141.7">
  <!-- Generator: Adobe Illustrator 30.2.1, SVG Export Plug-In . SVG Version: 2.1.1 Build 1)  -->
  <path d="M126,44.5l-15.6-22.6c-2.9-4.2-7.6-6.6-12.6-6.6h-53.8c-5.1,0-9.8,2.5-12.6,6.6l-15.6,22.5c-4.9,6.9-4.2,16.4,1.7,22.7,1.7,1.7,3.6,3,5.6,3.9v40.1c0,8.4,6.9,15.3,15.3,15.3h64.6c8.4,0,15.3-6.9,15.3-15.3v-39.8c1.1-.5,2.2-1.1,3.2-1.8,8.1-5.7,10.1-17,4.4-25ZM82.4,117.5h-23.3v-22.4c0-.5.4-.9.9-.9h21.5c.5,0,.9.4.9.9v22.4ZM103.1,117.5h-11.7v-22.4c0-5.5-4.4-9.9-9.9-9.9h-21.5c-5.5,0-9.9,4.4-9.9,9.9v22.4h-11.6c-3.5,0-6.3-2.8-6.3-6.3v-38.7c3.9-.4,7.7-2,10.7-4.8.6-.5,1.5-.5,2.1,0,7,6.7,17.9,6.7,24.8,0,.6-.5,1.5-.5,2.1,0,7,6.7,17.9,6.7,24.8,0,.4-.4,1.1-.5,1.6-.3.1.2.3.3.4.5,3,2.9,6.8,4.5,10.6,4.9v38.4c0,3.5-2.8,6.3-6.3,6.3ZM116.4,62.2c-.8.5-1.6.9-2.4,1.2,0,0,0,0-.1,0-.7,0-1.3.2-1.9.4-2.2.2-4.5-.4-6.4-1.9-.2-.3-.4-.5-.6-.8-4.1-3.9-10.4-3.9-14.5,0-3.5,3.3-8.9,3.3-12.4,0-4.1-3.9-10.5-3.9-14.5,0-3.5,3.3-8.9,3.3-12.4,0-4.1-3.9-10.5-3.9-14.5,0-3.6,3.4-9.3,3.3-12.6-.2-3-3.2-3.3-7.9-.9-11.4l15.6-22.6c1.1-1.7,3-2.7,5.2-2.7h53.8c2.1,0,4,1,5.2,2.8l15.6,22.6c2.8,4,1.9,9.7-2.2,12.5Z" fill="#dadcdd"/>
</svg>