<svg width="24" height="24" viewBox="0 0 24 24" fill="none" xmlns="http://www.w3.org/2000/svg">
<path d="M15 21V16C15 15.7348 14.8946 15.4804 14.7071 15.2929C14.5195 15.1054 14.2652 15 14 15H9.99995C9.73474 15 9.48038 15.1054 9.29285 15.2929C9.10531 15.4804 8.99995 15.7348 8.99995 16V21M17.774 10.31C17.5655 10.1104 17.288 9.99904 16.9995 9.99904C16.7109 9.99904 16.4334 10.1104 16.225 10.31C15.76 10.7535 15.142 11.001 14.4995 11.001C13.8569 11.001 13.2389 10.7535 12.774 10.31C12.5655 10.1107 12.2883 9.99952 12 9.99952C11.7116 9.99952 11.4344 10.1107 11.226 10.31C10.7609 10.7538 10.1428 11.0014 9.49995 11.0014C8.85712 11.0014 8.23899 10.7538 7.77395 10.31C7.56549 10.1104 7.28804 9.99904 6.99945 9.99904C6.71087 9.99904 6.43342 10.1104 6.22495 10.31C5.7758 10.7386 5.18323 10.9848 4.56258 11.0005C3.94193 11.0163 3.33762 10.8006 2.86726 10.3954C2.3969 9.99015 2.09415 9.42439 2.01794 8.80824C1.94173 8.19209 2.0975 7.56962 2.45495 7.062L5.34395 2.878C5.52726 2.60751 5.77405 2.38605 6.06273 2.233C6.35141 2.07994 6.6732 1.99994 6.99995 2H17C17.3257 1.99988 17.6466 2.07934 17.9347 2.23149C18.2228 2.38364 18.4694 2.60386 18.653 2.873L21.548 7.065C21.9055 7.57303 22.0611 8.19597 21.9844 8.81244C21.9077 9.42891 21.6042 9.99475 21.1331 10.3997C20.662 10.8046 20.057 11.0197 19.436 11.0029C18.815 10.9861 18.2225 10.7388 17.774 10.309M3.99995 10.95V19C3.99995 19.5304 4.21067 20.0391 4.58574 20.4142C4.96081 20.7893 5.46952 21 5.99995 21H18C18.5304 21 19.0391 20.7893 19.4142 20.4142C19.7892 20.0391 20 19.5304 20 19V10.95" stroke="white" stroke-width="1.5" stroke-linecap="round" stroke-linejoin="round"/>
</svg>
