<?xml version="1.0" encoding="utf-8"?>
<!-- Generator: Adobe Illustrator 26.5.0, SVG Export Plug-In . SVG Version: 6.00 Build 0)  -->
<svg version="1.1" id="Calque_1" xmlns="http://www.w3.org/2000/svg" xmlns:xlink="http://www.w3.org/1999/xlink" x="0px" y="0px"
	 viewBox="0 0 566.93 184.99" style="enable-background:new 0 0 566.93 184.99;" xml:space="preserve">
<style type="text/css">
	.st0{fill:#25607D;}
	.st1{fill:url(#SVGID_1_);}
	.st2{fill:url(#SVGID_00000170242263071794566610000002784106782103677846_);}
	.st3{fill:url(#SVGID_00000111892290711567876300000017457837384069583529_);}
	.st4{fill:url(#SVGID_00000176730083946059913910000010476892779249271722_);}
	.st5{fill:url(#SVGID_00000047039095705889891590000004494745399548292500_);}
	.st6{fill:url(#SVGID_00000031894945084691374380000005932312589177625014_);}
	.st7{fill:url(#SVGID_00000090290012600220245680000009426531120121430147_);}
	.st8{fill:url(#SVGID_00000043455659969528020890000014229111410302451621_);}
	.st9{fill:url(#SVGID_00000073692377095122589190000017648818652389412741_);}
	.st10{fill:url(#SVGID_00000145059103461528010880000007325372758560391313_);}
	.st11{fill:url(#SVGID_00000083083440711284261290000012621377093284123065_);}
	.st12{fill:url(#SVGID_00000165915739134947468000000010168922351121599620_);}
	.st13{fill:url(#SVGID_00000147187668177847020830000016568212014205651097_);}
	.st14{fill:url(#SVGID_00000050664573364880048140000000453676164337871018_);}
	.st15{fill:url(#SVGID_00000001649931625474257910000002074675119107019455_);}
	.st16{fill:url(#SVGID_00000008836739274372083370000014623274367168035248_);}
	.st17{fill:url(#SVGID_00000172418116613287934540000010781126210695546813_);}
	.st18{fill:url(#SVGID_00000170241141573092090820000017193104037229776029_);}
	.st19{fill:url(#SVGID_00000083058864926263937230000003802474780705522088_);}
	.st20{fill:url(#SVGID_00000046302440619917663660000008176881767225586315_);}
	.st21{fill:url(#SVGID_00000035526180329365862430000016009566551345285506_);}
	.st22{fill:url(#SVGID_00000007412645631766406500000004437231306528981682_);}
	.st23{fill:url(#SVGID_00000178184027427187074500000016587633513610794683_);}
	.st24{fill:url(#SVGID_00000173144872874913073770000013225023407988906883_);}
	.st25{fill:url(#SVGID_00000029748979391956417010000006449656977366709658_);}
	.st26{fill:url(#SVGID_00000034066469143877401610000012474303187799797947_);}
	.st27{fill:url(#SVGID_00000063612654341538647340000013179601987298598535_);}
	.st28{fill:url(#SVGID_00000128448656176733194310000010756840648395548835_);}
	.st29{fill:url(#SVGID_00000124161855174587542940000003333048426102646946_);}
	.st30{fill:url(#SVGID_00000102545108433791055560000010879174475239351436_);}
	.st31{fill:url(#SVGID_00000061432628029494520770000014612978878284368779_);}
	.st32{fill:url(#SVGID_00000077288017628396347610000017526329378535258009_);}
	.st33{fill:url(#SVGID_00000005960670105907685580000010604716481155484340_);}
	.st34{fill:url(#SVGID_00000151537123297136791040000003742508243889542555_);}
	.st35{fill:url(#SVGID_00000109726310909939010000000001463627181454801293_);}
	.st36{fill:url(#SVGID_00000101823828150127814230000008057390533754407837_);}
	.st37{fill:#FFFFFF;}
	.st38{fill:#8DBA38;}
</style>
<g>
	<rect x="-3.58" y="-3.78" class="st0" width="574.1" height="192.55"/>
	<g>
		<g>
			<g>
				<g>
					<linearGradient id="SVGID_1_" gradientUnits="userSpaceOnUse" x1="48.3017" y1="82.198" x2="135.0866" y2="117.9329">
						<stop  offset="0" style="stop-color:#587641"/>
						<stop  offset="0.4064" style="stop-color:#8DBA38"/>
						<stop  offset="1" style="stop-color:#17A4CC"/>
					</linearGradient>
					<circle class="st1" cx="54.71" cy="84.84" r="3.18"/>
					
						<linearGradient id="SVGID_00000003079303463853478600000015565319857723637659_" gradientUnits="userSpaceOnUse" x1="47.9569" y1="67.8657" x2="134.663" y2="103.5682" gradientTransform="matrix(0.9518 0.0232 0.0232 0.9888 9.3658 -4.5135)">
						<stop  offset="0" style="stop-color:#587641"/>
						<stop  offset="0.4064" style="stop-color:#8DBA38"/>
						<stop  offset="1" style="stop-color:#17A4CC"/>
					</linearGradient>
					<path style="fill:url(#SVGID_00000003079303463853478600000015565319857723637659_);" d="M93.99,63.62L60.92,79.56
						c-1.01,0.48-1.43,1.69-0.94,2.7L60,82.32c0.48,1.01,1.69,1.43,2.7,0.94l33.07-15.94c1.01-0.48,1.43-1.69,0.94-2.7l-0.03-0.06
						C96.2,63.56,95,63.14,93.99,63.62z"/>
					
						<linearGradient id="SVGID_00000130632816801398592180000008905388986785352890_" gradientUnits="userSpaceOnUse" x1="64.6097" y1="42.5929" x2="151.3945" y2="78.3278">
						<stop  offset="0" style="stop-color:#587641"/>
						<stop  offset="0.4064" style="stop-color:#8DBA38"/>
						<stop  offset="1" style="stop-color:#17A4CC"/>
					</linearGradient>
					<path style="fill:url(#SVGID_00000130632816801398592180000008905388986785352890_);" d="M111.2,55.33l-11.11,5.35
						c-1.02,0.49-1.45,1.72-0.96,2.74l0,0c0.49,1.02,1.72,1.45,2.74,0.96l11.11-5.35c1.02-0.49,1.45-1.72,0.96-2.74v0
						C113.45,55.27,112.22,54.84,111.2,55.33z"/>
				</g>
				<g>
					
						<linearGradient id="SVGID_00000168116670924648661610000018141966683107131297_" gradientUnits="userSpaceOnUse" x1="58.9417" y1="56.3581" x2="145.7265" y2="92.093">
						<stop  offset="0" style="stop-color:#587641"/>
						<stop  offset="0.4064" style="stop-color:#8DBA38"/>
						<stop  offset="1" style="stop-color:#17A4CC"/>
					</linearGradient>
					<circle style="fill:url(#SVGID_00000168116670924648661610000018141966683107131297_);" cx="79.11" cy="64.66" r="3.18"/>
					
						<linearGradient id="SVGID_00000136387368063032935490000015805588254276197035_" gradientUnits="userSpaceOnUse" x1="45.448" y1="69.8011" x2="131.6695" y2="105.3041" gradientTransform="matrix(0.9344 0.0316 0.0316 0.9848 10.9055 -5.2555)">
						<stop  offset="0" style="stop-color:#587641"/>
						<stop  offset="0.4064" style="stop-color:#8DBA38"/>
						<stop  offset="1" style="stop-color:#17A4CC"/>
					</linearGradient>
					<path style="fill:url(#SVGID_00000136387368063032935490000015805588254276197035_);" d="M63.61,74.41l9.22-4.44
						c1.02-0.49,1.45-1.72,0.96-2.74h0c-0.49-1.02-1.72-1.45-2.74-0.96l-9.22,4.44c-1.02,0.49-1.45,1.72-0.96,2.74v0
						C61.36,74.48,62.59,74.91,63.61,74.41z"/>
					
						<linearGradient id="SVGID_00000173880317888620079200000011240485680121822881_" gradientUnits="userSpaceOnUse" x1="52.8214" y1="52.456" x2="139.156" y2="88.0055" gradientTransform="matrix(0.9472 0.0255 0.0255 0.9877 12.9419 -6.2369)">
						<stop  offset="0" style="stop-color:#587641"/>
						<stop  offset="0.4064" style="stop-color:#8DBA38"/>
						<stop  offset="1" style="stop-color:#17A4CC"/>
					</linearGradient>
					<path style="fill:url(#SVGID_00000173880317888620079200000011240485680121822881_);" d="M87.14,63.07l9.44-4.55
						c1.02-0.49,1.45-1.72,0.96-2.74v0c-0.49-1.02-1.72-1.45-2.74-0.96l-9.44,4.55c-1.02,0.49-1.45,1.72-0.96,2.74l0,0
						C84.89,63.14,86.11,63.57,87.14,63.07z"/>
				</g>
				<g>
					<g>
						
							<linearGradient id="SVGID_00000136373939147094025920000003016427304575410319_" gradientUnits="userSpaceOnUse" x1="59.9103" y1="54.0055" x2="146.6952" y2="89.7405">
							<stop  offset="0" style="stop-color:#587641"/>
							<stop  offset="0.4064" style="stop-color:#8DBA38"/>
							<stop  offset="1" style="stop-color:#17A4CC"/>
						</linearGradient>
						<circle style="fill:url(#SVGID_00000136373939147094025920000003016427304575410319_);" cx="101.02" cy="70.93" r="3.18"/>
						
							<linearGradient id="SVGID_00000122717021559241810870000011418843549799200188_" gradientUnits="userSpaceOnUse" x1="51.4938" y1="74.4458" x2="138.2787" y2="110.1807">
							<stop  offset="0" style="stop-color:#587641"/>
							<stop  offset="0.4064" style="stop-color:#8DBA38"/>
							<stop  offset="1" style="stop-color:#17A4CC"/>
						</linearGradient>
						<circle style="fill:url(#SVGID_00000122717021559241810870000011418843549799200188_);" cx="74.27" cy="83.82" r="3.18"/>
						
							<linearGradient id="SVGID_00000142882915053366440360000015083487668317591712_" gradientUnits="userSpaceOnUse" x1="35.0703" y1="74.5357" x2="121.0931" y2="109.9569" gradientTransform="matrix(0.8879 0.054 0.054 0.974 23.7657 -11.4531)">
							<stop  offset="0" style="stop-color:#587641"/>
							<stop  offset="0.4064" style="stop-color:#8DBA38"/>
							<stop  offset="1" style="stop-color:#17A4CC"/>
						</linearGradient>
						<path style="fill:url(#SVGID_00000142882915053366440360000015083487668317591712_);" d="M82.29,82.24l12.47-6.01
							c1.02-0.49,1.45-1.72,0.96-2.74v0c-0.49-1.02-1.72-1.45-2.74-0.96L80.5,78.54c-1.02,0.49-1.45,1.72-0.96,2.74l0,0
							C80.04,82.31,81.26,82.74,82.29,82.24z"/>
					</g>
					
						<linearGradient id="SVGID_00000079469846498802651400000010477755602584417430_" gradientUnits="userSpaceOnUse" x1="41.4276" y1="88.8042" x2="127.989" y2="124.4471" gradientTransform="matrix(0.9594 0.0196 0.0196 0.9906 5.002 -2.4105)">
						<stop  offset="0" style="stop-color:#587641"/>
						<stop  offset="0.4064" style="stop-color:#8DBA38"/>
						<stop  offset="1" style="stop-color:#17A4CC"/>
					</linearGradient>
					<path style="fill:url(#SVGID_00000079469846498802651400000010477755602584417430_);" d="M66.22,85.42l-17.78,8.57
						c-1.02,0.49-1.45,1.72-0.96,2.74v0c0.49,1.02,1.72,1.45,2.74,0.96l17.78-8.57c1.02-0.49,1.45-1.72,0.96-2.74l0,0
						C68.48,85.36,67.25,84.93,66.22,85.42z"/>
					
						<linearGradient id="SVGID_00000132088003599960941010000007531804472910533553_" gradientUnits="userSpaceOnUse" x1="49.8937" y1="51.4754" x2="136.1861" y2="87.0076" gradientTransform="matrix(0.9318 0.0329 0.0329 0.9842 19.3335 -9.3171)">
						<stop  offset="0" style="stop-color:#587641"/>
						<stop  offset="0.4064" style="stop-color:#8DBA38"/>
						<stop  offset="1" style="stop-color:#17A4CC"/>
					</linearGradient>
					<path style="fill:url(#SVGID_00000132088003599960941010000007531804472910533553_);" d="M119.24,59.87l-11.95,5.76
						c-1.02,0.49-1.45,1.72-0.96,2.74l0,0c0.49,1.02,1.72,1.45,2.74,0.96l11.95-5.76c1.02-0.49,1.45-1.72,0.96-2.74v0
						C121.5,59.8,120.27,59.38,119.24,59.87z"/>
				</g>
				<g>
					<g>
						
							<linearGradient id="SVGID_00000151539828182237466710000000966979299120315286_" gradientUnits="userSpaceOnUse" x1="52.8688" y1="71.1066" x2="139.6537" y2="106.8415">
							<stop  offset="0" style="stop-color:#587641"/>
							<stop  offset="0.4064" style="stop-color:#8DBA38"/>
							<stop  offset="1" style="stop-color:#17A4CC"/>
						</linearGradient>
						<circle style="fill:url(#SVGID_00000151539828182237466710000000966979299120315286_);" cx="88.06" cy="85.6" r="3.18"/>
						
							<linearGradient id="SVGID_00000074430855808143433900000001844110940368500129_" gradientUnits="userSpaceOnUse" x1="65.578" y1="40.2412" x2="152.3629" y2="75.9762">
							<stop  offset="0" style="stop-color:#587641"/>
							<stop  offset="0.4064" style="stop-color:#8DBA38"/>
							<stop  offset="1" style="stop-color:#17A4CC"/>
						</linearGradient>
						<circle style="fill:url(#SVGID_00000074430855808143433900000001844110940368500129_);" cx="128.45" cy="66.13" r="3.18"/>
						
							<linearGradient id="SVGID_00000167360242232480854070000007339820839884796588_" gradientUnits="userSpaceOnUse" x1="45.0881" y1="62.559" x2="131.725" y2="98.233" gradientTransform="matrix(0.9261 0.0356 0.0356 0.9828 18.2051 -8.7733)">
							<stop  offset="0" style="stop-color:#587641"/>
							<stop  offset="0.4064" style="stop-color:#8DBA38"/>
							<stop  offset="1" style="stop-color:#17A4CC"/>
						</linearGradient>
						<path style="fill:url(#SVGID_00000167360242232480854070000007339820839884796588_);" d="M120.44,67.71L94.25,80.33
							c-1,0.48-1.42,1.68-0.94,2.68l0.04,0.09c0.48,1,1.68,1.42,2.68,0.94l26.19-12.62c1-0.48,1.42-1.68,0.94-2.68l-0.04-0.09
							C122.64,67.64,121.44,67.23,120.44,67.71z"/>
						
							<linearGradient id="SVGID_00000003823491426268258960000010934913865174116006_" gradientUnits="userSpaceOnUse" x1="26.6837" y1="92.3301" x2="112.6171" y2="127.7145" gradientTransform="matrix(0.8717 0.0618 0.0618 0.9702 22.6801 -10.9299)">
							<stop  offset="0" style="stop-color:#587641"/>
							<stop  offset="0.4064" style="stop-color:#8DBA38"/>
							<stop  offset="1" style="stop-color:#17A4CC"/>
						</linearGradient>
						<path style="fill:url(#SVGID_00000003823491426268258960000010934913865174116006_);" d="M80.02,87.18l-12.67,6.11
							c-1.02,0.49-1.45,1.72-0.96,2.74l0,0c0.49,1.02,1.72,1.45,2.74,0.96l12.67-6.11c1.02-0.49,1.45-1.72,0.96-2.74l0,0
							C82.28,87.12,81.05,86.69,80.02,87.18z"/>
						
							<linearGradient id="SVGID_00000062181627853483027620000012089568753234095781_" gradientUnits="userSpaceOnUse" x1="42.6685" y1="95.8788" x2="129.4533" y2="131.6137">
							<stop  offset="0" style="stop-color:#587641"/>
							<stop  offset="0.4064" style="stop-color:#8DBA38"/>
							<stop  offset="1" style="stop-color:#17A4CC"/>
						</linearGradient>
						<path style="fill:url(#SVGID_00000062181627853483027620000012089568753234095781_);" d="M61.2,96.26l-12.91,6.22
							c-1.02,0.49-1.45,1.72-0.96,2.74h0c0.49,1.02,1.72,1.45,2.74,0.96l12.91-6.22c1.02-0.49,1.45-1.72,0.96-2.74v0
							C63.45,96.19,62.22,95.76,61.2,96.26z"/>
					</g>
				</g>
				<g>
					<g>
						
							<linearGradient id="SVGID_00000024700844823805867180000017500336622638391684_" gradientUnits="userSpaceOnUse" x1="56.1282" y1="63.1909" x2="142.913" y2="98.9258">
							<stop  offset="0" style="stop-color:#587641"/>
							<stop  offset="0.4064" style="stop-color:#8DBA38"/>
							<stop  offset="1" style="stop-color:#17A4CC"/>
						</linearGradient>
						<circle style="fill:url(#SVGID_00000024700844823805867180000017500336622638391684_);" cx="107.83" cy="84.48" r="3.18"/>
						
							<linearGradient id="SVGID_00000035506725237858131970000014846540133855615880_" gradientUnits="userSpaceOnUse" x1="47.7116" y1="83.6311" x2="134.4965" y2="119.3661">
							<stop  offset="0" style="stop-color:#587641"/>
							<stop  offset="0.4064" style="stop-color:#8DBA38"/>
							<stop  offset="1" style="stop-color:#17A4CC"/>
						</linearGradient>
						<circle style="fill:url(#SVGID_00000035506725237858131970000014846540133855615880_);" cx="81.08" cy="97.37" r="3.18"/>
						
							<linearGradient id="SVGID_00000109006282166688256180000000643510805462289849_" gradientUnits="userSpaceOnUse" x1="31.1726" y1="83.8624" x2="117.1896" y2="119.2812" gradientTransform="matrix(0.8871 0.0544 0.0544 0.9738 24.013 -11.5723)">
							<stop  offset="0" style="stop-color:#587641"/>
							<stop  offset="0.4064" style="stop-color:#8DBA38"/>
							<stop  offset="1" style="stop-color:#17A4CC"/>
						</linearGradient>
						<path style="fill:url(#SVGID_00000109006282166688256180000000643510805462289849_);" d="M89.12,95.78l12.45-6
							c1.02-0.49,1.45-1.72,0.96-2.74l0,0c-0.49-1.02-1.72-1.45-2.74-0.96l-12.45,6c-1.02,0.49-1.45,1.72-0.96,2.74l0,0
							C86.87,95.84,88.1,96.27,89.12,95.78z"/>
					</g>
					
						<linearGradient id="SVGID_00000031200932360045860910000002388603008966179990_" gradientUnits="userSpaceOnUse" x1="38.0085" y1="99.0893" x2="124.6336" y2="134.7584" gradientTransform="matrix(0.966 0.0164 0.0164 0.9921 3.9104 -1.8845)">
						<stop  offset="0" style="stop-color:#587641"/>
						<stop  offset="0.4064" style="stop-color:#8DBA38"/>
						<stop  offset="1" style="stop-color:#17A4CC"/>
					</linearGradient>
					<path style="fill:url(#SVGID_00000031200932360045860910000002388603008966179990_);" d="M73.04,98.96l-21.92,10.57
						c-1.02,0.49-1.45,1.72-0.96,2.74l0,0c0.49,1.02,1.72,1.45,2.74,0.96l21.92-10.57c1.02-0.49,1.45-1.72,0.96-2.74v0
						C75.3,98.9,74.07,98.47,73.04,98.96z"/>
					
						<linearGradient id="SVGID_00000031905232198509626360000018431206077483520940_" gradientUnits="userSpaceOnUse" x1="52.0378" y1="54.7833" x2="138.6073" y2="90.4295" gradientTransform="matrix(0.9544 0.022 0.022 0.9894 13.8859 -6.6918)">
						<stop  offset="0" style="stop-color:#587641"/>
						<stop  offset="0.4064" style="stop-color:#8DBA38"/>
						<stop  offset="1" style="stop-color:#17A4CC"/>
					</linearGradient>
					<path style="fill:url(#SVGID_00000031905232198509626360000018431206077483520940_);" d="M135.64,68.8l-21.54,10.38
						c-1.02,0.49-1.45,1.72-0.96,2.74l0,0c0.49,1.02,1.72,1.45,2.74,0.96l21.54-10.38c1.02-0.49,1.45-1.72,0.96-2.74l0,0
						C137.89,68.74,136.66,68.31,135.64,68.8z"/>
				</g>
				<g>
					<g>
						
							<linearGradient id="SVGID_00000150806635283029877630000002796170353053329343_" gradientUnits="userSpaceOnUse" x1="59.5547" y1="54.8693" x2="146.3396" y2="90.6042">
							<stop  offset="0" style="stop-color:#587641"/>
							<stop  offset="0.4064" style="stop-color:#8DBA38"/>
							<stop  offset="1" style="stop-color:#17A4CC"/>
						</linearGradient>
						<circle style="fill:url(#SVGID_00000150806635283029877630000002796170353053329343_);" cx="128.14" cy="83.11" r="3.18"/>
						
							<linearGradient id="SVGID_00000121249391987316141170000012447034183382415542_" gradientUnits="userSpaceOnUse" x1="51.1381" y1="75.3095" x2="137.923" y2="111.0445">
							<stop  offset="0" style="stop-color:#587641"/>
							<stop  offset="0.4064" style="stop-color:#8DBA38"/>
							<stop  offset="1" style="stop-color:#17A4CC"/>
						</linearGradient>
						<circle style="fill:url(#SVGID_00000121249391987316141170000012447034183382415542_);" cx="101.39" cy="96" r="3.18"/>
						
							<linearGradient id="SVGID_00000168828565220627656220000016626207674191328446_" gradientUnits="userSpaceOnUse" x1="32.3116" y1="76.784" x2="118.3166" y2="112.1979" gradientTransform="matrix(0.8854 0.0552 0.0552 0.9734 28.5591 -13.7631)">
							<stop  offset="0" style="stop-color:#587641"/>
							<stop  offset="0.4064" style="stop-color:#8DBA38"/>
							<stop  offset="1" style="stop-color:#17A4CC"/>
						</linearGradient>
						<path style="fill:url(#SVGID_00000168828565220627656220000016626207674191328446_);" d="M109.45,94.4l12.41-5.98
							c1.02-0.49,1.45-1.72,0.96-2.74v0c-0.49-1.02-1.72-1.45-2.74-0.96l-12.41,5.98c-1.02,0.49-1.45,1.72-0.96,2.74l0,0
							C107.2,94.46,108.43,94.89,109.45,94.4z"/>
						
							<linearGradient id="SVGID_00000065795027278620449780000000746255234578900099_" gradientUnits="userSpaceOnUse" x1="36.421" y1="61.8818" x2="121.7362" y2="97.0116" gradientTransform="matrix(0.8837 0.0561 0.0561 0.973 35.358 -17.0396)">
							<stop  offset="0" style="stop-color:#587641"/>
							<stop  offset="0.4064" style="stop-color:#8DBA38"/>
							<stop  offset="1" style="stop-color:#17A4CC"/>
						</linearGradient>
						<path style="fill:url(#SVGID_00000065795027278620449780000000746255234578900099_);" d="M136.17,81.52l4.24-2.04
							c1.02-0.49,1.45-1.72,0.96-2.74v0c-0.49-1.02-1.72-1.45-2.74-0.96l-4.24,2.04c-1.02,0.49-1.45,1.72-0.96,2.74l0,0
							C133.92,81.58,135.15,82.01,136.17,81.52z"/>
					</g>
					
						<linearGradient id="SVGID_00000029017942896109859250000015285694419551641001_" gradientUnits="userSpaceOnUse" x1="40.6171" y1="95.1436" x2="127.3261" y2="130.8473" gradientTransform="matrix(0.9764 0.0114 0.0114 0.9945 2.9161 -1.4053)">
						<stop  offset="0" style="stop-color:#587641"/>
						<stop  offset="0.4064" style="stop-color:#8DBA38"/>
						<stop  offset="1" style="stop-color:#17A4CC"/>
					</linearGradient>
					<path style="fill:url(#SVGID_00000029017942896109859250000015285694419551641001_);" d="M93.32,97.61L58.4,114.44
						c-1.02,0.49-1.45,1.72-0.96,2.74l0,0c0.49,1.02,1.72,1.45,2.74,0.96l34.92-16.83c1.02-0.49,1.45-1.72,0.96-2.74l0,0
						C95.57,97.55,94.34,97.12,93.32,97.61z"/>
				</g>
				<g>
					<g>
						
							<linearGradient id="SVGID_00000121993660213125767420000017567580708530603687_" gradientUnits="userSpaceOnUse" x1="52.2254" y1="72.6691" x2="139.0103" y2="108.404">
							<stop  offset="0" style="stop-color:#587641"/>
							<stop  offset="0.4064" style="stop-color:#8DBA38"/>
							<stop  offset="1" style="stop-color:#17A4CC"/>
						</linearGradient>
						<circle style="fill:url(#SVGID_00000121993660213125767420000017567580708530603687_);" cx="114.26" cy="98.21" r="3.18"/>
						
							<linearGradient id="SVGID_00000177480212266493278980000001771341138412574354_" gradientUnits="userSpaceOnUse" x1="38.1657" y1="106.8142" x2="124.9506" y2="142.5492">
							<stop  offset="0" style="stop-color:#587641"/>
							<stop  offset="0.4064" style="stop-color:#8DBA38"/>
							<stop  offset="1" style="stop-color:#17A4CC"/>
						</linearGradient>
						<circle style="fill:url(#SVGID_00000177480212266493278980000001771341138412574354_);" cx="69.58" cy="119.75" r="3.18"/>
						
							<linearGradient id="SVGID_00000171700190641519878520000013537866880336848062_" gradientUnits="userSpaceOnUse" x1="35.2027" y1="94.5243" x2="121.7648" y2="130.1675" gradientTransform="matrix(0.9367 0.0305 0.0305 0.9853 11.6482 -5.6135)">
							<stop  offset="0" style="stop-color:#587641"/>
							<stop  offset="0.4064" style="stop-color:#8DBA38"/>
							<stop  offset="1" style="stop-color:#17A4CC"/>
						</linearGradient>
						<path style="fill:url(#SVGID_00000171700190641519878520000013537866880336848062_);" d="M77.61,118.16l30.35-14.62
							c1.02-0.49,1.45-1.72,0.96-2.74l0,0c-0.49-1.02-1.72-1.45-2.74-0.96l-30.35,14.62c-1.02,0.49-1.45,1.72-0.96,2.74l0,0
							C75.36,118.22,76.59,118.65,77.61,118.16z"/>
					</g>
					
						<linearGradient id="SVGID_00000067213442025253835280000013947903721840801714_" gradientUnits="userSpaceOnUse" x1="45.4004" y1="67.203" x2="131.8637" y2="102.8056" gradientTransform="matrix(0.9441 0.0269 0.0269 0.987 16.4079 -7.9072)">
						<stop  offset="0" style="stop-color:#587641"/>
						<stop  offset="0.4064" style="stop-color:#8DBA38"/>
						<stop  offset="1" style="stop-color:#17A4CC"/>
					</linearGradient>
					<path style="fill:url(#SVGID_00000067213442025253835280000013947903721840801714_);" d="M137.08,84.93l-16.56,7.98
						c-1.02,0.49-1.45,1.72-0.96,2.74l0,0c0.49,1.02,1.72,1.45,2.74,0.96l16.56-7.98c1.02-0.49,1.45-1.72,0.96-2.74l0,0
						C139.34,84.87,138.11,84.44,137.08,84.93z"/>
				</g>
				<g>
					<g>
						
							<linearGradient id="SVGID_00000063615738819172600590000000599889251934795197_" gradientUnits="userSpaceOnUse" x1="43.3269" y1="94.2798" x2="130.1118" y2="130.0148">
							<stop  offset="0" style="stop-color:#587641"/>
							<stop  offset="0.4064" style="stop-color:#8DBA38"/>
							<stop  offset="1" style="stop-color:#17A4CC"/>
						</linearGradient>
						<circle style="fill:url(#SVGID_00000063615738819172600590000000599889251934795197_);" cx="95.4" cy="115.72" r="3.18"/>
						
							<linearGradient id="SVGID_00000173119063392558462900000005550190022040642177_" gradientUnits="userSpaceOnUse" x1="44.5673" y1="81.3322" x2="131.2447" y2="117.0229" gradientTransform="matrix(0.9727 0.0132 0.0132 0.9937 7.355 -3.5445)">
							<stop  offset="0" style="stop-color:#587641"/>
							<stop  offset="0.4064" style="stop-color:#8DBA38"/>
							<stop  offset="1" style="stop-color:#17A4CC"/>
						</linearGradient>
						<path style="fill:url(#SVGID_00000173119063392558462900000005550190022040642177_);" d="M129.03,97.23l-27.41,13.21
							c-1.02,0.49-1.45,1.72-0.96,2.74l0,0c0.49,1.02,1.72,1.45,2.74,0.96l27.41-13.21c1.02-0.49,1.45-1.72,0.96-2.74h0
							C131.28,97.16,130.05,96.74,129.03,97.23z"/>
					</g>
				</g>
				<g>
					<g>
						
							<linearGradient id="SVGID_00000003806415561570271540000016397088162840282770_" gradientUnits="userSpaceOnUse" x1="50.5413" y1="76.759" x2="137.3262" y2="112.4939">
							<stop  offset="0" style="stop-color:#587641"/>
							<stop  offset="0.4064" style="stop-color:#8DBA38"/>
							<stop  offset="1" style="stop-color:#17A4CC"/>
						</linearGradient>
						<circle style="fill:url(#SVGID_00000003806415561570271540000016397088162840282770_);" cx="127.74" cy="108.55" r="3.18"/>
					</g>
					
						<linearGradient id="SVGID_00000021816858628998586760000006129387010339921560_" gradientUnits="userSpaceOnUse" x1="38.4172" y1="90.9745" x2="124.8722" y2="126.5736" gradientTransform="matrix(0.951 0.0236 0.0236 0.9886 10.0469 -4.8418)">
						<stop  offset="0" style="stop-color:#587641"/>
						<stop  offset="0.4064" style="stop-color:#8DBA38"/>
						<stop  offset="1" style="stop-color:#17A4CC"/>
					</linearGradient>
					<path style="fill:url(#SVGID_00000021816858628998586760000006129387010339921560_);" d="M119.73,110.13l-13.44,6.48
						c-1.02,0.49-1.45,1.72-0.96,2.74v0c0.49,1.02,1.72,1.45,2.74,0.96l13.44-6.48c1.02-0.49,1.45-1.72,0.96-2.74l0,0
						C121.98,110.07,120.75,109.64,119.73,110.13z"/>
				</g>
				<g>
					<g>
						
							<linearGradient id="SVGID_00000057827595379418084130000002917822576315512220_" gradientUnits="userSpaceOnUse" x1="45.5774" y1="88.8145" x2="132.3622" y2="124.5494">
							<stop  offset="0" style="stop-color:#587641"/>
							<stop  offset="0.4064" style="stop-color:#8DBA38"/>
							<stop  offset="1" style="stop-color:#17A4CC"/>
						</linearGradient>
						<path style="fill:url(#SVGID_00000057827595379418084130000002917822576315512220_);" d="M116.32,124.75l11.91-5.74
							c0.92-0.44,1.31-1.55,0.87-2.47l-0.18-0.36c-0.44-0.92-1.55-1.31-2.47-0.87l-11.91,5.74c-0.92,0.44-1.31,1.55-0.87,2.47
							l0.18,0.36C114.29,124.81,115.4,125.19,116.32,124.75z"/>
					</g>
				</g>
				<g>
					<g>
						
							<linearGradient id="SVGID_00000018199235114138633760000011514174834828611497_" gradientUnits="userSpaceOnUse" x1="43.4311" y1="94.0267" x2="130.216" y2="129.7617">
							<stop  offset="0" style="stop-color:#587641"/>
							<stop  offset="0.4064" style="stop-color:#8DBA38"/>
							<stop  offset="1" style="stop-color:#17A4CC"/>
						</linearGradient>
						<circle style="fill:url(#SVGID_00000018199235114138633760000011514174834828611497_);" cx="123.98" cy="127.19" r="3.18"/>
					</g>
				</g>
			</g>
		</g>
		<g>
			<g>
				<g>
					<g>
						<path class="st37" d="M215.86,73.23c-6.47,0-12.51,3.73-15.46,9.31c-2.77-5.65-8.61-9.31-15.21-9.31
							c-10.11,0-18.65,8.34-18.65,18.21v20.95c0,1.87,1.51,3.4,3.37,3.4c1.77,0,3.26-1.56,3.26-3.4V91.55
							c0-6.43,5.51-11.86,12.02-11.86c6.46,0,11.92,5.23,11.92,11.42v34.41c0,1.87,1.51,3.4,3.37,3.4c1.77,0,3.26-1.56,3.26-3.4
							V91.55c0-6.43,5.51-11.86,12.02-11.86c6.52,0,12.02,5.23,12.02,11.42v34.41c0,1.87,1.51,3.4,3.37,3.4
							c1.77,0,3.26-1.56,3.26-3.4l0-34.44C234.05,81.07,225.91,73.23,215.86,73.23z"/>
						<path class="st37" d="M352.82,54.68c-1.9,0-3.33,1.49-3.33,3.47v24.67c-5.16-5.99-12.74-9.49-20.81-9.49
							c-15.14,0-27.46,12.42-27.46,27.68c0,15.39,12.32,27.91,27.46,27.91c15.2,0,27.57-12.52,27.57-27.91V58.15
							C356.26,56.24,354.71,54.68,352.82,54.68z M328.91,122.21c-11.53,0-20.92-9.51-20.92-21.19c0-11.82,9.19-21.08,20.92-21.08
							c10.34,0,19.18,7.74,20.58,18.02c0.01,0.18,0.03,0.36,0.06,0.55c0.02,0.15,0.05,0.31,0.05,0.49l0.01,0.16
							c0.1,0.59,0.1,1.21,0.1,1.85C349.71,112.7,340.38,122.21,328.91,122.21z"/>
						<path class="st37" d="M407.25,86.22c-1.98,0-3.37,1.35-3.37,3.29v13.31c0,11.57-7.13,19.65-17.34,19.65
							c-10.01,0-17.55-8.31-17.55-19.32V76.52c0-1.81-1.46-3.29-3.26-3.29c-1.89,0-3.37,1.44-3.37,3.29v26.53
							c0,14.83,10.39,26.01,24.18,26.01c13.66,0,23.96-11.18,23.96-26.01V89.51C410.5,87.69,409.04,86.22,407.25,86.22z"/>
						<path class="st37" d="M435.74,122.28l-0.16-0.01c-7.75,0-12.02-5.03-12.02-14.16V58.02c0-1.9-1.43-3.4-3.26-3.4
							c-1.89,0-3.37,1.49-3.37,3.4v50.96c0,12.44,6.65,19.86,17.78,19.86c2.7,0,3.91-1.6,3.91-3.18
							C438.62,124.34,438.12,122.68,435.74,122.28z"/>
						<path class="st37" d="M462.61,122.29l-0.16-0.01c-7.75,0-12.02-5.03-12.02-14.16V58.02c0-1.9-1.43-3.4-3.26-3.4
							c-1.89,0-3.37,1.49-3.37,3.4v50.96c0,12.44,6.65,19.86,17.78,19.86c2.7,0,3.91-1.6,3.91-3.18
							C465.49,124.35,464.99,122.69,462.61,122.29z"/>
						<path class="st37" d="M294.09,104.51c-1.49,0-2.75,0.95-3.24,2.27l-0.01,0c-2.5,8.79-10.58,15.23-20.18,15.23
							c-11.59,0-20.98-9.39-20.98-20.98c0-11.59,9.39-20.98,20.98-20.98c6.13,0,11.65,2.63,15.49,6.83l-14.44,6.95
							c-1.57,0.76-2.24,2.65-1.47,4.23c0.76,1.57,2.65,2.24,4.23,1.47l14.19-6.83l1.04-0.5l3.2-1.54l0.2-0.1
							c1-0.49,1.69-1.51,1.69-2.7c0-0.51-0.14-0.98-0.36-1.39c-0.08-0.12-0.15-0.25-0.23-0.38c-0.51-0.8-1.04-1.57-1.63-2.31
							c-5.11-6.48-13.02-10.64-21.91-10.64c-15.41,0-27.9,12.49-27.9,27.9c0,15.41,12.49,27.9,27.9,27.9
							c12.64,0,23.32-8.41,26.74-19.95c0,0,0.15-0.65,0.15-1C297.56,106.06,296.01,104.51,294.09,104.51z"/>
					</g>
					<path class="st37" d="M492.58,73.63c-15.07,0-27.33,12.41-27.33,27.67s12.06,27.67,26.89,27.67c8.31,0,15.78-3.59,20.93-9.96
						v3.24c0,2,1.45,3.56,3.31,3.56c2.02,0,3.42-1.47,3.42-3.56V101.3C519.8,86.04,507.59,73.63,492.58,73.63z M513.29,101.3v1.24
						c-0.12,0.59-0.22,1.14-0.22,1.55v0.26c-1.56,10.4-10.17,17.93-20.49,17.93c-11.48,0-20.82-9.41-20.82-20.98
						c0-11.63,9.34-21.09,20.82-21.09C504.19,80.2,513.29,89.47,513.29,101.3z"/>
				</g>
				<circle class="st38" cx="263.08" cy="101.53" r="4.39"/>
				<circle class="st38" cx="169.86" cy="124.66" r="4.39"/>
			</g>
		</g>
	</g>
</g>
</svg>
