<svg version="1.1" id="Calque_1" xmlns="http://www.w3.org/2000/svg" xmlns:xlink="http://www.w3.org/1999/xlink" x="0px" y="0px"
	 viewBox="0 0 141.7 141.7" style="enable-background:new 0 0 141.7 141.7;" xml:space="preserve">
<path d="M80.5864 114V81.1712H113C115.734 81.1712 117.95 78.955 117.95 76.2212V66.7788C117.95 64.045 115.734 61.8288 113 61.8288H80.5864V29C80.5864 26.2662 78.3702 24.05 75.6364 24.05H66.3636C63.6298 24.05 61.4136 26.2662 61.4136 29V61.8288H29C26.2662 61.8288 24.05 64.045 24.05 66.7788V76.2212C24.05 78.955 26.2662 81.1712 29 81.1712H61.4136V114C61.4136 116.734 63.6298 118.95 66.3636 118.95H75.6364C78.3702 118.95 80.5864 116.734 80.5864 114Z" fill="#8BB53C" stroke="#25607E" stroke-width="3.9"/>
</svg>
