<?xml version="1.0" encoding="UTF-8"?>
<svg id="Calque_1" xmlns="http://www.w3.org/2000/svg" baseProfile="tiny" version="1.2" viewBox="0 0 141.7 141.7">
  <!-- Generator: Adobe Illustrator 30.2.0, SVG Export Plug-In . SVG Version: 2.1.1 Build 105)  -->
  <path d="M76.3,130.7h-11c-8.8,0-16-7.2-16-16v-21.9c0-.3,0-.4,0-.5,0,0-.1,0-.4,0h-21.9c-8.8,0-16-7.2-16-16v-11c0-8.8,7.2-16,16-16h21.9c.3,0,.4,0,.5,0,0,0,0-.1,0-.4v-21.9c0-8.8,7.2-16,16-16h11c8.8,0,16,7.2,16,16v21.9c0,.3,0,.4,0,.5,0,0,.1,0,.4,0h21.9c8.8,0,16,7.2,16,16v11c0,8.8-7.2,16-16,16h-21.9c-.3,0-.4,0-.5,0,0,0,0,.1,0,.4v21.9c0,8.8-7.2,16-16,16ZM27,59.4c-3.3,0-6,2.7-6,6v11c0,3.3,2.7,6,6,6h21.9c6.1,0,10.5,4.4,10.5,10.5v21.9c0,3.3,2.7,6,6,6h11c3.3,0,6-2.7,6-6v-21.9c0-6.1,4.4-10.5,10.5-10.5h21.9c3.3,0,6-2.7,6-6v-11c0-3.3-2.7-6-6-6h-21.9c-6.1,0-10.5-4.4-10.5-10.5v-21.9c0-3.3-2.7-6-6-6h-11c-3.3,0-6,2.7-6,6v21.9c0,6.1-4.4,10.5-10.5,10.5h-21.9Z" fill="#dadcdd"/>
</svg>