<svg version="1.1" id="Calque_1" xmlns="http://www.w3.org/2000/svg" xmlns:xlink="http://www.w3.org/1999/xlink" x="0px" y="0px"
	 viewBox="0 0 141.7 141.7" style="enable-background:new 0 0 141.7 141.7;" xml:space="preserve">
<path d="M108.345 76.8393C108.345 76.8483 108.208 76.8483 108.208 76.8483H37.5828C34.6973 76.8483 32.3615 76.6951 32.3615 76.5059V69.4424C32.3615 69.2532 34.6973 69.1001 37.5828 69.1001H108.208C108.345 69.1001 108.345 69.1091 108.345 69.1091V76.8393Z" fill="#8BB53C" stroke="#8BB53C" stroke-width="3.9006" stroke-miterlimit="10" stroke-linecap="round" stroke-linejoin="round"/>
<path d="M66.4883 110.966C66.4793 110.966 66.4793 110.829 66.4793 110.829V40.2035C66.4793 37.318 66.6325 34.9822 66.8217 34.9822H73.8852C74.0744 34.9822 74.2276 37.318 74.2276 40.2035V110.829C74.2276 110.966 74.2186 110.966 74.2186 110.966H66.4883Z" fill="#8BB53C" stroke="#8BB53C" stroke-width="3.9006" stroke-miterlimit="10" stroke-linecap="round" stroke-linejoin="round"/>
</svg>
