<?xml version="1.0" encoding="UTF-8"?>
<svg id="Calque_1" xmlns="http://www.w3.org/2000/svg" baseProfile="tiny" version="1.2" viewBox="0 0 141.7 141.7">
  <!-- Generator: Adobe Illustrator 30.2.0, SVG Export Plug-In . SVG Version: 2.1.1 Build 105)  -->
  <path d="M118,32.2l-18.3-18.3c-3.2-3.2-7.4-4.9-11.9-4.9h-40.9c-8.1,0-14.7,6.6-14.7,14.7v54.8c0,2.5,2,4.5,4.5,4.5s4.5-2,4.5-4.5V23.7c0-3.1,2.6-5.7,5.7-5.7h36.4v21.1c0,5.3,4.3,9.6,9.6,9.6h21.1v56.9c0,3.1-2.6,5.7-5.7,5.7h-34.3c-2.5,0-4.5,2-4.5,4.5s2,4.5,4.5,4.5h34.3c8.1,0,14.7-6.6,14.7-14.7v-61.4c0-4.5-1.8-8.8-4.9-11.9ZM92.2,39v-19.7c.4.3.7.6,1.1.9l18.3,18.3c.3.3.6.7.9,1.1h-19.7c-.4,0-.6-.3-.6-.6Z" fill="#dadcdd"/>
  <path d="M59.6,102h-8.1c-1.2,0-2-.8-2-2v-8.1c0-2.2-1.8-4-4-4h-4c-2.2,0-4,1.8-4,4v8.1c0,1.2-.8,2-2,2h-8.1c-2.2,0-4,1.8-4,4v4c0,2.2,1.8,4,4,4h8.1c1.2,0,2,.8,2,2v8.1c0,2.2,1.8,4,4,4h4c2.2,0,4-1.8,4-4v-8.1c0-1.2.8-2,2-2h8.1c2.2,0,4-1.8,4-4v-4c0-2.2-1.8-4-4-4Z" fill="#dadcdd"/>
</svg>