<svg version="1.1" id="Calque_1" xmlns="http://www.w3.org/2000/svg" xmlns:xlink="http://www.w3.org/1999/xlink" x="0px" y="0px"
	 viewBox="0 0 141.7 141.7" style="enable-background:new 0 0 141.7 141.7;" xml:space="preserve">
<path d="M77.06 18H23V123.9H97.44V43.34H77.07V18H77.06Z" fill="white" stroke="#25607E" stroke-width="4.4403" stroke-miterlimit="10" stroke-linecap="round" stroke-linejoin="round"/>
<path d="M77.06 18V43.34H97.44L77.15 18H77.06Z" fill="#8CB63C" stroke="#25607E" stroke-width="4.4403" stroke-miterlimit="10" stroke-linecap="round" stroke-linejoin="round"/>
<path d="M82.83 56.97H37.61" stroke="#25607E" stroke-width="4.4403" stroke-miterlimit="10" stroke-linecap="round" stroke-linejoin="round"/>
<path d="M82.83 67.03H37.61" stroke="#25607E" stroke-width="4.4403" stroke-miterlimit="10" stroke-linecap="round" stroke-linejoin="round"/>
<path d="M82.83 77.08H37.61" stroke="#25607E" stroke-width="4.4403" stroke-miterlimit="10" stroke-linecap="round" stroke-linejoin="round"/>
<path d="M82.83 87.14H37.61" stroke="#25607E" stroke-width="4.4403" stroke-miterlimit="10" stroke-linecap="round" stroke-linejoin="round"/>
<path d="M82.83 97.19H37.61" stroke="#25607E" stroke-width="4.4403" stroke-miterlimit="10" stroke-linecap="round" stroke-linejoin="round"/>
<path d="M82.83 107.25H37.61" stroke="#25607E" stroke-width="4.4403" stroke-miterlimit="10" stroke-linecap="round" stroke-linejoin="round"/>
<path d="M90.0088 104.34V78.5688H115.78C118.514 78.5688 120.73 76.3526 120.73 73.6188V67.0612C120.73 64.3274 118.514 62.1112 115.78 62.1112H90.0088V36.34C90.0088 33.6062 87.7926 31.39 85.0588 31.39H78.5012C75.7674 31.39 73.5512 33.6062 73.5512 36.34V62.1112H47.78C45.0462 62.1112 42.83 64.3274 42.83 67.0612V73.6188C42.83 76.3526 45.0462 78.5688 47.78 78.5688H73.5512V104.34C73.5512 107.074 75.7674 109.29 78.5012 109.29H85.0588C87.7926 109.29 90.0088 107.074 90.0088 104.34Z" fill="#8BB53C" stroke="#25607E" stroke-width="3.9"/>
</svg>
