<?xml version="1.0" encoding="UTF-8"?>
<svg id="Calque_1" xmlns="http://www.w3.org/2000/svg" baseProfile="tiny" version="1.2" viewBox="0 0 141.7 141.7">
  <!-- Generator: Adobe Illustrator 30.2.0, SVG Export Plug-In . SVG Version: 2.1.1 Build 105)  -->
  <path d="M39,102.7c.9.9,2,1.3,3.2,1.3s2.3-.4,3.2-1.3l17.8-17.8c4.2,3,9.4,4.8,15,4.8,14.3,0,26-11.7,26-26s-11.7-26-26-26-26,11.7-26,26,1.7,10.6,4.7,14.8l-17.8,17.8c-1.8,1.8-1.8,4.6,0,6.4ZM78.1,46.7c9.4,0,17,7.6,17,17s-7.6,17-17,17-17-7.6-17-17,7.6-17,17-17Z" fill="#dadcdd"/>
  <path d="M17,51.5h29.9c2.5,0,4.5-2,4.5-4.5s-2-4.5-4.5-4.5h-19.1l5.9-5.9c10.2-9.7,23.4-15.1,37.2-15.1,27.2,0,49.3,22.1,49.3,49.3s2,4.5,4.5,4.5,4.5-2,4.5-4.5c0-32.1-26.2-58.3-58.3-58.3s-31.6,6.2-43.4,17.6c0,0,0,0,0,0l-5.9,5.9v-19.1c0-2.5-2-4.5-4.5-4.5s-4.5,2-4.5,4.5v29.9c0,2.5,2,4.5,4.5,4.5Z" fill="#dadcdd"/>
  <path d="M124.7,90.2h-29.9c-2.5,0-4.5,2-4.5,4.5s2,4.5,4.5,4.5h19.1l-5.9,5.9c-10.2,9.7-23.4,15.1-37.2,15.1-27.2,0-49.3-22.1-49.3-49.3s-2-4.5-4.5-4.5-4.5,2-4.5,4.5c0,32.1,26.2,58.3,58.3,58.3s31.6-6.2,43.4-17.6c0,0,0,0,0,0l5.9-5.9v19.1c0,2.5,2,4.5,4.5,4.5s4.5-2,4.5-4.5v-29.9c0-2.5-2-4.5-4.5-4.5Z" fill="#dadcdd"/>
</svg>