<svg version="1.1" id="Calque_1" xmlns="http://www.w3.org/2000/svg" xmlns:xlink="http://www.w3.org/1999/xlink" x="0px" y="0px"
	 viewBox="0 0 141.7 141.7" style="enable-background:new 0 0 141.7 141.7;" xml:space="preserve">
<path d="M46.9299 113.4H93.8599" stroke="#25607E" stroke-width="3.9851" stroke-miterlimit="10" stroke-linecap="round" stroke-linejoin="round"/>
<path d="M79.6801 78.73H61.1101V113.4H79.6801V78.73Z" fill="white" stroke="#25607E" stroke-width="3.9851" stroke-miterlimit="10" stroke-linecap="round" stroke-linejoin="round"/>
<path d="M114.78 101.45H26.95C22.84 101.45 19.52 98.1201 19.52 94.0101V35.7701C19.52 31.6601 22.85 28.3301 26.95 28.3301H114.79C118.9 28.3301 122.22 31.6601 122.22 35.7701V94.0101C122.22 98.1201 118.89 101.45 114.78 101.45Z" fill="#8CB63C" stroke="#25607E" stroke-width="3.9851" stroke-miterlimit="10" stroke-linecap="round" stroke-linejoin="round"/>
<path d="M27.9401 90.32C27.8601 90.32 27.8 90.26 27.8 90.18V38.83C27.8 36.72 29.5101 35 31.6201 35H110.01C112.12 35 113.83 36.71 113.83 38.82V90.17C113.83 90.25 113.77 90.31 113.69 90.31H27.9401V90.32Z" fill="white" stroke="#25607E" stroke-width="3.9006" stroke-miterlimit="10" stroke-linecap="round" stroke-linejoin="round"/>
<path d="M66.4299 95.8701H74.3799" stroke="#25607E" stroke-width="3.9851" stroke-miterlimit="10" stroke-linecap="round" stroke-linejoin="round"/>
<path d="M71.1952 80.1963C66.6172 80.1963 62.0392 79.3379 57.5185 77.6784C53.9705 76.3622 50.4226 74.531 47.0463 72.2993C42.8117 69.438 39.8932 66.634 38.5198 65.2034L35.7158 61.9988L38.4626 58.6798C39.7788 57.2491 42.64 54.3879 46.703 51.5839C50.022 49.2949 53.4555 47.4637 57.0034 46.1475C61.467 44.488 66.045 43.6296 70.623 43.6296C75.2009 43.6296 79.7789 44.488 84.2997 46.1475C87.8476 47.4637 91.3956 49.2949 94.7718 51.5267C99.0065 54.3879 101.925 57.1919 103.298 58.6225L106.102 61.8271L103.356 65.1462C102.039 66.5768 99.1781 69.438 95.1152 72.242C91.7961 74.531 88.3626 76.3622 84.8147 77.6784C80.2939 79.3951 75.716 80.1963 71.1952 80.1963Z" fill="#4D8B3F"/>
<path d="M70.6228 44.3162C75.0863 44.3162 79.6071 45.1173 84.0706 46.7768C87.5613 48.093 91.052 49.867 94.4283 52.0987C98.6629 54.96 101.581 57.764 102.84 59.1374L105.244 61.8842L102.84 64.7454C101.581 66.1188 98.7774 68.9228 94.7144 71.7268C91.4526 73.9586 88.0191 75.7898 84.5284 77.106C80.1221 78.7655 75.6586 79.5666 71.1378 79.5666C66.6743 79.5666 62.1535 78.7655 57.69 77.106C54.1993 75.7898 50.7085 74.0158 47.3323 71.7841C43.0976 68.9228 40.1792 66.1188 38.9202 64.7454L36.5168 61.9986L38.9202 59.1374C40.1792 57.764 42.9832 54.96 47.0462 52.156C50.308 49.9242 53.7415 48.093 57.2322 46.7768C61.6385 45.1745 66.102 44.3162 70.6228 44.3162ZM70.6228 43C65.9876 43 61.2951 43.8584 56.7744 45.5751C53.1692 46.8913 49.6785 48.7797 46.3022 51.0687C42.182 53.9299 39.3208 56.7912 37.9474 58.279L35.544 61.1403L34.8 62.0559L35.6012 62.9715L38.0046 65.7182C39.378 67.1489 42.3537 70.0673 46.6456 72.9286C50.0791 75.2176 53.627 77.106 57.2894 78.4222C61.8674 80.0817 66.5598 80.94 71.195 80.94C75.8302 80.94 80.5227 80.0817 85.0434 78.3649C88.6486 77.0488 92.1393 75.1603 95.5156 72.8713C99.6357 70.0101 102.497 67.1489 103.87 65.661L106.274 62.7998L107.018 61.8842L106.217 61.0258L103.813 58.279C102.44 56.8484 99.4641 53.9299 95.1722 51.0687C91.7387 48.7797 88.1908 46.8913 84.5284 45.5751C79.9504 43.8011 75.258 43 70.6228 43Z" fill="#24607E"/>
<path d="M70.6227 47.3491C88.7057 47.3491 101.295 61.8842 101.295 61.8842C101.295 61.8842 89.278 76.4765 71.195 76.4765C53.1119 76.4765 40.5225 61.9414 40.5225 61.9414C40.5225 61.9414 52.5397 47.3491 70.6227 47.3491Z" fill="white"/>
<path d="M70.9662 68.923C74.8852 68.923 78.0621 65.746 78.0621 61.8271C78.0621 57.9081 74.8852 54.7312 70.9662 54.7312C67.0473 54.7312 63.8704 57.9081 63.8704 61.8271C63.8704 65.746 67.0473 68.923 70.9662 68.923Z" fill="#8BB53C" stroke="#24607E" stroke-width="1.3219" stroke-miterlimit="10" stroke-linecap="round" stroke-linejoin="round"/>
<path d="M97.2895 77.8499L87.3896 70.4679C86.8746 70.0673 86.1879 70.0673 85.6729 70.3534L82.4111 67.95C83.3839 66.1188 83.9561 64.0587 83.9561 61.8269C83.9561 54.6738 78.1192 48.8369 70.9661 48.8369C63.813 48.8369 57.9761 54.6738 57.9761 61.8269C57.9761 68.98 63.813 74.817 70.9661 74.817C74.8574 74.817 78.3481 73.1002 80.7515 70.3534L84.0134 72.7569C83.8989 73.3291 84.1278 73.9014 84.6428 74.3019L94.5427 81.6839C95.2294 82.199 96.2595 82.0845 96.7745 81.3406L97.7473 80.0817C98.1479 79.3377 98.0334 78.3649 97.2895 77.8499ZM70.9661 72.1846C65.2436 72.1846 60.6084 67.5494 60.6084 61.8269C60.6084 56.1045 65.2436 51.4693 70.9661 51.4693C76.6886 51.4693 81.2666 56.1045 81.2666 61.8269C81.2666 67.5494 76.6314 72.1846 70.9661 72.1846Z" fill="#8BB53C" stroke="#24607E" stroke-width="1.3219" stroke-miterlimit="10" stroke-linecap="round" stroke-linejoin="round"/>
<path d="M67.8186 60.3965C68.8615 60.3965 69.707 59.551 69.707 58.508C69.707 57.4651 68.8615 56.6196 67.8186 56.6196C66.7756 56.6196 65.9302 57.4651 65.9302 58.508C65.9302 59.551 66.7756 60.3965 67.8186 60.3965Z" fill="white"/>
<path d="M75.1437 63.8872C76.3131 63.8872 77.261 62.9393 77.261 61.7699C77.261 60.6005 76.3131 59.6526 75.1437 59.6526C73.9743 59.6526 73.0264 60.6005 73.0264 61.7699C73.0264 62.9393 73.9743 63.8872 75.1437 63.8872Z" fill="white"/>
</svg>
