<svg version="1.1" id="Calque_1" xmlns="http://www.w3.org/2000/svg" xmlns:xlink="http://www.w3.org/1999/xlink" x="0px" y="0px"
	 viewBox="0 0 141.7 141.7" style="enable-background:new 0 0 141.7 141.7;" xml:space="preserve">
<path d="M97.2 89.6999C91.3 97.8999 81.7 103.3 70.9 103.3C53.1 103.3 38.6 88.8999 38.5 71.0999H42.3H49.1L32.2 54.2999L15.5 71.0999H24.4H24.6H26C26.1 95.7999 46.1 115.7 70.8 115.7C85.1 115.7 97.8 109 106 98.5999L102.3 94.8999L97.2 89.6999Z" fill="#8BB53C" stroke="#24607E" stroke-width="4.412" stroke-miterlimit="10" stroke-linecap="round" stroke-linejoin="round"/>
<path d="M119.3 71.1H115.7C115.7 71 115.7 70.9 115.7 70.9C115.7 46.1 95.6 26.1 70.9 26.1C56.5 26.1 43.7 32.9 35.5 43.5L39.3 47.3L44.4 52.4C50.3 44 60 38.6 70.9 38.6C88.8 38.6 103.3 53.1 103.3 71C103.3 71.1 103.3 71.2 103.3 71.2H99.4H92.8L109.6 88L126.4 71.2L119.3 71.1Z" fill="#8BB53C" stroke="#24607E" stroke-width="4.412" stroke-miterlimit="10" stroke-linecap="round" stroke-linejoin="round"/>
<path d="M71.1952 89.1962C66.6172 89.1962 62.0392 88.3378 57.5185 86.6783C53.9705 85.3621 50.4226 83.5309 47.0463 81.2991C42.8117 78.4379 39.8932 75.6339 38.5198 74.2033L35.7158 70.9987L38.4626 67.6796C39.7788 66.249 42.64 63.3878 46.703 60.5838C50.022 58.2948 53.4555 56.4636 57.0034 55.1474C61.467 53.4879 66.045 52.6295 70.623 52.6295C75.2009 52.6295 79.7789 53.4879 84.2997 55.1474C87.8476 56.4636 91.3956 58.2948 94.7718 60.5265C99.0065 63.3878 101.925 66.1918 103.298 67.6224L106.102 70.827L103.356 74.146C102.039 75.5767 99.1781 78.4379 95.1152 81.2419C91.7961 83.5309 88.3626 85.3621 84.8147 86.6783C80.2939 88.395 75.716 89.1962 71.1952 89.1962Z" fill="#4D8B3F"/>
<path d="M70.6228 53.3162C75.0863 53.3162 79.6071 54.1173 84.0706 55.7768C87.5613 57.093 91.052 58.867 94.4283 61.0987C98.6629 63.96 101.581 66.764 102.84 68.1374L105.244 70.8842L102.84 73.7454C101.581 75.1188 98.7774 77.9228 94.7144 80.7268C91.4526 82.9586 88.0191 84.7898 84.5284 86.106C80.1221 87.7655 75.6586 88.5666 71.1378 88.5666C66.6743 88.5666 62.1535 87.7655 57.69 86.106C54.1993 84.7898 50.7085 83.0158 47.3323 80.7841C43.0976 77.9228 40.1792 75.1188 38.9202 73.7454L36.5168 70.9986L38.9202 68.1374C40.1792 66.764 42.9832 63.96 47.0462 61.156C50.308 58.9242 53.7415 57.093 57.2322 55.7768C61.6385 54.1745 66.102 53.3162 70.6228 53.3162ZM70.6228 52C65.9876 52 61.2951 52.8584 56.7744 54.5751C53.1692 55.8913 49.6785 57.7797 46.3022 60.0687C42.182 62.9299 39.3208 65.7912 37.9474 67.279L35.544 70.1403L34.8 71.0559L35.6012 71.9715L38.0046 74.7182C39.378 76.1489 42.3537 79.0673 46.6456 81.9286C50.0791 84.2176 53.627 86.106 57.2894 87.4222C61.8674 89.0817 66.5598 89.94 71.195 89.94C75.8302 89.94 80.5227 89.0817 85.0434 87.3649C88.6486 86.0488 92.1393 84.1603 95.5156 81.8713C99.6357 79.0101 102.497 76.1489 103.87 74.661L106.274 71.7998L107.018 70.8842L106.217 70.0258L103.813 67.279C102.44 65.8484 99.4641 62.9299 95.1722 60.0687C91.7387 57.7797 88.1908 55.8913 84.5284 54.5751C79.9504 52.8011 75.258 52 70.6228 52Z" fill="#24607E"/>
<path d="M70.6227 56.3491C88.7057 56.3491 101.295 70.8842 101.295 70.8842C101.295 70.8842 89.278 85.4765 71.195 85.4765C53.1119 85.4765 40.5225 70.9414 40.5225 70.9414C40.5225 70.9414 52.5397 56.3491 70.6227 56.3491Z" fill="white"/>
<path d="M70.9662 77.9228C74.8852 77.9228 78.0621 74.7459 78.0621 70.827C78.0621 66.908 74.8852 63.7311 70.9662 63.7311C67.0473 63.7311 63.8704 66.908 63.8704 70.827C63.8704 74.7459 67.0473 77.9228 70.9662 77.9228Z" fill="#8BB53C" stroke="#24607E" stroke-width="1.3219" stroke-miterlimit="10" stroke-linecap="round" stroke-linejoin="round"/>
<path d="M97.2895 86.8499L87.3896 79.4679C86.8746 79.0673 86.1879 79.0673 85.6729 79.3534L82.4111 76.95C83.3839 75.1188 83.9561 73.0587 83.9561 70.8269C83.9561 63.6738 78.1192 57.8369 70.9661 57.8369C63.813 57.8369 57.9761 63.6738 57.9761 70.8269C57.9761 77.98 63.813 83.817 70.9661 83.817C74.8574 83.817 78.3481 82.1002 80.7515 79.3534L84.0134 81.7569C83.8989 82.3291 84.1278 82.9014 84.6428 83.3019L94.5427 90.6839C95.2294 91.199 96.2595 91.0845 96.7745 90.3406L97.7473 89.0817C98.1479 88.3377 98.0334 87.3649 97.2895 86.8499ZM70.9661 81.1846C65.2436 81.1846 60.6084 76.5494 60.6084 70.8269C60.6084 65.1045 65.2436 60.4693 70.9661 60.4693C76.6886 60.4693 81.2666 65.1045 81.2666 70.8269C81.2666 76.5494 76.6314 81.1846 70.9661 81.1846Z" fill="#8BB53C" stroke="#24607E" stroke-width="1.3219" stroke-miterlimit="10" stroke-linecap="round" stroke-linejoin="round"/>
<path d="M67.8186 69.3963C68.8615 69.3963 69.707 68.5509 69.707 67.5079C69.707 66.465 68.8615 65.6195 67.8186 65.6195C66.7756 65.6195 65.9302 66.465 65.9302 67.5079C65.9302 68.5509 66.7756 69.3963 67.8186 69.3963Z" fill="white"/>
<path d="M75.1437 72.8871C76.3131 72.8871 77.261 71.9391 77.261 70.7698C77.261 69.6004 76.3131 68.6525 75.1437 68.6525C73.9743 68.6525 73.0264 69.6004 73.0264 70.7698C73.0264 71.9391 73.9743 72.8871 75.1437 72.8871Z" fill="white"/>
</svg>
