<?xml version="1.0" encoding="UTF-8"?>
<svg id="Calque_1" xmlns="http://www.w3.org/2000/svg" baseProfile="tiny" version="1.2" viewBox="0 0 141.7 141.7">
  <!-- Generator: Adobe Illustrator 30.2.0, SVG Export Plug-In . SVG Version: 2.1.1 Build 105)  -->
  <path d="M121.9,74.7c-2.5,0-4.5,2-4.5,4.5v10.5c0,3.3-2.7,6-6,6H27.5c-3.3,0-6-2.7-6-6v-52.4c0-3.3,2.7-6,6-6h36.7c2.5,0,4.5-2,4.5-4.5s-2-4.5-4.5-4.5H27.5c-8.2,0-15,6.7-15,15v52.4c0,8.2,6.7,15,15,15h37.5v12h-16.5c-2.5,0-4.5,2-4.5,4.5s2,4.5,4.5,4.5h20.1c.3,0,.6,0,.9,0s.6,0,.9,0h20c2.5,0,4.5-2,4.5-4.5s-2-4.5-4.5-4.5h-16.4v-12h37.4c8.2,0,15-6.7,15-15v-10.5c0-2.5-2-4.5-4.5-4.5Z" fill="#dadcdd"/>
  <path d="M127.9,61.9l-13.2-13.2c2.1-3.3,3.4-7.2,3.4-11.5,0-11.7-9.5-21.2-21.2-21.2s-21.2,9.5-21.2,21.2,9.5,21.2,21.2,21.2,8.1-1.2,11.4-3.3l13.2,13.2c.9.9,2,1.3,3.2,1.3s2.3-.4,3.2-1.3c1.8-1.8,1.8-4.6,0-6.4ZM84.8,37.2c0-6.7,5.5-12.2,12.2-12.2s12.2,5.5,12.2,12.2-5.5,12.2-12.2,12.2-12.2-5.5-12.2-12.2Z" fill="#dadcdd"/>
</svg>