<?xml version="1.0" encoding="utf-8"?>
<!-- Generator: Adobe Illustrator 27.0.0, SVG Export Plug-In . SVG Version: 6.00 Build 0)  -->
<svg version="1.1" id="Calque_1" xmlns="http://www.w3.org/2000/svg" xmlns:xlink="http://www.w3.org/1999/xlink" x="0px" y="0px"
	 viewBox="0 0 141.7 141.7" style="enable-background:new 0 0 141.7 141.7;" xml:space="preserve">
<style type="text/css">
	.st0{fill:none;stroke:#24607E;stroke-width:3.9851;stroke-linecap:round;stroke-linejoin:round;stroke-miterlimit:10;}
	.st1{fill:#8BB53C;stroke:#24607E;stroke-width:3.9851;stroke-linecap:round;stroke-linejoin:round;stroke-miterlimit:10;}
	.st2{fill:#8BB53C;stroke:#24607E;stroke-width:4.184;stroke-linecap:round;stroke-linejoin:round;stroke-miterlimit:10;}
	.st3{fill:none;stroke:#24607E;stroke-width:4.184;stroke-linecap:round;stroke-linejoin:round;stroke-miterlimit:10;}
</style>
<g>
	<g>
		<g>
			<path class="st0" d="M113.7,50.4H15c-2.2,0-3.9-1.7-3.9-3.7V32.3c0-2,1.8-3.7,3.9-3.7h98.8c2.2,0,3.9,1.7,3.9,3.7v14.4
				C117.7,48.7,115.9,50.4,113.7,50.4z"/>
			<path class="st0" d="M114,94H65.9H15c-2.2,0-3.9-1.7-3.9-3.7V75.9c0-2,1.8-3.7,3.9-3.7h99c2,0,3.7,1.6,3.7,3.5v14.8
				C117.7,92.5,116,94,114,94z"/>
			<path class="st1" d="M105.9,83.6c0,2.3-2,4.2-4.4,4.2s-4.4-1.9-4.4-4.2c0-2.3,2-4.2,4.4-4.2S105.9,81.3,105.9,83.6z"/>
			<line class="st0" x1="80" y1="83.6" x2="18" y2="83.6"/>
			<line class="st0" x1="80" y1="40.1" x2="18" y2="40.1"/>
			<g>
				<path class="st0" d="M113.7,72.2H15c-2.2,0-3.9-1.7-3.9-3.7V54.1c0-2,1.8-3.7,3.9-3.7h98.8c2.2,0,3.9,1.7,3.9,3.7v14.4
					C117.7,70.6,115.9,72.2,113.7,72.2z"/>
				<line class="st0" x1="80" y1="62.6" x2="18" y2="62.6"/>
				<path class="st1" d="M105.9,61.9c0,2.3-2,4.2-4.4,4.2s-4.4-1.9-4.4-4.2s2-4.2,4.4-4.2C103.9,57.8,105.9,59.6,105.9,61.9z"/>
			</g>
			<path class="st1" d="M105.9,40.1c0,2.3-2,4.2-4.4,4.2s-4.4-1.9-4.4-4.2s2-4.2,4.4-4.2C103.9,35.9,105.9,37.8,105.9,40.1z"/>
		</g>
	</g>
	<g>
		<g>
			<path class="st2" d="M130.7,89.6c0,13-11.2,23.6-24.9,23.6c-13.8,0-24.9-10.5-24.9-23.6S92,66,105.8,66
				C119.5,66,130.7,76.6,130.7,89.6z"/>
			<line class="st3" x1="125.4" y1="93.4" x2="117.3" y2="99.9"/>
			<line class="st3" x1="108.8" y1="93.1" x2="117" y2="99.6"/>
		</g>
		<g>
			<path class="st3" d="M117.3,92c0.2-0.8,0.3-1.6,0.3-2.5c0-7.2-5.8-13-13-13s-13,5.8-13,13c0,5.6,3.5,10.3,8.5,12.1"/>
		</g>
	</g>
</g>
</svg>
