<?xml version="1.0" encoding="UTF-8"?>
<svg id="Calque_1" xmlns="http://www.w3.org/2000/svg" baseProfile="tiny" version="1.2" viewBox="0 0 141.7 141.7">
  <!-- Generator: Adobe Illustrator 30.2.0, SVG Export Plug-In . SVG Version: 2.1.1 Build 105)  -->
  <path d="M54.2,122.4c-22.8-2.2-32.7-8.9-32.7-11.8v-27.4c5.5,3.2,13.3,5.7,23.1,7.3.2,0,.5,0,.7,0,2.2,0,4.1-1.6,4.4-3.8.4-2.5-1.3-4.8-3.7-5.2-18.4-3-24.5-8.6-24.5-10.8v-27.4c10.5,6.1,28.6,9.2,46.6,9.2s36.1-3.1,46.6-9.2v12c0,2.5,2,4.5,4.5,4.5s4.5-2,4.5-4.5v-24.4c0,0,0-.1,0-.2-.3-14-28.1-21.3-55.5-21.3S12.5,17,12.5,31.1v79.4c0,12.4,21.1,18.9,40.8,20.8.1,0,.3,0,.4,0,2.3,0,4.2-1.7,4.5-4.1.2-2.5-1.6-4.7-4-4.9ZM68.1,18.6c28.9,0,46.6,8.1,46.6,12.5s-17.7,12.5-46.6,12.5-46.6-8.1-46.6-12.5,17.7-12.5,46.6-12.5Z" fill="#dadcdd"/>
  <path d="M99.2,69.2c-13.3,0-16.5,2.8-20.7,7.4-.6.6-1.2,1.3-1.8,1.9l-4.1,4.1v-11.9c0-2.5-2-4.5-4.5-4.5s-4.5,2-4.5,4.5v22.7c0,.3,0,.6,0,.9,0,.1,0,.2.1.4,0,.2,0,.3.1.5,0,.1.1.3.2.4,0,.1.1.2.2.4.2.2.4.5.6.7,0,0,0,0,0,0h0c.2.2.4.4.7.6.1,0,.2.1.4.2.1,0,.3.2.4.2.2,0,.3,0,.5.1.1,0,.2,0,.4.1.3,0,.6,0,.9,0h22.7c2.5,0,4.5-2,4.5-4.5s-2-4.5-4.5-4.5h-11.9l4.1-4.1c.8-.8,1.5-1.6,2.1-2.3,2.8-3.1,4-4.4,14-4.4s21,9.4,21,21-3.5,14.5-9.5,19.1c-10.5,7.9-25.6,5.7-33.5-4.8-1.5-2-4.3-2.4-6.3-.9-2,1.5-2.4,4.3-.9,6.3,6.5,8.6,16.4,13.1,26.4,13.1s13.8-2.1,19.7-6.5c8.3-6.3,13.1-15.9,13.1-26.3,0-16.6-13.5-30-30-30Z" fill="#dadcdd"/>
</svg>