<?xml version="1.0" encoding="UTF-8"?>
<svg id="Calque_1" xmlns="http://www.w3.org/2000/svg" baseProfile="tiny" version="1.2" viewBox="0 0 141.7 141.7">
  <!-- Generator: Adobe Illustrator 30.2.0, SVG Export Plug-In . SVG Version: 2.1.1 Build 105)  -->
  <path d="M115.9,37.4h-5.8v-8.5c0-7.4-6-13.4-13.4-13.4H25.9c-7.4,0-13.4,6-13.4,13.4v44.3c0,7.4,6,13.4,13.4,13.4h5.8v8.5c0,7.4,6,13.4,13.4,13.4h30.9v8.7h-13.2c-2.5,0-4.5,2-4.5,4.5s2,4.5,4.5,4.5h35.4c2.5,0,4.5-2,4.5-4.5s-2-4.5-4.5-4.5h-13.2v-8.7h30.9c7.4,0,13.4-6,13.4-13.4v-44.3c0-7.4-6-13.4-13.4-13.4ZM25.9,77.6c-2.4,0-4.4-2-4.4-4.4V28.9c0-2.4,2-4.4,4.4-4.4h70.9c2.4,0,4.4,2,4.4,4.4v8.5h-56.1c-7.4,0-13.4,6-13.4,13.4v26.8h-5.8ZM120.2,95.1c0,2.4-2,4.4-4.4,4.4H45c-2.4,0-4.4-2-4.4-4.4v-44.3c0-2.4,2-4.4,4.4-4.4h70.9c2.4,0,4.4,2,4.4,4.4v44.3Z" fill="#dadcdd"/>
  <path d="M80.4,49.2c-13.1,0-23.7,10.6-23.7,23.7s10.6,23.7,23.7,23.7,11.8-2.4,16-6.3c.3-.2.6-.4.8-.6s.5-.5.6-.8c3.9-4.2,6.3-9.9,6.3-16,0-13.1-10.6-23.7-23.7-23.7ZM95.2,73c0,2.4-.6,4.7-1.6,6.7l-19.8-19.8c2-1,4.3-1.6,6.7-1.6,8.1,0,14.7,6.6,14.7,14.7ZM65.7,73c0-2.4.6-4.7,1.6-6.7l19.8,19.8c-2,1-4.3,1.6-6.7,1.6-8.1,0-14.7-6.6-14.7-14.7Z" fill="#dadcdd"/>
</svg>