<?xml version="1.0" encoding="UTF-8"?>
<svg id="Calque_1" xmlns="http://www.w3.org/2000/svg" baseProfile="tiny" version="1.2" viewBox="0 0 141.7 141.7">
  <!-- Generator: Adobe Illustrator 30.2.0, SVG Export Plug-In . SVG Version: 2.1.1 Build 105)  -->
  <path d="M56.9,29.3c4.3-1.5,9-2.3,14-2.3,12.4,0,24.1,4.8,33.1,13.4l4.4,4.4h-15.9c-2.5,0-4.5,2-4.5,4.5s2,4.5,4.5,4.5h26c.3,0,.6,0,.9,0,1.2,0,2.3-.4,3.2-1.3.9-.9,1.3-2.1,1.3-3.2,0,0,0,0,0,0v-26.9c0-2.5-2-4.5-4.5-4.5s-4.5,2-4.5,4.5v16.1l-4.5-4.5c-10.7-10.3-24.7-16-39.4-16s-11.7.9-17,2.8c-2.3.8-3.6,3.4-2.7,5.7.8,2.3,3.4,3.6,5.7,2.7Z" fill="#dadcdd"/>
  <path d="M114.8,70.8c0,4.9-.8,9.6-2.3,14-.8,2.3.4,4.9,2.7,5.7.5.2,1,.3,1.5.3,1.9,0,3.6-1.2,4.2-3,1.9-5.3,2.8-11,2.8-17s-2-4.5-4.5-4.5-4.5,2-4.5,4.5Z" fill="#dadcdd"/>
  <path d="M127.9,121.5l-19.6-19.6s0,0,0,0c0,0,0,0,0,0L40.2,33.9c0-.1-.2-.3-.3-.4-.1-.1-.3-.3-.5-.4L20.2,13.9c-1.8-1.8-4.6-1.8-6.4,0-1.8,1.8-1.8,4.6,0,6.4l16.6,16.5c-8.1,9.4-12.5,21.3-12.5,34s2,4.5,4.5,4.5,4.5-2,4.5-4.5c0-10.3,3.5-20,9.8-27.7l61.8,61.7c-7.7,6.4-17.4,9.9-27.7,9.9s-24.1-4.8-33.1-13.4l-4.5-4.5h16c2.5,0,4.5-2,4.5-4.5s-2-4.5-4.5-4.5h-26.9s0,0,0,0c-.3,0-.6,0-.8,0-.1,0-.3,0-.4.1-.1,0-.3,0-.4.1-.2,0-.3.2-.4.2-.1,0-.2.1-.3.2-.2.2-.5.3-.7.5,0,0,0,0,0,0s0,0,0,0c-.2.2-.4.4-.5.7,0,.1-.1.2-.2.4,0,.1-.2.3-.2.4,0,.2-.1.3-.1.5,0,.1,0,.2-.1.4,0,.3,0,.6,0,.9v26.9c0,2.5,2,4.5,4.5,4.5s4.5-2,4.5-4.5v-16l4.5,4.5c10.7,10.3,24.7,16,39.4,16s24.7-4.4,34.1-12.5l16.6,16.6c.9.9,2,1.3,3.2,1.3s2.3-.4,3.2-1.3c1.8-1.8,1.8-4.6,0-6.4Z" fill="#dadcdd"/>
</svg>