<svg version="1.1" id="Calque_1" xmlns="http://www.w3.org/2000/svg" xmlns:xlink="http://www.w3.org/1999/xlink" x="0px" y="0px"
	 viewBox="0 0 141.7 141.7" style="enable-background:new 0 0 141.7 141.7;" xml:space="preserve">
<path d="M97.2 89.6999C91.3 97.8999 81.7 103.3 70.9 103.3C53.1 103.3 38.6 88.8999 38.5 71.0999H42.3H49.1L32.2 54.2999L15.5 71.0999H24.4H24.6H26C26.1 95.7999 46.1 115.7 70.8 115.7C85.1 115.7 97.8 109 106 98.5999L102.3 94.8999L97.2 89.6999Z" fill="#8BB53C" stroke="#24607E" stroke-width="4.412" stroke-miterlimit="10" stroke-linecap="round" stroke-linejoin="round"/>
<path d="M119.3 71.1H115.7C115.7 71 115.7 70.9 115.7 70.9C115.7 46.1 95.6 26.1 70.9 26.1C56.5 26.1 43.7 32.9 35.5 43.5L39.3 47.3L44.4 52.4C50.3 44 60 38.6 70.9 38.6C88.8 38.6 103.3 53.1 103.3 71C103.3 71.1 103.3 71.2 103.3 71.2H99.4H92.8L109.6 88L126.4 71.2L119.3 71.1Z" fill="#8BB53C" stroke="#24607E" stroke-width="4.412" stroke-miterlimit="10" stroke-linecap="round" stroke-linejoin="round"/>
<path d="M116.092 109.092C124.025 101.159 124.025 88.2969 116.092 80.3639C108.159 72.431 95.2968 72.431 87.3639 80.3639C79.4309 88.2969 79.4309 101.159 87.3639 109.092C95.2968 117.025 108.159 117.025 116.092 109.092Z" fill="white" stroke="#17A4CC" stroke-width="3.9"/>
<path d="M88.77 107.441L116.287 79.9236" stroke="#17A4CC" stroke-width="3.9"/>
</svg>
