<svg version="1.1" id="Calque_1" xmlns="http://www.w3.org/2000/svg" xmlns:xlink="http://www.w3.org/1999/xlink" x="0px" y="0px"
	 viewBox="0 0 141.7 141.7" style="enable-background:new 0 0 141.7 141.7;" xml:space="preserve">
<path d="M118.387 88.9016H25.3722V28.2657C25.3722 25.8522 27.3309 23.8842 29.7537 23.8842H114.015C116.428 23.8842 118.396 25.8429 118.396 28.2657V88.9016H118.387Z" fill="#8CB63C" stroke="#25607E" stroke-width="4.2557" stroke-miterlimit="10" stroke-linecap="round" stroke-linejoin="round"/>
<path d="M111.146 80.2362L111.146 30.9719L32.6035 30.9719L32.6035 80.2362L111.146 80.2362Z" fill="white"/>
<path d="M121.33 96.198H24.2676C22.4667 96.198 21 94.7313 21 92.9304V88.9387C21 88.9202 21.0186 88.9016 21.0371 88.9016H124.486C124.532 88.9016 124.56 88.9387 124.56 88.9759V92.9675C124.56 94.7498 123.112 96.198 121.33 96.198Z" fill="white" stroke="#25607E" stroke-width="4.2557" stroke-miterlimit="10" stroke-linecap="round" stroke-linejoin="round"/>
<path d="M88.367 107.485C83.6448 101.256 80.6921 91.0542 80.6921 91.0542C79.9919 89.528 80.6432 87.7095 82.1413 86.9951C83.6394 86.2807 85.4251 86.941 86.1199 88.4672L89.8759 96.6935L89.8922 75.2131C89.8922 73.5245 91.2383 72.1607 92.8884 72.1553C94.5439 72.1553 95.8845 73.5191 95.8791 75.2077L95.8683 89.6687V88.1425C95.8683 86.4539 97.2144 85.0901 98.8644 85.0847C100.52 85.0847 101.861 86.4485 101.855 88.1371V88.7486C101.855 87.0601 103.201 85.6962 104.851 85.6908C106.507 85.6908 107.847 87.0546 107.842 88.7432V89.3548C107.842 87.6662 109.188 86.3024 110.838 86.297C112.494 86.297 113.834 87.6608 113.829 89.3494L113.824 98.4416C113.818 106.473 107.424 112.995 99.5429 113C96.6716 113 94.0011 112.14 91.7648 110.657C90.4839 109.796 89.3277 108.724 88.367 107.485Z" fill="white" stroke="#25607E" stroke-width="4.2557" stroke-miterlimit="10" stroke-linecap="round" stroke-linejoin="round"/>
<path d="M56.53 47.21C54.52 45.71 52.3 44.99 49.78 44.99C43.3 44.99 37.99 50.3 37.99 56.78C37.99 63.2 43.39 68.39 49.78 68.39C52.18 68.39 54.58 67.58 56.53 66.17V63.05C54.73 64.85 52.24 66.05 49.69 66.05C44.62 66.05 40.51 61.67 40.51 56.69C40.51 51.71 44.59 47.33 49.63 47.33C52.24 47.33 54.73 48.47 56.53 50.33V47.21ZM59.1339 68H61.7139L64.6239 52.7H64.6839L71.9439 68.93L79.2339 52.7H79.2939L82.2039 68H84.7839L80.1939 44.09L71.9439 63.08L63.7239 44.09L59.1339 68ZM87.6784 68H91.8784C95.4184 68 98.1184 67.55 100.818 65.15C103.308 62.93 104.508 60.02 104.508 56.72C104.508 53.36 103.338 50.33 100.758 48.11C98.0884 45.83 95.3284 45.38 91.9384 45.38H87.6784V68ZM90.1984 65.66V47.72H92.0284C94.6984 47.72 96.9784 48.08 99.0484 49.91C100.998 51.62 101.988 54.11 101.988 56.69C101.988 59.21 101.028 61.58 99.1684 63.32C97.0984 65.27 94.7884 65.66 92.0284 65.66H90.1984Z" fill="#8CB63C"/>
<path d="M56.53 47.21H57.53V46.7085L57.1281 46.4086L56.53 47.21ZM56.53 66.17L57.1159 66.9804L57.53 66.681V66.17H56.53ZM56.53 63.05H57.53V60.6358L55.8229 62.3429L56.53 63.05ZM56.53 50.33L55.8114 51.0254L57.53 52.8013V50.33H56.53ZM57.1281 46.4086C54.941 44.7764 52.5101 43.99 49.78 43.99V45.99C52.0899 45.99 54.099 46.6435 55.9319 48.0114L57.1281 46.4086ZM49.78 43.99C42.7477 43.99 36.99 49.7477 36.99 56.78H38.99C38.99 50.8523 43.8523 45.99 49.78 45.99V43.99ZM36.99 56.78C36.99 63.7738 42.8595 69.39 49.78 69.39V67.39C43.9205 67.39 38.99 62.6262 38.99 56.78H36.99ZM49.78 69.39C52.3998 69.39 55.0032 68.508 57.1159 66.9804L55.9441 65.3596C54.1568 66.652 51.9602 67.39 49.78 67.39V69.39ZM57.53 66.17V63.05H55.53V66.17H57.53ZM55.8229 62.3429C54.1784 63.9874 51.9327 65.05 49.69 65.05V67.05C52.5473 67.05 55.2816 65.7126 57.2371 63.7571L55.8229 62.3429ZM49.69 65.05C45.2034 65.05 41.51 61.1494 41.51 56.69H39.51C39.51 62.1906 44.0366 67.05 49.69 67.05V65.05ZM41.51 56.69C41.51 52.2241 45.1797 48.33 49.63 48.33V46.33C44.0003 46.33 39.51 51.1959 39.51 56.69H41.51ZM49.63 48.33C51.9487 48.33 54.1851 49.3449 55.8114 51.0254L57.2486 49.6346C55.2749 47.5951 52.5313 46.33 49.63 46.33V48.33ZM57.53 50.33V47.21H55.53V50.33H57.53ZM59.1339 68L58.1518 67.8115L57.9237 69H59.1339V68ZM61.7139 68V69H62.5416L62.6963 68.1868L61.7139 68ZM64.6239 52.7V51.7H63.7962L63.6415 52.5132L64.6239 52.7ZM64.6839 52.7L65.5967 52.2917L65.3321 51.7H64.6839V52.7ZM71.9439 68.93L71.0311 69.3383L71.942 71.3748L72.8561 69.3397L71.9439 68.93ZM79.2339 52.7V51.7H78.5868L78.3217 52.2903L79.2339 52.7ZM79.2939 52.7L80.2763 52.5132L80.1216 51.7H79.2939V52.7ZM82.2039 68L81.2215 68.1868L81.3762 69H82.2039V68ZM84.7839 68V69H85.9941L85.766 67.8115L84.7839 68ZM80.1939 44.09L81.176 43.9015L80.566 40.7239L79.2767 43.6915L80.1939 44.09ZM71.9439 63.08L71.0262 63.4772L71.9422 65.5935L72.8611 63.4785L71.9439 63.08ZM63.7239 44.09L64.6416 43.6928L63.3533 40.7164L62.7418 43.9015L63.7239 44.09ZM59.1339 69H61.7139V67H59.1339V69ZM62.6963 68.1868L65.6063 52.8868L63.6415 52.5132L60.7315 67.8132L62.6963 68.1868ZM64.6239 53.7H64.6839V51.7H64.6239V53.7ZM63.7711 53.1083L71.0311 69.3383L72.8567 68.5217L65.5967 52.2917L63.7711 53.1083ZM72.8561 69.3397L80.1461 53.1097L78.3217 52.2903L71.0317 68.5203L72.8561 69.3397ZM79.2339 53.7H79.2939V51.7H79.2339V53.7ZM78.3115 52.8868L81.2215 68.1868L83.1863 67.8132L80.2763 52.5132L78.3115 52.8868ZM82.2039 69H84.7839V67H82.2039V69ZM85.766 67.8115L81.176 43.9015L79.2118 44.2785L83.8018 68.1885L85.766 67.8115ZM79.2767 43.6915L71.0267 62.6815L72.8611 63.4785L81.1111 44.4885L79.2767 43.6915ZM72.8616 62.6828L64.6416 43.6928L62.8062 44.4872L71.0262 63.4772L72.8616 62.6828ZM62.7418 43.9015L58.1518 67.8115L60.116 68.1885L64.706 44.2785L62.7418 43.9015ZM87.6784 68H86.6784V69H87.6784V68ZM100.818 65.15L101.483 65.8974L101.484 65.8964L100.818 65.15ZM100.758 48.11L101.411 47.352L101.408 47.3495L100.758 48.11ZM87.6784 45.38V44.38H86.6784V45.38H87.6784ZM90.1984 65.66H89.1984V66.66H90.1984V65.66ZM90.1984 47.72V46.72H89.1984V47.72H90.1984ZM99.0484 49.91L98.3861 50.6592L98.3891 50.6619L99.0484 49.91ZM99.1684 63.32L98.4853 62.5897L98.4827 62.5921L99.1684 63.32ZM87.6784 69H91.8784V67H87.6784V69ZM91.8784 69C95.5251 69 98.5177 68.5331 101.483 65.8974L100.154 64.4026C97.7192 66.5669 95.3118 67 91.8784 67V69ZM101.484 65.8964C104.202 63.4731 105.508 60.284 105.508 56.72H103.508C103.508 59.756 102.415 62.3869 100.153 64.4036L101.484 65.8964ZM105.508 56.72C105.508 53.1145 104.244 49.7899 101.411 47.352L100.106 48.868C102.433 50.8701 103.508 53.6055 103.508 56.72H105.508ZM101.408 47.3495C98.4753 44.8454 95.4313 44.38 91.9384 44.38V46.38C95.2256 46.38 97.7016 46.8146 100.109 48.8705L101.408 47.3495ZM91.9384 44.38H87.6784V46.38H91.9384V44.38ZM86.6784 45.38V68H88.6784V45.38H86.6784ZM91.1984 65.66V47.72H89.1984V65.66H91.1984ZM90.1984 48.72H92.0284V46.72H90.1984V48.72ZM92.0284 48.72C94.6055 48.72 96.587 49.0687 98.3861 50.6592L99.7108 49.1608C97.3699 47.0913 94.7914 46.72 92.0284 46.72V48.72ZM98.3891 50.6619C100.096 52.159 100.988 54.3612 100.988 56.69H102.988C102.988 53.8588 101.9 51.081 99.7078 49.1581L98.3891 50.6619ZM100.988 56.69C100.988 58.9505 100.131 61.0503 98.4853 62.5897L99.8516 64.0503C101.926 62.1097 102.988 59.4695 102.988 56.69H100.988ZM98.4827 62.5921C96.6867 64.2841 94.6887 64.66 92.0284 64.66V66.66C94.8882 66.66 97.5102 66.2559 99.8541 64.0479L98.4827 62.5921ZM92.0284 64.66H90.1984V66.66H92.0284V64.66Z" fill="#25607E"/>
</svg>
