<?xml version="1.0" encoding="UTF-8"?>
<svg id="Calque_1" xmlns="http://www.w3.org/2000/svg" baseProfile="tiny" version="1.2" viewBox="0 0 141.7 141.7">
  <!-- Generator: Adobe Illustrator 30.2.0, SVG Export Plug-In . SVG Version: 2.1.1 Build 105)  -->
  <path d="M50.8,52.2c-.6,0-1.1.2-1.4.6-.3.4-.5.9-.7,1.5-.5,1.3-1.2,2.3-2.1,2.9-.9.7-2,1-3.4,1s-2.3-.3-3.2-.9c-.9-.6-1.6-1.5-2.1-2.6-.5-1.2-.7-2.7-.7-4.4,0-2.7.6-4.7,1.7-6.2,1.1-1.4,2.6-2.2,4.6-2.2s2.2.3,3,.8c.8.6,1.5,1.4,2.1,2.5.4.7.7,1.2,1,1.5.3.3.7.4,1.3.4s1-.2,1.4-.6c.4-.4.6-.9.6-1.4,0-1-.4-2-1.2-3.1-.8-1.1-1.9-2-3.3-2.7-1.4-.7-3.1-1.1-4.9-1.1s-3,.3-4.3.8c-1.3.5-2.5,1.3-3.5,2.4-1,1-1.8,2.3-2.3,3.7-.5,1.5-.8,3.1-.8,4.9s.1,2.2.3,3.2c.2,1,.5,2,1,2.8.4.9.9,1.7,1.5,2.4.7.8,1.4,1.4,2.2,1.9.8.5,1.7.8,2.7,1.1,1,.2,2.1.3,3.3.3s3-.3,4.2-.8c1.2-.5,2.2-1.2,3-2,.8-.8,1.3-1.7,1.7-2.5.4-.8.5-1.6.5-2.4s-.2-1.1-.6-1.4c-.4-.4-.9-.6-1.4-.6Z" fill="#dadcdd"/>
  <path d="M78.8,59.2v-18.1c0-1-.3-1.7-.8-2-.5-.3-1.2-.5-2.1-.5h-1.4c-.9,0-1.5,0-1.9.2-.4.2-.7.4-.9.8s-.4,1.1-.6,2l-3.3,12.5-3.3-12.5c-.2-.9-.5-1.6-.6-2s-.5-.7-.9-.8c-.4-.2-1-.2-1.9-.2h-1.4c-.9,0-1.6.2-2.1.5-.5.3-.8,1-.8,2v18.1c0,.9.2,1.5.6,2s.9.6,1.5.6,1.2-.2,1.6-.7.6-1.1.6-2v-15.8l3.7,14.6c.1.5.2.9.4,1.4.1.4.3.8.5,1.2.2.4.5.7.9.9.4.2.8.4,1.4.4s1.3-.2,1.7-.5c.4-.4.7-.8.8-1.2.2-.4.3-1.1.6-2.1l3.7-14.6v15.8c0,.9.2,1.5.6,2,.4.4.9.7,1.5.7s1.2-.2,1.6-.7.6-1.1.6-2Z" fill="#dadcdd"/>
  <path d="M84.7,61.1c.4.3,1.1.4,1.9.4h6c1.1,0,2,0,2.8-.2.8-.1,1.6-.4,2.3-.7.7-.3,1.4-.8,2-1.3.8-.7,1.4-1.5,1.9-2.4.5-.9.9-1.9,1.1-3.1.2-1.1.4-2.4.4-3.8,0-4.2-1.2-7.3-3.6-9.3-.9-.8-1.9-1.3-3.1-1.6-1.1-.3-2.5-.4-4-.4h-6c-1,0-1.7.2-2.2.7-.4.4-.7,1.2-.7,2.2v16.8c0,.7,0,1.3.2,1.8.1.5.4.8.8,1.1ZM88.3,42.2h3.1c1.4,0,2.6.2,3.6.5,1,.3,1.8,1,2.5,2.1.7,1.1,1,2.8,1,5.1,0,3.2-.8,5.5-2.3,6.8-.3.3-.7.5-1.2.7-.5.2-.9.3-1.4.3-.4,0-1,0-1.8,0h-3.5v-15.5Z" fill="#dadcdd"/>
  <path d="M119.2,80c-1.3,0-2.5.3-3.6.8,1.5-2.3,2.4-5,2.4-7.9v-40.6c0-8.1-6.6-14.7-14.7-14.7H32.2c-8.1,0-14.7,6.6-14.7,14.7v40.6c0,8.1,6.6,14.7,14.7,14.7h45.7v4.6c-3.1-1.4-6.9-.7-9.3,1.9-1.2,1.4-1.9,3.1-2,4.8H17c-2.5,0-4.5,2-4.5,4.5s2,4.5,4.5,4.5h54.6l7,7c5,5,10.7,7.2,18.4,7.2h5.5c13.6,0,24.6-11.1,24.6-24.6v-9.4c0-4.4-3.6-8-8-8ZM32.2,78.6c-3.1,0-5.7-2.5-5.7-5.7v-40.6c0-3.1,2.5-5.7,5.7-5.7h71.1c3.1,0,5.7,2.5,5.7,5.7v40.6c0,3.1-2.5,5.7-5.7,5.7h0c-.2-.2-.4-.4-.6-.6,0,0,0,0-.1-.1-.2-.2-.4-.3-.5-.5,0,0-.2-.1-.2-.2-.2-.1-.4-.3-.6-.4,0,0-.1,0-.2-.1-.3-.1-.5-.3-.8-.4,0,0,0,0-.1,0-.3-.1-.5-.2-.8-.3,0,0-.2,0-.3,0-.2,0-.4-.1-.7-.1,0,0-.2,0-.3,0-.3,0-.6,0-1,0s-.5,0-.8,0c0,0-.2,0-.3,0-.2,0-.3,0-.5,0-.1,0-.2,0-.3,0-.1,0-.3,0-.4.1-.1,0-.2,0-.3.1-.1,0-.2,0-.4.1v-3.6c0-4.4-3.6-8-8-8s-8,3.6-8,8v6h-45.7ZM122.2,97.5c0,10.8-8.8,19.6-19.6,19.6h-5.5c-6.5,0-10.8-1.7-14.8-5.8l-9.9-9.9c-1-1.2-1-2.9,0-4.1,1.1-1.2,3-1.3,4.3-.2l2.1,2.1c.7.7,1.8.9,2.7.5.9-.4,1.5-1.3,1.5-2.3v-24.9c0-1.7,1.3-3,3-3s3,1.3,3,3v16.6c0,1.4,1.1,2.5,2.5,2.5s2.5-1.1,2.5-2.5v-5.5c0-1.7,1.3-3,3-3s3,1.3,3,3v6.6c0,1.4,1.1,2.5,2.5,2.5s2.5-1.1,2.5-2.5v-3.9c0-1.7,1.3-3,3-3s3,1.3,3,3v7c0,1.4,1.1,2.5,2.5,2.5s2.5-1.1,2.5-2.5v-5.3c0-1.7,1.3-3,3-3s3,1.3,3,3v9.4Z" fill="#dadcdd"/>
</svg>