<svg version="1.1" id="Calque_1" xmlns="http://www.w3.org/2000/svg" xmlns:xlink="http://www.w3.org/1999/xlink" x="0px" y="0px"
	 viewBox="0 0 141.7 141.7" style="enable-background:new 0 0 141.7 141.7;" xml:space="preserve">
<path d="M112.411 67.4829L106.02 66.5972C105.302 66.5015 104.728 65.927 104.608 65.2089C104.273 63.294 103.794 61.427 103.148 59.6318C102.909 58.9376 103.124 58.1716 103.699 57.7408L108.821 53.8392C110.185 52.786 110.473 50.8471 109.419 49.4588L102.143 39.8843C101.089 38.5199 99.1507 38.2327 97.7623 39.2859L92.64 43.1875C92.0655 43.6423 91.2517 43.6183 90.6532 43.2114C89.0974 42.1104 87.4218 41.129 85.6745 40.2912C85.0043 39.98 84.6213 39.2859 84.717 38.5678L85.6027 32.1768C85.842 30.4773 84.6452 28.8975 82.9218 28.6581L71.0015 27.0305C69.302 26.7911 67.7222 27.9879 67.4829 29.7113L66.5972 36.1023C66.5015 36.8204 65.927 37.3949 65.2089 37.5146C63.294 37.8497 61.427 38.3284 59.6318 38.9747C58.9376 39.2141 58.1716 38.9986 57.7408 38.4242L53.8392 33.3018C52.786 31.9374 50.8471 31.6502 49.4588 32.7034L39.8843 39.98C38.5199 41.0332 38.2327 42.9721 39.2859 44.3604L43.1875 49.4827C43.6423 50.0572 43.6184 50.8711 43.2114 51.4695C42.1104 53.0253 41.129 54.7009 40.2912 56.4482C39.98 57.1184 39.2859 57.5014 38.5678 57.4057L32.1768 56.52C30.4773 56.2807 28.8975 57.4775 28.6581 59.2009L27.0305 71.1212C26.7911 72.8207 27.9879 74.4005 29.7113 74.6398L36.1023 75.5255C36.8204 75.6212 37.3949 76.1957 37.5146 76.9138C37.8497 78.8287 38.3284 80.6957 38.9747 82.491C39.2141 83.1851 38.9986 83.9511 38.4242 84.3819L33.3018 88.2835C31.9374 89.3367 31.6502 91.2756 32.7034 92.6639L39.98 102.238C41.0332 103.603 42.9721 103.89 44.3604 102.837L49.4827 98.9352C50.0572 98.4804 50.8711 98.5044 51.4695 98.9113C53.0253 100.012 54.7009 100.994 56.4482 101.832C57.1184 102.143 57.5014 102.837 57.4057 103.555L56.52 109.946C56.2807 111.645 57.4775 113.225 59.2009 113.465L71.1212 115.092C72.8207 115.332 74.4005 114.135 74.6398 112.411L75.5255 106.02C75.6212 105.302 76.1957 104.728 76.9138 104.608C78.8287 104.273 80.6957 103.794 82.491 103.148C83.1851 102.909 83.9511 103.124 84.3819 103.699L88.2836 108.821C89.3368 110.185 91.2756 110.473 92.6639 109.419L102.238 102.143C103.603 101.089 103.89 99.1506 102.837 97.7623L98.9352 92.64C98.4804 92.0655 98.5044 91.2517 98.9113 90.6532C100.012 89.0974 100.994 87.4218 101.832 85.6745C102.143 85.0043 102.837 84.6213 103.555 84.717L109.946 85.6027C111.645 85.842 113.225 84.6452 113.465 82.9218L115.092 71.0015C115.332 69.302 114.135 67.7222 112.411 67.4829ZM83.3527 72.7249C82.4191 79.5228 76.1718 84.2622 69.3739 83.3287C62.5759 82.3952 57.8365 76.1478 58.7701 69.3499C59.7036 62.552 65.9509 57.8126 72.7489 58.7461C79.5468 59.7036 84.2862 65.9509 83.3527 72.7249Z" fill="#8CB63C" stroke="#25607E" stroke-width="3.9851" stroke-miterlimit="10" stroke-linecap="round" stroke-linejoin="round"/>
</svg>
