<svg version="1.1" id="Calque_1" xmlns="http://www.w3.org/2000/svg" xmlns:xlink="http://www.w3.org/1999/xlink" x="0px" y="0px"
	 viewBox="0 0 141.7 141.7" style="enable-background:new 0 0 141.7 141.7;" xml:space="preserve">
<path d="M91.9131 113H50.0869C48.3898 113 47 111.47 47 109.566V31.4339C47 29.546 48.3752 28 50.0869 28C66.421 28 75.579 28 91.9131 28C93.6102 28 95 29.5298 95 31.4339V109.582C94.9854 111.47 93.6102 113 91.9131 113Z" fill="#8CB63C" stroke="#25607E" stroke-width="4" stroke-miterlimit="10" stroke-linecap="round" stroke-linejoin="round"/>
<path d="M95 42V99H47V42H95Z" fill="white" stroke="#25607E" stroke-width="4"/>
<path d="M66.4301 35H74.3801" stroke="#25607E" stroke-width="3.9851" stroke-miterlimit="10" stroke-linecap="round" stroke-linejoin="round"/>
<path d="M74 106C74 107.654 72.6541 109 71 109C69.3459 109 68 107.654 68 106C68 104.346 69.3459 103 71 103C72.6541 103 74 104.346 74 106Z" fill="#8CB63C" stroke="#25607E" stroke-width="2" stroke-miterlimit="10" stroke-linecap="round" stroke-linejoin="round"/>
<path d="M53.2472 74.7664C53.2822 75.4504 53.8698 75.9853 54.5537 75.9502L57.123 75.8187C57.4124 75.8012 57.6755 75.9853 57.7807 76.2571C58.0438 76.9674 58.377 77.6689 58.7628 78.3354C58.9119 78.5897 58.8856 78.9054 58.6927 79.1246L56.9652 81.0274C56.5004 81.536 56.5443 82.3252 57.0529 82.79L60.6131 86.0082C61.1216 86.4729 61.9108 86.4291 62.3756 85.9205L64.1031 84.0176C64.296 83.7984 64.6117 83.7458 64.8747 83.8686C65.5763 84.193 66.3041 84.4473 67.0407 84.6402C67.3213 84.7104 67.5317 84.9559 67.5405 85.2453L67.672 87.8146C67.7071 88.4985 68.2946 89.0334 68.9786 88.9984L73.7752 88.7616C74.4592 88.7265 74.9941 88.139 74.959 87.455L74.8275 84.8858C74.8099 84.5964 74.9941 84.3333 75.2659 84.2281C75.9762 83.965 76.6777 83.6318 77.3441 83.246C77.5984 83.0969 77.9141 83.1232 78.1333 83.3161L80.0362 85.0436C80.5448 85.5083 81.334 85.4645 81.7988 84.9559L85.0169 81.3957C85.4817 80.8871 85.4379 80.0979 84.9293 79.6332L83.0264 77.9057C82.8072 77.7128 82.7546 77.3971 82.8773 77.134C83.2018 76.4325 83.4561 75.7047 83.649 74.9681C83.7191 74.6875 83.9647 74.477 84.254 74.4683L86.8233 74.3367C87.5073 74.3017 88.0422 73.7141 88.0071 73.0302L87.7704 68.2336C87.7353 67.5496 87.1478 67.0147 86.4638 67.0498L83.8945 67.1813C83.6051 67.1988 83.3421 67.0147 83.2369 66.7429C82.9738 66.0326 82.6406 65.3311 82.2547 64.6646C82.1057 64.4103 82.132 64.0947 82.3249 63.8754L84.0524 61.9726C84.5171 61.464 84.4733 60.6748 83.9647 60.21L80.4045 56.9918C79.8959 56.5271 79.1067 56.5709 78.6419 57.0795L76.9145 58.9824C76.7215 59.2016 76.4059 59.2542 76.1428 59.1314C75.4413 58.807 74.7135 58.5527 73.9769 58.3598C73.6963 58.2896 73.4858 58.0441 73.4771 57.7547L73.3455 55.1854C73.3104 54.5015 72.7229 53.9666 72.0389 54.0016L67.2424 54.2384C66.5584 54.2735 66.0235 54.861 66.0585 55.545L66.1901 58.1143C66.2076 58.4036 66.0235 58.6667 65.7516 58.7719C65.0326 59.035 64.3398 59.3682 63.6734 59.754C63.4191 59.9031 63.1034 59.8768 62.8842 59.6839L60.9726 57.9652C60.464 57.5004 59.6748 57.5443 59.21 58.0529L55.9918 61.6131C55.5271 62.1216 55.5709 62.9108 56.0795 63.3756L57.9824 65.1031C58.2016 65.296 58.2542 65.6117 58.1314 65.8747C57.807 66.5763 57.5527 67.3041 57.3598 68.0407C57.2896 68.3213 57.0441 68.5317 56.7547 68.5405L54.1854 68.672C53.5015 68.7071 52.9666 69.2946 53.0016 69.9786L53.2472 74.7664ZM64.4626 66.0414C67.4791 62.7092 72.6265 62.4461 75.9586 65.4626C79.2908 68.4791 79.5539 73.6265 76.5374 76.9587C73.5209 80.2908 68.3735 80.5539 65.0414 77.5374C61.7092 74.5209 61.4461 69.3735 64.4626 66.0414Z" fill="#19A2CA"/>
</svg>
