<?xml version="1.0" encoding="UTF-8"?>
<svg id="Calque_1" xmlns="http://www.w3.org/2000/svg" baseProfile="tiny" version="1.2" viewBox="0 0 141.7 141.7">
  <!-- Generator: Adobe Illustrator 30.2.0, SVG Export Plug-In . SVG Version: 2.1.1 Build 105)  -->
  <path d="M70.8,135.3c-.6,0-1.2,0-1.8,0-8.9-1-15.8-7.8-16.8-16.7-.2-2.6-1.4-4.9-3.4-6.5-1.9-1.6-4.4-2.4-6.8-2.2-.1,0-.3,0-.4,0-.8,0-1.6.2-3,.8-9.2,4.1-20.2,0-24.3-9.2-3.8-7.9-1.2-17.5,6-22.8,4.3-3.2,5.4-9.1,2.4-13.2,0,0,0-.1-.1-.2-.6-.8-1.4-1.5-2.4-2.3-8.2-6.1-10-17.4-4.1-25.8,5.1-7.3,14.7-9.8,22.8-6.1,4.6,2.2,10.4,0,12.8-4.6.5-.9.7-1.9.7-2.8s0-.3,0-.4c.5-4.9,2.8-9.4,6.7-12.6,3.8-3.2,8.7-4.7,13.6-4.2,8.9,1,15.8,7.8,16.8,16.7.5,5.3,5.1,9.2,10.2,8.7.1,0,.3,0,.4,0,.8,0,1.6-.2,3-.8,9.2-4.1,20.2,0,24.3,9.2,3.8,7.9,1.2,17.5-6,22.8-4.3,3.2-5.4,9.1-2.4,13.2,0,0,0,.1.1.2.6.8,1.4,1.5,2.4,2.3,8.2,6.1,10,17.4,4.1,25.8-5.1,7.3-14.7,9.8-22.8,6.1-4.6-2.2-10.4,0-12.8,4.6-.5.9-.7,1.9-.7,2.8s0,.3,0,.4c-.9,9.6-9,16.9-18.5,16.9ZM42.9,100.7c4.3,0,8.4,1.5,11.8,4.3,3.7,3.2,6.1,7.6,6.5,12.5.5,4.6,4.1,8.2,8.7,8.7,5.1.5,9.8-3.4,10.4-8.5,0-2.2.6-4.4,1.7-6.6,4.6-9.2,15.7-13.1,24.7-8.8,4.2,1.9,9,.7,11.6-3.1,3.1-4.4,2.2-10.3-2.1-13.5,0,0-.1,0-.2-.1-1.3-1-2.9-2.3-4.2-4.3-5.9-8.1-3.9-19.6,4.4-25.6,3.8-2.8,5.1-7.6,3.2-11.7h0c-2.1-4.8-7.8-6.9-12.5-4.8-1.9.8-3.9,1.6-6.4,1.6-10,.8-18.9-6.7-19.8-16.8-.5-4.6-4.1-8.2-8.7-8.7-2.5-.2-4.9.5-6.9,2.2-1.9,1.6-3.2,3.8-3.4,6.3,0,2.2-.6,4.4-1.7,6.6-4.6,9.2-15.7,13.1-24.7,8.8-4.2-1.9-9-.7-11.6,3.1-3.1,4.4-2.2,10.3,2.1,13.5,0,0,.1,0,.2.1,1.3,1,2.9,2.3,4.2,4.3,2.9,4,4,8.8,3.1,13.7-.9,4.8-3.5,9-7.5,11.9-3.8,2.8-5.1,7.6-3.2,11.7,0,0,0,0,0,.1,1,2.3,2.9,4,5.3,4.9,2.4.9,5,.8,7.3-.2,1.9-.8,3.9-1.5,6.4-1.6.5,0,1,0,1.5,0Z" fill="#dadcdd"/>
  <path d="M70.9,93.2c-12.4,0-22.5-10.1-22.5-22.5s10.1-22.5,22.5-22.5,22.5,10.1,22.5,22.5-10.1,22.5-22.5,22.5ZM70.9,57.3c-7.4,0-13.5,6.1-13.5,13.5s6.1,13.5,13.5,13.5,13.5-6.1,13.5-13.5-6.1-13.5-13.5-13.5Z" fill="#dadcdd"/>
</svg>