<?xml version="1.0" encoding="utf-8"?>
<!-- Generator: Adobe Illustrator 26.5.0, SVG Export Plug-In . SVG Version: 6.00 Build 0)  -->
<svg version="1.1" id="Calque_1" xmlns="http://www.w3.org/2000/svg" xmlns:xlink="http://www.w3.org/1999/xlink" x="0px" y="0px"
	 viewBox="0 0 141.73 141.73" style="enable-background:new 0 0 141.73 141.73;" xml:space="preserve">
<style type="text/css">
	.st0{fill:#8CB63C;stroke:#25607E;stroke-width:4.345;stroke-linecap:round;stroke-linejoin:round;stroke-miterlimit:10;}
	.st1{fill:#FFFFFF;}
	.st2{fill:#FFFFFF;stroke:#25607E;stroke-width:4.345;stroke-linecap:round;stroke-linejoin:round;stroke-miterlimit:10;}
	.st3{fill:#19A2CA;}
</style>
<g>
	<g>
		<path class="st0" d="M121.03,102.6H18.72V35.91c0-2.66,2.16-4.81,4.81-4.81h92.68c2.66,0,4.81,2.16,4.81,4.81v66.69H121.03z"/>
		<rect x="25.72" y="38.29" class="st1" width="88.31" height="55.39"/>
		<path class="st2" d="M124.27,110.63H17.51c-1.99,0-3.59-1.61-3.59-3.59v-4.39c0-0.02,0.02-0.04,0.04-0.04h113.78
			c0.05,0,0.08,0.04,0.08,0.08v4.39C127.82,109.04,126.23,110.63,124.27,110.63z"/>
	</g>
	<g>
		<path class="st3" d="M51.19,69.86c0.04,0.78,0.71,1.39,1.49,1.35l2.93-0.15c0.33-0.02,0.63,0.19,0.75,0.5
			c0.3,0.81,0.68,1.61,1.12,2.37c0.17,0.29,0.14,0.65-0.08,0.9L55.43,77c-0.53,0.58-0.48,1.48,0.1,2.01l4.06,3.67
			c0.58,0.53,1.48,0.48,2.01-0.1l1.97-2.17c0.22-0.25,0.58-0.31,0.88-0.17c0.8,0.37,1.63,0.66,2.47,0.88
			c0.32,0.08,0.56,0.36,0.57,0.69l0.15,2.93c0.04,0.78,0.71,1.39,1.49,1.35l5.47-0.27c0.78-0.04,1.39-0.71,1.35-1.49L75.8,81.4
			c-0.02-0.33,0.19-0.63,0.5-0.75c0.81-0.3,1.61-0.68,2.37-1.12c0.29-0.17,0.65-0.14,0.9,0.08l2.17,1.97
			c0.58,0.53,1.48,0.48,2.01-0.1l3.67-4.06c0.53-0.58,0.48-1.48-0.1-2.01l-2.17-1.97c-0.25-0.22-0.31-0.58-0.17-0.88
			c0.37-0.8,0.66-1.63,0.88-2.47c0.08-0.32,0.36-0.56,0.69-0.57l2.93-0.15c0.78-0.04,1.39-0.71,1.35-1.49l-0.27-5.47
			c-0.04-0.78-0.71-1.39-1.49-1.35l-2.93,0.15c-0.33,0.02-0.63-0.19-0.75-0.5c-0.3-0.81-0.68-1.61-1.12-2.37
			c-0.17-0.29-0.14-0.65,0.08-0.9l1.97-2.17c0.53-0.58,0.48-1.48-0.1-2.01l-4.06-3.67c-0.58-0.53-1.48-0.48-2.01,0.1l-1.97,2.17
			c-0.22,0.25-0.58,0.31-0.88,0.17c-0.8-0.37-1.63-0.66-2.47-0.88c-0.32-0.08-0.56-0.36-0.57-0.69l-0.15-2.93
			c-0.04-0.78-0.71-1.39-1.49-1.35l-5.47,0.27c-0.78,0.04-1.39,0.71-1.35,1.49l0.15,2.93c0.02,0.33-0.19,0.63-0.5,0.75
			c-0.82,0.3-1.61,0.68-2.37,1.12c-0.29,0.17-0.65,0.14-0.9-0.08L60,50.7c-0.58-0.53-1.48-0.48-2.01,0.1l-3.67,4.06
			c-0.53,0.58-0.48,1.48,0.1,2.01l2.17,1.97c0.25,0.22,0.31,0.58,0.17,0.88c-0.37,0.8-0.66,1.63-0.88,2.47
			c-0.08,0.32-0.36,0.56-0.69,0.57l-2.93,0.15c-0.78,0.04-1.39,0.71-1.35,1.49L51.19,69.86z M63.98,59.91
			c3.44-3.8,9.31-4.1,13.11-0.66c3.8,3.44,4.1,9.31,0.66,13.11c-3.44,3.8-9.31,4.1-13.11,0.66C60.84,69.58,60.54,63.71,63.98,59.91z
			"/>
	</g>
</g>
</svg>
