<?xml version="1.0" encoding="UTF-8"?>
<svg id="Calque_1" xmlns="http://www.w3.org/2000/svg" baseProfile="tiny" version="1.2" viewBox="0 0 141.7 141.7">
  <!-- Generator: Adobe Illustrator 30.2.0, SVG Export Plug-In . SVG Version: 2.1.1 Build 105)  -->
  <path d="M79.2,50.5c.7,1.7,2.4,2.7,4.1,2.7s1.2-.1,1.8-.4l1.1-.5c1.4,2,3.1,3.7,5.1,5.1l-.5,1.1c-1,2.3,0,4.9,2.3,5.9.6.3,1.2.4,1.8.4,1.7,0,3.4-1,4.1-2.7l.6-1.3c1.1.2,2.3.3,3.5.3s2.5-.1,3.7-.4l.6,1.3c.7,1.7,2.4,2.7,4.1,2.7s1.2-.1,1.8-.4c2.3-1,3.3-3.6,2.3-5.9l-.5-1.2c1.9-1.4,3.6-3.1,5-5l1.3.6c.6.3,1.2.4,1.8.4,1.7,0,3.4-1,4.1-2.7,1-2.3,0-4.9-2.3-5.9l-1.5-.6c.2-1.1.3-2.3.3-3.4s-.1-2.4-.3-3.6l1.5-.7c2.3-1,3.3-3.6,2.3-5.9-1-2.3-3.6-3.3-5.9-2.3l-1.4.6c-1.4-1.9-3-3.6-4.9-4.9l.6-1.4c1-2.3,0-4.9-2.3-5.9-2.3-1-4.9,0-5.9,2.3l-.7,1.5c-1.2-.2-2.4-.3-3.6-.3s-2.3.1-3.4.3l-.6-1.5c-1-2.3-3.6-3.3-5.9-2.3-2.3,1-3.3,3.6-2.3,5.9l.6,1.3c-2,1.4-3.6,3-5,5l-1.2-.5c-2.3-1-4.9,0-5.9,2.3-1,2.3,0,4.9,2.3,5.9l1.3.6c-.2,1.2-.4,2.4-.4,3.7s.1,2.4.3,3.5l-1.3.6c-2.3,1-3.3,3.6-2.3,5.9ZM114.8,40.5c0,4.8-2.9,8.8-7,10.7,0,0-.2,0-.3,0,0,0-.1,0-.2,0-1.3.5-2.8.8-4.3.8s-2.5-.2-3.7-.6c-.2-.1-.4-.2-.6-.3-.3-.1-.6-.2-.9-.3-2.3-1.1-4.2-3-5.3-5.3,0-.3-.2-.6-.3-.9,0-.2-.2-.4-.3-.6-.4-1.2-.6-2.4-.6-3.7s.3-2.9.8-4.3c0,0,0-.1.1-.2,0,0,0-.2,0-.3,1.8-4.1,5.9-7,10.7-7s11.7,5.2,11.7,11.7Z" fill="#dadcdd"/>
  <path d="M124.7,73.7c-2.5,0-4.5,2-4.5,4.5v10.8c0,3.6-2.7,6.3-6.3,6.3H27.8c-3.6,0-6.3-2.7-6.3-6.3v-53.9c0-3.6,2.7-6.3,6.3-6.3h37.7c2.5,0,4.5-2,4.5-4.5s-2-4.5-4.5-4.5H27.8c-8.6,0-15.3,6.7-15.3,15.3v53.9c0,8.6,6.7,15.3,15.3,15.3h38.6v12.5h-17c-2.5,0-4.5,2-4.5,4.5s2,4.5,4.5,4.5h43.1c2.5,0,4.5-2,4.5-4.5s-2-4.5-4.5-4.5h-17v-12.5h38.6c8.6,0,15.3-6.7,15.3-15.3v-10.8c0-2.5-2-4.5-4.5-4.5Z" fill="#dadcdd"/>
</svg>