<?xml version="1.0" encoding="UTF-8"?>
<svg id="Calque_1" xmlns="http://www.w3.org/2000/svg" baseProfile="tiny" version="1.2" viewBox="0 0 141.7 141.7">
  <!-- Generator: Adobe Illustrator 30.2.0, SVG Export Plug-In . SVG Version: 2.1.1 Build 105)  -->
  <path d="M127.5,56.5c-1.5,0-2.8.5-4,1.3,0,0,0,0,0,0,0-.1-.2-.2-.3-.4,0,0-.1-.1-.2-.2-.1-.1-.3-.3-.4-.4,0,0,0,0-.1-.1-.2-.2-.4-.3-.6-.4,0,0-.1,0-.1,0-.2,0-.3-.2-.5-.3,0,0-.2,0-.2-.1-.1,0-.3-.1-.4-.2,0,0-.2,0-.3,0-.1,0-.3,0-.4-.1.4-.4.8-.9,1-1.5,1-2.3,0-4.9-2.3-5.9l-.8-.3c.1-.8.2-1.6.2-2.5s0-1.8-.2-2.7l.8-.3c2.3-1,3.3-3.6,2.3-5.9-1-2.3-3.6-3.3-5.9-2.3l-.7.3c-1-1.3-2.2-2.5-3.6-3.6l.3-.7c1-2.3,0-4.9-2.3-5.9-2.3-1-4.9,0-5.9,2.3l-.3.8c-.9-.1-1.8-.2-2.7-.2s-1.7,0-2.5.2l-.3-.8c-1-2.3-3.6-3.3-5.9-2.3-2.3,1-3.3,3.6-2.3,5.9l.3.6c-1.4,1-2.6,2.2-3.7,3.6l-.6-.2c-2.3-1-4.9,0-5.9,2.3-1,2.3,0,4.9,2.3,5.9l.6.3c-.1.9-.2,1.8-.2,2.7s0,1.7.2,2.6l-.6.3c-2.3,1-3.3,3.6-2.3,5.9.7,1.7,2.4,2.7,4.1,2.7s1.2-.1,1.8-.4l.5-.2c1.1,1.4,2.3,2.6,3.7,3.7l-.2.5c-1,2.3,0,4.9,2.3,5.9.5.2,1,.3,1.5.3v.4c-2.7-1.2-5.9-.6-7.9,1.6-2.3,2.6-2.3,6.5,0,9.1,0,0,0,0,0,0l8.5,8.5c2.2,2.2,4.6,3.8,7.2,4.8H35.7c-2.6,0-4.6-2-4.6-4.6v-45.7c0-2.6,2-4.6,4.6-4.6h32c2.5,0,4.5-2,4.5-4.5s-2-4.5-4.5-4.5h-32c-7.7,0-13.6,6-13.6,13.6v45.7c0,7.7,6,13.6,13.6,13.6h32.1v9.3h-13.8c-2.5,0-4.5,2-4.5,4.5s2,4.5,4.5,4.5h36.6c2.5,0,4.5-2,4.5-4.5s-2-4.5-4.5-4.5h-13.8v-9.3h32.1c6.2,0,11.3-3.9,13-9.5,7.3-3.3,12.4-10.6,12.4-19.1v-8c0-3.8-3.1-6.8-6.8-6.8ZM122.5,85.2c-2.6,1.7-5.8,2.8-9.2,2.8h-4.7c-5.5,0-9.1-1.4-12.6-4.9l-8.4-8.4c-.9-1-.9-2.5,0-3.4.9-1.1,2.5-1.1,3.6-.2l1.8,1.8c.6.6,1.5.8,2.3.5.8-.3,1.3-1.1,1.3-2v-21.2c0-1.4,1.1-2.6,2.6-2.6s2.6,1.1,2.6,2.6v14.1c0,1.2,1,2.1,2.1,2.1s.8-.1,1.2-.3c.6-.4,1-1,1-1.8v-4.7c0-1.4,1.1-2.6,2.6-2.6s2.4.9,2.5,2.2c-.2.1-.3.3-.5.4l.2.6c.1.3.2.5.3.8v4.3c0,1.2,1,2.1,2.1,2.1s2.1-1,2.1-2.1v-3.3c0-1.4,1.1-2.6,2.6-2.6s2.6,1.1,2.6,2.6v5.9c0,1.2,1,2.1,2.1,2.1s2.1-.9,2.1-2.1v-4.5c0-1.4,1.1-2.6,2.6-2.6s2.6,1.1,2.6,2.6v8c0,5.8-3,10.9-7.5,13.9ZM91.5,49.2c0-.3-.1-.5-.2-.8,0-.2-.2-.3-.3-.5-.3-.9-.5-1.9-.5-2.8s.2-2.3.6-3.3c0,0,0-.1,0-.2,0,0,0-.1,0-.2,1.4-3.2,4.7-5.5,8.4-5.5s9.2,4.1,9.2,9.2-1.1,5-2.9,6.6v-1.5c0-3.8-3.1-6.8-6.8-6.8s-6.8,3.1-6.8,6.8v.5c-.4-.5-.7-1-1-1.5Z" fill="#dadcdd"/>
</svg>