<?xml version="1.0" encoding="utf-8"?>
<!-- Generator: Adobe Illustrator 26.5.0, SVG Export Plug-In . SVG Version: 6.00 Build 0)  -->
<svg version="1.1" id="Calque_1" xmlns="http://www.w3.org/2000/svg" xmlns:xlink="http://www.w3.org/1999/xlink" x="0px" y="0px"
	 viewBox="0 0 141.73 141.73" style="enable-background:new 0 0 141.73 141.73;" xml:space="preserve">
<style type="text/css">
	.st0{fill:#8CB63C;stroke:#25607E;stroke-width:4.2557;stroke-linecap:round;stroke-linejoin:round;stroke-miterlimit:10;}
	.st1{fill:#FFFFFF;}
	.st2{fill:#FFFFFF;stroke:#25607E;stroke-width:4.2557;stroke-linecap:round;stroke-linejoin:round;stroke-miterlimit:10;}
	.st3{fill:#19A2CA;}
</style>
<g>
	<g>
		<g>
			<path class="st0" d="M120,86.63H19.8V21.31c0-2.6,2.11-4.72,4.72-4.72h90.77c2.6,0,4.72,2.11,4.72,4.72V86.63z"/>
			
				<rect x="43.36" y="8.46" transform="matrix(-1.836970e-16 1 -1 -1.836970e-16 120.6599 -19.1348)" class="st1" width="53.07" height="84.61"/>
			<path class="st2" d="M123.17,94.49H18.61c-1.94,0-3.52-1.58-3.52-3.52v-4.3c0-0.02,0.02-0.04,0.04-0.04h111.44
				c0.05,0,0.08,0.04,0.08,0.08v4.3C126.65,92.93,125.09,94.49,123.17,94.49z"/>
		</g>
		<g>
			<path class="st3" d="M48.81,55.08c0.04,0.88,0.79,1.55,1.67,1.51l3.28-0.16c0.37-0.02,0.71,0.21,0.84,0.56
				c0.34,0.91,0.76,1.8,1.26,2.66c0.19,0.32,0.16,0.73-0.1,1l-2.2,2.44c-0.59,0.65-0.54,1.66,0.11,2.25l4.55,4.11
				c0.65,0.59,1.66,0.54,2.25-0.11l2.2-2.44c0.25-0.28,0.65-0.35,0.99-0.2c0.9,0.41,1.83,0.74,2.77,0.99
				c0.36,0.09,0.62,0.4,0.64,0.78l0.16,3.28c0.04,0.88,0.79,1.55,1.67,1.51l6.13-0.31c0.88-0.04,1.55-0.79,1.51-1.67l-0.16-3.28
				c-0.02-0.37,0.21-0.71,0.56-0.84c0.91-0.34,1.8-0.76,2.66-1.26c0.32-0.19,0.73-0.16,1,0.1l2.44,2.2
				c0.65,0.59,1.66,0.54,2.25-0.11l4.11-4.55c0.59-0.65,0.54-1.66-0.11-2.25l-2.44-2.2c-0.28-0.25-0.35-0.65-0.2-0.99
				c0.41-0.9,0.74-1.83,0.99-2.77c0.1-0.36,0.4-0.62,0.78-0.64l3.28-0.16c0.88-0.04,1.55-0.79,1.51-1.67l-0.31-6.13
				c-0.04-0.88-0.79-1.55-1.67-1.51l-3.28,0.16c-0.37,0.02-0.71-0.21-0.84-0.56c-0.34-0.91-0.76-1.8-1.26-2.66
				c-0.19-0.32-0.16-0.73,0.1-1l2.2-2.44c0.59-0.65,0.54-1.66-0.11-2.25l-4.55-4.11c-0.65-0.59-1.66-0.54-2.25,0.11l-2.2,2.44
				c-0.25,0.28-0.65,0.35-0.99,0.2c-0.9-0.41-1.83-0.74-2.77-0.99c-0.36-0.1-0.62-0.4-0.64-0.78l-0.16-3.28
				c-0.04-0.88-0.79-1.55-1.67-1.51l-6.13,0.31c-0.88,0.04-1.55,0.79-1.51,1.67l0.16,3.28c0.02,0.37-0.21,0.71-0.56,0.84
				c-0.91,0.34-1.8,0.76-2.66,1.26c-0.32,0.19-0.73,0.16-1-0.1l-2.44-2.2c-0.65-0.59-1.66-0.54-2.25,0.11l-4.12,4.55
				c-0.59,0.65-0.54,1.66,0.11,2.25l2.44,2.2c0.28,0.25,0.35,0.65,0.2,0.99c-0.41,0.9-0.74,1.83-0.99,2.77
				c-0.1,0.36-0.4,0.62-0.78,0.64l-3.28,0.16c-0.88,0.04-1.55,0.79-1.51,1.67L48.81,55.08z M63.15,43.92
				c3.86-4.26,10.44-4.59,14.7-0.74c4.26,3.86,4.59,10.44,0.74,14.7c-3.86,4.26-10.44,4.59-14.7,0.74
				C59.62,54.77,59.29,48.19,63.15,43.92z"/>
		</g>
	</g>
	<g>
		<path class="st2" d="M62.02,114.95c-8.7-11.51-14.14-30.36-14.14-30.36c-1.29-2.82-0.09-6.18,2.67-7.5
			c2.76-1.32,6.05-0.1,7.33,2.72l6.92,15.2l0,0l0.03-39.69c0-3.12,2.48-5.64,5.52-5.65c3.05,0,5.52,2.52,5.51,5.64l-0.02,26.72
			l0-2.82c0-3.12,2.48-5.64,5.52-5.65c3.05,0,5.52,2.52,5.51,5.64l0,1.13c0-3.12,2.48-5.64,5.52-5.65c3.05,0,5.52,2.52,5.51,5.64
			l0,1.13c0-3.12,2.48-5.64,5.52-5.65c3.05,0,5.52,2.52,5.51,5.64l-0.01,16.8c-0.01,14.84-11.79,26.89-26.31,26.9
			c-5.29,0-10.21-1.59-14.33-4.33C65.92,119.22,63.79,117.24,62.02,114.95"/>
	</g>
</g>
</svg>
