<svg version="1.1" id="Calque_1" xmlns="http://www.w3.org/2000/svg" xmlns:xlink="http://www.w3.org/1999/xlink" x="0px" y="0px"
	 viewBox="0 0 141.7 141.7" style="enable-background:new 0 0 141.7 141.7;" xml:space="preserve">
<path d="M120 104.981C120 105 119.824 105 119.824 105H29.6655C25.982 105 23 104.684 23 104.293V89.7068C23 89.3162 25.982 89 29.6655 89H119.824C120 89 120 89.0186 120 89.0186V104.981Z" fill="#8CB63C" stroke="#24607E" stroke-width="3.9006" stroke-miterlimit="10" stroke-linecap="round" stroke-linejoin="round"/>
<path d="M55.2222 41.9187C51.7289 39.2709 47.8706 38 43.4908 38C32.2287 38 23 47.3732 23 58.8116C23 70.1441 32.3851 79.3054 43.4908 79.3054C47.662 79.3054 51.8332 77.8756 55.2222 75.3867V69.8793C52.0939 73.0567 47.7663 75.1749 43.3344 75.1749C34.5228 75.1749 27.3797 67.4434 27.3797 58.6527C27.3797 49.8621 34.4707 42.1305 43.2301 42.1305C47.7663 42.1305 52.0939 44.1429 55.2222 47.4261V41.9187ZM83.9406 44.1958C81.855 40.2771 78.1531 38 73.7734 38C67.9337 38 62.7719 41.9717 62.7719 48.1675C62.7719 53.8867 66.7345 56.2697 71.3228 58.3879L73.7212 59.447C77.371 61.1416 80.9686 62.7303 80.9686 67.3904C80.9686 71.8916 77.1103 75.1749 72.887 75.1749C68.6637 75.1749 65.5874 71.8387 65.0139 67.7611L60.7385 68.9791C61.9898 75.1749 66.6824 79.3054 72.9913 79.3054C79.8215 79.3054 85.3483 73.9569 85.3483 66.9667C85.3483 60.6121 81.0208 58.0172 75.9111 55.7401L73.3041 54.5751C70.645 53.3571 67.1516 51.7685 67.1516 48.3264C67.1516 44.6724 70.1757 42.1305 73.6691 42.1305C77.006 42.1305 78.883 43.7192 80.4472 46.4729L83.9406 44.1958ZM92.8353 38.6884H88.0906L104.045 81L120 38.6884H115.255L104.045 69.1379L92.8353 38.6884Z" fill="#24607E"/>
</svg>
