<?xml version="1.0" encoding="UTF-8"?>
<svg id="Calque_1" xmlns="http://www.w3.org/2000/svg" baseProfile="tiny" version="1.2" viewBox="0 0 141.7 141.7">
  <!-- Generator: Adobe Illustrator 30.2.0, SVG Export Plug-In . SVG Version: 2.1.1 Build 105)  -->
  <path d="M124.7,101H17c-2.5,0-4.5-2-4.5-4.5s2-4.5,4.5-4.5h107.7c2.5,0,4.5,2,4.5,4.5s-2,4.5-4.5,4.5Z" fill="#dadcdd"/>
  <g>
    <path d="M53,69.5c0,1.1-.3,2.3-.8,3.6s-1.4,2.5-2.6,3.8c-1.2,1.2-2.7,2.2-4.5,3-1.8.8-3.9,1.2-6.3,1.2s-3.5-.2-5-.5c-1.5-.3-2.9-.9-4.1-1.6-1.2-.7-2.3-1.7-3.4-2.9-.9-1.1-1.7-2.3-2.3-3.7-.6-1.3-1.1-2.8-1.5-4.3-.3-1.5-.5-3.2-.5-4.9,0-2.8.4-5.3,1.2-7.5.8-2.2,2-4.1,3.5-5.7,1.5-1.6,3.3-2.8,5.3-3.6,2-.8,4.2-1.2,6.5-1.2s5.3.6,7.5,1.7c2.2,1.1,3.9,2.5,5,4.1,1.2,1.6,1.7,3.2,1.7,4.7s-.3,1.5-.9,2.1c-.6.6-1.3.9-2.1.9s-1.6-.2-2-.6c-.4-.4-.9-1.2-1.5-2.2-.9-1.7-2-3-3.2-3.9-1.2-.9-2.8-1.3-4.6-1.3-2.9,0-5.2,1.1-6.9,3.3s-2.6,5.3-2.6,9.3.4,4.9,1.1,6.7,1.8,3.1,3.2,4c1.4.9,3,1.3,4.9,1.3s3.7-.5,5.1-1.5c1.4-1,2.4-2.5,3.2-4.4.3-.9.7-1.7,1.1-2.2.4-.6,1.1-.9,2.1-.9s1.6.3,2.2.9c.6.6.9,1.3.9,2.2Z" fill="#dadcdd"/>
    <path d="M85.6,70c0,2.1-.5,4-1.6,5.6-1.1,1.7-2.7,3-4.7,3.9s-4.5,1.4-7.4,1.4-6.2-.6-8.5-1.9c-1.6-.9-2.9-2.2-3.8-3.7-1-1.6-1.5-3.1-1.5-4.5s.3-1.6.9-2.2,1.3-.9,2.3-.9,1.4.2,1.9.7c.5.5.9,1.2,1.3,2.1.4,1.1.9,2,1.4,2.8.5.7,1.2,1.4,2.2,1.8.9.5,2.2.7,3.7.7s3.8-.5,5.1-1.5c1.3-1,2-2.2,2-3.6s-.4-2.1-1.1-2.8-1.6-1.3-2.7-1.6c-1.1-.4-2.6-.8-4.5-1.2-2.5-.6-4.6-1.3-6.3-2-1.7-.8-3-1.8-4-3.2-1-1.3-1.5-3-1.5-5s.5-3.6,1.6-5.1c1-1.5,2.5-2.6,4.5-3.4,2-.8,4.3-1.2,6.9-1.2s4,.3,5.5.8c1.6.5,2.8,1.2,3.9,2.1,1,.9,1.8,1.8,2.2,2.8.5,1,.7,1.9.7,2.8s-.3,1.6-.9,2.3c-.6.7-1.3,1-2.2,1s-1.4-.2-1.8-.6c-.4-.4-.9-1.1-1.4-2-.6-1.3-1.4-2.3-2.3-3.1-.9-.7-2.3-1.1-4.3-1.1s-3.3.4-4.4,1.2c-1.1.8-1.7,1.8-1.7,2.9s.2,1.3.6,1.8.9.9,1.6,1.3c.7.4,1.3.6,2,.9.7.2,1.8.5,3.4.9,2,.5,3.7,1,5.3,1.5,1.6.6,2.9,1.2,4,2,1.1.8,2,1.8,2.6,3,.6,1.2.9,2.7.9,4.4Z" fill="#dadcdd"/>
    <path d="M96.7,49.8l7.8,23.2,7.9-23.4c.4-1.2.7-2.1.9-2.6.2-.5.5-.9,1-1.3.5-.4,1.1-.6,1.9-.6s1.2.2,1.7.4c.5.3.9.7,1.2,1.2.3.5.4,1,.4,1.5s0,.7-.1,1.1-.2.8-.4,1.2c-.1.4-.3.8-.4,1.2l-8.4,22.6c-.3.9-.6,1.7-.9,2.5-.3.8-.6,1.5-1,2.1-.4.6-.9,1.1-1.6,1.5-.7.4-1.5.6-2.4.6s-1.7-.2-2.4-.6c-.7-.4-1.2-.9-1.6-1.5s-.8-1.3-1.1-2.1c-.3-.8-.6-1.6-.9-2.5l-8.2-22.5c-.1-.4-.3-.8-.4-1.2-.2-.4-.3-.8-.4-1.3-.1-.5-.2-.8-.2-1.2,0-.8.3-1.5,1-2.2.6-.7,1.5-1,2.4-1s2,.4,2.5,1.1c.5.7,1,1.9,1.5,3.5Z" fill="#dadcdd"/>
  </g>
</svg>