<svg version="1.1" id="Calque_1" xmlns="http://www.w3.org/2000/svg" xmlns:xlink="http://www.w3.org/1999/xlink" x="0px" y="0px"
	 viewBox="0 0 141.7 141.7" style="enable-background:new 0 0 141.7 141.7;" xml:space="preserve">
<path d="M114.016 92.991C114.016 93 113.86 93 113.86 93L33.9256 93C30.6598 93 28.016 92.8468 28.016 92.6576L28.016 85.5941C28.016 85.4049 30.6598 85.2518 33.9256 85.2518L113.86 85.2518C114.016 85.2518 114.016 85.2608 114.016 85.2608V92.991Z" fill="#8CB63C" stroke="#24607E" stroke-width="3.9006" stroke-miterlimit="10" stroke-linecap="round" stroke-linejoin="round"/>
<path d="M59.1491 52.666C56.6031 50.766 53.7911 49.854 50.5991 49.854C42.3911 49.854 35.6651 56.58 35.6651 64.788C35.6651 72.92 42.5051 79.494 50.5991 79.494C53.6391 79.494 56.6791 78.468 59.1491 76.682V72.73C56.8691 75.01 53.7151 76.53 50.4851 76.53C44.0631 76.53 38.8571 70.982 38.8571 64.674C38.8571 58.366 44.0251 52.818 50.4091 52.818C53.7151 52.818 56.8691 54.262 59.1491 56.618V52.666ZM80.0794 54.3C78.5594 51.488 75.8614 49.854 72.6694 49.854C68.4134 49.854 64.6514 52.704 64.6514 57.15C64.6514 61.254 67.5394 62.964 70.8834 64.484L72.6314 65.244C75.2914 66.46 77.9134 67.6 77.9134 70.944C77.9134 74.174 75.1014 76.53 72.0234 76.53C68.9454 76.53 66.7034 74.136 66.2854 71.21L63.1694 72.084C64.0814 76.53 67.5014 79.494 72.0994 79.494C77.0774 79.494 81.1054 75.656 81.1054 70.64C81.1054 66.08 77.9514 64.218 74.2274 62.584L72.3274 61.748C70.3894 60.874 67.8434 59.734 67.8434 57.264C67.8434 54.642 70.0474 52.818 72.5934 52.818C75.0254 52.818 76.3934 53.958 77.5334 55.934L80.0794 54.3ZM86.562 50.348H83.104L94.732 80.71L106.36 50.348H102.902L94.732 72.198L86.562 50.348Z" fill="#24607E"/>
</svg>
