<?xml version="1.0" encoding="utf-8"?>
<!-- Generator: Adobe Illustrator 26.5.0, SVG Export Plug-In . SVG Version: 6.00 Build 0)  -->
<svg version="1.1" id="Calque_1" xmlns="http://www.w3.org/2000/svg" xmlns:xlink="http://www.w3.org/1999/xlink" x="0px" y="0px"
	 viewBox="0 0 141.73 141.73" style="enable-background:new 0 0 141.73 141.73;" xml:space="preserve">
<style type="text/css">
	.st0{fill:#8CB63C;stroke:#25607E;stroke-width:3.9851;stroke-miterlimit:10;}
	.st1{fill:#FFFFFF;}
	.st2{fill:#8CB63C;}
</style>
<g>
	<g>
		<path class="st0" d="M103.82,30.53h-11.2v-1.76c0-5.89-4.79-10.68-10.68-10.68H59.79c-5.89,0-10.68,4.79-10.68,10.68v1.76h-11.2
			c-5.74,0-10.41,4.67-10.41,10.41c0,4.49,2.91,8.48,7.15,9.88v60.57c0,6.76,5.5,12.26,12.26,12.26h47.92
			c6.76,0,12.26-5.5,12.26-12.26V50.82c4.23-1.4,7.15-5.39,7.15-9.88C114.23,35.2,109.56,30.53,103.82,30.53z"/>
	</g>
	<path class="st1" d="M99.88,51.35v58.27c0,3.76-3.06,6.83-6.83,6.83H48.67c-3.76,0-6.83-3.06-6.83-6.83V51.35H99.88z"/>
	<path class="st1" d="M106.36,40.94c0,1.77-1.44,3.21-3.21,3.21H38.59c-1.77,0-3.21-1.44-3.21-3.21s1.44-3.21,3.21-3.21h64.56
		C104.92,37.73,106.36,39.17,106.36,40.94z"/>
	<path class="st2" d="M56.41,108.51c2.03,0,3.68-1.65,3.68-3.68v-45.9c0-2.03-1.65-3.68-3.68-3.68s-3.68,1.65-3.68,3.68v45.9
		C52.72,106.86,54.38,108.51,56.41,108.51z"/>
	<path class="st2" d="M70.87,108.51c2.03,0,3.68-1.65,3.68-3.68v-45.9c0-2.03-1.65-3.68-3.68-3.68s-3.68,1.65-3.68,3.68v45.9
		C67.18,106.86,68.84,108.51,70.87,108.51z"/>
	<path class="st2" d="M85.32,108.51c2.03,0,3.68-1.65,3.68-3.68v-45.9c0-2.03-1.65-3.68-3.68-3.68s-3.68,1.65-3.68,3.68v45.9
		C81.64,106.86,83.29,108.51,85.32,108.51z"/>
	<path class="st1" d="M56.47,30.53v-1.36c0-1.96,1.59-3.55,3.55-3.55h21.69c1.96,0,3.55,1.59,3.55,3.55v1.36H56.47z"/>
</g>
</svg>
