<?xml version="1.0" encoding="UTF-8"?>
<svg id="Calque_1" xmlns="http://www.w3.org/2000/svg" baseProfile="tiny" version="1.2" viewBox="0 0 141.7 141.7">
  <!-- Generator: Adobe Illustrator 30.2.0, SVG Export Plug-In . SVG Version: 2.1.1 Build 105)  -->
  <path d="M59.7,61.1c-2.3,0-4.2,1.9-4.2,4.2v33.7c0,2.3,1.9,4.2,4.2,4.2s4.2-1.9,4.2-4.2v-33.7c0-2.3-1.9-4.2-4.2-4.2Z" fill="#dadcdd"/>
  <path d="M82.1,61.1c-2.3,0-4.2,1.9-4.2,4.2v33.7c0,2.3,1.9,4.2,4.2,4.2s4.2-1.9,4.2-4.2v-33.7c0-2.3-1.9-4.2-4.2-4.2Z" fill="#dadcdd"/>
  <path d="M121.4,32.9h-24v-7c0-8.5-6.9-15.4-15.4-15.4h-22.5c-8.5,0-15.4,6.9-15.4,15.4v7h-23.8c-2.3,0-4.2,1.9-4.2,4.2s1.9,4.2,4.2,4.2h7.1v74.4c0,8.5,6.9,15.4,15.4,15.4h56.2c8.5,0,15.4-6.9,15.4-15.4V41.4h7c2.3,0,4.2-1.9,4.2-4.2s-1.9-4.2-4.2-4.2ZM52.6,26c0-3.8,3.1-7,7-7h22.5c3.8,0,7,3.1,7,7v7h-36.4v-7ZM106,115.8c0,3.8-3.1,7-7,7h-56.2c-3.8,0-7-3.1-7-7V41.4h70.1v74.4Z" fill="#dadcdd"/>
</svg>