<?xml version="1.0" encoding="utf-8"?>
<!-- Generator: Adobe Illustrator 26.5.0, SVG Export Plug-In . SVG Version: 6.00 Build 0)  -->
<svg version="1.1" id="Calque_1" xmlns="http://www.w3.org/2000/svg" xmlns:xlink="http://www.w3.org/1999/xlink" x="0px" y="0px"
	 viewBox="0 0 141.73 141.73" style="enable-background:new 0 0 141.73 141.73;" xml:space="preserve">
<style type="text/css">
	.st0{fill:#FFFFFF;stroke:#25607E;stroke-width:3.9851;stroke-linecap:round;stroke-linejoin:round;stroke-miterlimit:10;}
	.st1{fill:none;stroke:#25607E;stroke-width:3.9851;stroke-linecap:round;stroke-linejoin:round;stroke-miterlimit:10;}
	.st2{fill:#8CB63C;stroke:#25607E;stroke-width:3.9851;stroke-linecap:round;stroke-linejoin:round;stroke-miterlimit:10;}
	.st3{fill:#8CB63C;stroke:#25607E;stroke-width:3.9852;stroke-linecap:round;stroke-linejoin:round;stroke-miterlimit:10.0002;}
	.st4{fill:#19A2CA;}
</style>
<g>
	<g>
		<path class="st0" d="M104.72,89c11.12,0,20.14-9.02,20.14-20.14c0-10.08-7.42-18.41-17.08-19.88c0.17-0.91,0.27-1.85,0.27-2.81
			c0-8.25-6.69-14.93-14.93-14.93c-2.51,0-4.87,0.63-6.95,1.72c-4.76-6.97-12.76-11.54-21.83-11.54c-14.6,0-26.43,11.83-26.43,26.43
			c0,0.3,0.03,0.59,0.04,0.88c-0.01,0-0.03,0-0.04,0c-11.12,0-20.14,9.01-20.14,20.14s9.02,19.02,20.14,19.02L104.72,89z"/>
		<path class="st0" d="M118.4,68.87c0,7.53-6.11,13.65-13.63,13.68"/>
		<path class="st0" d="M44.41,48.52c-0.01-0.2-0.02-0.39-0.03-0.59l-0.01-0.13c0.03-10.99,8.98-19.91,19.97-19.91"/>
		<path class="st0" d="M37.91,81.43c-7.93,0-13.68-5.28-13.68-12.56"/>
	</g>
	<polyline class="st1" points="63.83,75.67 63.83,115.13 43.65,115.13 	"/>
	<polyline class="st1" points="91.23,74.08 91.23,101.89 112.77,101.89 	"/>
	<g>
		<polyline class="st1" points="50.75,74.08 50.75,102.27 21.27,102.27 		"/>
		<circle class="st2" cx="22.05" cy="102.27" r="5.18"/>
	</g>
	<g>
		<polyline class="st1" points="79.74,86.69 79.74,114.89 104.07,114.89 		"/>
		<ellipse class="st3" cx="103.28" cy="114.89" rx="5.18" ry="5.18"/>
	</g>
	<circle class="st2" cx="45.74" cy="115.13" r="5.18"/>
	<circle class="st2" cx="118.19" cy="101.23" r="5.18"/>
	<g>
		<g>
			<circle class="st0" cx="71.15" cy="73.56" r="26.75"/>
		</g>
	</g>
	<path class="st4" d="M88.19,75.91v-4.7c0-0.67-0.55-1.22-1.22-1.22h-2.52c-0.29,0-0.53-0.19-0.62-0.46
		c-0.23-0.72-0.52-1.42-0.86-2.08c-0.13-0.25-0.09-0.56,0.11-0.77l1.78-1.78c0.48-0.48,0.48-1.25,0-1.73l-3.32-3.32
		c-0.48-0.48-1.25-0.48-1.73,0l-1.78,1.78c-0.2,0.2-0.51,0.24-0.77,0.11c-0.66-0.34-1.36-0.63-2.08-0.86
		c-0.27-0.09-0.46-0.33-0.46-0.62v-2.52c0-0.67-0.55-1.22-1.22-1.22h-4.7c-0.67,0-1.22,0.55-1.22,1.22v2.52
		c0,0.29-0.19,0.53-0.46,0.62c-0.72,0.23-1.42,0.52-2.08,0.86c-0.25,0.13-0.56,0.09-0.77-0.11l-1.78-1.78
		c-0.48-0.48-1.25-0.48-1.73,0l-3.32,3.32c-0.48,0.48-0.48,1.25,0,1.73l1.78,1.78c0.2,0.2,0.24,0.51,0.11,0.77
		c-0.34,0.66-0.63,1.36-0.86,2.08c-0.09,0.27-0.33,0.46-0.62,0.46h-2.52c-0.67,0-1.22,0.55-1.22,1.22v4.7
		c0,0.67,0.55,1.22,1.22,1.22h2.52c0.29,0,0.53,0.19,0.62,0.46c0.23,0.72,0.52,1.42,0.86,2.08c0.13,0.25,0.09,0.56-0.11,0.77
		l-1.78,1.78c-0.48,0.48-0.48,1.25,0,1.73l3.32,3.32c0.48,0.48,1.25,0.48,1.73,0l1.78-1.78c0.2-0.2,0.51-0.24,0.77-0.11
		c0.66,0.34,1.36,0.63,2.08,0.86c0.27,0.09,0.46,0.33,0.46,0.62v2.52c0,0.67,0.55,1.22,1.22,1.22h4.7c0.67,0,1.22-0.55,1.22-1.22
		v-2.52c0-0.29,0.19-0.53,0.46-0.62c0.72-0.23,1.42-0.52,2.08-0.86c0.25-0.13,0.56-0.09,0.77,0.11l1.78,1.78
		c0.48,0.48,1.25,0.48,1.73,0l3.32-3.32c0.48-0.48,0.48-1.25,0-1.73l-1.78-1.78c-0.2-0.2-0.24-0.51-0.11-0.77
		c0.34-0.66,0.63-1.36,0.86-2.08c0.09-0.27,0.33-0.46,0.62-0.46h2.52C87.65,77.13,88.19,76.59,88.19,75.91z M71.15,80.22
		c-3.67,0-6.65-2.98-6.65-6.65s2.98-6.65,6.65-6.65s6.65,2.98,6.65,6.65C77.81,77.24,74.83,80.22,71.15,80.22z"/>
</g>
</svg>
