<?xml version="1.0" encoding="UTF-8"?>
<svg id="Calque_1" xmlns="http://www.w3.org/2000/svg" baseProfile="tiny" version="1.2" viewBox="0 0 141.7 141.7">
  <!-- Generator: Adobe Illustrator 30.2.0, SVG Export Plug-In . SVG Version: 2.1.1 Build 105)  -->
  <path d="M90.4,74.1l-.7-.3c.2-1,.3-1.9.3-2.9s-.1-2-.3-2.9l.7-.3c2.3-1,3.4-3.6,2.4-5.9-1-2.3-3.6-3.4-5.9-2.4l-.7.3c-1.1-1.5-2.5-2.9-4-4l.3-.8c1-2.3-.1-4.9-2.4-5.9-2.3-1-4.9.1-5.9,2.4l-.4.8c-.9-.1-1.9-.2-2.9-.2s-2,.1-2.9.3l-.3-.7c-1-2.3-3.6-3.4-5.9-2.4-2.3,1-3.4,3.6-2.4,5.9l.3.7c-1.5,1.1-2.9,2.5-4,4l-.8-.3c-2.3-1-4.9.1-5.9,2.4-1,2.3.1,4.9,2.4,5.9l.8.4c-.1.9-.2,1.9-.2,2.9s0,1.9.2,2.9l-.8.4c-2.3,1-3.4,3.6-2.4,5.9.7,1.7,2.4,2.8,4.1,2.8s1.2-.1,1.7-.4l.8-.3c1.1,1.5,2.5,2.9,4,4l-.3.8c-1,2.3.1,4.9,2.4,5.9.6.2,1.2.4,1.7.4,1.8,0,3.4-1,4.1-2.8l.4-.8c.9.1,1.9.2,2.9.2s1.9,0,2.9-.2l.4.8c.7,1.7,2.4,2.8,4.1,2.8s1.2-.1,1.7-.4c2.3-1,3.4-3.6,2.4-5.9l-.3-.8c1.5-1.1,2.9-2.5,4-4l.7.3c.6.2,1.2.4,1.7.4,1.8,0,3.4-1,4.1-2.8,1-2.3-.1-4.9-2.4-5.9ZM61,70.8c0-4,2.4-7.5,5.8-9,0,0,.2,0,.3,0,0,0,.2,0,.2-.1,1.1-.4,2.3-.7,3.5-.7,4,0,7.5,2.4,9,5.8,0,0,0,.2,0,.3,0,.1.1.2.2.3.4,1.1.6,2.3.6,3.5s-.2,2.4-.7,3.5c0,0,0,.2-.1.2,0,0,0,.2,0,.3-1.6,3.4-5,5.8-9,5.8s-9.9-4.5-9.9-9.9Z" fill="#dadcdd"/>
  <path d="M117.4,64.6c.3-.7.5-1.5.7-2.3,3-11.6-3.2-23.4-13.9-27.8-.1-.8-.2-1.5-.5-2.3-1.3-4.9-4.5-8.9-8.8-11.5-4.4-2.6-9.5-3.2-14.4-1.9-3.8,1-7.1,3.2-9.6,6.1-3.5-4.1-8.7-6.7-14.4-6.7s-13.3,3.8-16.6,9.8c-1.1,2-1.8,4.1-2.1,6.4-4.7,2-8.7,5.4-11.3,9.9-3.2,5.5-4.1,11.8-2.6,17.9.2.8.4,1.5.7,2.2-1.8,2-3.2,4.2-4.3,6.7-2.5,5.9-2.5,12.3-.1,18.1,1.6,4.1,4.5,7.6,8,10.2,0,5.3,1.6,10.4,4.9,14.7,3.9,5,9.5,8.3,15.8,9.1,1.1.1,2.1.2,3.1.2,7.6,0,14.7-3.7,19.2-9.9,7,9.8,20.5,12.8,31.2,6.7,7.5-4.4,12-12.4,11.8-20.9,3.4-2.5,6.1-6,7.7-10.1,3.5-8.6,1.4-18.2-4.4-24.8ZM113.4,86c-2.2,5.6-7.6,9.2-13.6,9.2s-4.5,2-4.5,4.5,2,4.5,4.5,4.5,3.2-.2,4.7-.5c-1,3.6-3.4,6.8-6.8,8.8-3.4,2-7.4,2.5-11.2,1.5-3.8-1-7-3.5-9-6.9,0,0,0,0,0-.1-1.3-2-3.7-3.3-6.4-3.3s-5.2,1.2-6.5,3.4c-3.1,5.2-8.8,8.1-14.7,7.3-3.9-.5-7.4-2.5-9.8-5.7-1.2-1.5-2-3.2-2.5-5,1.5.3,3,.5,4.6.5,2.5,0,4.5-2,4.5-4.5s-2-4.5-4.5-4.5c-6,0-11.5-3.7-13.7-9.2-1.5-3.6-1.5-7.6,0-11.2.9-2.1,2.2-3.9,3.9-5.4.3-.2.5-.4.7-.6,1-.8,2.2-1.5,3.4-2,2.3-.9,3.4-3.5,2.5-5.8-.9-2.3-3.5-3.4-5.8-2.5-.3.1-.6.3-.9.4-.6-3.4,0-6.9,1.9-9.9,1.2-2,2.9-3.7,4.8-5,.4,1,.9,1.9,1.3,2.7.8,1.4,2.3,2.2,3.9,2.2s1.6-.2,2.3-.6c2.1-1.3,2.9-4,1.6-6.2-.9-1.5-1.3-3-1.3-4.3s0-.6-.1-.9c0-1.5.4-3.1,1.2-4.4,1.8-3.2,5.1-5.2,8.8-5.2,5.5,0,9.9,4.5,9.9,9.9s2,4.5,4.5,4.5,4.5-2,4.5-4.5.5-3.5,1.4-5c1.4-2.3,3.5-4,6.1-4.7,2.5-.7,5.2-.3,7.5,1,2.3,1.4,4,3.5,4.7,6.1.7,2.6.3,5.2-1,7.5-1.3,2.1-.5,4.9,1.6,6.2,2.1,1.3,4.9.5,6.2-1.6.5-.8.9-1.7,1.2-2.6,4.9,3.1,7.6,8.9,6.6,14.8-.3-.1-.6-.3-.9-.4-2.3-.9-4.9.1-5.9,2.4s.1,4.9,2.4,5.9c1.4.6,2.6,1.3,3.7,2.2,0,0,.1,0,.2.1,4.8,4,6.8,10.8,4.3,16.9Z" fill="#dadcdd"/>
</svg>