<?xml version="1.0" encoding="utf-8"?>
<!-- Generator: Adobe Illustrator 27.0.0, SVG Export Plug-In . SVG Version: 6.00 Build 0)  -->
<svg version="1.1" id="Calque_1" xmlns="http://www.w3.org/2000/svg" xmlns:xlink="http://www.w3.org/1999/xlink" x="0px" y="0px"
	 viewBox="0 0 141.7 141.7" style="enable-background:new 0 0 141.7 141.7;" xml:space="preserve">
<style type="text/css">
	.st0{fill:#8BB53C;stroke:#24607E;stroke-width:4.3787;stroke-linecap:round;stroke-linejoin:round;stroke-miterlimit:10;}
	.st1{fill:#FFFFFF;stroke:#24607E;stroke-width:3.3427;stroke-linecap:round;stroke-linejoin:round;stroke-miterlimit:10;}
	.st2{fill:#FFFFFF;stroke:#24607E;stroke-width:3.4278;stroke-linecap:round;stroke-linejoin:round;stroke-miterlimit:10;}
	.st3{fill:#4D8B3F;}
	.st4{fill:#24607E;}
	.st5{fill:#FFFFFF;}
	.st6{fill:#8BB53C;stroke:#24607E;stroke-width:1.3219;stroke-linecap:round;stroke-linejoin:round;stroke-miterlimit:10;}
</style>
<g>
	<g>
		<g>
			<path class="st0" d="M109.6,127.4H32.1c-5.2,0-9.5-4.2-9.5-9.5V23.8c0-5.2,4.2-9.5,9.5-9.5h77.6c5.2,0,9.5,4.2,9.5,9.5V118
				C119.1,123.2,114.9,127.4,109.6,127.4z"/>
			<rect x="29.4" y="35.7" class="st1" width="83.2" height="85.5"/>
			<g>
				<circle class="st2" cx="34.3" cy="25.5" r="3.9"/>
				<circle class="st2" cx="44.2" cy="25.5" r="3.9"/>
				<circle class="st2" cx="54" cy="25.5" r="3.9"/>
				<rect x="61.5" y="24.2" class="st2" width="51.2" height="2.7"/>
			</g>
		</g>
	</g>
	<g>
		<g>
			<path class="st3" d="M71.4,111c-8,0-16-1.5-23.9-4.4c-6.2-2.3-12.4-5.5-18.3-9.4c-7.4-5-12.5-9.9-14.9-12.4l-4.9-5.6l4.8-5.8
				c2.3-2.5,7.3-7.5,14.4-12.4c5.8-4,11.8-7.2,18-9.5c7.8-2.9,15.8-4.4,23.8-4.4s16,1.5,23.9,4.4c6.2,2.3,12.4,5.5,18.3,9.4
				c7.4,5,12.5,9.9,14.9,12.4l4.9,5.6l-4.8,5.8c-2.3,2.5-7.3,7.5-14.4,12.4c-5.8,4-11.8,7.2-18,9.5C87.3,109.6,79.3,111,71.4,111z"
				/>
			<path class="st4" d="M70.4,48.3c7.8,0,15.7,1.4,23.5,4.3c6.1,2.3,12.2,5.4,18.1,9.3c7.4,5,12.5,9.9,14.7,12.3l4.2,4.8l-4.2,5
				c-2.2,2.4-7.1,7.3-14.2,12.2c-5.7,3.9-11.7,7.1-17.8,9.4c-7.7,2.9-15.5,4.3-23.4,4.3c-7.8,0-15.7-1.4-23.5-4.3
				c-6.1-2.3-12.2-5.4-18.1-9.3c-7.4-5-12.5-9.9-14.7-12.3l-4.2-4.8l4.2-5c2.2-2.4,7.1-7.3,14.2-12.2c5.7-3.9,11.7-7.1,17.8-9.4
				C54.7,49.8,62.5,48.3,70.4,48.3 M70.4,46c-8.1,0-16.3,1.5-24.2,4.5c-6.3,2.3-12.4,5.6-18.3,9.6c-7.2,5-12.2,10-14.6,12.6l0,0l0,0
				l-4.2,5l-1.3,1.6l1.4,1.6l4.2,4.8l0,0l0,0c2.4,2.5,7.6,7.6,15.1,12.6c6,4,12.2,7.3,18.6,9.6c8,2.9,16.2,4.4,24.3,4.4
				s16.3-1.5,24.2-4.5c6.3-2.3,12.4-5.6,18.3-9.6c7.2-5,12.2-10,14.6-12.6l0,0l0,0l4.2-5L134,79l-1.4-1.5l-4.2-4.8l0,0l0,0
				c-2.4-2.5-7.6-7.6-15.1-12.6c-6-4-12.2-7.3-18.6-9.6C86.7,47.4,78.5,46,70.4,46L70.4,46z"/>
		</g>
		<path class="st5" d="M70.4,53.6C102,53.6,124,79,124,79l0,0l0,0c0,0-21,25.5-52.6,25.5S17.8,79.1,17.8,79.1l0,0l0,0
			C17.8,79.1,38.8,53.6,70.4,53.6"/>
		<circle class="st6" cx="71" cy="78.9" r="12.4"/>
		<path class="st6" d="M117,106.9L99.7,94c-0.9-0.7-2.1-0.7-3-0.2L91,89.6c1.7-3.2,2.7-6.8,2.7-10.7c0-12.5-10.2-22.7-22.7-22.7
			S48.3,66.4,48.3,78.9s10.2,22.7,22.7,22.7c6.8,0,12.9-3,17.1-7.8l5.7,4.2c-0.2,1,0.2,2,1.1,2.7l17.3,12.9c1.2,0.9,3,0.7,3.9-0.6
			l1.7-2.2C118.5,109.5,118.3,107.8,117,106.9z M71,97c-10,0-18.1-8.1-18.1-18.1S61,60.8,71,60.8s18,8.1,18,18.1S80.9,97,71,97z"/>
		<circle class="st5" cx="65.5" cy="73.1" r="3.3"/>
		<circle class="st5" cx="78.3" cy="78.8" r="3.7"/>
	</g>
</g>
</svg>
