<?xml version="1.0" encoding="UTF-8"?>
<svg id="Calque_1" xmlns="http://www.w3.org/2000/svg" baseProfile="tiny" version="1.2" viewBox="0 0 141.7 141.7">
  <!-- Generator: Adobe Illustrator 30.2.0, SVG Export Plug-In . SVG Version: 2.1.1 Build 105)  -->
  <path d="M102.7,129.3c-4.4,0-8.8-1.7-12.3-5.2l-18.2-18.2c-.5-.5-1.1-.5-1.4-.5s-.9,0-1.4.5l-18.2,18.2c-6.9,6.9-17.7,6.9-24.6,0l-9.1-9.1c-6.9-6.9-6.9-17.7,0-24.6l18.2-18.2c.5-.5.5-1.1.5-1.4s0-.9-.5-1.4l-18.2-18.2c-6.9-6.9-6.9-17.7,0-24.6l9.1-9.1c6.9-6.9,17.7-6.9,24.6,0l18.2,18.2c.5.5,1.1.5,1.4.5s.9,0,1.4-.5l18.2-18.2c6.9-6.9,17.7-6.9,24.6,0l9.1,9.1c3.3,3.3,5.1,7.7,5.1,12.3s-1.8,9-5.1,12.3l-18.2,18.2c-.5.5-.5,1.1-.5,1.4s0,.9.5,1.4l18.2,18.2c3.3,3.3,5.1,7.7,5.1,12.3s-1.8,9-5.1,12.3l-9.1,9.1c-3.4,3.4-7.9,5.2-12.3,5.2ZM70.9,96.4c2.9,0,5.7,1.1,7.7,3.2l18.2,18.2c3.3,3.3,8.5,3.3,11.8,0l9.1-9.1c1.6-1.6,2.5-3.7,2.5-5.9s-.9-4.3-2.5-5.9l-18.2-18.2c-2-2-3.2-4.8-3.2-7.7s1.1-5.7,3.2-7.7l18.2-18.2c1.6-1.6,2.5-3.7,2.5-5.9s-.9-4.3-2.5-5.9l-9.1-9.1c-3.3-3.3-8.5-3.3-11.8,0l-18.2,18.2c-2,2-4.8,3.2-7.7,3.2s-5.7-1.1-7.7-3.2l-18.2-18.2c-3.3-3.3-8.5-3.3-11.8,0l-9.1,9.1c-3.3,3.3-3.3,8.5,0,11.8l18.2,18.2c2,2,3.2,4.8,3.2,7.7s-1.1,5.7-3.2,7.7l-18.2,18.2h0c-3.3,3.3-3.3,8.5,0,11.8l9.1,9.1c3.3,3.3,8.5,3.3,11.8,0l18.2-18.2c2-2,4.8-3.2,7.7-3.2ZM20.8,93.6h0,0Z" fill="#dadcdd"/>
</svg>