<svg version="1.1" id="Calque_1" xmlns="http://www.w3.org/2000/svg" xmlns:xlink="http://www.w3.org/1999/xlink" x="0px" y="0px"
	 viewBox="0 0 141.7 141.7" style="enable-background:new 0 0 141.7 141.7;" xml:space="preserve">
<g clip-path="url(#clip0_42_356)">
<path d="M22.1891 55.3212L45.8031 75.557L20.6178 96.3741C18.8817 97.8091 18.7577 100.427 20.3504 102.02L39.2958 120.965C40.8912 122.56 43.5145 122.433 44.9475 120.69L65.7029 95.4473L86.6688 119.805C88.1184 121.489 90.694 121.585 92.2652 120.014L114.94 97.3397C116.519 95.7608 116.413 93.1703 114.71 91.7257L90.2202 70.9471L114.679 50.9522C116.43 49.5214 116.561 46.892 114.963 45.2935L96.0218 26.3525C94.4262 24.7569 91.8024 24.8848 90.3696 26.6281L70.3135 51.0299L50.2646 27.2851C48.8218 25.5763 46.2262 25.4669 44.6447 27.0483L21.9737 49.7194C20.4001 51.293 20.4993 53.8731 22.1891 55.3212Z" fill="white" stroke="#17A4CC" stroke-width="5.64"/>
</g>
<defs>
<clipPath id="clip0_42_356">
<rect width="141.7" height="141.7" fill="white"/>
</clipPath>
</defs>
</svg>
