<svg version="1.1" id="Calque_1" xmlns="http://www.w3.org/2000/svg" xmlns:xlink="http://www.w3.org/1999/xlink" x="0px" y="0px"
	 viewBox="0 0 141.7 141.7" style="enable-background:new 0 0 141.7 141.7;" xml:space="preserve">
<path d="M120.6 81.8H21.9C19.7 81.8 18 80.1 18 78.1V63.7C18 61.7 19.8 60 21.9 60H120.7C122.9 60 124.6 61.7 124.6 63.7V78.1C124.6 80.2 122.8 81.8 120.6 81.8Z" fill="white" stroke="#24607E" stroke-width="3.9851" stroke-miterlimit="10" stroke-linecap="round" stroke-linejoin="round"/>
<path d="M86.9 72.2H24.9" stroke="#24607E" stroke-width="3.9851" stroke-miterlimit="10" stroke-linecap="round" stroke-linejoin="round"/>
<path d="M112.8 71.5C112.8 73.8 110.8 75.7 108.4 75.7C106 75.7 104 73.8 104 71.5C104 69.2 106 67.3 108.4 67.3C110.8 67.4 112.8 69.2 112.8 71.5Z" fill="#8BB53C" stroke="#24607E" stroke-width="3.9851" stroke-miterlimit="10" stroke-linecap="round" stroke-linejoin="round"/>
</svg>
