<?xml version="1.0" encoding="UTF-8"?>
<svg id="Calque_1" xmlns="http://www.w3.org/2000/svg" baseProfile="tiny" version="1.2" viewBox="0 0 141.7 141.7">
  <!-- Generator: Adobe Illustrator 30.2.0, SVG Export Plug-In . SVG Version: 2.1.1 Build 105)  -->
  <path d="M62.8,88.5c-.3-.2-.5-.3-.8-.4-.3-.1-.6-.2-.9-.3-1.5-.3-3.2.2-4.3,1.3-.9.9-1.4,2.1-1.4,3.3s0,.6,0,.9c0,.3.1.6.3.9.1.3.3.6.4.8.2.3.4.5.6.7.9.9,2.1,1.4,3.3,1.4s.6,0,.9,0c.3,0,.6-.2.9-.3.3-.1.6-.3.8-.4s.5-.4.7-.6c.2-.2.4-.5.6-.7.2-.2.3-.5.4-.8.1-.3.2-.6.3-.9,0-.3,0-.6,0-.9,0-1.2-.5-2.5-1.4-3.3s-.5-.4-.7-.6Z" fill="#dadcdd"/>
  <path d="M128.9,70.5c0-.5-.1-.9-.3-1.3-.3-.9-.6-1.8-1-2.6l-17.4-34.7c-2.6-5.2-7.9-8.4-13.7-8.4h-51.3c-5.9,0-11.1,3.2-13.7,8.4l-17.5,34.8c-.3.5-.4,1.1-.5,1.7-.1.3-.2.6-.3.9-.2.4-.3.8-.3,1.3-.2,1-.3,2-.3,3v29.7c0,8.4,6.8,15.2,15.2,15.2h86.3c8.4,0,15.2-6.8,15.2-15.2v-29.7c0-1-.1-2-.3-2.9ZM39.4,35.8c1.1-2.1,3.3-3.5,5.7-3.5h51.3c2.4,0,4.6,1.4,5.7,3.5l15.4,30.6H24l15.4-30.6ZM114,109.4H27.7c-3.4,0-6.2-2.8-6.2-6.2v-27.7h98.7v27.7c0,3.4-2.8,6.2-6.2,6.2Z" fill="#dadcdd"/>
  <path d="M43,90.6c-.1-.3-.3-.6-.4-.8-.2-.3-.4-.5-.6-.7-.2-.2-.5-.4-.7-.6-.2-.2-.5-.3-.8-.4-.3-.1-.6-.2-.9-.3-.6-.1-1.2-.1-1.9,0-.3,0-.6.2-.9.3-.3.1-.6.3-.8.4-.3.2-.5.4-.7.6s-.4.5-.6.7c-.2.3-.3.5-.4.8-.1.3-.2.6-.3.9,0,.3,0,.6,0,.9s0,.6,0,.9c0,.3.2.6.3.9.1.3.3.6.4.8.2.3.4.5.6.7.2.2.4.4.7.6.3.2.5.3.8.4.3.1.6.2.9.3.3,0,.6,0,.9,0s.6,0,.9,0c.3,0,.6-.2.9-.3.3-.1.6-.3.8-.4.3-.2.5-.4.7-.6.2-.2.4-.5.6-.7.2-.2.3-.5.4-.8.1-.3.2-.6.3-.9,0-.3,0-.6,0-.9s0-.6,0-.9c0-.3-.2-.6-.3-.9Z" fill="#dadcdd"/>
</svg>