<svg version="1.1" id="Calque_1" xmlns="http://www.w3.org/2000/svg" xmlns:xlink="http://www.w3.org/1999/xlink" x="0px" y="0px"
	 viewBox="0 0 141.7 141.7" style="enable-background:new 0 0 141.7 141.7;" xml:space="preserve">
<path d="M99.0074 89.3862H25.6737C22.2531 89.3862 19.5 86.633 19.5 83.2125V34.5736C19.5 31.153 22.2531 28.3999 25.6737 28.3999H98.924C102.345 28.3999 105.098 31.153 105.098 34.5736V83.129C105.181 86.5496 102.428 89.3862 99.0074 89.3862Z" fill="#8BB53C" stroke="#24607E" stroke-width="3.9851" stroke-miterlimit="10" stroke-linecap="round" stroke-linejoin="round"/>
<path d="M26.508 80.0422C26.4246 80.0422 26.4246 79.9589 26.4246 79.9589V37.0765C26.4246 35.3245 27.8428 33.9062 29.5948 33.9062H95.0028C96.7548 33.9062 98.1731 35.3245 98.1731 37.0765V79.9589C98.1731 80.0423 98.0897 80.0422 98.0897 80.0422H26.508Z" fill="white" stroke="#24607E" stroke-width="3.9006" stroke-miterlimit="10" stroke-linecap="round" stroke-linejoin="round"/>
<path d="M59.045 116H98.2565Z" fill="black"/>
<path d="M59.045 116H98.2565" stroke="#24607E" stroke-width="3.9851" stroke-miterlimit="10" stroke-linecap="round" stroke-linejoin="round"/>
<path d="M86.4097 87.0503H70.892V116H86.4097V87.0503Z" fill="white" stroke="#24607E" stroke-width="3.9851" stroke-miterlimit="10" stroke-linecap="round" stroke-linejoin="round"/>
<path d="M115.693 106.072H42.3594C38.9389 106.072 36.1857 103.319 36.1857 99.8983V51.2594C36.1857 47.8389 38.9389 45.0857 42.3594 45.0857H115.61C119.03 45.0857 121.783 47.8389 121.783 51.2594V99.8149C121.867 103.235 119.114 106.072 115.693 106.072Z" fill="#8BB53C" stroke="#24607E" stroke-width="3.9851" stroke-miterlimit="10" stroke-linecap="round" stroke-linejoin="round"/>
<path d="M43.1938 96.728C43.1104 96.728 43.1104 96.6446 43.1104 96.6446V53.7623C43.1104 52.0103 44.5287 50.592 46.2807 50.592H111.689C113.441 50.592 114.859 52.0103 114.859 53.7623V96.6446C114.859 96.728 114.775 96.728 114.775 96.728H43.1938Z" fill="white" stroke="#24607E" stroke-width="3.9006" stroke-miterlimit="10" stroke-linecap="round" stroke-linejoin="round"/>
<path d="M75.3137 101.4H81.988Z" fill="black"/>
<path d="M75.3137 101.4H81.988" stroke="#24607E" stroke-width="3.9851" stroke-miterlimit="10" stroke-linecap="round" stroke-linejoin="round"/>
</svg>
