<?xml version="1.0" encoding="UTF-8"?>
<svg id="Calque_1" xmlns="http://www.w3.org/2000/svg" baseProfile="tiny" version="1.2" viewBox="0 0 141.7 141.7">
  <!-- Generator: Adobe Illustrator 30.2.0, SVG Export Plug-In . SVG Version: 2.1.1 Build 105)  -->
  <path d="M127.9,121.5l-23-23c7.6-9.1,12.2-20.8,12.2-33.6,0-28.9-23.5-52.3-52.3-52.3S12.5,36.1,12.5,64.9s23.5,52.3,52.3,52.3,24.6-4.7,33.7-12.4l23,23c.9.9,2,1.3,3.2,1.3s2.3-.4,3.2-1.3c1.8-1.8,1.8-4.6,0-6.4ZM21.5,64.9c0-23.9,19.4-43.3,43.3-43.3s43.3,19.4,43.3,43.3-19.4,43.3-43.3,43.3-43.3-19.4-43.3-43.3Z" fill="#dadcdd"/>
</svg>