<svg version="1.1" id="Calque_1" xmlns="http://www.w3.org/2000/svg" xmlns:xlink="http://www.w3.org/1999/xlink" x="0px" y="0px"
	 viewBox="0 0 141.7 141.7" style="enable-background:new 0 0 141.7 141.7;" xml:space="preserve">
<path fill-rule="evenodd" clip-rule="evenodd" d="M56.6 40.78C57.84 38.87 59.32 37.06 61.04 35.34C67.26 29.11 74.77 26 83.58 26C92.39 26 99.91 29.11 106.14 35.34C112.37 41.57 115.48 49.09 115.48 57.9C115.48 66.7 112.36 74.22 106.14 80.44C99.91 86.67 92.4 89.78 83.58 89.78C75.78 89.78 68.99 87.34 63.22 82.45C62.12 83.53 61.02 84.62 59.93 85.71H59.91C60.67 86.47 61.44 87.23 62.2 87.99C54.34 97.11 46.49 106.23 38.63 115.35V115.37L26 102.74H26.03C35.14 94.88 44.25 87.03 53.36 79.17C54.12 79.93 54.89 80.69 55.65 81.44C56.84 80.24 57.93 79.13 58.92 78.13C58.13 77.18 57.4 76.21 56.73 75.21C55.4 73.21 54.34 71.09 53.53 68.87C52.3 65.47 51.69 61.81 51.69 57.9C51.69 54.06 52.28 50.47 53.46 47.12C54.26 44.9 55.3 42.78 56.6 40.78Z" fill="#8CB63C" stroke="#25607E" stroke-width="4.4403" stroke-miterlimit="10" stroke-linecap="round" stroke-linejoin="round"/>
<path fill-rule="evenodd" clip-rule="evenodd" d="M61.46 57.86C61.46 63.96 63.61 69.16 67.91 73.46C72.22 77.77 77.43 79.93 83.53 79.93C89.63 79.93 94.83 77.77 99.13 73.46C103.44 69.16 105.6 63.95 105.6 57.86C105.6 51.76 103.44 46.55 99.13 42.24C94.82 37.94 89.62 35.78 83.53 35.79C77.43 35.79 72.22 37.94 67.91 42.24C63.61 46.55 61.46 51.76 61.46 57.86Z" fill="white"/>
</svg>
