<svg version="1.1" id="Calque_1" xmlns="http://www.w3.org/2000/svg" xmlns:xlink="http://www.w3.org/1999/xlink" x="0px" y="0px"
	 viewBox="0 0 141.7 141.7" style="enable-background:new 0 0 141.7 141.7;" xml:space="preserve">
<path d="M97.2 89.6999C91.3 97.8999 81.7 103.3 70.9 103.3C53.1 103.3 38.6 88.8999 38.5 71.0999H42.3H49.1L32.2 54.2999L15.5 71.0999H24.4H24.6H26C26.1 95.7999 46.1 115.7 70.8 115.7C85.1 115.7 97.8 109 106 98.5999L102.3 94.8999L97.2 89.6999Z" fill="#FF0000" stroke="#24607E" stroke-width="4.412" stroke-miterlimit="10" stroke-linecap="round" stroke-linejoin="round"/>
<path d="M119.3 71.1H115.7C115.7 71 115.7 70.9 115.7 70.9C115.7 46.1 95.6 26.1 70.9 26.1C56.5 26.1 43.7 32.9 35.5 43.5L39.3 47.3L44.4 52.4C50.3 44 60 38.6 70.9 38.6C88.8 38.6 103.3 53.1 103.3 71C103.3 71.1 103.3 71.2 103.3 71.2H99.4H92.8L109.6 88L126.4 71.2L119.3 71.1Z" fill="#FF0000" stroke="#24607E" stroke-width="4.412" stroke-miterlimit="10" stroke-linecap="round" stroke-linejoin="round"/>
<mask id="mask0_948_20" style="mask-type:luminance" maskUnits="userSpaceOnUse" x="35" y="35" width="73" height="73">
<path d="M93.9125 36.3043L36.3043 93.9125C35.0317 95.1851 34.8548 97.0716 35.9092 98.126L44.8187 107.036C45.8731 108.09 47.7596 107.913 49.0322 106.64L106.64 49.0322C107.913 47.7596 108.09 45.8731 107.036 44.8187L98.126 35.9091C97.0716 34.8547 95.1852 35.0316 93.9125 36.3043Z" fill="white"/>
</mask>
<g mask="url(#mask0_948_20)">
<path d="M93.9125 36.3043L36.3043 93.9125C35.0317 95.1851 34.8548 97.0716 35.9092 98.126L44.8187 107.036C45.8731 108.09 47.7596 107.913 49.0322 106.64L106.64 49.0322C107.913 47.7596 108.09 45.8731 107.036 44.8187L98.126 35.9091C97.0716 34.8547 95.1852 35.0316 93.9125 36.3043Z" fill="#FF0000" stroke="#25607E" stroke-width="7.8"/>
</g>
</svg>
