<?xml version="1.0" encoding="UTF-8"?>
<svg id="Calque_1" xmlns="http://www.w3.org/2000/svg" baseProfile="tiny" version="1.2" viewBox="0 0 141.7 141.7">
  <!-- Generator: Adobe Illustrator 30.2.0, SVG Export Plug-In . SVG Version: 2.1.1 Build 105)  -->
  <path d="M56.7,29.3c4.5-1.6,9.3-2.3,14.1-2.3,12.5,0,24.3,4.8,33.2,13.4l4.3,4.3h-15.9c-2.5,0-4.5,2-4.5,4.5s2,4.5,4.5,4.5h25.9c.3,0,.7.1,1,.1,1.2,0,2.3-.4,3.2-1.3.9-.9,1.3-2.1,1.3-3.2,0,0,0,0,0,0v-26.9c0-2.5-2-4.5-4.5-4.5s-4.5,2-4.5,4.5v16.2l-4.5-4.5c-10.6-10.3-24.6-16-39.5-16s-11.5,1-17,2.8c-2.4.8-3.6,3.4-2.8,5.7s3.4,3.6,5.7,2.8Z" fill="#dadcdd"/>
  <path d="M114.8,70.8c0,4.8-.8,9.5-2.3,14.1-.8,2.4.5,4.9,2.8,5.7.5.2,1,.2,1.5.2,1.9,0,3.6-1.2,4.3-3,1.9-5.5,2.8-11.2,2.8-17s-2-4.5-4.5-4.5-4.5,2-4.5,4.5Z" fill="#dadcdd"/>
  <path d="M127.9,121.5L20.2,13.8c-1.8-1.8-4.6-1.8-6.4,0-1.8,1.8-1.8,4.6,0,6.4l16.5,16.5c-8.1,9.6-12.5,21.5-12.5,34.1s2,4.5,4.5,4.5,4.5-2,4.5-4.5c0-10.2,3.5-19.9,9.9-27.7l61.8,61.8c-7.8,6.4-17.5,9.9-27.7,9.9s-24.3-4.8-33.2-13.4l-4.5-4.5h16c2.5,0,4.5-2,4.5-4.5s-2-4.5-4.5-4.5h-26.9s0,0,0,0c-.3,0-.6,0-.8,0s-.3,0-.4.1c-.1,0-.3,0-.4.1-.2,0-.3.1-.4.2-.1,0-.2.1-.3.2-.2.2-.5.3-.7.5,0,0,0,0,0,0s0,0,0,0c-.2.2-.4.4-.5.7,0,.1-.1.2-.2.4,0,.1-.2.3-.2.4,0,.2,0,.3-.1.5,0,.1,0,.2-.1.4,0,.3,0,.6,0,.9v26.9c0,2.5,2,4.5,4.5,4.5s4.5-2,4.5-4.5v-16l4.5,4.5c10.6,10.3,24.6,16,39.5,16s24.6-4.4,34.1-12.5l16.6,16.6c.9.9,2,1.3,3.2,1.3s2.3-.4,3.2-1.3c1.8-1.8,1.8-4.6,0-6.4Z" fill="#dadcdd"/>
</svg>