<svg version="1.1" id="Calque_1" xmlns="http://www.w3.org/2000/svg" xmlns:xlink="http://www.w3.org/1999/xlink" x="0px" y="0px"
	 viewBox="0 0 141.7 141.7" style="enable-background:new 0 0 141.7 141.7;" xml:space="preserve">
<path d="M120.6 122.8H21.9C19.7 122.8 18 121.1 18 119.1V104.7C18 102.7 19.8 101 21.9 101H120.7C122.9 101 124.6 102.7 124.6 104.7V119.1C124.6 121.2 122.8 122.8 120.6 122.8Z" fill="white" stroke="#24607E" stroke-width="3.9851" stroke-miterlimit="10" stroke-linecap="round" stroke-linejoin="round"/>
<path d="M86.9 113.2H24.9" stroke="#24607E" stroke-width="3.9851" stroke-miterlimit="10" stroke-linecap="round" stroke-linejoin="round"/>
<path d="M112.8 112.5C112.8 114.8 110.8 116.7 108.4 116.7C106 116.7 104 114.8 104 112.5C104 110.2 106 108.3 108.4 108.3C110.8 108.4 112.8 110.2 112.8 112.5Z" fill="#8BB53C" stroke="#24607E" stroke-width="3.9851" stroke-miterlimit="10" stroke-linecap="round" stroke-linejoin="round"/>
<path d="M77.8938 20C77.9089 20 77.9089 20.0995 77.9089 20.0995L77.9089 71.2208C77.9089 73.3091 77.6519 75 77.3345 75H65.4833C65.1658 75 64.9089 73.3091 64.9089 71.2208L64.9089 20.0995C64.9089 20 64.924 20 64.924 20L77.8938 20Z" fill="#8BB53C" stroke="#24607E" stroke-width="3.9006" stroke-miterlimit="10" stroke-linecap="round" stroke-linejoin="round"/>
<path d="M82.7126 74.9502C83.5209 74.9502 84.026 75.8254 83.6218 76.5254L72.364 96.0254C71.9598 96.7252 70.9488 96.7252 70.5447 96.0254L59.2869 76.5254C58.8827 75.8254 59.3878 74.9502 60.196 74.9502H82.7126Z" fill="#8BB53C" stroke="#24607E" stroke-width="3.9"/>
</svg>
