<?xml version="1.0" encoding="UTF-8"?>
<svg id="Calque_1" xmlns="http://www.w3.org/2000/svg" baseProfile="tiny" version="1.2" viewBox="0 0 141.7 141.7">
  <!-- Generator: Adobe Illustrator 30.2.0, SVG Export Plug-In . SVG Version: 2.1.1 Build 105)  -->
  <path d="M67.7,63.3s0,0,0,0c.2.2.4.4.7.5.1,0,.2.1.3.2.1,0,.3.2.4.2.1,0,.3,0,.5.1.1,0,.2,0,.4.1.3,0,.6,0,.9,0s.6,0,.9,0c.1,0,.3,0,.4-.1.2,0,.3,0,.5-.1.2,0,.3-.1.4-.2.1,0,.2-.1.3-.2.2-.2.5-.4.7-.6l21.6-21.6c1.8-1.8,1.8-4.6,0-6.4-1.8-1.8-4.6-1.8-6.4,0l-13.9,13.9V17c0-2.5-2-4.5-4.5-4.5s-4.5,2-4.5,4.5v32.2l-13.9-13.9c-1.8-1.8-4.6-1.8-6.4,0-1.8,1.8-1.8,4.6,0,6.4l21.6,21.6Z" fill="#dadcdd"/>
  <path d="M114,77.2H27.7c-8.4,0-15.2,6.8-15.2,15.2v21.6c0,8.4,6.8,15.2,15.2,15.2h86.3c8.4,0,15.2-6.8,15.2-15.2v-21.6c0-8.4-6.8-15.2-15.2-15.2ZM120.2,114c0,3.4-2.8,6.2-6.2,6.2H27.7c-3.4,0-6.2-2.8-6.2-6.2v-21.6c0-3.4,2.8-6.2,6.2-6.2h86.3c3.4,0,6.2,2.8,6.2,6.2v21.6Z" fill="#dadcdd"/>
  <path d="M43,101.3c-.1-.3-.3-.6-.4-.8-.2-.3-.4-.5-.6-.7-.2-.2-.5-.4-.7-.6-.2-.2-.5-.3-.8-.4-.3-.1-.6-.2-.9-.3-.6-.1-1.2-.1-1.9,0-.3,0-.6.2-.9.3-.3.1-.6.3-.8.4-.3.2-.5.4-.7.6s-.4.5-.6.7c-.2.3-.3.5-.4.8-.1.3-.2.6-.3.9,0,.3,0,.6,0,.9s0,.6,0,.9c0,.3.2.6.3.9.1.3.3.6.4.8.2.3.4.5.6.7.2.2.4.4.7.6.3.2.5.3.8.4.3.1.6.2.9.3.3,0,.6,0,.9,0s.6,0,.9,0c.3,0,.6-.1.9-.3.3-.1.6-.3.8-.4.3-.2.5-.4.7-.6s.4-.5.6-.7c.2-.2.3-.5.4-.8.1-.3.2-.6.3-.9,0-.3,0-.6,0-.9s0-.6,0-.9c0-.3-.2-.6-.3-.9Z" fill="#dadcdd"/>
  <path d="M64.6,101.3c-.1-.3-.3-.6-.4-.8-.2-.3-.4-.5-.6-.7s-.5-.4-.7-.6c-.3-.2-.5-.3-.8-.4-.3-.1-.6-.2-.9-.3-1.5-.3-3.2.2-4.3,1.3-.2.2-.4.5-.6.7-.2.3-.3.5-.4.8-.1.3-.2.6-.3.9,0,.3,0,.6,0,.9s0,.6,0,.9c0,.3.1.6.3.9.1.3.3.6.4.8.2.3.4.5.6.7.9.9,2.1,1.4,3.3,1.4s.6,0,.9,0c.3,0,.6-.1.9-.3.3-.1.6-.3.8-.4.3-.2.5-.4.7-.6.2-.2.4-.5.6-.7.2-.2.3-.5.4-.8.1-.3.2-.6.3-.9,0-.3,0-.6,0-.9s0-.6,0-.9c0-.3-.2-.6-.3-.9Z" fill="#dadcdd"/>
</svg>