<svg version="1.1" id="Calque_1" xmlns="http://www.w3.org/2000/svg" xmlns:xlink="http://www.w3.org/1999/xlink" x="0px" y="0px"
	 viewBox="0 0 141.7 141.7" style="enable-background:new 0 0 141.7 141.7;" xml:space="preserve">
<path d="M77.6862 32.5448H31V124H95.2864V54.4284H77.6948V32.5448H77.6862Z" fill="white" stroke="#25607E" stroke-width="4.4403" stroke-miterlimit="10" stroke-linecap="round" stroke-linejoin="round"/>
<path d="M77.6863 32.5448V54.4284H95.2864L77.764 32.5448H77.6863Z" fill="#8CB63C" stroke="#25607E" stroke-width="4.4403" stroke-miterlimit="10" stroke-linecap="round" stroke-linejoin="round"/>
<path d="M82.6692 66.1993H43.6172Z" fill="black"/>
<path d="M82.6692 66.1993H43.6172" stroke="#25607E" stroke-width="4.4403" stroke-miterlimit="10" stroke-linecap="round" stroke-linejoin="round"/>
<path d="M82.6692 74.8871H43.6172Z" fill="black"/>
<path d="M82.6692 74.8871H43.6172" stroke="#25607E" stroke-width="4.4403" stroke-miterlimit="10" stroke-linecap="round" stroke-linejoin="round"/>
<path d="M82.6692 83.5663H43.6172Z" fill="black"/>
<path d="M82.6692 83.5663H43.6172" stroke="#25607E" stroke-width="4.4403" stroke-miterlimit="10" stroke-linecap="round" stroke-linejoin="round"/>
<path d="M82.6692 92.2542H43.6172Z" fill="black"/>
<path d="M82.6692 92.2542H43.6172" stroke="#25607E" stroke-width="4.4403" stroke-miterlimit="10" stroke-linecap="round" stroke-linejoin="round"/>
<path d="M82.6692 100.933H43.6172Z" fill="black"/>
<path d="M82.6692 100.933H43.6172" stroke="#25607E" stroke-width="4.4403" stroke-miterlimit="10" stroke-linecap="round" stroke-linejoin="round"/>
<path d="M82.6692 109.621H43.6172Z" fill="black"/>
<path d="M82.6692 109.621H43.6172" stroke="#25607E" stroke-width="4.4403" stroke-miterlimit="10" stroke-linecap="round" stroke-linejoin="round"/>
<path d="M94.0946 17H47.4084V108.455H111.695V38.8836H94.1033V17H94.0946Z" fill="white" stroke="#25607E" stroke-width="4.4403" stroke-miterlimit="10" stroke-linecap="round" stroke-linejoin="round"/>
<path d="M94.0947 17V38.8836H111.695L94.1724 17H94.0947Z" fill="#8CB63C" stroke="#25607E" stroke-width="4.4403" stroke-miterlimit="10" stroke-linecap="round" stroke-linejoin="round"/>
<path d="M99.0776 50.6544H60.0256Z" fill="black"/>
<path d="M99.0776 50.6544H60.0256" stroke="#25607E" stroke-width="4.4403" stroke-miterlimit="10" stroke-linecap="round" stroke-linejoin="round"/>
<path d="M99.0776 59.3423H60.0256Z" fill="black"/>
<path d="M99.0776 59.3423H60.0256" stroke="#25607E" stroke-width="4.4403" stroke-miterlimit="10" stroke-linecap="round" stroke-linejoin="round"/>
<path d="M99.0776 68.0215H60.0256Z" fill="black"/>
<path d="M99.0776 68.0215H60.0256" stroke="#25607E" stroke-width="4.4403" stroke-miterlimit="10" stroke-linecap="round" stroke-linejoin="round"/>
<path d="M99.0776 76.7094H60.0256Z" fill="black"/>
<path d="M99.0776 76.7094H60.0256" stroke="#25607E" stroke-width="4.4403" stroke-miterlimit="10" stroke-linecap="round" stroke-linejoin="round"/>
<path d="M99.0776 85.3884H60.0256Z" fill="black"/>
<path d="M99.0776 85.3884H60.0256" stroke="#25607E" stroke-width="4.4403" stroke-miterlimit="10" stroke-linecap="round" stroke-linejoin="round"/>
<path d="M99.0776 94.0763H60.0256Z" fill="black"/>
<path d="M99.0776 94.0763H60.0256" stroke="#25607E" stroke-width="4.4403" stroke-miterlimit="10" stroke-linecap="round" stroke-linejoin="round"/>
<path d="M85.8873 87.6958V70.4929H102.759C104.549 70.4929 106 69.0135 106 67.1887V62.8113C106 60.9865 104.549 59.5071 102.759 59.5071H85.8873V42.3042C85.8873 40.4794 84.4364 39 82.6466 39H78.3534C76.5636 39 75.1127 40.4794 75.1127 42.3042V59.5071H58.2407C56.4509 59.5071 55 60.9865 55 62.8113V67.1887C55 69.0135 56.4509 70.4929 58.2407 70.4929H75.1127V87.6958C75.1127 89.5208 76.5636 91 78.3534 91H82.6466C84.4364 91 85.8873 89.5208 85.8873 87.6958Z" fill="#8BB53C" stroke="#25607E" stroke-width="3.9"/>
</svg>
