<?xml version="1.0" encoding="UTF-8"?>
<svg id="Calque_1" xmlns="http://www.w3.org/2000/svg" baseProfile="tiny" version="1.2" viewBox="0 0 141.7 141.7">
  <!-- Generator: Adobe Illustrator 30.2.0, SVG Export Plug-In . SVG Version: 2.1.1 Build 105)  -->
  <path d="M110.6,39l-18.1-17.9s0,0,0,0c-3.2-3-7.4-4.7-11.6-4.7h-40.1c-8,0-14.5,6.5-14.5,14.5v80.3c0,8,6.5,14.5,14.5,14.5h26.9c2.5,0,4.5-2,4.5-4.5s-2-4.5-4.5-4.5h-26.9c-3,0-5.5-2.5-5.5-5.5V30.7c0-3,2.5-5.5,5.5-5.5h35.6v20.5c0,5.3,4.3,9.6,9.6,9.6h20.5v22.2c0,2.5,2,4.5,4.5,4.5s4.5-2,4.5-4.5v-26.9c0-4.5-1.7-8.6-4.8-11.7ZM85.4,45.8v-19.1c.3.2.6.5.9.7l18,17.9c.3.3.6.6.8,1h-19.2c-.3,0-.6-.3-.6-.6Z" fill="#dadcdd"/>
  <path d="M111,101.5h-10.6v-10.6c0-2.5-2-4.5-4.5-4.5s-4.5,2-4.5,4.5v10.6h-10.6c-2.5,0-4.5,2-4.5,4.5s2,4.5,4.5,4.5h10.6v10.6c0,2.5,2,4.5,4.5,4.5s4.5-2,4.5-4.5v-10.6h10.6c2.5,0,4.5-2,4.5-4.5s-2-4.5-4.5-4.5Z" fill="#dadcdd"/>
</svg>