<?xml version="1.0" encoding="UTF-8"?>
<svg id="Calque_1" xmlns="http://www.w3.org/2000/svg" baseProfile="tiny" version="1.2" viewBox="0 0 141.7 141.7">
  <!-- Generator: Adobe Illustrator 30.2.0, SVG Export Plug-In . SVG Version: 2.1.1 Build 105)  -->
  <path d="M112.3,29.5c-6.3-6.3-16.6-6.3-23,0l-8.7,8.7c-.2.1-.4.3-.5.4-.2.2-.3.4-.4.5l-46,46c-1.5,1.5-2.6,3.3-3.2,5.4l-5.5,18.1s0,0,0,.1c-.4,1.6-.3,3.4.5,4.9.8,1.6,2.3,2.8,4.1,3.3.6.1,1.1.2,1.7.2s1.1,0,1.7-.2c0,0,.1,0,.2,0l18.1-5.5c2-.6,3.9-1.7,5.4-3.2l46-46c.2-.1.4-.3.5-.4.2-.2.3-.4.4-.5l8.7-8.7s0,0,0,0c6.3-6.3,6.3-16.6,0-23ZM50.3,101.7c-.5.5-1,.8-1.6,1l-13.8,4.2,4.2-13.8c.2-.6.5-1.2,1-1.6l43.3-43.3,10.2,10.2-43.3,43.3ZM105.9,46.1l-6,6-10.2-10.2,6-6c1.4-1.4,3.3-2.1,5.1-2.1s3.7.7,5.1,2.1c2.8,2.8,2.8,7.4,0,10.2Z" fill="#dadcdd"/>
</svg>