<svg version="1.1" id="Calque_1" xmlns="http://www.w3.org/2000/svg" xmlns:xlink="http://www.w3.org/1999/xlink" x="0px" y="0px"
	 viewBox="0 0 141.7 141.7" style="enable-background:new 0 0 141.7 141.7;" xml:space="preserve">
<mask id="path-1-inside-1_11_337" fill="white">
<path d="M85.3342 13.7784C86.0344 12.2768 87.8194 11.6271 89.321 12.3273L103.822 19.0892C105.324 19.7894 105.973 21.5744 105.273 23.076L68.9278 101.018C68.2276 102.52 66.4426 103.17 64.941 102.47L50.4401 95.7076C48.9385 95.0074 48.2888 93.2225 48.989 91.7208L85.3342 13.7784Z"/>
<path d="M46.9586 124.328C46.2984 124.989 45.1724 124.464 45.2547 123.533L47.3463 99.8824C47.4074 99.1914 48.1363 98.771 48.765 99.0642L63.4464 105.91C64.0751 106.203 64.2216 107.032 63.7316 107.523L46.9586 124.328Z"/>
<path d="M47.1296 123.99C46.469 124.703 45.2815 124.15 45.4036 123.185L46.6207 113.573C46.7059 112.9 47.4211 112.506 48.0354 112.792L53.3993 115.293C54.0136 115.58 54.171 116.381 53.7106 116.879L47.1296 123.99Z"/>
</mask>
<path d="M85.3342 13.7784C86.0344 12.2768 87.8194 11.6271 89.321 12.3273L103.822 19.0892C105.324 19.7894 105.973 21.5744 105.273 23.076L68.9278 101.018C68.2276 102.52 66.4426 103.17 64.941 102.47L50.4401 95.7076C48.9385 95.0074 48.2888 93.2225 48.989 91.7208L85.3342 13.7784Z" fill="#8BB53C"/>
<path d="M46.9586 124.328C46.2984 124.989 45.1724 124.464 45.2547 123.533L47.3463 99.8824C47.4074 99.1914 48.1363 98.771 48.765 99.0642L63.4464 105.91C64.0751 106.203 64.2216 107.032 63.7316 107.523L46.9586 124.328Z" fill="#8BB53C"/>
<path d="M47.1296 123.99C46.469 124.703 45.2815 124.15 45.4036 123.185L46.6207 113.573C46.7059 112.9 47.4211 112.506 48.0354 112.792L53.3993 115.293C54.0136 115.58 54.171 116.381 53.7106 116.879L47.1296 123.99Z" fill="#25607E"/>
<path d="M98.4953 17.6166L60.4597 99.1843L62.2723 100.03L100.308 18.4619L98.4953 17.6166ZM92.1512 14.6583L54.1155 96.226L55.9282 97.0712L93.9638 15.5035L92.1512 14.6583ZM63.7316 107.523L62.316 106.11L62.316 106.11L63.7316 107.523ZM47.3463 99.8824L49.3385 100.059L49.3385 100.059L47.3463 99.8824ZM45.2547 123.533L43.2625 123.357L43.2625 123.357L45.2547 123.533ZM46.9586 124.328L48.3742 125.74L48.3742 125.74L46.9586 124.328ZM53.7106 116.879L52.2428 115.52L52.2428 115.52L53.7106 116.879ZM46.6207 113.573L44.6366 113.321L44.6366 113.321L46.6207 113.573ZM45.4036 123.185L47.3878 123.436L47.3878 123.436L45.4036 123.185ZM47.1296 123.99L48.5975 125.348L48.5975 125.348L47.1296 123.99ZM88.4757 14.1399L102.977 20.9018L104.667 17.2766L90.1662 10.5147L88.4757 14.1399ZM103.46 22.2307L67.1152 100.173L70.7404 101.864L107.086 23.9212L103.46 22.2307ZM65.7863 100.657L51.2853 93.895L49.5949 97.5202L64.0958 104.282L65.7863 100.657ZM50.8016 92.5661L87.1468 14.6236L83.5216 12.9331L47.1764 90.8756L50.8016 92.5661ZM51.2853 93.895C50.7848 93.6616 50.5682 93.0666 50.8016 92.5661L47.1764 90.8756C46.0094 93.3783 47.0922 96.3532 49.5949 97.5202L51.2853 93.895ZM67.1152 100.173C66.8818 100.674 66.2868 100.89 65.7863 100.657L64.0958 104.282C66.5985 105.449 69.5734 104.366 70.7404 101.864L67.1152 100.173ZM102.977 20.9018C103.477 21.1352 103.694 21.7302 103.46 22.2307L107.086 23.9212C108.253 21.4185 107.17 18.4436 104.667 17.2766L102.977 20.9018ZM90.1662 10.5147C87.6635 9.34766 84.6886 10.4304 83.5216 12.9331L87.1468 14.6236C87.3802 14.1231 87.9752 13.9065 88.4757 14.1399L90.1662 10.5147ZM47.247 123.709L49.3385 100.059L45.3541 99.7062L43.2625 123.357L47.247 123.709ZM47.9198 100.877L62.6012 107.723L64.2917 104.098L49.6103 97.2516L47.9198 100.877ZM62.316 106.11L45.5431 122.915L48.3742 125.74L65.1471 108.936L62.316 106.11ZM62.6012 107.723C61.9725 107.43 61.826 106.601 62.316 106.11L65.1471 108.936C66.6173 107.463 66.1778 104.977 64.2917 104.098L62.6012 107.723ZM49.3385 100.059C49.2774 100.75 48.5485 101.17 47.9198 100.877L49.6103 97.2516C47.7242 96.3721 45.5374 97.6332 45.3541 99.7062L49.3385 100.059ZM43.2625 123.357C43.0155 126.15 46.3936 127.725 48.3742 125.74L45.5431 122.915C46.2033 122.253 47.3293 122.778 47.247 123.709L43.2625 123.357ZM47.3878 123.436L48.6049 113.824L44.6366 113.321L43.4195 122.934L47.3878 123.436ZM47.1902 114.605L52.5541 117.106L54.2445 113.481L48.8806 110.979L47.1902 114.605ZM52.2428 115.52L45.6618 122.631L48.5975 125.348L55.1785 118.237L52.2428 115.52ZM52.5541 117.106C51.9398 116.819 51.7824 116.018 52.2428 115.52L55.1785 118.237C56.5596 116.745 56.0874 114.34 54.2445 113.481L52.5541 117.106ZM48.6049 113.824C48.5197 114.496 47.8044 114.891 47.1902 114.605L48.8806 110.979C47.0378 110.12 44.892 111.304 44.6366 113.321L48.6049 113.824ZM43.4195 122.934C43.053 125.828 46.6156 127.49 48.5975 125.348L45.6618 122.631C46.3224 121.917 47.51 122.471 47.3878 123.436L43.4195 122.934Z" fill="#25607E" mask="url(#path-1-inside-1_11_337)"/>
</svg>
