<?xml version="1.0" encoding="utf-8"?>
<!-- Generator: Adobe Illustrator 26.5.0, SVG Export Plug-In . SVG Version: 6.00 Build 0)  -->
<svg version="1.1" id="Calque_1" xmlns="http://www.w3.org/2000/svg" xmlns:xlink="http://www.w3.org/1999/xlink" x="0px" y="0px"
	 viewBox="0 0 141.73 141.73" style="enable-background:new 0 0 141.73 141.73;" xml:space="preserve">
<style type="text/css">
	.st0{fill:#FFFFFF;stroke:#25607E;stroke-width:4.4403;stroke-linecap:round;stroke-linejoin:round;stroke-miterlimit:10;}
	.st1{fill:#8CB63C;stroke:#25607E;stroke-width:4.4403;stroke-linecap:round;stroke-linejoin:round;stroke-miterlimit:10;}
	.st2{fill:none;stroke:#25607E;stroke-width:4.4403;stroke-linecap:round;stroke-linejoin:round;stroke-miterlimit:10;}
	
		.st3{fill-rule:evenodd;clip-rule:evenodd;fill:#8CB63C;stroke:#25607E;stroke-width:4.4403;stroke-linecap:round;stroke-linejoin:round;stroke-miterlimit:10;}
	.st4{fill-rule:evenodd;clip-rule:evenodd;fill:#FFFFFF;}
</style>
<g>
	<g>
		<g>
			<g>
				<path class="st0" d="M106.28,16.66H52.22v105.9h74.44V42h-20.37V16.66H106.28z"/>
				<polygon class="st1" points="106.28,16.66 106.28,42 126.66,42 106.37,16.66 				"/>
			</g>
			<line class="st2" x1="112.05" y1="55.63" x2="66.83" y2="55.63"/>
			<line class="st2" x1="112.05" y1="65.69" x2="66.83" y2="65.69"/>
			<line class="st2" x1="112.05" y1="75.74" x2="66.83" y2="75.74"/>
			<line class="st2" x1="112.05" y1="85.8" x2="66.83" y2="85.8"/>
			<line class="st2" x1="112.05" y1="95.85" x2="66.83" y2="95.85"/>
			<line class="st2" x1="112.05" y1="105.91" x2="66.83" y2="105.91"/>
		</g>
	</g>
	<g>
		<g>
			<path class="st3" d="M45.68,50.49c1.24-1.91,2.72-3.72,4.44-5.44c6.22-6.23,13.73-9.34,22.54-9.34s16.33,3.11,22.56,9.34
				c6.23,6.23,9.34,13.75,9.34,22.56c0,8.8-3.12,16.32-9.34,22.54c-6.23,6.23-13.74,9.34-22.56,9.34c-7.8,0-14.59-2.44-20.36-7.33
				c-1.1,1.08-2.2,2.17-3.29,3.26h-0.02c0.76,0.76,1.53,1.52,2.29,2.28c-7.86,9.12-15.71,18.24-23.57,27.36v0.02l-12.63-12.63h0.03
				c9.11-7.86,18.22-15.71,27.33-23.57c0.76,0.76,1.53,1.52,2.29,2.27c1.19-1.2,2.28-2.31,3.27-3.31c-0.79-0.95-1.52-1.92-2.19-2.92
				c-1.33-2-2.39-4.12-3.2-6.34c-1.23-3.4-1.84-7.06-1.84-10.97c0-3.84,0.59-7.43,1.77-10.78C43.34,54.61,44.38,52.49,45.68,50.49z"
				/>
		</g>
		<path class="st4" d="M50.54,67.57c0,6.1,2.15,11.3,6.45,15.6c4.31,4.31,9.52,6.47,15.62,6.47s11.3-2.16,15.6-6.47
			c4.31-4.3,6.47-9.51,6.47-15.6c0-6.1-2.16-11.31-6.47-15.62c-4.31-4.3-9.51-6.46-15.6-6.45c-6.1,0-11.31,2.15-15.62,6.45
			C52.69,56.26,50.54,61.47,50.54,67.57z"/>
	</g>
</g>
</svg>
