<?xml version="1.0" encoding="UTF-8"?>
<svg id="Calque_1" xmlns="http://www.w3.org/2000/svg" baseProfile="tiny" version="1.2" viewBox="0 0 141.7 141.7">
  <!-- Generator: Adobe Illustrator 30.2.0, SVG Export Plug-In . SVG Version: 2.1.1 Build 105)  -->
  <path d="M110.5,39l-17.9-17.9s0,0,0,0c-3.2-3-7.4-4.7-11.6-4.7h-40.1c-8,0-14.5,6.5-14.5,14.5v80.3c0,8,6.5,14.5,14.5,14.5s.7,0,1-.1h59.2c8,0,14.5-6.5,14.5-14.5v-60.2c0-4.4-1.8-8.6-4.9-11.7ZM104.2,45.3c.3.3.6.6.8,1h-19.1c-.3,0-.6-.3-.6-.6v-19.1c.3.2.6.5.9.7l17.9,17.9ZM101,116.4h-60.2c-.3,0-.5,0-.8,0-2.7-.4-4.7-2.7-4.7-5.4V30.7c0-3,2.5-5.5,5.5-5.5h35.6v20.5c0,5.3,4.3,9.6,9.6,9.6h20.5v55.6c0,3-2.5,5.5-5.5,5.5Z" fill="#dadcdd"/>
  <path d="M83.1,91.7c1.4-2.5,2.2-5.4,2.2-8.4,0-9.4-7.6-17-17-17s-17,7.6-17,17,7.6,17,17,17,5.9-.8,8.4-2.2l6,6c.9.9,2,1.3,3.2,1.3s2.3-.4,3.2-1.3c1.8-1.8,1.8-4.6,0-6.4l-6-6ZM60.3,83.3c0-4.4,3.6-8,8-8s8,3.6,8,8-3.6,8-8,8-8-3.6-8-8Z" fill="#dadcdd"/>
</svg>