<?xml version="1.0" encoding="UTF-8"?>
<svg id="Calque_1" xmlns="http://www.w3.org/2000/svg" baseProfile="tiny" version="1.2" viewBox="0 0 141.7 141.7">
  <!-- Generator: Adobe Illustrator 30.2.0, SVG Export Plug-In . SVG Version: 2.1.1 Build 105)  -->
  <path d="M114,34.2h-42.6c-2.2-.1-4.3-1.2-5.4-3l-4.4-6.4c-2.7-4.3-7.6-7-12.8-7h-21c-8.4,0-15.2,6.8-15.2,15.2v70.2c0,8.4,6.8,15.2,15.2,15.2h36.1c2.5,0,4.5-2,4.5-4.5s-2-4.5-4.5-4.5H27.8c-3.4,0-6.2-2.8-6.2-6.2V33.1c0-3.4,2.8-6.2,6.2-6.2h21c2.2,0,4.2,1.1,5.2,2.8,0,0,0,0,0,.1l4.4,6.4c2.7,4.1,7.5,6.8,12.7,7,0,0,.1,0,.2,0h42.7c3.4,0,6.2,2.8,6.2,6.2v22.1c0,2.5,2,4.5,4.5,4.5s4.5-2,4.5-4.5v-22.1c0-8.4-6.8-15.2-15.2-15.2Z" fill="#dadcdd"/>
  <path d="M115.3,108.9c2-3.2,3.2-7,3.2-11,0-11.4-9.3-20.7-20.7-20.7s-20.7,9.3-20.7,20.7,9.3,20.7,20.7,20.7,7.9-1.2,11.2-3.3l7.3,7.3c.9.9,2,1.3,3.2,1.3s2.3-.4,3.2-1.3c1.8-1.8,1.8-4.6,0-6.4l-7.3-7.3ZM86.1,97.9c0-6.4,5.2-11.7,11.7-11.7s11.7,5.2,11.7,11.7-1,5.5-2.7,7.5c-.3.2-.5.4-.8.6-.2.2-.4.5-.6.8-2,1.8-4.7,2.8-7.6,2.8-6.4,0-11.7-5.2-11.7-11.7Z" fill="#dadcdd"/>
</svg>