<?xml version="1.0" encoding="utf-8"?>
<!-- Generator: Adobe Illustrator 26.5.0, SVG Export Plug-In . SVG Version: 6.00 Build 0)  -->
<svg version="1.1" id="Calque_1" xmlns="http://www.w3.org/2000/svg" xmlns:xlink="http://www.w3.org/1999/xlink" x="0px" y="0px"
	 viewBox="0 0 141.73 141.73" style="enable-background:new 0 0 141.73 141.73;" xml:space="preserve">
<style type="text/css">
	.st0{fill:#8CB63C;stroke:#25607E;stroke-width:3.9851;stroke-linecap:round;stroke-linejoin:round;stroke-miterlimit:10;}
	.st1{fill:#FFFFFF;stroke:#25607E;stroke-width:3.9851;stroke-linecap:round;stroke-linejoin:round;stroke-miterlimit:10;}
	.st2{fill:#19A2CA;stroke:#25607E;stroke-width:3.9851;stroke-linecap:round;stroke-linejoin:round;stroke-miterlimit:10;}
	
		.st3{fill-rule:evenodd;clip-rule:evenodd;fill:#8CB63C;stroke:#25607E;stroke-width:3.9851;stroke-linecap:round;stroke-linejoin:round;stroke-miterlimit:10;}
	.st4{fill-rule:evenodd;clip-rule:evenodd;fill:#FFFFFF;}
</style>
<g>
	<g>
		<g>
			<g>
				<path class="st0" d="M69.49,23.12v4.95c0,1.33-1.08,2.41-2.41,2.41h-43.1c-3.01,0-5.46,2.44-5.46,5.46v42.39
					c0,3.01,2.44,5.46,5.46,5.46h70.09c3.01,0,5.46-2.44,5.46-5.46V30.48v-7.36c0-1.76-1.43-3.19-3.19-3.19H72.67
					C70.91,19.94,69.49,21.37,69.49,23.12z"/>
			</g>
			<g>
				<path class="st1" d="M81.5,35.13v4.95c0,1.33-1.08,2.41-2.41,2.41h-43.1c-3.01,0-5.46,2.44-5.46,5.46v42.39
					c0,3.01,2.44,5.46,5.46,5.46h70.09c3.01,0,5.46-2.44,5.46-5.46V42.49v-7.36c0-1.76-1.43-3.19-3.19-3.19H84.68
					C82.92,31.95,81.5,33.37,81.5,35.13z"/>
			</g>
			<g>
				<path class="st2" d="M93.19,46.82v4.95c0,1.33-1.08,2.41-2.41,2.41h-43.1c-3.01,0-5.46,2.44-5.46,5.46v42.39
					c0,3.01,2.44,5.46,5.46,5.46h70.09c3.01,0,5.46-2.44,5.46-5.46V54.19v-7.36c0-1.76-1.43-3.19-3.19-3.19H96.37
					C94.61,43.64,93.19,45.07,93.19,46.82z"/>
			</g>
		</g>
	</g>
	<g>
		<g>
			<path class="st3" d="M55.2,61.23c1.01-1.55,2.21-3.02,3.6-4.42c5.05-5.06,11.15-7.58,18.3-7.58s13.26,2.53,18.31,7.58
				c5.05,5.06,7.58,11.16,7.58,18.32c0,7.15-2.53,13.25-7.58,18.3c-5.06,5.06-11.16,7.58-18.31,7.59c-6.33,0-11.85-1.99-16.53-5.95
				c-0.89,0.88-1.78,1.76-2.67,2.65h-0.01c0.62,0.62,1.24,1.23,1.86,1.85c-6.38,7.41-12.76,14.81-19.14,22.22v0.01l-10.26-10.26
				h0.03c7.4-6.38,14.79-12.76,22.19-19.14c0.62,0.62,1.24,1.23,1.86,1.85c0.97-0.98,1.85-1.87,2.66-2.69
				c-0.64-0.77-1.24-1.56-1.78-2.37c-1.08-1.63-1.94-3.34-2.59-5.15c-1-2.76-1.49-5.73-1.49-8.91c0-3.12,0.48-6.03,1.44-8.75
				C53.3,64.57,54.15,62.86,55.2,61.23z"/>
		</g>
		<path class="st4" d="M59.15,75.1c0,4.95,1.74,9.17,5.24,12.67c3.5,3.5,7.73,5.25,12.68,5.25s9.17-1.75,12.67-5.25
			s5.25-7.72,5.25-12.67s-1.75-9.18-5.25-12.68s-7.72-5.24-12.67-5.24s-9.18,1.75-12.68,5.24C60.89,65.92,59.15,70.15,59.15,75.1z"
			/>
	</g>
</g>
</svg>
