<svg version="1.1" id="Calque_1" xmlns="http://www.w3.org/2000/svg" xmlns:xlink="http://www.w3.org/1999/xlink" x="0px" y="0px"
	 viewBox="0 0 141.7 141.7" style="enable-background:new 0 0 141.7 141.7;" xml:space="preserve">
<circle cx="71.5" cy="71.5" r="44.55" fill="#8BB53C" stroke="#24607E" stroke-width="3.9"/>
<path d="M64.3501 84.1094C63.8912 84.1094 63.5192 83.7373 63.5192 83.2784V83.2784C63.5405 79.4219 63.9027 76.3537 64.6058 74.0739C65.3303 71.794 66.353 69.9617 67.674 68.5767C68.995 67.1705 70.6037 65.8814 72.5 64.7095C73.7997 63.8999 74.9609 63.0156 75.9837 62.0568C77.0277 61.0767 77.848 59.9901 78.4446 58.7969C79.0412 57.5824 79.3395 56.2294 79.3395 54.7379C79.3395 53.0547 78.9453 51.5952 78.157 50.3594C77.3686 49.1236 76.3033 48.1648 74.9609 47.483C73.6399 46.8011 72.1591 46.4602 70.5185 46.4602C69.0057 46.4602 67.5675 46.7905 66.2038 47.451C64.8615 48.0902 63.7429 49.0703 62.848 50.3913C62.7575 50.526 62.6711 50.6644 62.5889 50.8066C61.2577 53.1075 59.295 55.3452 56.6367 55.3452H55.1333C52.3204 55.3452 49.9721 52.9905 50.678 50.2676C51.1691 48.3735 51.9232 46.6782 52.9403 45.1818C54.8153 42.4545 57.2869 40.4091 60.3551 39.0455C63.4446 37.6818 66.8537 37 70.5824 37C74.652 37 78.2315 37.7138 81.321 39.1413C84.4318 40.5689 86.8501 42.6037 88.576 45.2457C90.3232 47.8665 91.1967 50.9773 91.1967 54.5781C91.1967 57.0071 90.8026 59.1804 90.0142 61.098C89.2472 63.0156 88.1499 64.7202 86.7223 66.2116C85.2947 67.7031 83.6009 69.0348 81.6406 70.2067C79.9148 71.272 78.4979 72.38 77.3899 73.5305C76.3033 74.6811 75.4936 76.0341 74.9609 77.5895C74.4496 79.1236 74.1832 81.0199 74.1619 83.2784V83.2784C74.1619 83.7373 73.7899 84.1094 73.331 84.1094H64.3501ZM69.0803 104.053C67.1626 104.053 65.5114 103.371 64.1264 102.007C62.7415 100.643 62.049 98.9815 62.049 97.0213C62.049 95.1037 62.7415 93.4631 64.1264 92.0994C65.5114 90.7358 67.1626 90.054 69.0803 90.054C70.9766 90.054 72.6172 90.7358 74.0021 92.0994C75.4084 93.4631 76.1115 95.1037 76.1115 97.0213C76.1115 98.321 75.7813 99.5036 75.1207 100.569C74.4815 101.634 73.6293 102.487 72.5639 103.126C71.5199 103.744 70.3587 104.053 69.0803 104.053Z" fill="#24607E"/>
</svg>
