<?xml version="1.0" encoding="UTF-8"?>
<svg id="Calque_1" xmlns="http://www.w3.org/2000/svg" baseProfile="tiny" version="1.2" viewBox="0 0 141.7 141.7">
  <!-- Generator: Adobe Illustrator 30.2.0, SVG Export Plug-In . SVG Version: 2.1.1 Build 105)  -->
  <path d="M119.6,50.7c.3-2.8.1-5.6-.5-8.4-1.5-6.8-5.6-12.6-11.5-16.3-5-3.2-10.8-4.5-16.6-3.9-1.7-2.1-3.8-3.9-6.2-5.5-11.2-7.1-25.9-4.6-34.2,5.5-2.8-.3-5.6-.1-8.4.5-6.8,1.5-12.6,5.6-16.3,11.4-3.2,5-4.6,10.8-4,16.6-2.2,1.8-4.1,3.9-5.5,6.3-3.7,5.9-4.9,12.9-3.4,19.6,1.3,5.8,4.5,10.9,9,14.5-.3,2.8-.1,5.6.5,8.3,1.5,6.8,5.6,12.6,11.5,16.3,5,3.2,10.8,4.5,16.6,3.9,1.8,2.2,3.9,4.1,6.2,5.5,4.3,2.7,9.1,4.1,14,4.1s3.8-.2,5.7-.6c5.8-1.3,10.8-4.5,14.5-9,2.8.3,5.6.1,8.3-.5,6.8-1.5,12.6-5.6,16.3-11.5,3.2-5,4.5-10.8,3.9-16.6,2.1-1.7,3.9-3.8,5.5-6.2,7.1-11.2,4.6-25.9-5.5-34.2ZM117.6,79.9c-1.4,2.2-3.2,4-5.2,5.2-1.6,1-2.4,2.9-2,4.8,1,4.5.2,9-2.2,12.9-2.4,3.8-6.2,6.5-10.6,7.5-2.5.5-5.1.5-7.6,0-1.8-.4-3.7.4-4.7,2-2.4,3.8-6.2,6.5-10.6,7.5-4.4,1-9,.2-12.9-2.3-2-1.2-3.7-3-5.2-5.2-.8-1.3-2.3-2-3.8-2s-.7,0-1,.1c-4.5,1-9,.2-12.9-2.2-3.8-2.4-6.5-6.2-7.5-10.6-.5-2.5-.5-5.1,0-7.6.4-1.8-.4-3.7-2-4.7-3.8-2.4-6.5-6.2-7.5-10.6-1-4.4-.2-9,2.2-12.9,1.2-1.9,2.8-3.6,4.7-4.9.5-.2.9-.5,1.3-.9h.1c1.4-1.5,1.7-3.6.9-5.3-.6-4.1.2-8.2,2.5-11.7,2.5-3.8,6.3-6.5,10.7-7.5,2.5-.5,5.1-.5,7.6,0,1.8.4,3.7-.4,4.7-2,5.1-7.9,15.6-10.2,23.5-5.2,2.2,1.4,4,3.2,5.2,5.2,1,1.6,2.9,2.4,4.8,2,4.5-1,9-.2,12.9,2.2,3.8,2.4,6.5,6.2,7.5,10.6.5,2.5.5,5.1,0,7.6-.4,1.8.4,3.7,2,4.7,7.9,5.1,10.2,15.6,5.2,23.5Z" fill="#dadcdd"/>
  <path d="M77.1,40.7c-5.2-1.8-10.8-1.5-15.7.8-5,2.4-8.7,6.5-10.5,11.7-.8,2.3.4,4.9,2.7,5.7,2.3.8,4.9-.4,5.7-2.7,1-2.9,3.1-5.3,5.9-6.6,2.8-1.3,5.9-1.5,8.8-.5,4.7,1.7,7.9,6.1,7.9,11s-9.7,10.7-13.1,11.9c-2.4.8-3.6,3.3-2.8,5.7.6,1.9,2.4,3.1,4.3,3.1s1,0,1.4-.2c.8-.3,19.2-6.6,19.2-20.4s-5.6-16.5-13.9-19.5Z" fill="#dadcdd"/>
  <path d="M70.8,93.4h-.1c-2.5,0-4.5,2-4.5,4.5s2,4.5,4.5,4.5h.1c2.5,0,4.5-2,4.5-4.5s-2-4.5-4.5-4.5Z" fill="#dadcdd"/>
</svg>