<svg version="1.1" id="Calque_1" xmlns="http://www.w3.org/2000/svg" xmlns:xlink="http://www.w3.org/1999/xlink" x="0px" y="0px"
	 viewBox="0 0 141.7 141.7" style="enable-background:new 0 0 141.7 141.7;" xml:space="preserve">
<path d="M39 72.6C39 72.7 39 72.8 39 72.9L43.3 68.6C45.8 66.1 49.9 66.1 52.4 68.6C54.9 71.1 54.9 75.2 52.4 77.7L37.8 92.4C35.3 94.9 31.4 94.9 28.8 92.5L13.9 79.4C11.4 76.9 11.5 72.8 14 70.3C16.3 68.1 19.8 67.9 22.3 69.8L26.1 73.2C25.6 62.7 28.3 52.3 33.8 43.4C39.3 34.5 47.3 27.6 56.9 23.5C60.3 22 63.8 20.9 67.5 20.1C91.5 14.7 115.8 27.3 125.2 50C126.7 53.4 127.8 56.9 128.5 60.6C130.3 69.2 129.9 78.1 127.2 86.5C124.5 94.8 119.7 102.3 113.2 108.3C107 114.1 99.6 118.4 91.5 120.9C78.3 124.8 64.1 122.8 52.6 115.2C49.6 113.3 48.8 109.3 50.7 106.3C52.6 103.3 56.6 102.5 59.6 104.4C61.3 105.5 63.1 106.5 64.9 107.3C66.7 108.1 68.5 108.7 70.4 109.1C76.2 110.5 82.2 110.3 87.9 108.6C94.1 106.7 99.8 103.4 104.5 98.9C109.4 94.4 113 88.8 115 82.5C117 76.3 117.3 69.6 116 63.2C115.4 60.4 114.5 57.7 113.4 55C106.4 38 88.1 28.6 70.2 32.7C67.4 33.3 64.6 34.2 62 35.3C54.8 38.3 48.8 43.5 44.7 50.1C40.7 56.9 38.6 64.7 39 72.6ZM70.1 51.6C70.1 48.4 72.7 45.7 76 45.7C79.3 45.7 81.9 48.3 81.9 51.6V69.9L96.2 77.8C99 79.4 100 82.9 98.5 85.8C96.9 88.6 93.4 89.6 90.5 88.1L73.6 78.7C71.5 77.8 70.1 75.7 70.1 73.3V51.6Z" fill="#8BB53C" stroke="#24607E" stroke-width="3.8477" stroke-miterlimit="10" stroke-linecap="round" stroke-linejoin="round"/>
</svg>
