<?xml version="1.0" encoding="UTF-8"?>
<svg id="Calque_1" xmlns="http://www.w3.org/2000/svg" baseProfile="tiny" version="1.2" viewBox="0 0 141.7 141.7">
  <!-- Generator: Adobe Illustrator 30.2.0, SVG Export Plug-In . SVG Version: 2.1.1 Build 105)  -->
  <path d="M70.9,12.5c-16.2,0-31.6,6.3-43.5,17.7l-5.8,5.8v-19c0-2.5-2-4.5-4.5-4.5s-4.5,2-4.5,4.5v29.9c0,.3,0,.6,0,.9,0,.1,0,.3.1.4,0,.2,0,.3.1.5,0,.1.1.3.2.4,0,.1.1.2.2.3.3.5.8.9,1.2,1.2.1,0,.2.1.3.2.1,0,.3.2.4.2.1,0,.3,0,.5.1.1,0,.2,0,.4.1.3,0,.6,0,.9,0h29.9c2.5,0,4.5-2,4.5-4.5s-2-4.5-4.5-4.5h-19l5.8-5.8c10.2-9.7,23.4-15.1,37.2-15.1,27.2,0,49.4,22.1,49.4,49.4s-22.1,49.4-49.4,49.4-49.4-22.1-49.4-49.4-2-4.5-4.5-4.5-4.5,2-4.5,4.5c0,32.2,26.2,58.4,58.4,58.4s58.4-26.2,58.4-58.4S103,12.5,70.9,12.5Z" fill="#dadcdd"/>
  <path d="M70.9,36.5c-2.5,0-4.5,2-4.5,4.5v29.9c0,1.7,1,3.3,2.5,4l24,11.9c.6.3,1.3.5,2,.5,1.7,0,3.2-.9,4-2.5,1.1-2.2.2-4.9-2-6l-21.5-10.7v-27.1c0-2.5-2-4.5-4.5-4.5Z" fill="#dadcdd"/>
</svg>