<?xml version="1.0" encoding="UTF-8"?>
<svg id="Calque_1" xmlns="http://www.w3.org/2000/svg" baseProfile="tiny" version="1.2" viewBox="0 0 141.7 141.7">
  <!-- Generator: Adobe Illustrator 30.2.0, SVG Export Plug-In . SVG Version: 2.1.1 Build 105)  -->
  <path d="M119.3,87.9h-6.1v-11.7c0-5.5-4.5-9.9-9.9-9.9h-27.8v-12.5h6.2c5.5,0,9.9-4.5,9.9-9.9v-21.5c0-5.5-4.5-9.9-9.9-9.9h-21.5c-5.5,0-9.9,4.5-9.9,9.9v21.5c0,5.5,4.5,9.9,9.9,9.9h6.2v12.5h-27.8c-5.5,0-9.9,4.5-9.9,9.9v11.7h-6.2c-5.5,0-9.9,4.5-9.9,9.9v21.5c0,5.5,4.5,9.9,9.9,9.9h21.5c5.5,0,9.9-4.5,9.9-9.9v-21.5c0-5.5-4.5-9.9-9.9-9.9h-6.2v-11.7c0-.5.4-.9.9-.9h31.3c.3,0,.7.1,1,.1s.7,0,1-.1h31.3c.5,0,.9.4.9.9v11.7h-6.4c-5.5,0-9.9,4.5-9.9,9.9v21.5c0,5.5,4.5,9.9,9.9,9.9h21.5c5.5,0,9.9-4.5,9.9-9.9v-21.5c0-5.5-4.5-9.9-9.9-9.9ZM59.3,43.9v-21.5c0-.5.4-.9.9-.9h21.5c.5,0,.9.4.9.9v21.5c0,.5-.4.9-.9.9h-21.5c-.5,0-.9-.4-.9-.9ZM44.8,97.8v21.5c0,.5-.4.9-.9.9h-21.5c-.5,0-.9-.4-.9-.9v-21.5c0-.5.4-.9.9-.9h21.5c.5,0,.9.4.9.9ZM120.2,119.3c0,.5-.4.9-.9.9h-21.5c-.5,0-.9-.4-.9-.9v-21.5c0-.5.4-.9.9-.9h21.5c.5,0,.9.4.9.9v21.5Z" fill="#dadcdd"/>
</svg>