<?xml version="1.0" encoding="utf-8"?>
<!-- Generator: Adobe Illustrator 26.5.0, SVG Export Plug-In . SVG Version: 6.00 Build 0)  -->
<svg version="1.1" id="Calque_1" xmlns="http://www.w3.org/2000/svg" xmlns:xlink="http://www.w3.org/1999/xlink" x="0px" y="0px"
	 viewBox="0 0 141.73 141.73" style="enable-background:new 0 0 141.73 141.73;" xml:space="preserve">
<style type="text/css">
	.st0{fill:#FFFFFF;stroke:#25607E;stroke-width:3.9851;stroke-linecap:round;stroke-linejoin:round;stroke-miterlimit:10;}
	.st1{fill:#25607E;}
	.st2{fill:none;stroke:#25607E;stroke-width:3.9851;stroke-linecap:round;stroke-linejoin:round;stroke-miterlimit:10;}
	.st3{fill:#8CB63C;stroke:#25607E;stroke-width:3.9851;stroke-linecap:round;stroke-linejoin:round;stroke-miterlimit:10;}
	.st4{fill:#8CB63C;}
</style>
<g>
	<path class="st0" d="M85.16,91.68H56.57c-1.16,0-2.11-0.94-2.11-2.11V41.56c0-1.16,0.94-2.11,2.11-2.11h28.59
		c1.16,0,2.11,0.94,2.11,2.11v48.02C87.27,90.74,86.32,91.68,85.16,91.68z"/>
	<g>
		<circle class="st1" cx="79.86" cy="84.69" r="2.4"/>
	</g>
	<line class="st2" x1="59.63" y1="74.51" x2="82.78" y2="74.51"/>
	<line class="st2" x1="71.5" y1="92.43" x2="71.5" y2="102.28"/>
	<polyline class="st2" points="34.9,92.43 34.9,102.28 106.83,102.28 106.83,92.43 	"/>
	<path class="st3" d="M75.2,91.81c0,2.04-1.66,3.7-3.7,3.7c-2.04,0-3.7-1.66-3.7-3.7s1.66-3.7,3.7-3.7
		C73.54,88.11,75.2,89.77,75.2,91.81z"/>
	<rect x="58.9" y="44.35" class="st4" width="23.88" height="5.47"/>
	<rect x="58.9" y="54.13" class="st4" width="23.88" height="5.47"/>
	<rect x="58.9" y="63.91" class="st4" width="23.88" height="5.47"/>
	<path class="st0" d="M121.13,91.68H92.54c-1.16,0-2.11-0.94-2.11-2.11V41.56c0-1.16,0.94-2.11,2.11-2.11h28.59
		c1.16,0,2.11,0.94,2.11,2.11v48.02C123.23,90.74,122.29,91.68,121.13,91.68z"/>
	<g>
		<circle class="st1" cx="115.83" cy="84.69" r="2.4"/>
	</g>
	<line class="st2" x1="95.59" y1="74.51" x2="118.75" y2="74.51"/>
	<rect x="94.87" y="44.35" class="st4" width="23.88" height="5.47"/>
	<rect x="94.87" y="54.13" class="st4" width="23.88" height="5.47"/>
	<rect x="94.87" y="63.91" class="st4" width="23.88" height="5.47"/>
	<path class="st0" d="M49.19,91.68H20.61c-1.16,0-2.11-0.94-2.11-2.11V41.56c0-1.16,0.94-2.11,2.11-2.11H49.2
		c1.16,0,2.11,0.94,2.11,2.11v48.02C51.3,90.74,50.36,91.68,49.19,91.68z"/>
	<g>
		<circle class="st1" cx="43.89" cy="84.69" r="2.4"/>
	</g>
	<line class="st2" x1="23.66" y1="74.51" x2="46.81" y2="74.51"/>
	<rect x="22.93" y="44.35" class="st4" width="23.88" height="5.47"/>
	<rect x="22.93" y="54.13" class="st4" width="23.88" height="5.47"/>
	<rect x="22.93" y="63.91" class="st4" width="23.88" height="5.47"/>
	<path class="st3" d="M38.6,91.81c0,2.04-1.66,3.7-3.7,3.7s-3.7-1.66-3.7-3.7s1.66-3.7,3.7-3.7S38.6,89.77,38.6,91.81z"/>
	<path class="st3" d="M110.53,91.81c0,2.04-1.66,3.7-3.7,3.7c-2.04,0-3.7-1.66-3.7-3.7s1.66-3.7,3.7-3.7
		C108.88,88.11,110.53,89.77,110.53,91.81z"/>
</g>
</svg>
