<?xml version="1.0" encoding="UTF-8"?>
<svg id="Calque_1" xmlns="http://www.w3.org/2000/svg" baseProfile="tiny" version="1.2" viewBox="0 0 141.7 141.7">
  <!-- Generator: Adobe Illustrator 30.2.0, SVG Export Plug-In . SVG Version: 2.1.1 Build 105)  -->
  <path d="M70.9,129.2c-32.2,0-58.4-26.2-58.4-58.4S38.7,12.5,70.9,12.5s58.4,26.2,58.4,58.4-26.2,58.4-58.4,58.4ZM70.9,21.5c-27.2,0-49.4,22.1-49.4,49.4s22.1,49.4,49.4,49.4,49.4-22.1,49.4-49.4-22.1-49.4-49.4-49.4Z" fill="#dadcdd"/>
  <path d="M70.9,96.9c-2.5,0-4.5-2-4.5-4.5v-21.6c0-2.5,2-4.5,4.5-4.5s4.5,2,4.5,4.5v21.6c0,2.5-2,4.5-4.5,4.5Z" fill="#dadcdd"/>
  <path d="M70.9,53.9c-.3,0-.6,0-.9,0-.3,0-.6-.1-.8-.3-.3-.1-.5-.2-.8-.4-.2-.2-.5-.3-.7-.6-.2-.2-.4-.4-.6-.7-.2-.2-.3-.5-.4-.8-.1-.3-.2-.5-.2-.8,0-.3,0-.6,0-.9s0-.6,0-.9c0-.3.1-.6.2-.8.1-.3.2-.5.4-.8.2-.2.4-.5.6-.7.8-.8,2-1.3,3.2-1.3s2.3.5,3.2,1.3.4.4.6.7c.2.2.3.5.4.8.1.3.2.6.3.8,0,.3,0,.6,0,.9s0,.6,0,.9c0,.3-.2.6-.3.8-.1.3-.2.5-.4.8-.2.2-.3.5-.6.7s-.4.4-.7.6c-.2.2-.5.3-.8.4-.3.1-.6.2-.8.3-.3,0-.6,0-.9,0Z" fill="#dadcdd"/>
</svg>