<?xml version="1.0" encoding="UTF-8"?>
<svg id="Calque_1" xmlns="http://www.w3.org/2000/svg" baseProfile="tiny" version="1.2" viewBox="0 0 141.7 141.7">
  <!-- Generator: Adobe Illustrator 30.2.0, SVG Export Plug-In . SVG Version: 2.1.1 Build 105)  -->
  <path d="M114,17.9H27.7c-8.4,0-15.2,6.8-15.2,15.2v53.9c0,8.4,6.8,15.2,15.2,15.2h38.7v12.6h-17.1c-2.5,0-4.5,2-4.5,4.5s2,4.5,4.5,4.5h43.1c2.5,0,4.5-2,4.5-4.5s-2-4.5-4.5-4.5h-17v-12.6h38.6c8.4,0,15.2-6.8,15.2-15.2v-53.9c0-8.4-6.8-15.2-15.2-15.2ZM120.2,87c0,3.4-2.8,6.2-6.2,6.2H27.7c-3.4,0-6.2-2.8-6.2-6.2v-53.9c0-3.4,2.8-6.2,6.2-6.2h86.3c3.4,0,6.2,2.8,6.2,6.2v53.9Z" fill="#dadcdd"/>
  <path d="M38.6,43h16.2c2.5,0,4.5-2,4.5-4.5s-2-4.5-4.5-4.5h-16.2c-2.5,0-4.5,2-4.5,4.5s2,4.5,4.5,4.5Z" fill="#dadcdd"/>
  <path d="M103.3,55.5H38.6c-2.5,0-4.5,2-4.5,4.5s2,4.5,4.5,4.5h64.7c2.5,0,4.5-2,4.5-4.5s-2-4.5-4.5-4.5Z" fill="#dadcdd"/>
  <path d="M103.3,77.1H38.6c-2.5,0-4.5,2-4.5,4.5s2,4.5,4.5,4.5h64.7c2.5,0,4.5-2,4.5-4.5s-2-4.5-4.5-4.5Z" fill="#dadcdd"/>
</svg>