<svg version="1.1" id="Calque_1" xmlns="http://www.w3.org/2000/svg" xmlns:xlink="http://www.w3.org/1999/xlink" x="0px" y="0px"
	 viewBox="0 0 141.7 141.7" style="enable-background:new 0 0 141.7 141.7;" xml:space="preserve">
<path d="M63.5801 87.3075L82.7949 59.8659C83.7452 58.5087 83.4154 56.638 82.0582 55.6877L79.4997 53.8963C78.1425 52.9459 76.2719 53.2758 75.3215 54.633L37.4655 108.697C36.5151 110.054 36.845 111.925 38.2022 112.875L41.4741 115.166C42.4373 115.841 43.7648 115.607 44.4393 114.643C45.1137 113.68 46.4413 113.446 47.4044 114.121L59.485 122.579C60.8422 123.53 62.7129 123.2 63.6632 121.843L65.8095 118.778C66.7598 117.42 66.43 115.55 65.0728 114.599L53.7056 106.64C52.3484 105.69 52.0186 103.819 52.9689 102.462L54.4029 100.414C55.3532 99.0567 57.2238 98.7269 58.581 99.6772L67.0811 105.629C68.4384 106.579 70.309 106.25 71.2593 104.892L73.5536 101.616C74.504 100.258 74.1741 98.3878 72.8169 97.4375L64.3168 91.4857C62.9596 90.5353 62.6297 88.6647 63.5801 87.3075Z" fill="#8BB53C" stroke="#24607E" stroke-width="3.9"/>
<path d="M98.4681 31.1651C103.045 34.3699 106.055 38.6013 107.347 42.6856C108.637 46.7646 108.168 50.4372 106.289 53.1216C104.409 55.8061 101.118 57.5021 96.8439 57.685C92.5641 57.8682 87.5585 56.487 82.9816 53.2822C78.4046 50.0774 75.3947 45.846 74.1031 41.7618C72.8131 37.6828 73.2813 34.0102 75.161 31.3257C77.0406 28.6413 80.3316 26.9453 84.6058 26.7623C88.8855 26.5792 93.8912 27.9603 98.4681 31.1651Z" stroke="#24607E" stroke-width="9" style="fill: none"/>
</svg>
