<?xml version="1.0" encoding="UTF-8"?>
<svg id="Calque_1" xmlns="http://www.w3.org/2000/svg" baseProfile="tiny" version="1.2" viewBox="0 0 141.7 141.7">
  <!-- Generator: Adobe Illustrator 30.2.0, SVG Export Plug-In . SVG Version: 2.1.1 Build 105)  -->
  <path d="M125.3,34.7c-4.6-9.4-12.6-16.5-22.5-20-10-3.5-20.7-2.8-30.2,1.8-9.4,4.6-16.5,12.6-20,22.5-2.6,7.5-2.9,15.5-.8,23.1l-34.2,34.2c-.3.2-.5.4-.7.6-2.8,2.8-4.4,6.7-4.4,10.8v11.7c0,5.5,4.4,9.9,9.9,9.9h16.1c5.5,0,9.9-4.4,9.9-9.9v-5.4c0-.5.4-.9.9-.9h5.4c5.5,0,9.9-4.4,9.9-9.9v-5.4c0-.5.4-.9.9-.9h.9c3.9,0,7.7-1.5,10.7-4.3,0,0,0,0,.1-.1l2.5-2.5c9.2,2.5,18.8,1.6,27.4-2.6,9.4-4.6,16.5-12.6,20-22.5,3.5-10,2.8-20.7-1.8-30.2ZM118.5,61.9c-2.6,7.6-8.1,13.8-15.4,17.3-7.3,3.6-15.6,4-23.3,1.4-1.6-.6-3.4-.2-4.7,1.1l-4.3,4.3c-1.3,1.2-2.9,1.8-4.5,1.8h-.9c-5.5,0-9.9,4.4-9.9,9.9v5.4c0,.5-.4.9-.9.9h-5.4c-5.5,0-9.9,4.4-9.9,9.9v5.4c0,.5-.4.9-.9.9h-16.1c-.5,0-.9-.4-.9-.9v-11.7c0-1.1.3-2.7,1.4-4,.2-.2.4-.3.6-.5l36.5-36.5c1.2-1.2,1.6-3,1.1-4.6-2.3-6.5-2.3-13.4,0-20,2.6-7.6,8.1-13.8,15.4-17.3,7.3-3.6,15.6-4,23.3-1.4,7.6,2.6,13.8,8.1,17.3,15.4,3.6,7.3,4,15.6,1.4,23.3Z" fill="#dadcdd"/>
  <circle cx="94.7" cy="46.9" r="7.2" fill="#dadcdd"/>
</svg>