<?xml version="1.0" encoding="UTF-8"?>
<svg id="Calque_1" xmlns="http://www.w3.org/2000/svg" baseProfile="tiny" version="1.2" viewBox="0 0 141.7 141.7">
  <!-- Generator: Adobe Illustrator 30.2.0, SVG Export Plug-In . SVG Version: 2.1.1 Build 105)  -->
  <path d="M114,17.9H27.7c-8.4,0-15.2,6.8-15.2,15.2v53.9c0,8.4,6.8,15.2,15.2,15.2h38.7v12.6h-17.1c-2.5,0-4.5,2-4.5,4.5s2,4.5,4.5,4.5h43.2c2.5,0,4.5-2,4.5-4.5s-2-4.5-4.5-4.5h-17.1v-12.6h38.6c8.4,0,15.2-6.8,15.2-15.2v-53.9c0-8.4-6.8-15.2-15.2-15.2ZM120.2,87c0,3.4-2.8,6.2-6.2,6.2H27.7c-3.4,0-6.2-2.8-6.2-6.2v-53.9c0-3.4,2.8-6.2,6.2-6.2h86.3c3.4,0,6.2,2.8,6.2,6.2v53.9Z" fill="#dadcdd"/>
  <path d="M97.8,55.6h-10.7c-1.7,0-3.3,1-4.1,2.5l-5.3,10.9-7.8-32.4c-.4-1.8-2-3.2-3.9-3.4-1.9-.2-3.7.8-4.5,2.5l-9.5,19.7h-7.9c-2.5,0-4.5,2-4.5,4.5s2,4.5,4.5,4.5h10.7c1.7,0,3.3-1,4.1-2.5l5.3-10.9,7.8,32.4c.4,1.8,2,3.2,3.9,3.4.2,0,.3,0,.5,0,1.7,0,3.3-1,4.1-2.5l9.5-19.7h7.9c2.5,0,4.5-2,4.5-4.5s-2-4.5-4.5-4.5Z" fill="#dadcdd"/>
</svg>