<?xml version="1.0" encoding="utf-8"?>
<!-- Generator: Adobe Illustrator 26.5.0, SVG Export Plug-In . SVG Version: 6.00 Build 0)  -->
<svg version="1.1" id="Calque_1" xmlns="http://www.w3.org/2000/svg" xmlns:xlink="http://www.w3.org/1999/xlink" x="0px" y="0px"
	 viewBox="0 0 141.73 141.73" style="enable-background:new 0 0 141.73 141.73;" xml:space="preserve">
<style type="text/css">
	.st0{fill:none;stroke:#25607E;stroke-width:3.9851;stroke-linecap:round;stroke-linejoin:round;stroke-miterlimit:10;}
	.st1{fill:#FFFFFF;stroke:#25607E;stroke-width:3.9851;stroke-linecap:round;stroke-linejoin:round;stroke-miterlimit:10;}
	.st2{fill:#8CB63C;stroke:#25607E;stroke-width:3.9851;stroke-linecap:round;stroke-linejoin:round;stroke-miterlimit:10;}
	.st3{fill:#FFFFFF;stroke:#25607E;stroke-width:3.9006;stroke-linecap:round;stroke-linejoin:round;stroke-miterlimit:10;}
	.st4{fill:none;stroke:#25607E;stroke-width:5.1255;stroke-linecap:round;stroke-linejoin:round;stroke-miterlimit:10;}
</style>
<g>
	<g>
		<g>
			<line class="st0" x1="46.93" y1="113.4" x2="93.86" y2="113.4"/>
			<rect x="61.11" y="78.73" class="st1" width="18.57" height="34.67"/>
			<path class="st2" d="M114.78,101.45H26.95c-4.11,0-7.43-3.33-7.43-7.44V35.77c0-4.11,3.33-7.44,7.43-7.44h87.84
				c4.11,0,7.43,3.33,7.43,7.44v58.24C122.22,98.12,118.89,101.45,114.78,101.45z"/>
			<path class="st3" d="M27.94,90.32c-0.08,0-0.14-0.06-0.14-0.14V38.83c0-2.11,1.71-3.83,3.82-3.83h78.39
				c2.11,0,3.82,1.71,3.82,3.82v51.35c0,0.08-0.06,0.14-0.14,0.14H27.94V90.32z"/>
			<line class="st0" x1="66.43" y1="95.87" x2="74.38" y2="95.87"/>
		</g>
	</g>
	<polyline class="st4" points="41.65,66.97 51.03,55.63 59.59,81.77 65.16,44 72.9,73.34 79.02,60.59 87.85,74.09 94.24,64.34 
		100.08,68.28 	"/>
</g>
</svg>
