<?xml version="1.0" encoding="UTF-8"?>
<svg id="Calque_1" xmlns="http://www.w3.org/2000/svg" baseProfile="tiny" version="1.2" viewBox="0 0 141.7 141.7">
  <!-- Generator: Adobe Illustrator 30.2.0, SVG Export Plug-In . SVG Version: 2.1.1 Build 105)  -->
  <path d="M70.9,115.7c-.3,0-.6,0-.9,0-.3,0-.6-.2-.8-.3-.3-.1-.5-.2-.8-.4-.2-.2-.5-.4-.7-.6-.2-.2-.4-.4-.5-.7-.2-.2-.3-.5-.4-.8-.1-.3-.2-.6-.3-.8,0-.3,0-.6,0-.9s0-.6,0-.9c0-.3.1-.6.3-.9.1-.3.2-.5.4-.8.2-.2.4-.5.5-.7.8-.8,2-1.3,3.2-1.3s2.3.5,3.2,1.3c.2.2.4.4.6.7.2.2.3.5.4.8.1.3.2.6.3.9,0,.3,0,.6,0,.9s0,.6,0,.9c0,.3-.2.6-.3.8-.1.3-.2.5-.4.8-.2.2-.3.5-.6.7s-.4.4-.7.6c-.2.2-.5.3-.8.4-.3.1-.6.2-.8.3-.3,0-.6,0-.9,0Z" fill="#dadcdd"/>
  <path d="M17,55.6c-1.2,0-2.5-.5-3.4-1.5-1.7-1.9-1.5-4.7.4-6.4,32.4-29,81.3-29,113.7,0,1.9,1.7,2,4.5.4,6.4-1.7,1.9-4.5,2-6.4.4-29-25.9-72.7-25.9-101.7,0-.9.8-1.9,1.1-3,1.1Z" fill="#dadcdd"/>
  <path d="M33.2,77.3c-1.2,0-2.3-.5-3.2-1.4-1.7-1.8-1.7-4.6,0-6.4,11-10.7,25.5-16.6,40.8-16.6s29.9,5.9,40.8,16.6c1.8,1.7,1.8,4.6,0,6.4-1.7,1.8-4.6,1.8-6.4,0-19.1-18.6-50.1-18.6-69.1,0-.9.9-2,1.3-3.1,1.3Z" fill="#dadcdd"/>
  <path d="M89.6,96.5c-1.1,0-2.3-.4-3.2-1.3-8.7-8.5-22.7-8.5-31.4,0-1.8,1.7-4.6,1.7-6.4,0-1.7-1.8-1.7-4.6,0-6.4,12.1-12,31.9-12,44,0,1.8,1.7,1.8,4.6,0,6.4-.9.9-2,1.3-3.2,1.3Z" fill="#dadcdd"/>
</svg>