<svg version="1.1" id="Calque_1" xmlns="http://www.w3.org/2000/svg" xmlns:xlink="http://www.w3.org/1999/xlink" x="0px" y="0px"
	 viewBox="0 0 141.7 141.7" style="enable-background:new 0 0 141.7 141.7;" xml:space="preserve">
<path d="M98.988 41.5106C106.95 44.8086 114.259 49.4865 120.58 55.3215C120.946 55.6592 120.991 56.2842 120.566 56.7094L119.505 57.7701C119.11 58.1652 118.405 58.2098 117.911 57.758C111.954 52.3077 105.085 47.9326 97.6104 44.8366C89.1843 41.3464 80.1533 39.55 71.033 39.55C61.9127 39.55 52.8817 41.3464 44.4556 44.8366C36.9811 47.9326 30.1125 52.3077 24.1549 57.758C23.661 58.2098 22.9559 58.1652 22.5608 57.7701L21.5002 56.7095C21.0749 56.2842 21.12 55.6592 21.4858 55.3215C27.8073 49.4865 35.1159 44.8086 43.078 41.5106C51.9408 37.8395 61.4399 35.95 71.033 35.95C80.6261 35.95 90.1252 37.8395 98.988 41.5106ZM92.7911 58.1785C98.6371 60.6 104.02 63.9997 108.711 68.2252C109.062 68.5415 109.122 69.1536 108.692 69.5838L107.649 70.6268C107.258 71.0172 106.54 71.076 106.016 70.6115C101.698 66.783 96.7677 63.6952 91.423 61.4814C85.1171 58.8694 78.3585 57.525 71.533 57.525C64.7076 57.525 57.949 58.8694 51.6431 61.4814C46.2983 63.6952 41.3676 66.783 37.0499 70.6115C36.5261 71.076 35.8079 71.0172 35.4175 70.6268L34.3746 69.5838C33.9443 69.1536 34.004 68.5415 34.3552 68.2252C39.0463 63.9997 44.4289 60.6 50.275 58.1785C57.0146 55.3868 64.2381 53.95 71.533 53.95C78.828 53.95 86.0515 55.3868 92.7911 58.1785ZM85.5941 73.8464C89.3303 75.394 92.7902 77.5248 95.8468 80.1542C96.1687 80.4311 96.2572 81.0181 95.8171 81.4582L94.9686 82.3067C94.5871 82.6882 93.8438 82.7739 93.258 82.2864C90.5752 80.0544 87.5667 78.2353 84.3313 76.8952C80.1152 75.1488 75.5965 74.25 71.033 74.25C66.4696 74.25 61.9508 75.1488 57.7348 76.8952C54.4994 78.2353 51.4909 80.0544 48.8081 82.2864C48.2222 82.7739 47.479 82.6882 47.0975 82.3067L46.2489 81.4582C45.8088 81.0181 45.8974 80.4311 46.2193 80.1542C49.2759 77.5248 52.7358 75.394 56.4719 73.8464C61.0884 71.9342 66.0362 70.95 71.033 70.95C76.0298 70.95 80.9777 71.9342 85.5941 73.8464ZM79.3972 90.5143C81.0445 91.1966 82.5923 92.0889 84.0033 93.1662C84.1556 93.2824 84.2335 93.4393 84.2377 93.6419C84.2423 93.8607 84.1542 94.1211 83.9428 94.3326L82.9351 95.3402C82.5766 95.6987 81.7614 95.8556 80.954 95.3192C80.0399 94.7119 79.067 94.1929 78.0482 93.771C75.9826 92.9154 73.7688 92.475 71.533 92.475C69.2973 92.475 67.0834 92.9154 65.0178 93.7709C63.9991 94.1929 63.0262 94.7119 62.1121 95.3191C61.3046 95.8556 60.4895 95.6987 60.1309 95.3402L59.1233 94.3326C58.9118 94.1211 58.8238 93.8607 58.8283 93.6419C58.8325 93.4393 58.9104 93.2824 59.0627 93.1662C60.4738 92.0889 62.0216 91.1966 63.6689 90.5143C66.1621 89.4815 68.8344 88.95 71.533 88.95C74.2317 88.95 76.9039 89.4815 79.3972 90.5143Z" stroke="#24607E" stroke-width="3.9"/>
<circle cx="71.5" cy="105.5" r="3.5" fill="#24607E"/>
</svg>
