<?xml version="1.0" encoding="UTF-8"?>
<svg id="Calque_1" xmlns="http://www.w3.org/2000/svg" baseProfile="tiny" version="1.2" viewBox="0 0 141.7 141.7">
  <!-- Generator: Adobe Illustrator 30.2.0, SVG Export Plug-In . SVG Version: 2.1.1 Build 105)  -->
  <path d="M121,32.6l-41.8-23.9c-5.2-3.1-11.4-3.1-16.5,0l-41.8,23.9c-5.1,2.8-8.3,8.3-8.3,14.4v47.9c0,5.9,3.1,11.3,8.3,14.3l41.9,23.9c2.6,1.5,5.4,2.3,8.3,2.3s5.6-.8,8.2-2.3l41.8-23.9c5.1-2.8,8.3-8.3,8.3-14.4v-47.9c0-5.9-3.1-11.3-8.3-14.3ZM67.2,16.4c1.2-.7,2.4-1,3.7-1s2.6.4,3.8,1.1l41.1,23.5-17.8,10.2-44.9-25.6,14.1-8.1ZM70.9,65.7l-44.8-25.7,18-10.3,44.9,25.7-18,10.3ZM25.3,101.4c-2.4-1.4-3.8-3.8-3.8-6.6v-47.1l44.9,25.7v51.4l-41.1-23.5ZM116.5,101.3l-41.1,23.5v-51.4l44.9-25.7v47.1c0,2.7-1.4,5.3-3.7,6.5Z" fill="#dadcdd"/>
</svg>