<?xml version="1.0" encoding="UTF-8"?>
<svg id="Calque_1" xmlns="http://www.w3.org/2000/svg" baseProfile="tiny" version="1.2" viewBox="0 0 141.7 141.7">
  <!-- Generator: Adobe Illustrator 30.2.0, SVG Export Plug-In . SVG Version: 2.1.1 Build 105)  -->
  <path d="M105.9,116.5h-5.5v-16.4c0-4-1.5-7.6-4.4-10.2l-18.9-18.9,19-19c2.7-2.7,4.3-6.5,4.3-10.2v-16.4h5.5c2.5,0,4.5-2,4.5-4.5s-2-4.5-4.5-4.5H35.8c-2.5,0-4.5,2-4.5,4.5s2,4.5,4.5,4.5h5.5v16.4c0,4,1.5,7.6,4.4,10.2l18.9,18.9-19,19c-2.7,2.7-4.3,6.5-4.3,10.2v16.4h-5.5c-2.5,0-4.5,2-4.5,4.5s2,4.5,4.5,4.5h70.1c2.5,0,4.5-2,4.5-4.5s-2-4.5-4.5-4.5ZM51.9,45.4c-1.1-1-1.6-2.2-1.6-3.7v-16.4h41.1v16.4c0,1.3-.6,2.8-1.7,3.8l-18.9,18.9-18.9-18.9s0,0-.1-.1ZM50.3,100.1c0-1.3.6-2.8,1.7-3.8l18.9-18.9,18.9,18.9s0,0,.1.1c1.1,1,1.6,2.2,1.6,3.7v16.4h-41.1v-16.4Z" fill="#dadcdd"/>
</svg>