<svg version="1.1" id="Calque_1" xmlns="http://www.w3.org/2000/svg" xmlns:xlink="http://www.w3.org/1999/xlink" x="0px" y="0px"
	 viewBox="0 0 141.7 141.7" style="enable-background:new 0 0 141.7 141.7;" xml:space="preserve">
<path d="M41.3581 23.0291C40.0561 23.1846 39.133 23.5733 38.307 24.3215C36.5483 25.9345 36.5677 28.6261 38.3459 30.2876C39.0552 30.9484 39.716 31.2205 40.9597 31.3662C42.0675 31.4925 42.2618 31.5606 42.5825 31.9201C43.0003 32.3768 43.01 32.5517 43.01 38.4013C43.01 41.4815 43.0586 44.416 43.1072 44.9213C43.3112 46.8647 44.0497 48.8081 45.2352 50.528C45.5558 50.9944 46.5664 52.209 47.4895 53.2293C52.8629 59.1663 59.0235 66.1722 59.6065 67.0078C60.7239 68.6111 61.1029 70.1755 60.7433 71.7108C60.5684 72.4493 59.9854 73.625 59.4024 74.4121C58.8194 75.2089 52.6686 82.1662 47.0036 88.453C44.7785 90.9211 43.7971 92.6702 43.2432 95.2063C43.0877 95.8865 43.0586 96.7416 43.0197 102.3L42.9614 108.616L42.7282 108.995C42.4075 109.5 41.912 109.704 40.6974 109.821C39.8812 109.898 39.6188 109.966 39.1232 110.229C38.4042 110.608 37.8698 111.191 37.4422 112.055C37.141 112.668 37.1313 112.736 37.1313 113.911C37.1313 115.087 37.141 115.155 37.4422 115.767C37.9961 116.885 39.0066 117.604 40.5322 117.954C41.2804 118.128 42.3492 118.138 70.9947 118.138C98.4449 118.138 100.728 118.128 101.379 117.973C102.886 117.623 104.003 116.768 104.625 115.505C104.936 114.883 104.955 114.776 104.955 113.863C104.955 112.969 104.926 112.833 104.644 112.23C103.906 110.676 102.439 109.733 100.748 109.733C100.058 109.733 99.4652 109.403 99.2028 108.859L98.9794 108.431V102.785C98.9794 99.6858 98.9308 96.7416 98.8822 96.246C98.649 94.0111 97.7939 91.922 96.3655 90.0563C96.1226 89.7357 95.355 88.8417 94.6553 88.0644C93.9557 87.287 92.2261 85.3436 90.8172 83.7403C88.0867 80.6406 85.9101 78.2406 84.4137 76.647C82.7521 74.8882 81.7999 73.4016 81.4404 71.9829C81.2557 71.2541 81.2557 69.8452 81.4404 69.1261C81.8485 67.552 82.5675 66.4637 84.8121 64.0442C85.57 63.228 88.077 60.4392 90.3799 57.8448C92.6925 55.2504 94.908 52.7629 95.3161 52.3062C96.7931 50.6737 97.7453 49.1287 98.2992 47.4574C98.9113 45.6306 98.9016 45.7375 98.9696 38.7997C99.0279 32.8918 99.0377 32.4157 99.2028 32.1144C99.4263 31.6966 99.9802 31.4537 100.874 31.3759C102.856 31.1816 104.217 30.1516 104.81 28.3929C105.519 26.3232 104.188 24.0397 101.807 23.2332L101.166 23.0097L71.4319 23C55.0784 23 41.5427 23.0097 41.3581 23.0291ZM89.9426 31.6577C90.1273 31.7743 90.3605 32.0075 90.4771 32.1922C90.6617 32.5225 90.6714 32.678 90.6714 37.7308C90.6714 42.4143 90.652 43.0071 90.4965 43.6873C90.1661 45.0865 89.7483 45.7375 87.5911 48.2348C84.9967 51.247 81.5667 55.1143 78.1366 58.9137C76.543 60.6724 75.9697 61.372 75.377 62.2466C71.8498 67.4937 71.8595 73.6639 75.3964 78.9208C75.9989 79.8244 76.3973 80.2811 79.497 83.7501C85.8907 90.8823 89.3208 94.8468 89.7386 95.5755C90.6034 97.0914 90.7394 98.3546 90.7006 104.389C90.6714 109.024 90.6714 109.024 89.9524 109.461L89.6026 109.684H71.0433C53.9318 109.684 52.4548 109.675 52.1245 109.519C51.4054 109.199 51.4248 109.306 51.3277 104.632C51.2111 98.8307 51.2111 98.7432 51.454 97.7327C51.7163 96.6444 52.4354 95.1577 53.1836 94.1666C53.4945 93.7585 54.5634 92.5633 55.5545 91.4944C58.1198 88.7543 63.0268 83.2642 65.6407 80.2034C67.2925 78.2697 68.4294 75.9668 68.9736 73.4599C69.2651 72.1189 69.2845 69.3205 69.0221 67.999C68.5072 65.4628 67.2537 62.8393 65.6601 60.9542C65.4172 60.6627 63.5515 58.5638 61.5207 56.2901C57.4785 51.762 55.127 49.0899 53.6111 47.302C52.0953 45.5043 51.59 44.3091 51.3762 41.9965C51.2499 40.6459 51.2402 33.2707 51.3665 32.7363C51.4831 32.2116 51.7358 31.8909 52.2411 31.6286L52.6783 31.4148L71.1404 31.4342C89.5151 31.4634 89.6026 31.4634 89.9426 31.6577Z" fill="#24607E"/>
<path d="M70.9999 62.5637L87.5961 44.9455H54.4037L70.9999 62.5637Z" fill="#8BB53C"/>
<path d="M59.8727 91.6182H81.5091L87.6909 97.8V107.073H54.3091V97.8L59.8727 91.6182Z" fill="#8BB53C"/>
</svg>
