<?xml version="1.0" encoding="UTF-8"?>
<svg id="Calque_1" xmlns="http://www.w3.org/2000/svg" baseProfile="tiny" version="1.2" viewBox="0 0 141.7 141.7">
  <!-- Generator: Adobe Illustrator 30.2.0, SVG Export Plug-In . SVG Version: 2.1.1 Build 105)  -->
  <path d="M37.5,125.7c-5.4,0-10.7-2.7-13.6-7.6,0,0,0-.1-.1-.2-1.4-2.6-2.1-5.2-2.1-7.7V31.9c0-.5,0-.9.2-1.3.6-8.1,7.4-14.5,15.6-14.5s5.8.8,8,2.3l66.9,39c3.6,2.1,6.2,5.5,7.3,9.5,1.1,4.1.5,8.3-1.6,11.9-1.2,2.3-3.1,4.2-5.6,5.6l-67.1,39.1c-2.5,1.4-5.1,2.1-7.8,2.1ZM31.6,113.5c1.9,3.1,6,4.1,9.2,2.3l67-39.1c1.1-.6,1.8-1.4,2.3-2.3,0,0,0,0,0-.1.9-1.6,1.2-3.4.7-5.1-.5-1.7-1.5-3.2-3.1-4L40.8,26c-.1,0-.2-.1-.3-.2-.7-.5-1.8-.8-3-.8-3.7,0-6.7,2.9-6.7,6.7s0,.8-.2,1.2v77.2c0,1,.3,2.1,1,3.3ZM26.3,31.7h0,0Z" fill="#dadcdd"/>
</svg>