<svg version="1.1" id="Calque_1" xmlns="http://www.w3.org/2000/svg" xmlns:xlink="http://www.w3.org/1999/xlink" x="0px" y="0px"
	 viewBox="0 0 141.7 141.7" style="enable-background:new 0 0 141.7 141.7;" xml:space="preserve">
<mask id="path-1-inside-1_26_107" fill="white">
<path d="M48.2452 39.3418C47.2939 37.9853 45.4154 37.649 44.1277 38.6916C37.7549 43.851 32.9531 50.7219 30.3059 58.5253C27.3365 67.2782 27.2324 76.7494 30.0085 85.5654C32.7846 94.3815 38.2967 102.084 45.7455 107.556C53.1943 113.029 62.1925 115.986 71.4353 116C80.6782 116.014 89.6851 113.083 97.1502 107.633C104.615 102.183 110.15 94.4965 112.952 85.6887C115.755 76.8809 115.679 67.4095 112.735 58.6478C110.111 50.8366 105.33 43.9515 98.9727 38.7731C97.6881 37.7267 95.8086 38.0574 94.8532 39.4111L91.3918 44.3154C90.4365 45.6691 90.7704 47.5306 92.0271 48.6104C96.3141 52.294 99.5459 57.0771 101.358 62.47C103.489 68.8141 103.544 75.6721 101.515 82.0496C99.4855 88.4271 95.4778 93.9925 90.0726 97.9388C84.6674 101.885 78.1457 104.007 71.4532 103.997C64.7607 103.987 58.2453 101.846 52.8519 97.8834C47.4584 93.9211 43.4673 88.3438 41.4571 81.9603C39.447 75.5768 39.5224 68.719 41.6724 62.3813C43.5001 56.9938 46.7461 52.2203 51.044 48.5495C52.3039 47.4735 52.6434 45.6129 51.692 44.2564L48.2452 39.3418Z"/>
</mask>
<path d="M48.2452 39.3418C47.2939 37.9853 45.4154 37.649 44.1277 38.6916C37.7549 43.851 32.9531 50.7219 30.3059 58.5253C27.3365 67.2782 27.2324 76.7494 30.0085 85.5654C32.7846 94.3815 38.2967 102.084 45.7455 107.556C53.1943 113.029 62.1925 115.986 71.4353 116C80.6782 116.014 89.6851 113.083 97.1502 107.633C104.615 102.183 110.15 94.4965 112.952 85.6887C115.755 76.8809 115.679 67.4095 112.735 58.6478C110.111 50.8366 105.33 43.9515 98.9727 38.7731C97.6881 37.7267 95.8086 38.0574 94.8532 39.4111L91.3918 44.3154C90.4365 45.6691 90.7704 47.5306 92.0271 48.6104C96.3141 52.294 99.5459 57.0771 101.358 62.47C103.489 68.8141 103.544 75.6721 101.515 82.0496C99.4855 88.4271 95.4778 93.9925 90.0726 97.9388C84.6674 101.885 78.1457 104.007 71.4532 103.997C64.7607 103.987 58.2453 101.846 52.8519 97.8834C47.4584 93.9211 43.4673 88.3438 41.4571 81.9603C39.447 75.5768 39.5224 68.719 41.6724 62.3813C43.5001 56.9938 46.7461 52.2203 51.044 48.5495C52.3039 47.4735 52.6434 45.6129 51.692 44.2564L48.2452 39.3418Z" stroke="#24607E" stroke-width="20" mask="url(#path-1-inside-1_26_107)"/>
<path d="M77 29C77 27.3431 75.6569 26 74 26H68C66.3431 26 65 27.3431 65 29V63C65 64.6569 66.3431 66 68 66H74C75.6569 66 77 64.6569 77 63V29Z" fill="#8BB53C" stroke="#24607E" stroke-width="3.9851" stroke-miterlimit="10" stroke-linecap="round" stroke-linejoin="round"/>
</svg>
