<?xml version="1.0" encoding="UTF-8"?>
<svg id="Calque_1" xmlns="http://www.w3.org/2000/svg" baseProfile="tiny" version="1.2" viewBox="0 0 141.7 141.7">
  <!-- Generator: Adobe Illustrator 30.2.0, SVG Export Plug-In . SVG Version: 2.1.1 Build 105)  -->
  <path d="M70.6,76c-2.8,0-5-2.2-5-5V19.7c0-2.8,2.2-5,5-5s5,2.2,5,5v51.3c0,2.8-2.2,5-5,5Z" fill="#dadcdd"/>
  <path d="M70.8,127c-13.1,0-26.2-5-36.1-14.9-19.9-19.8-19.9-52.2-.2-72.1,1.9-2,5.1-2,7.1,0,2,1.9,2,5.1,0,7.1-15.9,16-15.8,42.1.1,58,16,16,42.1,16,58.2,0,16-16,16-42.1,0-58.2-2-2-2-5.1,0-7.1,2-2,5.1-2,7.1,0,19.9,19.9,19.9,52.4,0,72.3-10,10-23.1,14.9-36.1,14.9Z" fill="#dadcdd"/>
</svg>