<?xml version="1.0" encoding="UTF-8"?>
<svg id="Calque_1" xmlns="http://www.w3.org/2000/svg" baseProfile="tiny" version="1.2" viewBox="0 0 141.7 141.7">
  <!-- Generator: Adobe Illustrator 30.2.0, SVG Export Plug-In . SVG Version: 2.1.1 Build 105)  -->
  <path d="M80.5,116.1c-.2,0-.4,0-.5,0-2.1-.2-3.8-1.7-4.3-3.8l-16.1-66.8-13.2,27.5c-.8,1.7-2.6,2.8-4.5,2.8h-19.3c-2.8,0-5-2.2-5-5s2.2-5,5-5h16.2l18-37.2c.9-1.9,2.9-3,5-2.8,2.1.2,3.8,1.7,4.3,3.8l16.1,66.8,13.2-27.5c.8-1.7,2.6-2.8,4.5-2.8h19.3c2.8,0,5,2.2,5,5s-2.2,5-5,5h-16.2l-18,37.2c-.8,1.7-2.6,2.8-4.5,2.8Z" fill="#dadcdd"/>
</svg>