<?xml version="1.0" encoding="UTF-8"?>
<svg id="Calque_1" xmlns="http://www.w3.org/2000/svg" baseProfile="tiny" version="1.2" viewBox="0 0 141.7 141.7">
  <!-- Generator: Adobe Illustrator 30.2.0, SVG Export Plug-In . SVG Version: 2.1.1 Build 105)  -->
  <path d="M46.7,133.2c-1.4,0-2.8-.4-4.1-1.4,0,0,0,0-.1,0-2-1.6-2.8-4.3-2.1-6.8.1-.4.3-.8.5-1.1l25-40.5h-27.6c-4.7,0-8.6-3.8-8.6-8.6s.7-3.9,2-5.4c0,0,.1-.2.2-.2L88.3,10.7c2.3-2.5,6.1-2.8,8.9-.8,0,0,0,0,.1,0,2,1.6,2.8,4.3,2.1,6.8-.1.4-.2.7-.4,1l-23.2,40h27.7c4.7,0,8.6,3.8,8.6,8.6s-.7,3.9-2,5.4c0,0-.2.2-.3.3l-58.2,58.8c-1.3,1.4-3,2.1-4.8,2.1ZM44.8,125s0,0,0,0c0,0,0,0,0,0ZM39.4,74.2h27.4c1,0,1.9.2,2.5.4.2,0,.3,0,.5.1,2.2.8,4,2.4,4.9,4.5.9,2.1,1,4.4.2,6.5,0,.3-.2.5-.4.7l-14,22.7,41.9-42.3h-27.4c-1,0-1.9-.2-2.5-.4-.2,0-.3,0-.5-.1-2.2-.8-4-2.4-4.9-4.5-.9-2.1-1-4.4-.2-6.5,0-.2.2-.4.3-.6l13.4-23.1-41.2,42.6ZM95,16.7s0,0,0,0c0,0,0,0,0,0Z" fill="#dadcdd"/>
</svg>