<svg version="1.1" id="Calque_1" xmlns="http://www.w3.org/2000/svg" xmlns:xlink="http://www.w3.org/1999/xlink" x="0px" y="0px"
	 viewBox="0 0 141.7 141.7" style="enable-background:new 0 0 141.7 141.7;" xml:space="preserve">
<path d="M118.387 88.9016H25.3723V28.2657C25.3723 25.8522 27.331 23.8842 29.7538 23.8842H114.015C116.428 23.8842 118.396 25.8429 118.396 28.2657V88.9016H118.387Z" fill="#8CB63C" stroke="#25607E" stroke-width="4.2557" stroke-miterlimit="10" stroke-linecap="round" stroke-linejoin="round"/>
<path d="M111.146 80.2362L111.146 30.9719L32.6035 30.9719L32.6035 80.2362L111.146 80.2362Z" fill="white"/>
<path d="M121.33 96.198H24.2676C22.4667 96.198 21 94.7313 21 92.9304V88.9387C21 88.9202 21.0186 88.9016 21.0371 88.9016H124.486C124.532 88.9016 124.56 88.9387 124.56 88.9759V92.9675C124.56 94.7498 123.112 96.198 121.33 96.198Z" fill="white" stroke="#25607E" stroke-width="4.2557" stroke-miterlimit="10" stroke-linecap="round" stroke-linejoin="round"/>
<path d="M88.3671 107.485C83.6449 101.256 80.6922 91.0542 80.6922 91.0542C79.992 89.528 80.6433 87.7095 82.1414 86.9951C83.6395 86.2807 85.4252 86.941 86.12 88.4672L89.8761 96.6935L89.8924 75.2131C89.8924 73.5245 91.2385 72.1607 92.8885 72.1553C94.544 72.1553 95.8847 73.5191 95.8792 75.2077L95.8684 89.6687V88.1425C95.8684 86.4539 97.2145 85.0901 98.8645 85.0847C100.52 85.0847 101.861 86.4485 101.855 88.1371V88.7486C101.855 87.0601 103.201 85.6962 104.851 85.6908C106.507 85.6908 107.848 87.0546 107.842 88.7432V89.3548C107.842 87.6662 109.188 86.3024 110.838 86.297C112.494 86.297 113.834 87.6608 113.829 89.3494L113.824 98.4416C113.818 106.473 107.424 112.995 99.543 113C96.6717 113 94.0012 112.14 91.7649 110.657C90.484 109.796 89.3279 108.724 88.3671 107.485Z" fill="white" stroke="#25607E" stroke-width="4.2557" stroke-miterlimit="10" stroke-linecap="round" stroke-linejoin="round"/>
<path d="M48.8 47.72H49.55C52.58 47.72 55.31 48.08 55.31 51.8C55.31 55.31 52.43 55.85 49.58 55.85H48.8V47.72ZM48.8 58.07H49.43L56.27 68H59.36L52.16 57.86C55.64 57.56 57.83 55.1 57.83 51.62C57.83 46.52 53.84 45.38 49.55 45.38H46.28V68H48.8V58.07ZM62.5398 68H66.7398C70.2798 68 72.9798 67.55 75.6798 65.15C78.1698 62.93 79.3698 60.02 79.3698 56.72C79.3698 53.36 78.1998 50.33 75.6198 48.11C72.9498 45.83 70.1898 45.38 66.7998 45.38H62.5398V68ZM65.0598 65.66V47.72H66.8898C69.5598 47.72 71.8398 48.08 73.9098 49.91C75.8598 51.62 76.8498 54.11 76.8498 56.69C76.8498 59.21 75.8898 61.58 74.0298 63.32C71.9598 65.27 69.6498 65.66 66.8898 65.66H65.0598ZM85.3918 58.1H87.2218C89.1118 58.1 91.0618 57.86 92.5918 56.6C94.0018 55.43 94.7518 53.57 94.7518 51.74C94.7518 49.73 93.8818 47.75 92.2018 46.58C90.5518 45.44 88.5418 45.38 86.5918 45.38H82.8718V68H85.3918V58.1ZM85.3918 47.72H86.3218C89.2618 47.72 92.2318 47.99 92.2318 51.68C92.2318 54.92 89.8618 55.76 87.0718 55.76H85.3918V47.72Z" fill="#8CB63C"/>
<path d="M48.8 47.72V46.72H47.8V47.72H48.8ZM48.8 55.85H47.8V56.85H48.8V55.85ZM48.8 58.07V57.07H47.8V58.07H48.8ZM49.43 58.07L50.2535 57.5027L49.9555 57.07H49.43V58.07ZM56.27 68L55.4465 68.5673L55.7445 69H56.27V68ZM59.36 68V69H61.2965L60.1754 67.421L59.36 68ZM52.16 57.86L52.0741 56.8637L50.3327 57.0138L51.3446 58.439L52.16 57.86ZM46.28 45.38V44.38H45.28V45.38H46.28ZM46.28 68H45.28V69H46.28V68ZM48.8 68V69H49.8V68H48.8ZM48.8 48.72H49.55V46.72H48.8V48.72ZM49.55 48.72C51.0822 48.72 52.2862 48.8241 53.1028 49.2511C53.4791 49.4479 53.7603 49.7086 53.9579 50.0714C54.1612 50.4447 54.31 50.9894 54.31 51.8H56.31C56.31 50.7506 56.1176 49.8553 55.7143 49.1148C55.3053 48.3639 54.7146 47.8371 54.0297 47.4789C52.7238 46.7959 51.0478 46.72 49.55 46.72V48.72ZM54.31 51.8C54.31 52.5395 54.1592 53.0507 53.9497 53.4132C53.7423 53.7721 53.4423 54.0461 53.0433 54.2588C52.2004 54.7082 50.9847 54.85 49.58 54.85V56.85C51.0253 56.85 52.6746 56.7218 53.9842 56.0237C54.6614 55.6626 55.2596 55.1435 55.6813 54.414C56.1008 53.688 56.31 52.8155 56.31 51.8H54.31ZM49.58 54.85H48.8V56.85H49.58V54.85ZM49.8 55.85V47.72H47.8V55.85H49.8ZM48.8 59.07H49.43V57.07H48.8V59.07ZM48.6065 58.6373L55.4465 68.5673L57.0935 67.4327L50.2535 57.5027L48.6065 58.6373ZM56.27 69H59.36V67H56.27V69ZM60.1754 67.421L52.9754 57.281L51.3446 58.439L58.5446 68.579L60.1754 67.421ZM52.2459 58.8563C54.2074 58.6872 55.8704 57.8997 57.042 56.6029C58.2122 55.3077 58.83 53.5735 58.83 51.62H56.83C56.83 53.1465 56.3528 54.3823 55.558 55.2621C54.7646 56.1403 53.5926 56.7328 52.0741 56.8637L52.2459 58.8563ZM58.83 51.62C58.83 48.7554 57.6784 46.8518 55.8142 45.7306C54.0419 44.6646 51.7463 44.38 49.55 44.38V46.38C51.6437 46.38 53.4881 46.6654 54.7833 47.4444C55.9866 48.1682 56.83 49.3846 56.83 51.62H58.83ZM49.55 44.38H46.28V46.38H49.55V44.38ZM45.28 45.38V68H47.28V45.38H45.28ZM46.28 69H48.8V67H46.28V69ZM49.8 68V58.07H47.8V68H49.8ZM62.5398 68H61.5398V69H62.5398V68ZM75.6798 65.15L76.3441 65.8974L76.3452 65.8964L75.6798 65.15ZM75.6198 48.11L76.272 47.352L76.2691 47.3495L75.6198 48.11ZM62.5398 45.38V44.38H61.5398V45.38H62.5398ZM65.0598 65.66H64.0598V66.66H65.0598V65.66ZM65.0598 47.72V46.72H64.0598V47.72H65.0598ZM73.9098 49.91L73.2474 50.6592L73.2504 50.6619L73.9098 49.91ZM74.0298 63.32L73.3466 62.5897L73.3441 62.5921L74.0298 63.32ZM62.5398 69H66.7398V67H62.5398V69ZM66.7398 69C70.3864 69 73.379 68.5331 76.3441 65.8974L75.0154 64.4026C72.5805 66.5669 70.1731 67 66.7398 67V69ZM76.3452 65.8964C79.0633 63.4731 80.3698 60.284 80.3698 56.72H78.3698C78.3698 59.756 77.2762 62.3869 75.0143 64.4036L76.3452 65.8964ZM80.3698 56.72C80.3698 53.1145 79.1053 49.7899 76.272 47.352L74.9675 48.868C77.2943 50.8701 78.3698 53.6055 78.3698 56.72H80.3698ZM76.2691 47.3495C73.3366 44.8454 70.2926 44.38 66.7998 44.38V46.38C70.0869 46.38 72.5629 46.8146 74.9704 48.8705L76.2691 47.3495ZM66.7998 44.38H62.5398V46.38H66.7998V44.38ZM61.5398 45.38V68H63.5398V45.38H61.5398ZM66.0598 65.66V47.72H64.0598V65.66H66.0598ZM65.0598 48.72H66.8898V46.72H65.0598V48.72ZM66.8898 48.72C69.4669 48.72 71.4483 49.0687 73.2474 50.6592L74.5721 49.1608C72.2312 47.0913 69.6527 46.72 66.8898 46.72V48.72ZM73.2504 50.6619C74.9577 52.159 75.8498 54.3612 75.8498 56.69H77.8498C77.8498 53.8588 76.7618 51.081 74.5691 49.1581L73.2504 50.6619ZM75.8498 56.69C75.8498 58.9505 74.9922 61.0503 73.3466 62.5897L74.7129 64.0503C76.7873 62.1097 77.8498 59.4695 77.8498 56.69H75.8498ZM73.3441 62.5921C71.548 64.2841 69.55 64.66 66.8898 64.66V66.66C69.7495 66.66 72.3715 66.2559 74.7155 64.0479L73.3441 62.5921ZM66.8898 64.66H65.0598V66.66H66.8898V64.66ZM85.3918 58.1V57.1H84.3918V58.1H85.3918ZM92.5918 56.6L93.2275 57.3719L93.2304 57.3696L92.5918 56.6ZM92.2018 46.58L92.7733 45.7594L92.7702 45.7573L92.2018 46.58ZM82.8718 45.38V44.38H81.8718V45.38H82.8718ZM82.8718 68H81.8718V69H82.8718V68ZM85.3918 68V69H86.3918V68H85.3918ZM85.3918 47.72V46.72H84.3918V47.72H85.3918ZM85.3918 55.76H84.3918V56.76H85.3918V55.76ZM85.3918 59.1H87.2218V57.1H85.3918V59.1ZM87.2218 59.1C89.1624 59.1 91.416 58.8637 93.2275 57.3719L91.9561 55.8281C90.7076 56.8563 89.0612 57.1 87.2218 57.1V59.1ZM93.2304 57.3696C94.9027 55.9819 95.7518 53.8213 95.7518 51.74H93.7518C93.7518 53.3187 93.1009 54.8781 91.9532 55.8304L93.2304 57.3696ZM95.7518 51.74C95.7518 49.4565 94.763 47.1451 92.7733 45.7594L91.6303 47.4006C93.0006 48.3549 93.7518 50.0035 93.7518 51.74H95.7518ZM92.7702 45.7573C90.8298 44.4166 88.5093 44.38 86.5918 44.38V46.38C88.5743 46.38 90.2738 46.4634 91.6334 47.4027L92.7702 45.7573ZM86.5918 44.38H82.8718V46.38H86.5918V44.38ZM81.8718 45.38V68H83.8718V45.38H81.8718ZM82.8718 69H85.3918V67H82.8718V69ZM86.3918 68V58.1H84.3918V68H86.3918ZM85.3918 48.72H86.3218V46.72H85.3918V48.72ZM86.3218 48.72C87.8155 48.72 89.0715 48.8009 89.9492 49.2191C90.357 49.4133 90.656 49.6695 90.8628 50.0165C91.0735 50.37 91.2318 50.8908 91.2318 51.68H93.2318C93.2318 50.6242 93.0188 49.7275 92.5808 48.9925C92.1389 48.2511 91.5116 47.748 90.8093 47.4134C89.4671 46.7741 87.7681 46.72 86.3218 46.72V48.72ZM91.2318 51.68C91.2318 53.0163 90.7673 53.6952 90.1511 54.0979C89.4546 54.5529 88.402 54.76 87.0718 54.76V56.76C88.5316 56.76 90.059 56.5471 91.245 55.7721C92.5113 54.9448 93.2318 53.5837 93.2318 51.68H91.2318ZM87.0718 54.76H85.3918V56.76H87.0718V54.76ZM86.3918 55.76V47.72H84.3918V55.76H86.3918Z" fill="#25607E"/>
</svg>
