<?xml version="1.0" encoding="UTF-8"?>
<svg id="Calque_1" xmlns="http://www.w3.org/2000/svg" baseProfile="tiny" version="1.2" viewBox="0 0 141.7 141.7">
  <!-- Generator: Adobe Illustrator 30.2.0, SVG Export Plug-In . SVG Version: 2.1.1 Build 105)  -->
  <path d="M115.7,34.2h-3.1v-4c0-7.5-6.1-13.6-13.6-13.6H26.1c-7.5,0-13.6,6.1-13.6,13.6v45.6c0,7.5,6.1,13.6,13.6,13.6h3.1v4c0,7.5,6.1,13.6,13.6,13.6h32v9.2h-13.7c-2.5,0-4.5,2-4.5,4.5s2,4.5,4.5,4.5h36.4c2.5,0,4.5-2,4.5-4.5s-2-4.5-4.5-4.5h-13.6v-9.2h31.9c7.5,0,13.6-6.1,13.6-13.6v-45.6c0-7.5-6.1-13.6-13.6-13.6ZM21.5,75.7V30.2c0-2.5,2-4.6,4.6-4.6h72.9c2.5,0,4.6,2,4.6,4.6v4h-60.7c-7.5,0-13.6,6.1-13.6,13.6v32.5h-3.1c-2.5,0-4.6-2-4.6-4.6ZM120.2,93.3c0,2.5-2,4.6-4.6,4.6H42.8c-2.5,0-4.6-2-4.6-4.6v-45.6c0-2.5,2-4.6,4.6-4.6h72.9c2.5,0,4.6,2,4.6,4.6v45.6Z" fill="#dadcdd"/>
  <path d="M100.3,61.7c-1-2.3-3.6-3.3-5.9-2.3l-.7.3c-1-1.3-2.2-2.5-3.6-3.6l.3-.7c1-2.3,0-4.9-2.3-5.9-2.3-1-4.9,0-5.9,2.3l-.3.8c-.9-.1-1.8-.2-2.7-.2s-1.7,0-2.5.2l-.3-.8c-1-2.3-3.6-3.3-5.9-2.3-2.3,1-3.3,3.6-2.3,5.9l.3.6c-1.4,1-2.6,2.2-3.7,3.6l-.6-.2c-2.3-1-4.9,0-5.9,2.3-1,2.3,0,4.9,2.3,5.9l.6.3c-.1.9-.2,1.8-.2,2.7s0,1.7.2,2.6l-.6.3c-2.3,1-3.3,3.6-2.3,5.9.7,1.7,2.4,2.7,4.1,2.7s1.2-.1,1.8-.4l.5-.2c1.1,1.4,2.3,2.6,3.7,3.7l-.2.5c-1,2.3,0,4.9,2.3,5.9.6.3,1.2.4,1.8.4,1.7,0,3.4-1,4.1-2.7l.3-.6c.8.1,1.7.2,2.6.2s1.8,0,2.7-.2l.3.6c.7,1.7,2.4,2.7,4.1,2.7s1.2-.1,1.8-.4c2.3-1,3.3-3.6,2.3-5.9l-.2-.6c1.4-1,2.6-2.3,3.6-3.7l.6.3c.6.3,1.2.4,1.8.4,1.7,0,3.4-1,4.1-2.7,1-2.3,0-4.9-2.3-5.9l-.8-.3c.1-.8.2-1.6.2-2.5s0-1.8-.2-2.7l.8-.3c2.3-1,3.3-3.6,2.3-5.9ZM76.3,79.4c-.2,0-.3-.2-.5-.3-.2-.1-.5-.2-.8-.2-1.8-.9-3.3-2.4-4.2-4.2,0-.3-.1-.5-.2-.8,0-.2-.2-.3-.3-.5-.3-.9-.5-1.9-.5-2.8s.2-2.3.6-3.3c0,0,0-.1,0-.2,0,0,0-.1,0-.2,1.4-3.2,4.7-5.5,8.4-5.5s9.2,4.1,9.2,9.2-2.3,7-5.5,8.4c0,0-.1,0-.2,0,0,0,0,0-.1,0-1,.4-2.2.6-3.4.6s-1.9-.2-2.8-.5Z" fill="#dadcdd"/>
</svg>