<svg version="1.1" id="Calque_1" xmlns="http://www.w3.org/2000/svg" xmlns:xlink="http://www.w3.org/1999/xlink" x="0px" y="0px"
	 viewBox="0 0 141.7 141.7" style="enable-background:new 0 0 141.7 141.7;" xml:space="preserve">
<path d="M99.0074 89.3863H25.6737C22.2531 89.3863 19.5 86.6331 19.5 83.2126V34.5737C19.5 31.1531 22.2531 28.4 25.6737 28.4H98.924C102.345 28.4 105.098 31.1531 105.098 34.5737V83.1291C105.181 86.5497 102.428 89.3863 99.0074 89.3863Z" fill="#8BB53C" stroke="#24607E" stroke-width="3.9851" stroke-miterlimit="10" stroke-linecap="round" stroke-linejoin="round"/>
<path d="M26.508 80.0423C26.4246 80.0423 26.4246 79.9589 26.4246 79.9589V37.0766C26.4246 35.3246 27.8428 33.9063 29.5948 33.9063H95.0028C96.7548 33.9063 98.1731 35.3246 98.1731 37.0766V79.9589C98.1731 80.0423 98.0897 80.0423 98.0897 80.0423H26.508Z" fill="white" stroke="#24607E" stroke-width="3.9006" stroke-miterlimit="10" stroke-linecap="round" stroke-linejoin="round"/>
<path d="M59.0451 116H98.2566Z" fill="black"/>
<path d="M59.0451 116H98.2566" stroke="#24607E" stroke-width="3.9851" stroke-miterlimit="10" stroke-linecap="round" stroke-linejoin="round"/>
<path d="M86.4097 87.0503H70.892V116H86.4097V87.0503Z" fill="white" stroke="#24607E" stroke-width="3.9851" stroke-miterlimit="10" stroke-linecap="round" stroke-linejoin="round"/>
<path d="M115.693 106.072H42.3594C38.9389 106.072 36.1857 103.319 36.1857 99.8983V51.2594C36.1857 47.8389 38.9389 45.0857 42.3594 45.0857H115.61C119.03 45.0857 121.783 47.8389 121.783 51.2594V99.8149C121.867 103.235 119.114 106.072 115.693 106.072Z" fill="#8BB53C" stroke="#24607E" stroke-width="3.9851" stroke-miterlimit="10" stroke-linecap="round" stroke-linejoin="round"/>
<path d="M43.1937 96.728C43.1103 96.728 43.1103 96.6446 43.1103 96.6446V53.7623C43.1103 52.0103 44.5286 50.592 46.2806 50.592H111.689C113.441 50.592 114.859 52.0103 114.859 53.7623V96.6446C114.859 96.728 114.775 96.728 114.775 96.728H43.1937Z" fill="white" stroke="#24607E" stroke-width="3.9006" stroke-miterlimit="10" stroke-linecap="round" stroke-linejoin="round"/>
<path d="M96 75.7123V71.1955C96 70.5503 95.4469 69.9972 94.8017 69.9972H92.405C92.1285 69.9972 91.852 69.8128 91.7598 69.5363C91.5754 68.7989 91.2989 68.1536 90.9302 67.5084C90.838 67.2318 90.838 66.9553 91.0223 66.7709L92.7737 65.0196C93.2346 64.5587 93.2346 63.8212 92.7737 63.3603L89.5475 60.2263C89.0866 59.7654 88.3492 59.7654 87.8883 60.2263L86.1369 61.9776C85.9525 62.162 85.676 62.2542 85.3994 62.0698C84.7542 61.7011 84.1089 61.4246 83.3715 61.2402C83.095 61.148 82.9106 60.8715 82.9106 60.595V58.1983C82.9106 57.5531 82.3575 57 81.7123 57H77.1955C76.5503 57 75.9972 57.5531 75.9972 58.1983V60.595C75.9972 60.8715 75.8128 61.148 75.5363 61.2402C74.7989 61.4246 74.1536 61.7011 73.5084 62.0698C73.2318 62.162 72.9553 62.162 72.7709 61.9776L71.0196 60.2263C70.5587 59.7654 69.8212 59.7654 69.3603 60.2263L66.1341 63.4525C65.6732 63.9134 65.6732 64.6508 66.1341 65.1117L67.8855 66.8631C68.0698 67.0475 68.162 67.324 67.9777 67.6006C67.6089 68.2458 67.3324 68.8911 67.148 69.6285C67.0559 69.905 66.8715 70.0894 66.595 70.0894H64.1983C63.5531 70.0894 63 70.6425 63 71.2877V75.8045C63 76.4497 63.5531 77.0028 64.1983 77.0028H66.595C66.8715 77.0028 67.148 77.1871 67.148 77.4637C67.3324 78.2011 67.6089 78.8464 67.9777 79.4916C68.0698 79.7682 68.0698 80.0447 67.8855 80.229L66.1341 81.9804C65.6732 82.4413 65.6732 83.1788 66.1341 83.6397L69.3603 86.8659C69.8212 87.3268 70.5587 87.3268 71.0196 86.8659L72.7709 85.1145C72.9553 84.9302 73.2318 84.838 73.5084 85.0223C74.1536 85.3911 74.7989 85.6676 75.5363 85.852C75.8128 85.9441 75.9972 86.1285 75.9972 86.405V88.8017C75.9972 89.4469 76.5503 90 77.1955 90H81.7123C82.3575 90 82.9106 89.4469 82.9106 88.8017V86.405C82.9106 86.1285 83.095 85.852 83.3715 85.852C84.1089 85.6676 84.7542 85.3911 85.3994 85.0223C85.676 84.9302 85.9525 84.9302 86.1369 85.1145L87.8883 86.8659C88.3492 87.3268 89.0866 87.3268 89.5475 86.8659L92.7737 83.6397C93.2346 83.1788 93.2346 82.4413 92.7737 81.9804L91.0223 80.229C90.838 80.0447 90.7458 79.7682 90.9302 79.4916C91.2989 78.8464 91.5754 78.2011 91.7598 77.4637C91.852 77.1871 92.0363 77.0028 92.405 77.0028H94.8017C95.4469 76.9106 96 76.3575 96 75.7123ZM79.5 79.8603C75.905 79.8603 73.0475 77.0028 73.0475 73.4078C73.0475 69.8128 75.905 66.9553 79.5 66.9553C83.095 66.9553 85.9525 69.8128 85.9525 73.4078C85.9525 77.0028 83.095 79.8603 79.5 79.8603Z" fill="#18A1C9" stroke="#24607E" stroke-width="3.4518" stroke-miterlimit="10" stroke-linecap="round" stroke-linejoin="round"/>
<path d="M75.3137 101.4H81.988Z" fill="black"/>
<path d="M75.3137 101.4H81.988" stroke="#24607E" stroke-width="3.9851" stroke-miterlimit="10" stroke-linecap="round" stroke-linejoin="round"/>
</svg>
