<svg version="1.1" id="Calque_1" xmlns="http://www.w3.org/2000/svg" xmlns:xlink="http://www.w3.org/1999/xlink" x="0px" y="0px"
	 viewBox="0 0 141.7 141.7" style="enable-background:new 0 0 141.7 141.7;" xml:space="preserve">
<path d="M103.083 74.0563C102.074 84.1077 96.4597 93.5842 87.1067 98.9842C71.6914 107.884 51.934 102.663 42.9474 87.2982L46.2383 85.3982L52.1273 81.9982L29.0915 75.899L23.0288 98.7982L30.7365 94.3482L30.9097 94.2482L32.1221 93.5482C44.5587 114.889 71.8292 122.123 93.2201 109.773C105.604 102.623 113.253 90.4706 115.154 77.3639L110.1 76.0096L103.083 74.0563Z" fill="#8BB53C" stroke="#24607E" stroke-width="4.412" stroke-miterlimit="10" stroke-linecap="round" stroke-linejoin="round"/>
<path d="M112.922 46.8982L109.805 48.6982C109.755 48.6116 109.705 48.525 109.705 48.525C97.3045 27.0475 69.8974 19.777 48.5066 32.127C36.0358 39.327 28.3507 51.616 26.5493 64.8959L31.7402 66.2868L38.7069 68.1535C39.6164 57.9289 45.3169 48.4023 54.7566 42.9523C70.2584 34.0023 90.0658 39.3097 99.0158 54.8116C99.0658 54.8982 99.1158 54.9848 99.1158 54.9848L95.7383 56.9348L90.0225 60.2348L112.972 66.384L119.121 43.4348L112.922 46.8982Z" fill="#8BB53C" stroke="#24607E" stroke-width="4.412" stroke-miterlimit="10" stroke-linecap="round" stroke-linejoin="round"/>
</svg>
