<?xml version="1.0" encoding="UTF-8"?>
<svg id="Calque_1" xmlns="http://www.w3.org/2000/svg" baseProfile="tiny" version="1.2" viewBox="0 0 141.7 141.7">
  <path d="M70.9,16.2c-30.2,0-54.7,24.5-54.7,54.7s24.5,54.7,54.7,54.7,54.7-24.5,54.7-54.7-24.5-54.7-54.7-54.7ZM70.9,117.1c-25.5,0-46.2-20.7-46.2-46.2s20.7-46.2,46.2-46.2,46.2,20.7,46.2,46.2-20.7,46.2-46.2,46.2Z" fill="#dadcdd"/>
  <path d="M95.9,65.4H45.9c-3.1,0-5.5,2.5-5.5,5.5s2.5,5.5,5.5,5.5h50c3.1,0,5.5-2.5,5.5-5.5s-2.5-5.5-5.5-5.5Z" fill="#dadcdd"/>
</svg>
