<svg version="1.1" id="Calque_1" xmlns="http://www.w3.org/2000/svg" xmlns:xlink="http://www.w3.org/1999/xlink" x="0px" y="0px"
	 viewBox="0 0 141.7 141.7" style="enable-background:new 0 0 141.7 141.7;" xml:space="preserve">
<path d="M103.083 74.0563C102.074 84.1077 96.4597 93.5842 87.1067 98.9842C71.6914 107.884 51.934 102.663 42.9474 87.2982L46.2383 85.3982L52.1273 81.9982L29.0915 75.899L23.0288 98.7982L30.7365 94.3482L30.9097 94.2482L32.1221 93.5482C44.5587 114.889 71.8292 122.123 93.2201 109.773C105.604 102.623 113.253 90.4706 115.154 77.3639L110.1 76.0096L103.083 74.0563Z" fill="#8BB53C" stroke="#24607E" stroke-width="4.412" stroke-miterlimit="10" stroke-linecap="round" stroke-linejoin="round"/>
<path d="M112.922 46.8982L109.805 48.6982C109.755 48.6116 109.705 48.525 109.705 48.525C97.3046 27.0475 69.8975 19.777 48.5067 32.127C36.0359 39.327 28.3508 51.616 26.5494 64.8959L31.7403 66.2868L38.707 68.1535C39.6165 57.9289 45.317 48.4023 54.7567 42.9523C70.2585 34.0023 90.0659 39.3097 99.0159 54.8116C99.0659 54.8982 99.1159 54.9848 99.1159 54.9848L95.7384 56.9348L90.0226 60.2348L112.972 66.384L119.121 43.4348L112.922 46.8982Z" fill="#8BB53C" stroke="#24607E" stroke-width="4.412" stroke-miterlimit="10" stroke-linecap="round" stroke-linejoin="round"/>
<path d="M77 54C77 52.3431 75.6569 51 74 51H68C66.3431 51 65 52.3431 65 54V88C65 89.6569 66.3431 91 68 91H74C75.6569 91 77 89.6569 77 88V54Z" fill="#8BB53C" stroke="#24607E" stroke-width="3.9851" stroke-miterlimit="10" stroke-linecap="round" stroke-linejoin="round"/>
</svg>
