<?xml version="1.0" encoding="UTF-8"?>
<svg id="Calque_1" xmlns="http://www.w3.org/2000/svg" baseProfile="tiny" version="1.2" viewBox="0 0 141.7 141.7">
  <!-- Generator: Adobe Illustrator 30.2.0, SVG Export Plug-In . SVG Version: 2.1.1 Build 105)  -->
  <path d="M124.7,12.5c-2.5,0-4.5,2-4.5,4.5v19.1l-5.9-5.9c-11.6-11.2-27.5-17.7-43.5-17.7-32.2,0-58.4,26.2-58.4,58.4s2,4.5,4.5,4.5,4.5-2,4.5-4.5c0-27.2,22.1-49.4,49.4-49.4s27.3,5.5,37.2,15.1l5.8,5.8h-19.1c-2.5,0-4.5,2-4.5,4.5s2,4.5,4.5,4.5h29.9c.3,0,.6,0,.9,0,.1,0,.2,0,.4-.1.2,0,.3,0,.5-.1.1,0,.3-.1.4-.2.1,0,.2-.1.3-.2.5-.3.9-.8,1.2-1.2,0-.1.1-.2.2-.3,0-.1.2-.3.2-.4,0-.1,0-.3.1-.5,0-.1,0-.3.1-.4,0-.3,0-.6,0-.9v-29.9c0-2.5-2-4.5-4.5-4.5Z" fill="#dadcdd"/>
  <path d="M124.7,66.4c-2.5,0-4.5,2-4.5,4.5,0,27.2-22.1,49.4-49.4,49.4s-27.3-5.5-37.2-15.1l-5.8-5.8h19.1c2.5,0,4.5-2,4.5-4.5s-2-4.5-4.5-4.5h-29.9s0,0,0,0c-.3,0-.6,0-.9,0-.1,0-.3,0-.4.1-.1,0-.3,0-.4.1-.2,0-.3.2-.4.2-.1,0-.2.1-.3.2-.5.3-.9.8-1.2,1.2,0,.1-.1.2-.2.3,0,.1-.2.3-.2.4,0,.2,0,.3-.1.5,0,.1,0,.2-.1.4,0,.3,0,.6,0,.9v29.9c0,2.5,2,4.5,4.5,4.5s4.5-2,4.5-4.5v-19.1l5.9,5.9c11.6,11.2,27.5,17.7,43.5,17.7,32.2,0,58.4-26.2,58.4-58.4s-2-4.5-4.5-4.5Z" fill="#dadcdd"/>
  <path d="M75.4,94.6v-47.6c0-2.5-2-4.5-4.5-4.5s-4.5,2-4.5,4.5v47.6c0,2.5,2,4.5,4.5,4.5s4.5-2,4.5-4.5Z" fill="#dadcdd"/>
</svg>