<?xml version="1.0" encoding="utf-8"?>
<!-- Generator: Adobe Illustrator 26.5.0, SVG Export Plug-In . SVG Version: 6.00 Build 0)  -->
<svg version="1.1" id="Calque_1" xmlns="http://www.w3.org/2000/svg" xmlns:xlink="http://www.w3.org/1999/xlink" x="0px" y="0px"
	 viewBox="0 0 141.73 141.73" style="enable-background:new 0 0 141.73 141.73;" xml:space="preserve">
<style type="text/css">
	.st0{fill:#FFFFFF;stroke:#25607E;stroke-width:3.9851;stroke-linecap:round;stroke-linejoin:round;stroke-miterlimit:10;}
	.st1{fill:#8CB63C;stroke:#25607E;stroke-width:3.9851;stroke-linecap:round;stroke-linejoin:round;stroke-miterlimit:10;}
	.st2{fill:#19A2CA;stroke:#25607E;stroke-width:3.9851;stroke-linecap:round;stroke-linejoin:round;stroke-miterlimit:10;}
</style>
<g>
	<g>
		<path class="st0" d="M67.34,38.83l-2.27-0.17c-0.36-0.03-0.66-0.29-0.74-0.64c-0.22-0.93-0.52-1.84-0.9-2.71
			c-0.14-0.33-0.06-0.72,0.21-0.96l1.73-1.49c1.02-0.88,1.14-2.43,0.25-3.46l-2.7-3.13c-0.88-1.02-2.43-1.14-3.46-0.25l-1.73,1.49
			c-0.28,0.24-0.67,0.26-0.98,0.07c-0.81-0.5-1.66-0.93-2.55-1.28c-0.34-0.13-0.55-0.46-0.53-0.83l0.17-2.27
			c0.1-1.35-0.91-2.52-2.26-2.62l-4.12-0.3c-1.35-0.1-2.52,0.91-2.62,2.26l-0.17,2.27c-0.03,0.36-0.29,0.66-0.64,0.74
			c-0.93,0.22-1.84,0.52-2.71,0.9c-0.33,0.14-0.72,0.06-0.96-0.21l-1.49-1.73c-0.88-1.02-2.43-1.14-3.46-0.25l-3.13,2.7
			c-1.02,0.88-1.14,2.43-0.25,3.46l1.49,1.73c0.24,0.28,0.26,0.67,0.07,0.98c-0.5,0.81-0.93,1.66-1.28,2.55
			c-0.13,0.34-0.46,0.55-0.83,0.53l-2.27-0.17c-1.35-0.1-2.52,0.91-2.62,2.26l-0.3,4.12c-0.1,1.35,0.91,2.52,2.26,2.62l2.27,0.17
			c0.36,0.03,0.66,0.29,0.74,0.64c0.22,0.93,0.52,1.84,0.9,2.71c0.14,0.33,0.06,0.72-0.21,0.96L30.53,51
			c-1.02,0.88-1.14,2.43-0.25,3.46l2.7,3.13c0.88,1.02,2.43,1.14,3.46,0.25l1.73-1.49c0.28-0.24,0.67-0.26,0.98-0.07
			c0.81,0.5,1.66,0.93,2.55,1.28c0.34,0.13,0.55,0.46,0.53,0.83l-0.17,2.27c-0.1,1.35,0.91,2.52,2.26,2.62l4.12,0.3
			c1.35,0.1,2.52-0.91,2.62-2.26l0.17-2.27c0.03-0.36,0.29-0.66,0.64-0.74c0.93-0.22,1.84-0.52,2.71-0.9
			c0.33-0.14,0.72-0.06,0.96,0.21l1.49,1.73c0.88,1.02,2.43,1.14,3.46,0.25l3.13-2.7c1.02-0.88,1.14-2.43,0.25-3.46l-1.49-1.73
			c-0.24-0.28-0.26-0.67-0.07-0.98c0.5-0.81,0.93-1.66,1.28-2.55c0.13-0.34,0.46-0.55,0.83-0.53l2.27,0.17
			c1.35,0.1,2.52-0.91,2.62-2.26l0.3-4.12C69.71,40.1,68.69,38.93,67.34,38.83z M56.34,41.12c0.52,5.82-4.74,10.36-10.42,8.99
			c-3.44-0.83-6.04-3.84-6.35-7.36c-0.52-5.82,4.74-10.36,10.42-8.99C53.42,34.59,56.02,37.6,56.34,41.12z"/>
	</g>
	<g>
		<path class="st1" d="M109.99,34.41l-2.67-0.37c-0.3-0.04-0.54-0.28-0.59-0.58c-0.14-0.8-0.34-1.58-0.61-2.33
			c-0.1-0.29-0.01-0.61,0.23-0.79l2.14-1.63c0.57-0.44,0.69-1.25,0.25-1.83l-3.04-4c-0.44-0.57-1.25-0.69-1.83-0.25l-2.14,1.63
			c-0.24,0.19-0.58,0.18-0.83,0.01c-0.65-0.46-1.35-0.87-2.08-1.22c-0.28-0.13-0.44-0.42-0.4-0.72l0.37-2.67
			c0.1-0.71-0.4-1.37-1.12-1.47l-4.98-0.68c-0.71-0.1-1.37,0.4-1.47,1.12l-0.37,2.67c-0.04,0.3-0.28,0.54-0.58,0.59
			c-0.8,0.14-1.58,0.34-2.33,0.61c-0.29,0.1-0.61,0.01-0.79-0.23l-1.63-2.14c-0.44-0.57-1.25-0.69-1.83-0.25l-4,3.04
			c-0.57,0.44-0.69,1.25-0.25,1.83l1.63,2.14c0.19,0.24,0.18,0.58,0.01,0.83c-0.46,0.65-0.87,1.35-1.22,2.08
			c-0.13,0.28-0.42,0.44-0.72,0.4l-2.67-0.37c-0.71-0.1-1.37,0.4-1.47,1.12l-0.68,4.98c-0.1,0.71,0.4,1.37,1.12,1.47l2.67,0.37
			c0.3,0.04,0.54,0.28,0.59,0.58c0.14,0.8,0.34,1.58,0.61,2.33c0.1,0.29,0.01,0.61-0.23,0.79l-2.14,1.63
			c-0.57,0.44-0.69,1.25-0.25,1.83l3.04,4c0.44,0.57,1.25,0.69,1.83,0.25l2.14-1.63c0.24-0.19,0.58-0.18,0.83-0.01
			c0.65,0.46,1.35,0.87,2.08,1.22c0.28,0.13,0.44,0.42,0.4,0.72l-0.37,2.67c-0.1,0.71,0.4,1.37,1.12,1.47l4.98,0.68
			c0.71,0.1,1.37-0.4,1.47-1.12l0.37-2.67c0.04-0.3,0.28-0.54,0.58-0.59c0.8-0.14,1.58-0.34,2.33-0.61c0.29-0.1,0.61-0.01,0.79,0.23
			l1.63,2.14c0.44,0.57,1.25,0.69,1.83,0.25l4-3.04c0.57-0.44,0.69-1.25,0.25-1.83l-1.63-2.14c-0.19-0.24-0.18-0.58-0.01-0.83
			c0.46-0.65,0.87-1.35,1.22-2.08c0.13-0.28,0.42-0.44,0.72-0.4l2.67,0.37c0.71,0.1,1.37-0.4,1.47-1.12l0.68-4.98
			C111.21,35.17,110.71,34.51,109.99,34.41z M97.85,36.6c-0.39,2.84-3,4.82-5.84,4.43c-2.84-0.39-4.82-3-4.43-5.84s3-4.82,5.84-4.43
			C96.26,31.16,98.24,33.77,97.85,36.6z"/>
	</g>
	<g>
		<path class="st2" d="M113.97,79.79c-0.21-1.34-1.46-2.25-2.79-2.04l-4.99,0.78c-0.57,0.09-1.12-0.21-1.37-0.73
			c-0.67-1.34-1.45-2.63-2.35-3.86c-0.34-0.46-0.35-1.09-0.02-1.55l2.98-4.08c0.8-1.09,0.56-2.62-0.53-3.42l-7.61-5.56
			c-1.09-0.8-2.62-0.56-3.42,0.53l-2.98,4.08c-0.34,0.46-0.94,0.64-1.48,0.46c-1.44-0.48-2.91-0.84-4.39-1.07
			c-0.57-0.09-1.02-0.52-1.11-1.09l-0.78-4.99c-0.21-1.34-1.46-2.25-2.79-2.04l-9.32,1.45c-1.34,0.21-2.25,1.46-2.04,2.79l0.78,4.99
			c0.09,0.57-0.21,1.12-0.73,1.37c-1.34,0.67-2.63,1.45-3.86,2.35c-0.46,0.34-1.09,0.35-1.55,0.02l-4.08-2.98
			c-1.09-0.8-2.62-0.56-3.42,0.53l-5.56,7.61c-0.8,1.09-0.56,2.62,0.53,3.42l4.08,2.98c0.46,0.34,0.64,0.94,0.46,1.48
			c-0.48,1.44-0.84,2.91-1.07,4.39c-0.09,0.57-0.52,1.02-1.09,1.11l-4.99,0.78c-1.34,0.21-2.25,1.46-2.04,2.79l1.45,9.32
			c0.21,1.34,1.46,2.25,2.79,2.04l4.99-0.78c0.57-0.09,1.12,0.21,1.37,0.73c0.67,1.34,1.45,2.63,2.35,3.86
			c0.34,0.46,0.35,1.09,0.02,1.55l-2.98,4.08c-0.8,1.09-0.56,2.62,0.53,3.42l7.61,5.56c1.09,0.8,2.62,0.56,3.42-0.53l2.98-4.08
			c0.34-0.46,0.94-0.64,1.48-0.46c1.44,0.48,2.91,0.84,4.39,1.07c0.57,0.09,1.02,0.52,1.11,1.09l0.78,4.99
			c0.21,1.34,1.46,2.25,2.79,2.04l9.32-1.45c1.34-0.21,2.25-1.46,2.04-2.79l-0.78-4.99c-0.09-0.57,0.21-1.12,0.73-1.37
			c1.34-0.67,2.63-1.45,3.86-2.35c0.46-0.34,1.09-0.35,1.55-0.01l4.08,2.98c1.09,0.8,2.62,0.56,3.42-0.53l5.56-7.61
			c0.8-1.09,0.56-2.62-0.53-3.42l-4.08-2.98c-0.46-0.34-0.64-0.94-0.46-1.48c0.48-1.44,0.84-2.91,1.07-4.39
			c0.09-0.57,0.52-1.02,1.09-1.11l4.99-0.78c1.34-0.21,2.25-1.46,2.04-2.79L113.97,79.79z M93.83,99.14
			c-5.21,7.13-15.22,8.69-22.35,3.48S62.79,87.39,68,80.26s15.22-8.69,22.35-3.48C97.49,82,99.05,92.01,93.83,99.14z"/>
	</g>
</g>
</svg>
