<svg version="1.1" id="Calque_1" xmlns="http://www.w3.org/2000/svg" xmlns:xlink="http://www.w3.org/1999/xlink" x="0px" y="0px"
	 viewBox="0 0 141.7 141.7" style="enable-background:new 0 0 141.7 141.7;" xml:space="preserve">
<path d="M33 44.0151C33 44 33.0988 44 33.0995 44C33.0995 44 33.0995 44 33.0995 44H84.2208C86.3091 44 88 44.257 88 44.5745V56.4257C88 56.7431 86.3091 57 84.2208 57H33.0995C33.0048 57 33.0002 56.9863 33 56.985C33 56.9849 33 56.9849 33 56.9848V44.0151Z" fill="#8BB53C" stroke="#24607E" stroke-width="3.9006" stroke-miterlimit="10" stroke-linecap="round" stroke-linejoin="round"/>
<path d="M109.025 51.3638L89.525 62.6222C88.825 63.0263 87.95 62.5211 87.95 61.7128V39.1962C87.95 38.3879 88.825 37.8827 89.525 38.2868L109.025 49.5452C109.725 49.9493 109.725 50.9597 109.025 51.3638Z" fill="#8BB53C" stroke="#24607E" stroke-width="3.9"/>
<path d="M108.5 97.8938C108.5 97.9089 108.401 97.9089 108.401 97.9089C108.401 97.9089 108.401 97.9089 108.401 97.9089L57.2792 97.9089C55.1909 97.9089 53.5 97.6519 53.5 97.3345V85.4833C53.5 85.1658 55.1909 84.9089 57.2792 84.9089H108.401C108.495 84.9089 108.5 84.9226 108.5 84.9239C108.5 84.924 108.5 84.9241 108.5 84.9241V97.8938Z" fill="#8BB53C" stroke="#24607E" stroke-width="3.9006" stroke-miterlimit="10" stroke-linecap="round" stroke-linejoin="round"/>
<path d="M32.475 90.5451L51.975 79.2868C52.675 78.8826 53.55 79.3878 53.55 80.1961V102.713C53.55 103.521 52.675 104.026 51.975 103.622L32.475 92.3638C31.775 91.9596 31.775 90.9493 32.475 90.5451Z" fill="#8BB53C" stroke="#24607E" stroke-width="3.9"/>
</svg>
