<?xml version="1.0" encoding="UTF-8"?>
<svg id="Calque_1" xmlns="http://www.w3.org/2000/svg" baseProfile="tiny" version="1.2" viewBox="0 0 141.7 141.7">
  <!-- Generator: Adobe Illustrator 30.2.0, SVG Export Plug-In . SVG Version: 2.1.1 Build 105)  -->
  <path d="M17,41.7h96.9l-19.2,19.2c-1.8,1.8-1.8,4.6,0,6.4.9.9,2,1.3,3.2,1.3s2.3-.4,3.2-1.3l26.9-26.9c.2-.2.4-.4.6-.7,0,0,0-.1.1-.2.1-.2.2-.4.3-.6,0-.1,0-.2,0-.3,0-.2.1-.3.2-.5,0-.3,0-.6,0-.9s0-.6,0-.9c0-.2-.1-.4-.2-.6,0,0,0-.2,0-.3,0-.2-.2-.4-.3-.6,0,0,0-.1,0-.2-.2-.2-.4-.5-.6-.7l-26.9-26.9c-1.8-1.8-4.6-1.8-6.4,0-1.8,1.8-1.8,4.6,0,6.4l19.2,19.2H17c-2.5,0-4.5,2-4.5,4.5s2,4.5,4.5,4.5Z" fill="#dadcdd"/>
  <path d="M124.7,100H27.9l19.2-19.2c1.8-1.8,1.8-4.6,0-6.4-1.8-1.8-4.6-1.8-6.4,0l-26.9,26.9c-.2.2-.4.4-.6.7,0,0,0,.1-.1.2-.1.2-.2.4-.3.6,0,0,0,.2,0,.3,0,.2-.1.4-.2.5,0,.3,0,.6,0,.9s0,.6,0,.9c0,.2.1.4.2.5,0,0,0,.2,0,.3,0,.2.2.4.3.6,0,0,0,.1.1.2.2.2.4.5.6.7l26.9,26.9c.9.9,2,1.3,3.2,1.3s2.3-.4,3.2-1.3c1.8-1.8,1.8-4.6,0-6.4l-19.2-19.2h96.9c2.5,0,4.5-2,4.5-4.5s-2-4.5-4.5-4.5Z" fill="#dadcdd"/>
</svg>