<svg version="1.1" id="Calque_1" xmlns="http://www.w3.org/2000/svg" xmlns:xlink="http://www.w3.org/1999/xlink" x="0px" y="0px"
	 viewBox="0 0 141.7 141.7" style="enable-background:new 0 0 141.7 141.7;" xml:space="preserve">
<path d="M33 47.009C33 47 33.1374 47 33.1374 47L103.763 47C106.648 47 108.984 47.1532 108.984 47.3424V54.4059C108.984 54.5951 106.648 54.7482 103.763 54.7482L33.1374 54.7482C33 54.7482 33 54.7392 33 54.7392V47.009Z" fill="#8BB53C" stroke="#8BB53C" stroke-width="3.9006" stroke-miterlimit="10" stroke-linecap="round" stroke-linejoin="round"/>
<path d="M119 51L90.5 67.4545V34.5455L119 51Z" fill="#8BB53C"/>
<path d="M117 98.991C117 99 116.863 99 116.863 99L46.2373 99C43.3518 99 41.016 98.8468 41.016 98.6576V91.5941C41.016 91.4049 43.3518 91.2518 46.2373 91.2518L116.863 91.2518C117 91.2518 117 91.2608 117 91.2608V98.991Z" fill="#8BB53C" stroke="#8BB53C" stroke-width="3.9006" stroke-miterlimit="10" stroke-linecap="round" stroke-linejoin="round"/>
<path d="M31 95L59.5 78.5455L59.5 111.454L31 95Z" fill="#8BB53C"/>
</svg>
