<svg version="1.1" id="Calque_1" xmlns="http://www.w3.org/2000/svg" xmlns:xlink="http://www.w3.org/1999/xlink" x="0px" y="0px"
	 viewBox="0 0 141.7 141.7" style="enable-background:new 0 0 141.7 141.7;" xml:space="preserve">
<path d="M118.387 88.9016H25.3722V28.2657C25.3722 25.8522 27.3309 23.8842 29.7537 23.8842H114.015C116.428 23.8842 118.396 25.8429 118.396 28.2657V88.9016H118.387Z" fill="#8CB63C" stroke="#25607E" stroke-width="4.2557" stroke-miterlimit="10" stroke-linecap="round" stroke-linejoin="round"/>
<path d="M111.146 80.2362L111.146 30.9719L32.6035 30.9719L32.6035 80.2362L111.146 80.2362Z" fill="white"/>
<path d="M121.33 96.198H24.2676C22.4667 96.198 21 94.7313 21 92.9304V88.9387C21 88.9202 21.0186 88.9016 21.0371 88.9016H124.486C124.532 88.9016 124.56 88.9387 124.56 88.9759V92.9675C124.56 94.7498 123.112 96.198 121.33 96.198Z" fill="white" stroke="#25607E" stroke-width="4.2557" stroke-miterlimit="10" stroke-linecap="round" stroke-linejoin="round"/>
<path d="M88.367 107.485C83.6448 101.256 80.6921 91.0542 80.6921 91.0542C79.9919 89.528 80.6432 87.7095 82.1413 86.9951C83.6394 86.2807 85.4251 86.941 86.1199 88.4672L89.8759 96.6935L89.8922 75.2131C89.8922 73.5245 91.2383 72.1607 92.8884 72.1553C94.5439 72.1553 95.8845 73.5191 95.8791 75.2077L95.8683 89.6687V88.1425C95.8683 86.4539 97.2144 85.0901 98.8644 85.0847C100.52 85.0847 101.861 86.4485 101.855 88.1371V88.7486C101.855 87.0601 103.201 85.6962 104.851 85.6908C106.507 85.6908 107.847 87.0546 107.842 88.7432V89.3548C107.842 87.6662 109.188 86.3024 110.838 86.297C112.494 86.297 113.834 87.6608 113.829 89.3494L113.824 98.4416C113.818 106.473 107.424 112.995 99.5429 113C96.6716 113 94.0011 112.14 91.7648 110.657C90.4839 109.796 89.3277 108.724 88.367 107.485Z" fill="white" stroke="#25607E" stroke-width="4.2557" stroke-miterlimit="10" stroke-linecap="round" stroke-linejoin="round"/>
<path d="M59.55 48.5C58.35 46.28 56.22 44.99 53.7 44.99C50.34 44.99 47.37 47.24 47.37 50.75C47.37 53.99 49.65 55.34 52.29 56.54L53.67 57.14C55.77 58.1 57.84 59 57.84 61.64C57.84 64.19 55.62 66.05 53.19 66.05C50.76 66.05 48.99 64.16 48.66 61.85L46.2 62.54C46.92 66.05 49.62 68.39 53.25 68.39C57.18 68.39 60.36 65.36 60.36 61.4C60.36 57.8 57.87 56.33 54.93 55.04L53.43 54.38C51.9 53.69 49.89 52.79 49.89 50.84C49.89 48.77 51.63 47.33 53.64 47.33C55.56 47.33 56.64 48.23 57.54 49.79L59.55 48.5ZM76.3078 48.5C75.1078 46.28 72.9778 44.99 70.4578 44.99C67.0978 44.99 64.1278 47.24 64.1278 50.75C64.1278 53.99 66.4078 55.34 69.0478 56.54L70.4278 57.14C72.5278 58.1 74.5978 59 74.5978 61.64C74.5978 64.19 72.3778 66.05 69.9478 66.05C67.5178 66.05 65.7478 64.16 65.4178 61.85L62.9578 62.54C63.6778 66.05 66.3778 68.39 70.0078 68.39C73.9378 68.39 77.1178 65.36 77.1178 61.4C77.1178 57.8 74.6278 56.33 71.6878 55.04L70.1878 54.38C68.6578 53.69 66.6478 52.79 66.6478 50.84C66.6478 48.77 68.3878 47.33 70.3978 47.33C72.3178 47.33 73.3978 48.23 74.2978 49.79L76.3078 48.5ZM83.4356 54.56V45.38H80.9156V68H83.4356V56.9H95.0156V68H97.5356V45.38H95.0156V54.56H83.4356Z" fill="#8CB63C"/>
<path d="M59.55 48.5L60.0901 49.3416L60.8708 48.8405L60.4297 48.0245L59.55 48.5ZM52.29 56.54L51.8762 57.4504L51.8837 57.4538L51.8913 57.4571L52.29 56.54ZM53.67 57.14L54.0858 56.2305L54.0773 56.2266L54.0687 56.2229L53.67 57.14ZM48.66 61.85L49.6499 61.7086L49.4886 60.579L48.3899 60.8872L48.66 61.85ZM46.2 62.54L45.9299 61.5772L45.0333 61.8287L45.2204 62.7409L46.2 62.54ZM54.93 55.04L54.5273 55.9553L54.5282 55.9557L54.93 55.04ZM53.43 54.38L53.0189 55.2916L53.0273 55.2953L53.43 54.38ZM57.54 49.79L56.6738 50.2897L57.1978 51.1979L58.0801 50.6316L57.54 49.79ZM60.4297 48.0245C59.0579 45.4867 56.5933 43.99 53.7 43.99V45.99C55.8467 45.99 57.6421 47.0733 58.6703 48.9755L60.4297 48.0245ZM53.7 43.99C49.9331 43.99 46.37 46.5528 46.37 50.75H48.37C48.37 47.9272 50.7469 45.99 53.7 45.99V43.99ZM46.37 50.75C46.37 52.646 47.0532 54.0465 48.1359 55.1201C49.1741 56.1496 50.5512 56.8481 51.8762 57.4504L52.7038 55.6296C51.3888 55.0319 50.3059 54.4554 49.5441 53.6999C48.8268 52.9885 48.37 52.094 48.37 50.75H46.37ZM51.8913 57.4571L53.2713 58.0571L54.0687 56.2229L52.6887 55.6229L51.8913 57.4571ZM53.2542 58.0495C54.3463 58.5487 55.2394 58.9548 55.8881 59.5162C56.4718 60.0213 56.84 60.6396 56.84 61.64H58.84C58.84 60.0004 58.1732 58.8487 57.1969 58.0038C56.2856 57.2152 55.0937 56.6913 54.0858 56.2305L53.2542 58.0495ZM56.84 61.64C56.84 63.5537 55.1557 65.05 53.19 65.05V67.05C56.0843 67.05 58.84 64.8263 58.84 61.64H56.84ZM53.19 65.05C51.3499 65.05 49.9235 63.6232 49.6499 61.7086L47.6701 61.9914C48.0565 64.6968 50.1701 67.05 53.19 67.05V65.05ZM48.3899 60.8872L45.9299 61.5772L46.4701 63.5028L48.9301 62.8128L48.3899 60.8872ZM45.2204 62.7409C46.0308 66.6916 49.1206 69.39 53.25 69.39V67.39C50.1194 67.39 47.8092 65.4084 47.1796 62.3391L45.2204 62.7409ZM53.25 69.39C57.7071 69.39 61.36 65.9372 61.36 61.4H59.36C59.36 64.7828 56.6529 67.39 53.25 67.39V69.39ZM61.36 61.4C61.36 59.3291 60.6279 57.8066 59.4506 56.6426C58.3184 55.5233 56.8095 54.7726 55.3318 54.1243L54.5282 55.9557C55.9905 56.5974 57.1966 57.2267 58.0444 58.0649C58.8471 58.8584 59.36 59.8709 59.36 61.4H61.36ZM55.3327 54.1247L53.8327 53.4647L53.0273 55.2953L54.5273 55.9553L55.3327 54.1247ZM53.8411 53.4684C53.051 53.1121 52.2883 52.7635 51.7109 52.3016C51.1628 51.8631 50.89 51.4106 50.89 50.84H48.89C48.89 52.2194 49.6222 53.1919 50.4616 53.8634C51.2717 54.5115 52.279 54.9579 53.0189 55.2916L53.8411 53.4684ZM50.89 50.84C50.89 49.4172 52.0824 48.33 53.64 48.33V46.33C51.1776 46.33 48.89 48.1228 48.89 50.84H50.89ZM53.64 48.33C54.432 48.33 54.9801 48.5118 55.4132 48.804C55.8623 49.107 56.2648 49.5807 56.6738 50.2897L58.4062 49.2903C57.9152 48.4393 57.3277 47.683 56.5318 47.146C55.7199 46.5982 54.768 46.33 53.64 46.33V48.33ZM58.0801 50.6316L60.0901 49.3416L59.0099 47.6584L56.9999 48.9484L58.0801 50.6316ZM76.3078 48.5L76.8479 49.3416L77.6286 48.8405L77.1875 48.0245L76.3078 48.5ZM69.0478 56.54L68.634 57.4504L68.6415 57.4538L68.6491 57.4571L69.0478 56.54ZM70.4278 57.14L70.8436 56.2305L70.8351 56.2266L70.8265 56.2229L70.4278 57.14ZM65.4178 61.85L66.4078 61.7086L66.2464 60.579L65.1477 60.8872L65.4178 61.85ZM62.9578 62.54L62.6877 61.5772L61.7911 61.8287L61.9782 62.7409L62.9578 62.54ZM71.6878 55.04L71.2851 55.9553L71.286 55.9557L71.6878 55.04ZM70.1878 54.38L69.7767 55.2916L69.7851 55.2953L70.1878 54.38ZM74.2978 49.79L73.4316 50.2897L73.9556 51.1979L74.8379 50.6316L74.2978 49.79ZM77.1875 48.0245C75.8157 45.4867 73.3512 43.99 70.4578 43.99V45.99C72.6045 45.99 74.3999 47.0733 75.4281 48.9755L77.1875 48.0245ZM70.4578 43.99C66.6909 43.99 63.1278 46.5528 63.1278 50.75H65.1278C65.1278 47.9272 67.5047 45.99 70.4578 45.99V43.99ZM63.1278 50.75C63.1278 52.646 63.8111 54.0465 64.8937 55.1201C65.9319 56.1496 67.309 56.8481 68.634 57.4504L69.4616 55.6296C68.1466 55.0319 67.0637 54.4554 66.302 53.6999C65.5846 52.9885 65.1278 52.094 65.1278 50.75H63.1278ZM68.6491 57.4571L70.0291 58.0571L70.8265 56.2229L69.4465 55.6229L68.6491 57.4571ZM70.0121 58.0495C71.1041 58.5487 71.9972 58.9548 72.6459 59.5162C73.2297 60.0213 73.5978 60.6396 73.5978 61.64H75.5978C75.5978 60.0004 74.931 58.8487 73.9547 58.0038C73.0434 57.2152 71.8515 56.6913 70.8436 56.2305L70.0121 58.0495ZM73.5978 61.64C73.5978 63.5537 71.9135 65.05 69.9478 65.05V67.05C72.8421 67.05 75.5978 64.8263 75.5978 61.64H73.5978ZM69.9478 65.05C68.1078 65.05 66.6813 63.6232 66.4078 61.7086L64.4279 61.9914C64.8143 64.6968 66.9279 67.05 69.9478 67.05V65.05ZM65.1477 60.8872L62.6877 61.5772L63.2279 63.5028L65.6879 62.8128L65.1477 60.8872ZM61.9782 62.7409C62.7886 66.6916 65.8784 69.39 70.0078 69.39V67.39C66.8772 67.39 64.567 65.4084 63.9374 62.3391L61.9782 62.7409ZM70.0078 69.39C74.4649 69.39 78.1178 65.9372 78.1178 61.4H76.1178C76.1178 64.7828 73.4108 67.39 70.0078 67.39V69.39ZM78.1178 61.4C78.1178 59.3291 77.3857 57.8066 76.2084 56.6426C75.0762 55.5233 73.5673 54.7726 72.0896 54.1243L71.286 55.9557C72.7483 56.5974 73.9544 57.2267 74.8023 58.0649C75.6049 58.8584 76.1178 59.8709 76.1178 61.4H78.1178ZM72.0906 54.1247L70.5906 53.4647L69.7851 55.2953L71.2851 55.9553L72.0906 54.1247ZM70.5989 53.4684C69.8088 53.1121 69.0461 52.7635 68.4688 52.3016C67.9206 51.8631 67.6478 51.4106 67.6478 50.84H65.6478C65.6478 52.2194 66.38 53.1919 67.2194 53.8634C68.0296 54.5115 69.0368 54.9579 69.7767 55.2916L70.5989 53.4684ZM67.6478 50.84C67.6478 49.4172 68.8402 48.33 70.3978 48.33V46.33C67.9354 46.33 65.6478 48.1228 65.6478 50.84H67.6478ZM70.3978 48.33C71.1898 48.33 71.7379 48.5118 72.171 48.804C72.6201 49.107 73.0226 49.5807 73.4316 50.2897L75.164 49.2903C74.673 48.4393 74.0855 47.683 73.2896 47.146C72.4777 46.5982 71.5258 46.33 70.3978 46.33V48.33ZM74.8379 50.6316L76.8479 49.3416L75.7677 47.6584L73.7577 48.9484L74.8379 50.6316ZM83.4356 54.56H82.4356V55.56H83.4356V54.56ZM83.4356 45.38H84.4356V44.38H83.4356V45.38ZM80.9156 45.38V44.38H79.9156V45.38H80.9156ZM80.9156 68H79.9156V69H80.9156V68ZM83.4356 68V69H84.4356V68H83.4356ZM83.4356 56.9V55.9H82.4356V56.9H83.4356ZM95.0156 56.9H96.0156V55.9H95.0156V56.9ZM95.0156 68H94.0156V69H95.0156V68ZM97.5356 68V69H98.5356V68H97.5356ZM97.5356 45.38H98.5356V44.38H97.5356V45.38ZM95.0156 45.38V44.38H94.0156V45.38H95.0156ZM95.0156 54.56V55.56H96.0156V54.56H95.0156ZM84.4356 54.56V45.38H82.4356V54.56H84.4356ZM83.4356 44.38H80.9156V46.38H83.4356V44.38ZM79.9156 45.38V68H81.9156V45.38H79.9156ZM80.9156 69H83.4356V67H80.9156V69ZM84.4356 68V56.9H82.4356V68H84.4356ZM83.4356 57.9H95.0156V55.9H83.4356V57.9ZM94.0156 56.9V68H96.0156V56.9H94.0156ZM95.0156 69H97.5356V67H95.0156V69ZM98.5356 68V45.38H96.5356V68H98.5356ZM97.5356 44.38H95.0156V46.38H97.5356V44.38ZM94.0156 45.38V54.56H96.0156V45.38H94.0156ZM95.0156 53.56H83.4356V55.56H95.0156V53.56Z" fill="#25607E"/>
</svg>
