<?xml version="1.0" encoding="UTF-8"?>
<svg id="Calque_1" xmlns="http://www.w3.org/2000/svg" baseProfile="tiny" version="1.2" viewBox="0 0 141.7 141.7">
  <!-- Generator: Adobe Illustrator 30.2.0, SVG Export Plug-In . SVG Version: 2.1.1 Build 105)  -->
  <path d="M104.7,118.8H37.1c-7.8,0-14.2-6.4-14.2-14.2V37.1c0-7.8,6.4-14.2,14.2-14.2h67.6c7.8,0,14.2,6.4,14.2,14.2v67.6c0,7.8-6.4,14.2-14.2,14.2ZM37.1,31.9c-2.8,0-5.2,2.3-5.2,5.2v67.6c0,2.8,2.3,5.2,5.2,5.2h67.6c2.8,0,5.2-2.3,5.2-5.2V37.1c0-2.8-2.3-5.2-5.2-5.2H37.1Z" fill="#dadcdd"/>
</svg>