<svg version="1.1" id="Calque_1" xmlns="http://www.w3.org/2000/svg" xmlns:xlink="http://www.w3.org/1999/xlink" x="0px" y="0px"
	 viewBox="0 0 141.7 141.7" style="enable-background:new 0 0 141.7 141.7;" xml:space="preserve">
<path d="M77.06 18H23V123.9H97.44V43.34H77.07V18H77.06Z" fill="white" stroke="#25607E" stroke-width="4.4403" stroke-miterlimit="10" stroke-linecap="round" stroke-linejoin="round"/>
<path d="M77.0601 18V43.34H97.4401L77.1501 18H77.0601Z" fill="#8CB63C" stroke="#25607E" stroke-width="4.4403" stroke-miterlimit="10" stroke-linecap="round" stroke-linejoin="round"/>
<path d="M82.83 56.97H37.61Z" fill="black"/>
<path d="M82.83 56.97H37.61" stroke="#25607E" stroke-width="4.4403" stroke-miterlimit="10" stroke-linecap="round" stroke-linejoin="round"/>
<path d="M82.83 67.03H37.61Z" fill="black"/>
<path d="M82.83 67.03H37.61" stroke="#25607E" stroke-width="4.4403" stroke-miterlimit="10" stroke-linecap="round" stroke-linejoin="round"/>
<path d="M82.83 77.08H37.61Z" fill="black"/>
<path d="M82.83 77.08H37.61" stroke="#25607E" stroke-width="4.4403" stroke-miterlimit="10" stroke-linecap="round" stroke-linejoin="round"/>
<path d="M82.83 87.14H37.61Z" fill="black"/>
<path d="M82.83 87.14H37.61" stroke="#25607E" stroke-width="4.4403" stroke-miterlimit="10" stroke-linecap="round" stroke-linejoin="round"/>
<path d="M82.83 97.1899H37.61Z" fill="black"/>
<path d="M82.83 97.1899H37.61" stroke="#25607E" stroke-width="4.4403" stroke-miterlimit="10" stroke-linecap="round" stroke-linejoin="round"/>
<path d="M82.83 107.25H37.61Z" fill="black"/>
<path d="M82.83 107.25H37.61" stroke="#25607E" stroke-width="4.4403" stroke-miterlimit="10" stroke-linecap="round" stroke-linejoin="round"/>
<path d="M44.7163 63.6957C44.7163 63.688 44.8342 63.688 44.8342 63.688H105.442C107.918 63.688 109.923 63.8195 109.923 63.9818V70.0435C109.923 70.2058 107.918 70.3372 105.442 70.3372H44.8342C44.7163 70.3372 44.7163 70.3295 44.7163 70.3295V63.6957Z" fill="#8BB53C" stroke="#8BB53C" stroke-width="3.9006" stroke-miterlimit="10" stroke-linecap="round" stroke-linejoin="round"/>
<path d="M118.518 67.1206L94.0607 81.2413V53L118.518 67.1206Z" fill="#8BB53C"/>
<path d="M116.802 108.305C116.802 108.312 116.684 108.312 116.684 108.312H56.0761C53.5998 108.312 51.5953 108.181 51.5953 108.019V101.957C51.5953 101.795 53.5998 101.663 56.0761 101.663H116.684C116.802 101.663 116.802 101.671 116.802 101.671V108.305Z" fill="#8BB53C" stroke="#8BB53C" stroke-width="3.9006" stroke-miterlimit="10" stroke-linecap="round" stroke-linejoin="round"/>
<path d="M43 104.88L67.4576 90.7592V119L43 104.88Z" fill="#8BB53C"/>
</svg>
