<?xml version="1.0" encoding="UTF-8"?>
<svg id="Calque_1" xmlns="http://www.w3.org/2000/svg" baseProfile="tiny" version="1.2" viewBox="0 0 141.7 141.7">
  <!-- Generator: Adobe Illustrator 30.2.0, SVG Export Plug-In . SVG Version: 2.1.1 Build 105)  -->
  <path d="M110.6,39.1l-18-18c-3.1-3.1-7.4-4.9-11.8-4.9h-40.1c-8,0-14.5,6.5-14.5,14.5v35.1c0,2.5,2,4.5,4.5,4.5s4.5-2,4.5-4.5V30.7c0-3.1,2.4-5.5,5.5-5.5h35.6v20.5c0,5.2,4.3,9.5,9.5,9.5h20.7v55.7c0,3.1-2.4,5.5-5.5,5.5h-60.1c-3.1,0-5.5-2.4-5.5-5.5v-15c0-3.1,2.4-5.5,5.5-5.5h23.9l-7.2,7.2c-1.8,1.8-1.8,4.6,0,6.4.9.9,2,1.3,3.2,1.3s2.3-.4,3.2-1.3l14.1-14.1c1.4-.8,2.4-2.2,2.4-3.9s-.5-2.4-1.4-3.2c0,0,0,0,0,0l-15-15c-1.8-1.8-4.6-1.8-6.4,0-1.8,1.8-1.8,4.6,0,6.4l7.5,7.5h-24.2c-8,0-14.5,6.5-14.5,14.5v15c0,8,6.5,14.5,14.5,14.5h60.1c8,0,14.5-6.5,14.5-14.5v-60.1c0-4.4-1.7-8.6-4.9-11.8ZM85.3,45.8v-19c.3.2.6.5.9.8l18,18c.2.2.5.5.7.8h-19.1c-.2,0-.5-.3-.5-.5Z" fill="#dadcdd"/>
</svg>