<?xml version="1.0" encoding="UTF-8"?>
<svg id="Calque_1" xmlns="http://www.w3.org/2000/svg" baseProfile="tiny" version="1.2" viewBox="0 0 141.7 141.7">
  <!-- Generator: Adobe Illustrator 30.2.0, SVG Export Plug-In . SVG Version: 2.1.1 Build 105)  -->
  <path d="M110.6,39.1l-18-18c-3.1-3.1-7.4-4.9-11.8-4.9h-40.1c-8,0-14.5,6.5-14.5,14.5v80.1c0,7.6,5.9,13.9,13.4,14.5.4.1.8.2,1.3.2h60.1c8,0,14.5-6.5,14.5-14.5v-60.1c0-4.4-1.7-8.6-4.9-11.8ZM104.2,45.5c.2.2.5.5.7.8h-19.1c-.2,0-.5-.3-.5-.5v-19c.3.2.6.5.9.8l18,18ZM101,116.5h-59.1c-.4,0-.7-.1-1.1-.1-3.1,0-5.5-2.4-5.5-5.5V30.7c0-3.1,2.4-5.5,5.5-5.5h35.6v20.5c0,5.2,4.3,9.5,9.5,9.5h20.7v55.7c0,3.1-2.4,5.5-5.5,5.5Z" fill="#dadcdd"/>
</svg>