<?xml version="1.0" encoding="UTF-8"?>
<svg id="Calque_1" xmlns="http://www.w3.org/2000/svg" baseProfile="tiny" version="1.2" viewBox="0 0 141.7 141.7">
  <!-- Generator: Adobe Illustrator 30.2.0, SVG Export Plug-In . SVG Version: 2.1.1 Build 105)  -->
  <path d="M40.6,57.3l25.8-25.8v67.1c0,2.5,2,4.5,4.5,4.5s4.5-2,4.5-4.5V31.6l25.8,25.8c.9.9,2,1.3,3.2,1.3s2.3-.4,3.2-1.3c1.8-1.8,1.8-4.6,0-6.4l-33.4-33.4c-.2-.2-.4-.4-.7-.6-.1,0-.2-.1-.3-.2-.1,0-.3-.2-.4-.2-.2,0-.3,0-.5-.1-.1,0-.2,0-.4-.1-.3,0-.6,0-.9,0h0s0,0,0,0c-.3,0-.6,0-.9,0-.1,0-.3,0-.4.1-.2,0-.3,0-.5.1-.2,0-.3.1-.4.2-.1,0-.2.1-.3.2-.2.2-.5.4-.7.6l-33.4,33.4c-1.8,1.8-1.8,4.6,0,6.4,1.8,1.8,4.6,1.8,6.4,0Z" fill="#dadcdd"/>
  <path d="M109.9,116.5H31.9c-2.5,0-4.5,2-4.5,4.5s2,4.5,4.5,4.5h78c2.5,0,4.5-2,4.5-4.5s-2-4.5-4.5-4.5Z" fill="#dadcdd"/>
</svg>