<?xml version="1.0" encoding="UTF-8"?>
<svg id="Calque_1" xmlns="http://www.w3.org/2000/svg" baseProfile="tiny" version="1.2" viewBox="0 0 141.7 141.7">
  <!-- Generator: Adobe Illustrator 30.2.0, SVG Export Plug-In . SVG Version: 2.1.1 Build 105)  -->
  <path d="M12.6,47.8c0,.1,0,.3.1.4,0,.2,0,.3.1.5,0,.1.1.3.2.4,0,.1.1.2.2.3.3.5.8.9,1.2,1.2.1,0,.2.1.3.2.1,0,.3.2.4.2.1,0,.3,0,.5.1.1,0,.3,0,.4.1.3,0,.6,0,.9,0h29.9c2.5,0,4.5-2,4.5-4.5s-2-4.5-4.5-4.5h-19.1l5.8-5.8c9.9-9.6,23.5-15.1,37.2-15.1,27.2,0,49.4,22.1,49.4,49.4s2,4.5,4.5,4.5,4.5-2,4.5-4.5c0-32.2-26.2-58.4-58.4-58.4s-31.9,6.4-43.5,17.7l-5.8,5.8v-19.1c0-2.5-2-4.5-4.5-4.5s-4.5,2-4.5,4.5v29.9c0,.3,0,.6,0,.9Z" fill="#dadcdd"/>
  <path d="M129,93.5c0-.2,0-.3-.1-.5,0-.2-.2-.3-.2-.4,0-.1-.1-.2-.2-.3-.3-.5-.8-.9-1.2-1.2-.1,0-.2-.1-.3-.2-.1,0-.3-.2-.4-.2-.1,0-.3,0-.5-.1-.1,0-.2,0-.4-.1-.3,0-.6,0-.9,0h-29.9c-2.5,0-4.5,2-4.5,4.5s2,4.5,4.5,4.5h19.1l-5.8,5.8c-9.9,9.6-23.5,15.1-37.2,15.1-27.2,0-49.4-22.1-49.4-49.4s-2-4.5-4.5-4.5-4.5,2-4.5,4.5c0,32.2,26.2,58.4,58.4,58.4s31.9-6.4,43.5-17.7l5.8-5.8v19.1c0,2.5,2,4.5,4.5,4.5s4.5-2,4.5-4.5v-29.9c0-.3,0-.6,0-.9,0-.1,0-.3-.1-.4Z" fill="#dadcdd"/>
  <path d="M71.3,96.2c.9,1,2,1.5,3.5,1.5,3.3,0,4.9-2.4,4.9-7.2v-40.8c0-1.7-.4-3.1-1.1-4-.8-1-1.8-1.5-3-1.5s-1.9.2-2.3.6c-.4.4-1.3,1.6-2.6,3.4-1.3,1.9-2.9,3.5-4.6,5-1.7,1.5-4,2.9-6.9,4.3-1.9.9-3.3,1.6-4,2.2-.8.6-1.1,1.5-1.1,2.7s.4,2,1.2,2.8c.8.8,1.7,1.2,2.7,1.2,2.1,0,6.2-2.3,12.2-7v32.5c0,1.9.4,3.3,1.3,4.3Z" fill="#dadcdd"/>
</svg>