<svg version="1.1" id="Calque_1" xmlns="http://www.w3.org/2000/svg" xmlns:xlink="http://www.w3.org/1999/xlink" x="0px" y="0px"
	 viewBox="0 0 141.7 141.7" style="enable-background:new 0 0 141.7 141.7;" xml:space="preserve">
<path d="M118.387 88.9016H25.3722V28.2657C25.3722 25.8522 27.3309 23.8842 29.7537 23.8842H114.015C116.428 23.8842 118.396 25.8429 118.396 28.2657V88.9016H118.387Z" fill="#8CB63C" stroke="#25607E" stroke-width="4.2557" stroke-miterlimit="10" stroke-linecap="round" stroke-linejoin="round"/>
<path d="M111.146 80.2362L111.146 30.9719L32.6035 30.9719L32.6035 80.2362L111.146 80.2362Z" fill="white"/>
<path d="M121.33 96.198H24.2676C22.4667 96.198 21 94.7313 21 92.9304V88.9387C21 88.9202 21.0186 88.9016 21.0371 88.9016H124.486C124.532 88.9016 124.56 88.9387 124.56 88.9759V92.9675C124.56 94.7498 123.112 96.198 121.33 96.198Z" fill="white" stroke="#25607E" stroke-width="4.2557" stroke-miterlimit="10" stroke-linecap="round" stroke-linejoin="round"/>
<path d="M88.367 107.485C83.6448 101.256 80.6921 91.0542 80.6921 91.0542C79.9919 89.528 80.6432 87.7095 82.1413 86.9951C83.6394 86.2807 85.4251 86.941 86.1199 88.4672L89.8759 96.6935L89.8922 75.2131C89.8922 73.5245 91.2383 72.1607 92.8884 72.1553C94.5439 72.1553 95.8845 73.5191 95.8791 75.2077L95.8683 89.6687V88.1425C95.8683 86.4539 97.2144 85.0901 98.8644 85.0847C100.52 85.0847 101.861 86.4485 101.855 88.1371V88.7486C101.855 87.0601 103.201 85.6962 104.851 85.6908C106.507 85.6908 107.847 87.0546 107.842 88.7432V89.3548C107.842 87.6662 109.188 86.3024 110.838 86.297C112.494 86.297 113.834 87.6608 113.829 89.3494L113.824 98.4416C113.818 106.473 107.424 112.995 99.5429 113C96.6716 113 94.0011 112.14 91.7648 110.657C90.4839 109.796 89.3277 108.724 88.367 107.485Z" fill="white" stroke="#25607E" stroke-width="4.2557" stroke-miterlimit="10" stroke-linecap="round" stroke-linejoin="round"/>
<path d="M41.91 45.38H39.18L48.36 69.35L57.54 45.38H54.81L48.36 62.63L41.91 45.38ZM60.1507 68H62.6707V50.57L80.3107 69.02V45.38H77.7907V62.9L60.1507 44.42V68ZM102.27 47.21C100.26 45.71 98.0402 44.99 95.5202 44.99C89.0402 44.99 83.7302 50.3 83.7302 56.78C83.7302 63.2 89.1302 68.39 95.5202 68.39C97.9202 68.39 100.32 67.58 102.27 66.17V63.05C100.47 64.85 97.9802 66.05 95.4302 66.05C90.3602 66.05 86.2502 61.67 86.2502 56.69C86.2502 51.71 90.3302 47.33 95.3702 47.33C97.9802 47.33 100.47 48.47 102.27 50.33V47.21Z" fill="#8CB63C"/>
<path d="M41.91 45.38L42.8467 45.0298L42.6037 44.38H41.91V45.38ZM39.18 45.38V44.38H37.7262L38.2461 45.7376L39.18 45.38ZM48.36 69.35L47.4261 69.7076L48.36 72.1461L49.2939 69.7076L48.36 69.35ZM57.54 45.38L58.4739 45.7376L58.9938 44.38H57.54V45.38ZM54.81 45.38V44.38H54.1163L53.8733 45.0298L54.81 45.38ZM48.36 62.63L47.4233 62.9802L48.36 65.4853L49.2967 62.9802L48.36 62.63ZM41.91 44.38H39.18V46.38H41.91V44.38ZM38.2461 45.7376L47.4261 69.7076L49.2939 68.9924L40.1139 45.0224L38.2461 45.7376ZM49.2939 69.7076L58.4739 45.7376L56.6061 45.0224L47.4261 68.9924L49.2939 69.7076ZM57.54 44.38H54.81V46.38H57.54V44.38ZM53.8733 45.0298L47.4233 62.2798L49.2967 62.9802L55.7467 45.7302L53.8733 45.0298ZM49.2967 62.2798L42.8467 45.0298L40.9733 45.7302L47.4233 62.9802L49.2967 62.2798ZM60.1507 68H59.1507V69H60.1507V68ZM62.6707 68V69H63.6707V68H62.6707ZM62.6707 50.57L63.3935 49.8789L61.6707 48.077V50.57H62.6707ZM80.3107 69.02L79.5879 69.7111L81.3107 71.513V69.02H80.3107ZM80.3107 45.38H81.3107V44.38H80.3107V45.38ZM77.7907 45.38V44.38H76.7907V45.38H77.7907ZM77.7907 62.9L77.0673 63.5905L78.7907 65.3959V62.9H77.7907ZM60.1507 44.42L60.8741 43.7295L59.1507 41.9241V44.42H60.1507ZM60.1507 69H62.6707V67H60.1507V69ZM63.6707 68V50.57H61.6707V68H63.6707ZM61.9479 51.2611L79.5879 69.7111L81.0335 68.3289L63.3935 49.8789L61.9479 51.2611ZM81.3107 69.02V45.38H79.3107V69.02H81.3107ZM80.3107 44.38H77.7907V46.38H80.3107V44.38ZM76.7907 45.38V62.9H78.7907V45.38H76.7907ZM78.5141 62.2095L60.8741 43.7295L59.4273 45.1105L77.0673 63.5905L78.5141 62.2095ZM59.1507 44.42V68H61.1507V44.42H59.1507ZM102.27 47.21H103.27V46.7085L102.868 46.4086L102.27 47.21ZM102.27 66.17L102.856 66.9804L103.27 66.681V66.17H102.27ZM102.27 63.05H103.27V60.6358L101.563 62.3429L102.27 63.05ZM102.27 50.33L101.552 51.0254L103.27 52.8013V50.33H102.27ZM102.868 46.4086C100.681 44.7764 98.2504 43.99 95.5202 43.99V45.99C97.8301 45.99 99.8392 46.6435 101.672 48.0114L102.868 46.4086ZM95.5202 43.99C88.4879 43.99 82.7302 49.7477 82.7302 56.78H84.7302C84.7302 50.8523 89.5925 45.99 95.5202 45.99V43.99ZM82.7302 56.78C82.7302 63.7738 88.5997 69.39 95.5202 69.39V67.39C89.6608 67.39 84.7302 62.6262 84.7302 56.78H82.7302ZM95.5202 69.39C98.14 69.39 100.743 68.508 102.856 66.9804L101.684 65.3596C99.897 66.652 97.7005 67.39 95.5202 67.39V69.39ZM103.27 66.17V63.05H101.27V66.17H103.27ZM101.563 62.3429C99.9186 63.9874 97.6729 65.05 95.4302 65.05V67.05C98.2876 67.05 101.022 65.7126 102.977 63.7571L101.563 62.3429ZM95.4302 65.05C90.9436 65.05 87.2502 61.1494 87.2502 56.69H85.2502C85.2502 62.1906 89.7768 67.05 95.4302 67.05V65.05ZM87.2502 56.69C87.2502 52.2241 90.9199 48.33 95.3702 48.33V46.33C89.7405 46.33 85.2502 51.1959 85.2502 56.69H87.2502ZM95.3702 48.33C97.6889 48.33 99.9253 49.3449 101.552 51.0254L102.989 49.6346C101.015 47.5951 98.2716 46.33 95.3702 46.33V48.33ZM103.27 50.33V47.21H101.27V50.33H103.27Z" fill="#25607E"/>
</svg>
