<?xml version="1.0" encoding="UTF-8"?>
<svg id="Calque_1" xmlns="http://www.w3.org/2000/svg" baseProfile="tiny" version="1.2" viewBox="0 0 141.7 141.7">
  <!-- Generator: Adobe Illustrator 30.2.0, SVG Export Plug-In . SVG Version: 2.1.1 Build 105)  -->
  <path d="M117.9,78.7c-1.3,0-2.5.3-3.5.8,1.5-2.3,2.3-5,2.3-7.9V31c0-8.1-6.6-14.7-14.7-14.7H31c-8.1,0-14.7,6.6-14.7,14.7v40.6c0,8.1,6.6,14.7,14.7,14.7h45.7v4.6c-3.1-1.4-6.9-.7-9.3,1.9-1.2,1.4-1.9,3.1-2,4.8H15.8c-2.5,0-4.5,2-4.5,4.5s2,4.5,4.5,4.5h54.6l7,7c5,5,10.7,7.2,18.4,7.2h5.5c13.6,0,24.6-11.1,24.6-24.6v-9.4c0-4.4-3.6-8-8-8ZM101.3,115.9h-5.5c-6.5,0-10.8-1.7-14.8-5.8l-3.5-3.5-6.4-6.4c-.6-.7-.9-1.7-.7-2.6.1-.5.3-1,.7-1.5,1.1-1.2,3-1.3,4.3-.2l1.7,1.7.4.4c.7.7,1.8.9,2.7.5.5-.2.9-.5,1.1-.9.3-.4.4-.9.4-1.4v-24.9c0-1.7,1.3-3,3-3s3,1.3,3,3v16.6c0,1.4,1.1,2.5,2.5,2.5s2.5-1.1,2.5-2.5h0v-5.5c0-1.7,1.3-3,3-3s3,1.3,3,3v5.5h0v1c0,1.4,1.1,2.5,2.5,2.5s2.1-.8,2.4-1.8c0-.2.1-.4.1-.7v-3.9c0-1.7,1.3-3,3-3s2.5.9,2.9,2.1c0,.3.2.6.2,1v7c0,1.4,1.1,2.5,2.5,2.5s2.5-1.1,2.5-2.5v-5.3c0-1.7,1.3-3,3-3s3,1.3,3,3v9.4c0,1-.1,2-.2,3-.4,2.7-1.3,5.1-2.7,7.3-3.5,5.6-9.6,9.3-16.7,9.3ZM31,77.3c-3.1,0-5.7-2.5-5.7-5.7V31c0-3.1,2.5-5.7,5.7-5.7h71.1c3.1,0,5.7,2.5,5.7,5.7v40.6c0,3.1-2.5,5.7-5.7,5.7h0c-.2-.2-.4-.4-.6-.6,0,0,0,0-.1-.1-.2-.2-.4-.3-.5-.5,0,0-.2-.1-.2-.2-.2-.1-.4-.3-.6-.4,0,0-.1,0-.2-.1-.3-.2-.5-.3-.8-.4,0,0,0,0-.1,0-.3-.1-.5-.2-.8-.3,0,0-.2,0-.3,0-.2,0-.4-.1-.7-.1,0,0-.2,0-.3,0-.3,0-.6,0-1,0s-.5,0-.8,0c0,0-.2,0-.3,0-.2,0-.3,0-.5,0-.1,0-.2,0-.3,0-.1,0-.3,0-.4.1-.1,0-.2,0-.3.1-.1,0-.2,0-.4.1v-3.6c0-4.4-3.6-8-8-8s-8,3.6-8,8v6H31Z" fill="#dadcdd"/>
  <path d="M53,40.7c-.3-.2-.6-.3-1-.3s-.9.1-1.2.4-.5.5-.6.8c-.1.3-.3.8-.6,1.6l-4.8,14.2-4.8-14.1c-.3-1-.6-1.7-.9-2.1s-.8-.7-1.5-.7-1.1.2-1.5.6c-.4.4-.6.8-.6,1.3s0,.4,0,.7.1.5.2.8c0,.2.2.5.3.7l5,13.6c.2.5.4,1,.5,1.5.2.5.4.9.6,1.3.2.4.6.7,1,.9s.9.3,1.5.3,1.1-.1,1.5-.3.7-.5,1-.9c.2-.4.4-.8.6-1.2.2-.5.4-1,.5-1.5l5.1-13.8c0-.2.2-.5.3-.7,0-.2.2-.5.2-.7,0-.2,0-.5,0-.7,0-.3,0-.6-.3-.9-.2-.3-.4-.5-.7-.7Z" fill="#dadcdd"/>
  <path d="M72.9,40.5c-.6,0-1.1.2-1.4.6-.3.4-.5,1-.5,1.8v12.5l-8.2-12.4c-.2-.4-.5-.7-.7-1-.2-.3-.4-.6-.6-.8-.2-.2-.4-.4-.7-.5-.3-.1-.6-.2-1-.2s-.9.1-1.4.4c-.4.3-.7.6-.9,1.1-.2.4-.2.9-.2,1.6v16.2c0,.8.2,1.4.5,1.8.4.4.8.6,1.4.6s1.1-.2,1.4-.6c.4-.4.6-1,.6-1.8v-12.3l8,12.3c.2.3.5.7.7,1,.2.3.5.6.7.8.3.2.6.4.9.5.3.1.7.2,1,.2,1.5,0,2.3-.9,2.3-2.8v-16.5c0-.8-.2-1.4-.5-1.8-.4-.4-.8-.6-1.5-.6Z" fill="#dadcdd"/>
  <path d="M79.9,56.9c.4.8.9,1.6,1.4,2.2.6.7,1.3,1.3,2,1.8.7.4,1.6.8,2.5,1,.9.2,1.9.3,3,.3s2.7-.2,3.8-.7c1.1-.5,2-1.1,2.7-1.8.7-.8,1.2-1.5,1.6-2.3.3-.8.5-1.5.5-2.2s-.2-1-.5-1.3c-.4-.4-.8-.5-1.3-.5s-1,.2-1.3.5c-.3.3-.5.8-.7,1.4-.4,1.2-1.1,2.1-1.9,2.7-.8.6-1.9.9-3.1.9s-2.1-.3-3-.8c-.8-.5-1.5-1.3-2-2.4-.5-1.1-.7-2.4-.7-4.1,0-2.4.5-4.3,1.6-5.7s2.4-2,4.2-2,2,.3,2.8.8c.8.5,1.4,1.3,2,2.3.3.6.6,1.1.9,1.3.3.3.7.4,1.2.4s.9-.2,1.2-.6c.3-.4.5-.8.5-1.3,0-.9-.4-1.8-1.1-2.8s-1.7-1.8-3.1-2.5-2.8-1-4.5-1-2.7.2-3.9.7c-1.2.5-2.3,1.2-3.2,2.2s-1.6,2.1-2.1,3.4-.7,2.9-.7,4.5,0,2,.3,3c.2.9.5,1.8.9,2.6Z" fill="#dadcdd"/>
</svg>