<svg width="24" height="24" viewBox="0 0 24 24" fill="none" xmlns="http://www.w3.org/2000/svg">
<path d="M15 2.00001H11C10.4696 2.00001 9.96086 2.21072 9.58579 2.58579C9.21071 2.96087 9 3.46957 9 4.00001V15C9 15.5304 9.21071 16.0391 9.58579 16.4142C9.96086 16.7893 10.4696 17 11 17H19C19.5304 17 20.0391 16.7893 20.4142 16.4142C20.7893 16.0391 21 15.5304 21 15V8.00001M15 2.00001C15.3169 1.99923 15.6308 2.06122 15.9236 2.18239C16.2164 2.30357 16.4823 2.48153 16.706 2.70601L20.294 6.29401C20.5185 6.51768 20.6964 6.78359 20.8176 7.0764C20.9388 7.36921 21.0008 7.68312 21 8.00001M15 2.00001V7.00001C15 7.26522 15.1054 7.51958 15.2929 7.70711C15.4804 7.89465 15.7348 8.00001 16 8.00001H21M5 7.00001C4.46957 7.00001 3.96086 7.21072 3.58579 7.58579C3.21071 7.96087 3 8.46957 3 9.00001V20C3 20.5304 3.21071 21.0391 3.58579 21.4142C3.96086 21.7893 4.46957 22 5 22H13C13.3511 22 13.6959 21.9076 14 21.732C14.304 21.5565 14.5565 21.304 14.732 21" stroke="white" stroke-width="1.5" stroke-linecap="round" stroke-linejoin="round"/>
</svg>
