<svg version="1.1" id="Calque_1" xmlns="http://www.w3.org/2000/svg" xmlns:xlink="http://www.w3.org/1999/xlink" x="0px" y="0px"
	 viewBox="0 0 141.7 141.7" style="enable-background:new 0 0 141.7 141.7;" xml:space="preserve">
<path d="M17.2978 109.27L39.5595 120.9V96.3421L16 84.8618V107.273C16.0499 108.122 16.4991 108.92 17.2978 109.27Z" fill="#8BB53C" stroke="#24607E" stroke-width="2" stroke-miterlimit="10" stroke-linecap="round" stroke-linejoin="round"/>
<path d="M17.7969 81.4678L41.606 93.2975L51.9382 88.1064L28.229 76.3267L17.7969 81.4678Z" fill="#8BB53C" stroke="#24607E" stroke-width="2" stroke-miterlimit="10" stroke-linecap="round" stroke-linejoin="round"/>
<path d="M42.4545 70.1872C41.9554 69.9376 41.3564 69.9376 40.8573 70.1872L32.5216 74.2801L56.181 86.01L65.3153 81.4179L42.4545 70.1872Z" fill="#8BB53C" stroke="#24607E" stroke-width="2" stroke-miterlimit="10" stroke-linecap="round" stroke-linejoin="round"/>
<path d="M57.5785 89.6037V97.9893C57.5785 98.9875 56.73 99.8361 55.7317 99.8361H55.532C54.5337 99.8361 53.6852 98.9875 53.6852 97.9893V91.5503L43.5526 96.6915V120.9L65.9142 109.619C66.5631 109.32 66.9125 108.671 66.9125 107.972V84.8618L57.5785 89.6037Z" fill="#8BB53C" stroke="#24607E" stroke-width="2" stroke-miterlimit="10" stroke-linecap="round" stroke-linejoin="round"/>
<path d="M46.4977 61.2699L68.7595 72.8999V48.3421L45.2 36.8618V59.2733C45.2499 60.1219 45.6991 60.9205 46.4977 61.2699Z" fill="#8BB53C" stroke="#24607E" stroke-width="2" stroke-miterlimit="10" stroke-linecap="round" stroke-linejoin="round"/>
<path d="M46.9968 33.4678L70.8059 45.2975L81.1382 40.1064L57.4289 28.3267L46.9968 33.4678Z" fill="#8BB53C" stroke="#24607E" stroke-width="2" stroke-miterlimit="10" stroke-linecap="round" stroke-linejoin="round"/>
<path d="M71.6545 22.1872C71.1553 21.9376 70.5564 21.9376 70.0572 22.1872L61.7216 26.2801L85.3809 38.01L94.5152 33.4179L71.6545 22.1872Z" fill="#8BB53C" stroke="#24607E" stroke-width="2" stroke-miterlimit="10" stroke-linecap="round" stroke-linejoin="round"/>
<path d="M86.7785 41.6037V49.9893C86.7785 50.9875 85.9299 51.8361 84.9316 51.8361H84.732C83.7337 51.8361 82.8852 50.9875 82.8852 49.9893V43.5503L72.7526 48.6915V72.8999L95.1141 61.6193C95.763 61.3198 96.1124 60.6709 96.1124 59.9721V36.8618L86.7785 41.6037Z" fill="#8BB53C" stroke="#24607E" stroke-width="2" stroke-miterlimit="10" stroke-linecap="round" stroke-linejoin="round"/>
<path d="M76.4977 109.27L98.7595 120.9V96.3421L75.2 84.8618V107.273C75.2499 108.122 75.6991 108.92 76.4977 109.27Z" fill="#8BB53C" stroke="#24607E" stroke-width="2" stroke-miterlimit="10" stroke-linecap="round" stroke-linejoin="round"/>
<path d="M76.9968 81.4678L100.806 93.2975L111.138 88.1064L87.4289 76.3267L76.9968 81.4678Z" fill="#8BB53C" stroke="#24607E" stroke-width="2" stroke-miterlimit="10" stroke-linecap="round" stroke-linejoin="round"/>
<path d="M101.654 70.1872C101.155 69.9376 100.556 69.9376 100.057 70.1872L91.7216 74.2801L115.381 86.01L124.515 81.4179L101.654 70.1872Z" fill="#8BB53C" stroke="#24607E" stroke-width="2" stroke-miterlimit="10" stroke-linecap="round" stroke-linejoin="round"/>
<path d="M116.778 89.6037V97.9893C116.778 98.9875 115.93 99.8361 114.932 99.8361H114.732C113.734 99.8361 112.885 98.9875 112.885 97.9893V91.5503L102.753 96.6915V120.9L125.114 109.619C125.763 109.32 126.112 108.671 126.112 107.972V84.8618L116.778 89.6037Z" fill="#8BB53C" stroke="#24607E" stroke-width="2" stroke-miterlimit="10" stroke-linecap="round" stroke-linejoin="round"/>
</svg>
