<?xml version="1.0" encoding="UTF-8"?>
<svg id="Calque_1" xmlns="http://www.w3.org/2000/svg" baseProfile="tiny" version="1.2" viewBox="0 0 141.7 141.7">
  <!-- Generator: Adobe Illustrator 30.2.0, SVG Export Plug-In . SVG Version: 2.1.1 Build 105)  -->
  <path d="M91,68.1c2.2-1.3,3.6-3.7,3.6-6.3v-18.9c0-2.6-1.4-5-3.6-6.3l-16.5-9.5c-2.2-1.3-5-1.3-7.2,0l-16.5,9.5c-1,.6-1.7,1.3-2.3,2.2-.1.1-.2.3-.3.4,0,.2-.2.3-.2.5-.4.9-.7,2-.7,3.1v18.9c0,2.6,1.4,5,3.6,6.3l16.5,9.5c.9.5,1.9.8,3,.9.2,0,.4,0,.6,0s.4,0,.6,0c1,0,2.1-.4,3-.9l16.5-9.5ZM88.5,63.7l-15.1,8.7v-18.6l9.3-5.4s0,0,0,0l6.8-3.9v17.3c0,.8-.4,1.6-1.1,1.9ZM60.2,37l16.3,9.3-5.6,3.2-16.2-9.3,5.6-3.2ZM69.8,31.5c.3-.2.7-.3,1.1-.3s.8,0,1.1.3l15.1,8.7-5.6,3.2-16.3-9.3,4.5-2.6ZM53.3,63.7c-.7-.4-1.1-1.2-1.1-2v-17.2l16.2,9.3v18.6l-15.1-8.7Z" fill="#dadcdd"/>
  <path d="M123.6,73.6l-16.5-9.5c-2.2-1.3-5-1.3-7.2,0l-16.5,9.5c-1,.6-1.7,1.3-2.3,2.2-.1.1-.2.3-.3.4,0,.2-.2.3-.2.5-.4.9-.7,2-.7,3.1v18.9c0,2.6,1.4,5,3.6,6.3l16.5,9.5c.9.5,1.9.8,3,.9.2,0,.4,0,.6,0s.4,0,.6,0c1,0,2.1-.4,3-.9l16.5-9.5c2.2-1.3,3.6-3.7,3.6-6.3v-18.9c0-2.6-1.4-5-3.6-6.3ZM102.4,68.5c.3-.2.7-.3,1.1-.3s.8,0,1.1.3l15.1,8.7-5.6,3.2-16.3-9.3,4.5-2.6ZM103.5,86.5l-16.2-9.3,5.6-3.2,16.3,9.3-5.6,3.2ZM85.9,100.7c-.7-.4-1.1-1.2-1.1-2v-17.2l16.2,9.3v18.6l-15.1-8.7ZM121.1,100.7l-15.1,8.7v-18.6l9.3-5.4s0,0,0,0l6.8-3.9v17.3c0,.8-.4,1.6-1.1,1.9Z" fill="#dadcdd"/>
  <path d="M61,76.3c0-.2-.2-.3-.3-.4-.6-.9-1.4-1.7-2.4-2.2l-16.5-9.5c-2.2-1.3-5-1.3-7.2,0l-16.5,9.5c-2.2,1.3-3.6,3.7-3.6,6.3v18.9c0,2.6,1.4,5,3.6,6.3l16.5,9.5c.9.6,2,.9,3.1.9.2,0,.4,0,.6,0s.4,0,.6,0c1,0,2-.4,2.9-.9l16.5-9.5c2.2-1.3,3.6-3.7,3.6-6.3v-18.9c0-1.1-.3-2.1-.7-3.1,0-.2-.1-.4-.2-.5ZM37.1,68.5c.3-.2.7-.3,1.1-.3s.8,0,1.1.3l15.2,8.7-5.5,3.2-16.3-9.3,4.5-2.6ZM38.3,86.5l-16.3-9.3,5.6-3.2,16.3,9.3-5.6,3.2ZM20.6,100.7c-.7-.4-1.1-1.2-1.1-2v-17.3l16.3,9.3v18.6l-15.2-8.7ZM55.8,100.7l-15,8.6v-18.5l9.3-5.4s0,0,0,0l6.7-3.9v17.2c0,.8-.4,1.6-1.1,1.9Z" fill="#dadcdd"/>
</svg>