<?xml version="1.0" encoding="UTF-8"?>
<svg id="Calque_1" xmlns="http://www.w3.org/2000/svg" baseProfile="tiny" version="1.2" viewBox="0 0 141.7 141.7">
  <!-- Generator: Adobe Illustrator 30.2.0, SVG Export Plug-In . SVG Version: 2.1.1 Build 105)  -->
  <path d="M70.8,135.5c-.6,0-1.1,0-1.7,0-8.9-.9-15.9-8-16.8-16.8-.5-5.3-5.2-9.2-10.5-8.7-.1,0-.3,0-.4,0-.7,0-1.7.3-2.6.7,0,0,0,0-.1,0-4.5,2.1-9.5,2.3-14.2.5-4.7-1.8-8.4-5.3-10.4-9.8-3.6-8.2-1-17.8,6.2-22.7,4.3-3,5.3-9,2.3-13.3,0,0,0-.1-.1-.2-.5-.8-1.2-1.5-2-2,0,0-.1,0-.2-.1-4-2.8-6.7-7.1-7.5-12-.8-4.9.4-10,3.2-13.9,5.2-7.2,14.7-9.8,22.7-6.1,2.3,1.1,5,1.2,7.4.3,2.4-.9,4.4-2.7,5.4-5,.3-.7.8-1.9.8-2.8s0-.3,0-.4c.4-4.9,2.8-9.4,6.6-12.6,3.8-3.2,8.6-4.7,13.6-4.2,8.9.9,15.9,8,16.8,16.8.2,2.6,1.4,4.9,3.4,6.5,2,1.6,4.5,2.4,7,2.2.1,0,.3,0,.4,0,.7,0,1.7-.3,2.6-.7s0,0,.1,0c4.5-2.1,9.5-2.3,14.2-.5,4.7,1.8,8.4,5.3,10.4,9.8,3.6,8.2,1,17.8-6.2,22.7-4.3,3-5.3,9-2.3,13.3,0,0,0,.1.1.2.5.8,1.2,1.5,2,2,0,0,.1,0,.2.1,4,2.8,6.7,7.1,7.5,12,.8,4.9-.4,10-3.2,13.9-5.2,7.2-14.7,9.8-22.7,6.1-2.3-1.1-5-1.2-7.4-.3-2.4.9-4.4,2.7-5.4,5-.3.7-.8,1.9-.8,2.8s0,.3,0,.4c-.9,9.6-9,16.9-18.5,16.9ZM42.8,100.9c9.5,0,17.7,7.3,18.5,16.9.5,4.5,4.1,8.2,8.7,8.7,5.2.5,9.8-3.3,10.4-8.5,0-2.5.9-4.6,1.6-6.2,2.1-4.6,5.8-8,10.5-9.7,4.7-1.7,9.7-1.5,14.2.6,4.1,1.9,9,.5,11.7-3.2,1.5-2.1,2.1-4.6,1.6-7.2-.4-2.5-1.8-4.7-3.8-6.1-1.9-1.2-3.5-2.8-4.7-4.7-2.8-4-3.9-8.9-3-13.8.9-4.9,3.6-9.2,7.6-12,3.7-2.6,5-7.5,3.1-11.7-1-2.3-2.9-4.1-5.3-5-2.4-.9-4.9-.8-7.2.2-1.2.6-3.6,1.6-6.4,1.6-4.9.4-9.6-1.1-13.4-4.2-3.8-3.2-6.2-7.7-6.6-12.6-.5-4.5-4.1-8.2-8.7-8.7-2.5-.2-5,.6-7,2.2-1.9,1.6-3.1,3.8-3.4,6.3,0,2.5-.9,4.6-1.6,6.2-2.1,4.6-5.8,8-10.5,9.7-4.7,1.7-9.7,1.5-14.2-.6-4.1-1.9-9-.5-11.7,3.2-1.5,2.1-2.1,4.6-1.6,7.2.4,2.5,1.8,4.7,3.8,6.1,1.9,1.2,3.5,2.8,4.7,4.7,5.8,8.4,3.8,19.9-4.6,25.8-3.7,2.6-5,7.5-3.1,11.7,1,2.3,2.9,4.1,5.3,5,2.4.9,4.9.8,7.2-.2,1.2-.6,3.6-1.6,6.4-1.6.5,0,1,0,1.5,0Z" fill="#dadcdd"/>
  <path d="M70.9,93.4c-12.5,0-22.6-10.1-22.6-22.6s10.1-22.6,22.6-22.6,22.6,10.1,22.6,22.6-10.1,22.6-22.6,22.6ZM70.9,57.3c-7.5,0-13.6,6.1-13.6,13.6s6.1,13.6,13.6,13.6,13.6-6.1,13.6-13.6-6.1-13.6-13.6-13.6Z" fill="#dadcdd"/>
</svg>