<svg version="1.1" id="Calque_1" xmlns="http://www.w3.org/2000/svg" xmlns:xlink="http://www.w3.org/1999/xlink" x="0px" y="0px"
	 viewBox="0 0 141.7 141.7" style="enable-background:new 0 0 141.7 141.7;" xml:space="preserve">
<path d="M23.0443 92.8601L58.1121 111.18V72.4956L21 54.4113V89.715C21.0786 91.0516 21.7863 92.3097 23.0443 92.8601Z" fill="#8BB53C" stroke="#24607E" stroke-width="4" stroke-miterlimit="10" stroke-linecap="round" stroke-linejoin="round"/>
<path d="M23.8306 49.0646L61.3358 67.6993L77.6117 59.522L40.2637 40.9659L23.8306 49.0646Z" fill="#8BB53C" stroke="#24607E" stroke-width="4" stroke-miterlimit="10" stroke-linecap="round" stroke-linejoin="round"/>
<path d="M62.6725 31.2949C61.8862 30.9017 60.9427 30.9017 60.1564 31.2949L47.0256 37.7423L84.295 56.2197L98.6838 48.986L62.6725 31.2949Z" fill="#8BB53C" stroke="#24607E" stroke-width="4" stroke-miterlimit="10" stroke-linecap="round" stroke-linejoin="round"/>
<path d="M86.4966 61.8809V75.0903C86.4966 76.6628 85.16 77.9995 83.5874 77.9995H83.2729C81.7004 77.9995 80.3637 76.6628 80.3637 75.0903V64.9473L64.4023 73.0459V111.18L99.6274 93.4104C100.65 92.9387 101.2 91.9165 101.2 90.8157V54.4113L86.4966 61.8809Z" fill="#8BB53C" stroke="#24607E" stroke-width="4" stroke-miterlimit="10" stroke-linecap="round" stroke-linejoin="round"/>
<path d="M109.05 100.844C106.735 104.047 102.969 106.156 98.7327 106.156C91.75 106.156 86.0618 100.531 86.0226 93.5781H87.5133H90.1809L83.5512 87.0156L77 93.5781H80.4914H80.5698H81.119C81.1582 103.227 89.004 111 98.6935 111C104.303 111 109.285 108.383 112.502 104.32L111.051 102.875L109.05 100.844Z" fill="#8BB53C" stroke="#24607E" stroke-width="2" stroke-miterlimit="10" stroke-linecap="round" stroke-linejoin="round"/>
<path d="M117.719 93.5781H116.307C116.307 93.5391 116.307 93.5 116.307 93.5C116.307 83.8125 108.422 76 98.7327 76C93.0837 76 88.0625 78.6562 84.8457 82.7969L86.3364 84.2812L88.3371 86.2734C90.6516 82.9922 94.4567 80.8828 98.7327 80.8828C105.755 80.8828 111.443 86.5469 111.443 93.5391C111.443 93.5781 111.443 93.6172 111.443 93.6172H109.913H107.324L113.914 100.18L120.505 93.6172L117.719 93.5781Z" fill="#8BB53C" stroke="#24607E" stroke-width="2" stroke-miterlimit="10" stroke-linecap="round" stroke-linejoin="round"/>
</svg>
