<?xml version="1.0" encoding="UTF-8"?>
<svg id="Calque_1" xmlns="http://www.w3.org/2000/svg" baseProfile="tiny" version="1.2" viewBox="0 0 141.7 141.7">
  <!-- Generator: Adobe Illustrator 30.2.0, SVG Export Plug-In . SVG Version: 2.1.1 Build 105)  -->
  <path d="M68.6,115.6l-1.6,1v-43.2l20.5-11.7c.5-.2,1-.5,1.4-.8l15.9-9.1v7.2c0,2.5,2,4.5,4.5,4.5s4.5-2,4.5-4.5v-8.9c0-5.4-2.8-10.2-7.5-13l-36.4-20.8c-4.7-2.8-10.3-2.8-14.9,0l-36.3,20.8c-4.7,2.5-7.5,7.5-7.5,13v41.6c0,5.4,2.8,10.2,7.5,13l36.4,20.8c2.3,1.4,4.9,2.1,7.5,2.1s5.1-.7,7.5-2.1c0,0,0,0,.1,0l3.3-2.1c2.1-1.3,2.7-4.1,1.4-6.2-1.3-2.1-4.1-2.7-6.2-1.4ZM38.9,35.8l37.8,21.6-14.3,8.2-37.8-21.7,14.3-8.2ZM59.5,24.1c1.9-1.1,4-1.1,5.9,0l34.8,19.9-14.4,8.3-37.8-21.6,11.5-6.6ZM23.1,96.9c-1.9-1.1-3-3-3-5.2v-39.9l37.8,21.7v43.3l-34.8-19.9Z" fill="#dadcdd"/>
  <path d="M129.6,70.9c0-1.9-1.6-3.5-3.5-3.5s-3.5,1.6-3.5,3.5v3.9c-5-4.7-11.8-7.4-18.6-7.4-14.1,0-25.6,11.5-25.6,25.6s1.6,3.5,3.5,3.5,3.5-1.6,3.5-3.5c0-10.3,8.4-18.6,18.6-18.6s9.9,1.9,13.6,5.3h-3.8c-1.9,0-3.5,1.6-3.5,3.5s1.6,3.5,3.5,3.5h12.3s0,0,0,0c.2,0,.4,0,.6,0,.1,0,.2,0,.3,0,.1,0,.2,0,.3-.1.1,0,.2-.1.3-.2,0,0,.2,0,.3-.1.2-.1.4-.3.5-.4,0,0,0,0,0,0s0,0,0,0c.2-.2.3-.3.4-.5,0,0,.1-.2.2-.3,0-.1.1-.2.2-.3,0-.1,0-.2.1-.4,0,0,0-.2,0-.3,0-.2,0-.5,0-.7h0v-12.3Z" fill="#dadcdd"/>
  <path d="M126.1,89.5c-1.9,0-3.5,1.6-3.5,3.5,0,10.3-8.4,18.6-18.6,18.6s-9.9-1.9-13.6-5.3h3.8c1.9,0,3.5-1.6,3.5-3.5s-1.6-3.5-3.5-3.5h-12.3s0,0,0,0c-.2,0-.5,0-.7,0-.1,0-.2,0-.3,0-.1,0-.2,0-.4.1-.1,0-.2.1-.3.2,0,0-.2,0-.3.2-.4.3-.7.6-1,1,0,0,0,.2-.1.3,0,.1-.1.2-.2.3,0,.1,0,.2-.1.3,0,.1,0,.2,0,.3,0,.2,0,.5,0,.7,0,0,0,0,0,0v12.3c0,1.9,1.6,3.5,3.5,3.5s3.5-1.6,3.5-3.5v-3.9c5,4.7,11.8,7.4,18.6,7.4,14.1,0,25.6-11.5,25.6-25.6s-1.6-3.5-3.5-3.5Z" fill="#dadcdd"/>
</svg>