<?xml version="1.0" encoding="UTF-8"?>
<svg id="Calque_1" xmlns="http://www.w3.org/2000/svg" baseProfile="tiny" version="1.2" viewBox="0 0 141.7 141.7">
  <!-- Generator: Adobe Illustrator 30.2.0, SVG Export Plug-In . SVG Version: 2.1.1 Build 105)  -->
  <path d="M127.9,30.2c-1.8-1.8-4.6-1.8-6.4,0l-22,22-9.4-9.4c-1.8-1.8-4.6-1.8-6.4,0-1.8,1.8-1.8,4.6,0,6.4l12.6,12.6c.8.8,2,1.3,3.2,1.3s2.3-.5,3.2-1.3l25.2-25.2c1.8-1.8,1.8-4.6,0-6.4Z" fill="#dadcdd"/>
  <path d="M58.8,86.8c-.2-.2-.5-.3-.8-.4-.3-.1-.6-.2-.8-.2-1.5-.3-3,.2-4.1,1.2-.2.2-.4.4-.6.7-.2.2-.3.5-.4.8-.1.3-.2.6-.3.8,0,.3,0,.6,0,.9,0,1.2.5,2.3,1.3,3.2s2,1.3,3.2,1.3.6,0,.9,0c.3,0,.6-.1.8-.3.3-.1.5-.2.8-.4.2-.2.5-.4.7-.6s.4-.4.6-.7c.2-.2.3-.5.4-.8.1-.3.2-.5.2-.8,0-.3,0-.6,0-.9,0-1.2-.5-2.3-1.3-3.2s-.4-.4-.7-.6Z" fill="#dadcdd"/>
  <path d="M112.8,64.7c-.9.4-1.5,1-2,1.7H24.4l13.7-27.4c.9-1.9,2.8-3,4.8-3h46.9c2.1,0,3.9,1.1,4.8,3,1.1,2.2,3.8,3.1,6,2,2.2-1.1,3.1-3.8,2-6-2.5-4.9-7.4-8-12.9-8h-46.9c-5.5,0-10.4,3.1-12.9,8l-15.5,30.9c-.2.3-.4.6-.6.9-.3.7-.6,1.4-.8,2.1-.3.6-.5,1.3-.5,2s0,.1,0,.2c0,.7-.2,1.4-.2,2.1v27.2c0,7.9,6.4,14.4,14.4,14.4h78.9c7.9,0,14.4-6.4,14.4-14.4v-27.2c0-2.6-.7-4.8-1.4-6.2-1-2.3-3.7-3.3-5.9-2.3ZM105.7,105.7H26.9c-3,0-5.4-2.4-5.4-5.4v-24.9h89.6v24.9c0,3-2.4,5.4-5.4,5.4Z" fill="#dadcdd"/>
  <path d="M35.7,86.1c-.3,0-.6.1-.9.2-.3.1-.5.3-.8.4-.2.2-.5.4-.7.6-.8.8-1.3,2-1.3,3.2s.5,2.3,1.3,3.2c.8.8,2,1.3,3.2,1.3s2.4-.5,3.2-1.3c.8-.8,1.3-2,1.3-3.2s-.5-2.4-1.3-3.2c-1.1-1-2.6-1.5-4.1-1.2Z" fill="#dadcdd"/>
</svg>