<svg version="1.1" id="Calque_1" xmlns="http://www.w3.org/2000/svg" xmlns:xlink="http://www.w3.org/1999/xlink" x="0px" y="0px"
	 viewBox="0 0 141.7 141.7" style="enable-background:new 0 0 141.7 141.7;" xml:space="preserve">
<path d="M120.6 100.2H21.9C19.7 100.2 18 98.5 18 96.5V82.1C18 80.1 19.8 78.4 21.9 78.4H120.7C122.9 78.4 124.6 80.1 124.6 82.1V96.5C124.6 98.6 122.8 100.2 120.6 100.2Z" fill="white" stroke="#24607E" stroke-width="3.9851" stroke-miterlimit="10" stroke-linecap="round" stroke-linejoin="round"/>
<path d="M86.9 90.6H24.9" stroke="#24607E" stroke-width="3.9851" stroke-miterlimit="10" stroke-linecap="round" stroke-linejoin="round"/>
<path d="M112.8 89.9001C112.8 92.2001 110.8 94.1001 108.4 94.1001C106 94.1001 104 92.2001 104 89.9001C104 87.6001 106 85.7001 108.4 85.7001C110.8 85.8001 112.8 87.6001 112.8 89.9001Z" fill="#8BB53C" stroke="#24607E" stroke-width="3.9851" stroke-miterlimit="10" stroke-linecap="round" stroke-linejoin="round"/>
<path d="M76.5341 55.6333L85.5208 66.512L112.245 39L124.542 51.7706L87.7281 88.9L64 68.4828L76.5341 55.6333Z" fill="#8BB53C" stroke="#24607E" stroke-width="5.638" stroke-miterlimit="10" stroke-linecap="round" stroke-linejoin="round"/>
</svg>
