<?xml version="1.0" encoding="UTF-8"?>
<svg id="Calque_1" xmlns="http://www.w3.org/2000/svg" baseProfile="tiny" version="1.2" viewBox="0 0 141.7 141.7">
  <!-- Generator: Adobe Illustrator 30.2.0, SVG Export Plug-In . SVG Version: 2.1.1 Build 105)  -->
  <path d="M124.8,73.4c0-.1.1-.2.2-.3,0-.1.2-.3.2-.4,0-.1,0-.3.1-.5,0-.1,0-.3.1-.4.1-.6.1-1.2,0-1.8,0-.1,0-.3-.1-.4,0-.2,0-.3-.1-.5,0-.2-.1-.3-.2-.4,0-.1-.1-.2-.2-.3-.2-.2-.4-.5-.6-.7l-33.4-33.4c-1.8-1.8-4.6-1.8-6.4,0-1.8,1.8-1.8,4.6,0,6.4l25.8,25.8H43c-2.5,0-4.5,2-4.5,4.5s2,4.5,4.5,4.5h67.1l-25.8,25.8c-1.8,1.8-1.8,4.6,0,6.4.9.9,2,1.3,3.2,1.3s2.3-.4,3.2-1.3l33.4-33.4c.2-.2.4-.4.6-.7Z" fill="#dadcdd"/>
  <path d="M20.7,27.4c-2.5,0-4.5,2-4.5,4.5v78c0,2.5,2,4.5,4.5,4.5s4.5-2,4.5-4.5V31.9c0-2.5-2-4.5-4.5-4.5Z" fill="#dadcdd"/>
</svg>