<svg version="1.1" id="Calque_1" xmlns="http://www.w3.org/2000/svg" xmlns:xlink="http://www.w3.org/1999/xlink" x="0px" y="0px"
	 viewBox="0 0 141.7 141.7" style="enable-background:new 0 0 141.7 141.7;" xml:space="preserve">
<path d="M120.6 100.2H21.9C19.7 100.2 18 98.5 18 96.5V82.1C18 80.1 19.8 78.4 21.9 78.4H120.7C122.9 78.4 124.6 80.1 124.6 82.1V96.5C124.6 98.6 122.8 100.2 120.6 100.2Z" fill="white" stroke="#24607E" stroke-width="3.9851" stroke-miterlimit="10" stroke-linecap="round" stroke-linejoin="round"/>
<path d="M86.9 90.6H24.9" stroke="#24607E" stroke-width="3.9851" stroke-miterlimit="10" stroke-linecap="round" stroke-linejoin="round"/>
<path d="M112.8 89.9001C112.8 92.2001 110.8 94.1001 108.4 94.1001C106 94.1001 104 92.2001 104 89.9001C104 87.6001 106 85.7001 108.4 85.7001C110.8 85.8001 112.8 87.6001 112.8 89.9001Z" fill="#8BB53C" stroke="#24607E" stroke-width="3.9851" stroke-miterlimit="10" stroke-linecap="round" stroke-linejoin="round"/>
<path d="M118.957 60.5568L116.687 60.3868C116.327 60.3568 116.027 60.0968 115.947 59.7468C115.727 58.8168 115.427 57.9068 115.047 57.0368C114.907 56.7068 114.987 56.3168 115.257 56.0768L116.987 54.5868C118.007 53.7068 118.127 52.1568 117.237 51.1268L114.537 47.9968C113.657 46.9768 112.107 46.8568 111.077 47.7468L109.347 49.2368C109.067 49.4768 108.677 49.4968 108.367 49.3068C107.557 48.8068 106.707 48.3768 105.817 48.0268C105.477 47.8968 105.267 47.5668 105.287 47.1968L105.457 44.9268C105.557 43.5768 104.547 42.4068 103.197 42.3068L99.0769 42.0068C97.7269 41.9068 96.5569 42.9168 96.4569 44.2668L96.2868 46.5368C96.2568 46.8968 95.9969 47.1968 95.6469 47.2768C94.7169 47.4968 93.8069 47.7968 92.9369 48.1768C92.6069 48.3168 92.2169 48.2368 91.9769 47.9668L90.4869 46.2368C89.6069 45.2168 88.0569 45.0968 87.0269 45.9868L83.8969 48.6868C82.8769 49.5668 82.7569 51.1168 83.6469 52.1468L85.1369 53.8768C85.3769 54.1568 85.3969 54.5468 85.2069 54.8568C84.7069 55.6668 84.2769 56.5168 83.9269 57.4068C83.7969 57.7468 83.4669 57.9568 83.0969 57.9368L80.8269 57.7668C79.4769 57.6668 78.3069 58.6768 78.2069 60.0268L77.9069 64.1468C77.8069 65.4968 78.8169 66.6668 80.1669 66.7668L82.4369 66.9368C82.7969 66.9668 83.0969 67.2268 83.1769 67.5768C83.3969 68.5068 83.6969 69.4168 84.0769 70.2868C84.2169 70.6168 84.1369 71.0068 83.8669 71.2468L82.1469 72.7268C81.1269 73.6068 81.0069 75.1568 81.8969 76.1868L84.5969 79.3168C85.4769 80.3368 87.0269 80.4568 88.0569 79.5668L89.7869 78.0768C90.0669 77.8368 90.4569 77.8168 90.7669 78.0068C91.5769 78.5068 92.4269 78.9368 93.3169 79.2868C93.6569 79.4168 93.8669 79.7468 93.8469 80.1168L93.6769 82.3868C93.5769 83.7368 94.5869 84.9068 95.9369 85.0068L100.057 85.3068C101.407 85.4068 102.577 84.3968 102.677 83.0468L102.847 80.7768C102.877 80.4168 103.137 80.1168 103.487 80.0368C104.417 79.8168 105.327 79.5168 106.197 79.1368C106.527 78.9968 106.917 79.0768 107.157 79.3468L108.647 81.0768C109.527 82.0968 111.077 82.2168 112.107 81.3268L115.237 78.6268C116.257 77.7468 116.377 76.1968 115.487 75.1668L113.997 73.4368C113.757 73.1568 113.737 72.7668 113.927 72.4568C114.427 71.6468 114.857 70.7968 115.207 69.9068C115.337 69.5668 115.667 69.3568 116.037 69.3768L118.307 69.5468C119.657 69.6468 120.827 68.6368 120.927 67.2868L121.227 63.1668C121.327 61.8268 120.307 60.6568 118.957 60.5568ZM107.957 62.8468C108.477 68.6668 103.217 73.2068 97.5368 71.8368C94.0968 71.0068 91.4969 67.9968 91.1869 64.4768C90.6669 58.6568 95.9269 54.1168 101.607 55.4868C105.037 56.3168 107.637 59.3268 107.957 62.8468Z" fill="white" stroke="#25607E" stroke-width="3.9851" stroke-miterlimit="10" stroke-linecap="round" stroke-linejoin="round"/>
</svg>
