<?xml version="1.0" encoding="UTF-8"?>
<svg id="Calque_1" xmlns="http://www.w3.org/2000/svg" baseProfile="tiny" version="1.2" viewBox="0 0 141.7 141.7">
  <!-- Generator: Adobe Illustrator 30.2.0, SVG Export Plug-In . SVG Version: 2.1.1 Build 105)  -->
  <path d="M114,12.5H27.8c-8.4,0-15.3,6.9-15.3,15.3v21.5c0,8.4,6.9,15.3,15.3,15.3h2.8c2.5,0,4.5-2,4.5-4.5s-2-4.5-4.5-4.5h-2.8c-3.5,0-6.3-2.8-6.3-6.3v-21.5c0-3.5,2.8-6.3,6.3-6.3h86.2c3.5,0,6.3,2.8,6.3,6.3v21.5c0,3.5-2.8,6.3-6.3,6.3h-2.8c-2.5,0-4.5,2-4.5,4.5s2,4.5,4.5,4.5h2.8c8.4,0,15.3-6.9,15.3-15.3v-21.5c0-8.4-6.9-15.3-15.3-15.3Z" fill="#dadcdd"/>
  <path d="M114,77.1h-2.8c-2.5,0-4.5,2-4.5,4.5s2,4.5,4.5,4.5h2.8c3.5,0,6.3,2.8,6.3,6.3v21.5c0,3.5-2.8,6.3-6.3,6.3H27.8c-3.5,0-6.3-2.8-6.3-6.3v-21.5c0-3.5,2.8-6.3,6.3-6.3h2.8c2.5,0,4.5-2,4.5-4.5s-2-4.5-4.5-4.5h-2.8c-8.4,0-15.3,6.9-15.3,15.3v21.5c0,8.4,6.9,15.3,15.3,15.3h86.2c8.4,0,15.3-6.9,15.3-15.3v-21.5c0-8.4-6.9-15.3-15.3-15.3Z" fill="#dadcdd"/>
  <path d="M34.1,104.1c0,.3.1.6.3.9.1.3.2.5.4.8.2.2.3.5.6.7.8.8,2,1.3,3.2,1.3s.6,0,.9,0,.6-.1.8-.3c.3-.1.5-.2.8-.4.2-.2.5-.4.7-.6s.4-.4.6-.7c.2-.2.3-.5.4-.8.1-.3.2-.6.2-.9,0-.3,0-.6,0-.9,0-1.2-.5-2.3-1.3-3.2-.2-.2-.4-.4-.7-.6-.2-.2-.5-.3-.8-.4-.3-.1-.6-.2-.8-.3-1.5-.3-3,.2-4.1,1.2s-1.3,2-1.3,3.2,0,.6,0,.9Z" fill="#dadcdd"/>
  <path d="M39.4,43c.3,0,.6-.1.8-.3.3-.1.5-.2.8-.4.2-.2.5-.4.7-.6.8-.8,1.3-2,1.3-3.2s0-.6,0-.9c0-.3-.1-.6-.2-.9-.1-.3-.3-.5-.4-.8-.2-.2-.4-.5-.6-.7s-.4-.4-.7-.6c-.2-.2-.5-.3-.8-.4-.3-.1-.6-.2-.8-.3-1.5-.3-3,.2-4.1,1.2s-.4.4-.6.7c-.2.2-.3.5-.4.8-.1.3-.2.6-.3.9s0,.6,0,.9c0,1.2.5,2.3,1.3,3.2.8.8,2,1.3,3.2,1.3s.6,0,.9,0Z" fill="#dadcdd"/>
  <path d="M64.6,83.7h.3c0,.1.3.2.3.2,0,0,.2,0,.3,0,0,0,.2,0,.3.2l.3.2h.3c1.5.6,3.1.9,4.6.9s3-.2,4.5-.7h.3c0-.1.3-.3.3-.3.1,0,.3-.2.4-.2,3.2-1.3,5.8-3.7,7.3-6.9v-.2c.1,0,.2-.4.2-.4,0,0,.1-.2.2-.3l.2-.4c1.1-3,1.2-6.3.1-9.3v-.3c-.1,0-.3-.3-.3-.3,0-.1-.2-.3-.2-.4,0-.1,0-.2-.1-.4v-.4c0,0-.2-.3-.2-.3-1.5-2.9-4.1-5.3-7.2-6.6-3.1-1.3-6.6-1.5-9.8-.4h-.3c0,.1-.3.3-.3.3-.1,0-.2.2-.4.2-3.5,1.4-6.2,4.1-7.7,7.6-1.4,3.5-1.4,7.3,0,10.9,1.3,3.2,3.7,5.7,6.7,7.3ZM62.6,67.5c.9-2.2,2.7-4,4.9-4.9.3-.1.7-.3,1-.5,2-.6,4.1-.5,6,.4,2,.8,3.5,2.2,4.5,4,0,.3.2.6.3.9.1.3.3.6.5.9.5,1.8.5,3.7-.1,5.5-.1.2-.2.5-.4.7,0,.2-.1.3-.2.5-1,1.9-2.6,3.4-4.6,4.2-.3.1-.6.3-.9.5-1.8.5-3.6.5-5.4,0-.3-.2-.6-.3-.9-.4-.2-.1-.5-.2-.7-.2-1.9-1-3.3-2.6-4.1-4.5-.9-2.3-.9-4.8,0-7.1Z" fill="#dadcdd"/>
  <path d="M44.6,76.5c-.7,1.7-.7,3.6,0,5.4,1.1,2.7,3.6,4.4,6.5,4.4s1.5-.1,2.2-.4c.8,1,1.8,2,2.8,2.8-1,3.4.7,7.2,4.1,8.5.8.3,1.7.5,2.6.5,2.6,0,4.9-1.4,6.1-3.6,1.4.1,2.7.1,4.1,0,1.2,2.3,3.6,3.8,6.2,3.8s1.8-.2,2.6-.5c1.7-.7,3.1-2,3.8-3.8.7-1.6.7-3.3.2-4.9,1-.8,2-1.8,2.8-2.8.7.2,1.4.3,2.1.3,2.9,0,5.4-1.7,6.5-4.4.7-1.7.7-3.6,0-5.4-.6-1.5-1.7-2.7-3.1-3.4.1-1.4.1-2.8,0-4.2,1.4-.8,2.5-1.9,3.1-3.4.7-1.7.7-3.6,0-5.4-1.4-3.4-5.1-5.1-8.5-4.1-.9-1-1.8-2-2.9-2.9,1.1-3.4-.6-7.2-4-8.6-1.7-.7-3.6-.7-5.4,0-1.5.6-2.8,1.8-3.5,3.3-1.3-.1-2.6-.1-3.9,0-.7-1.5-2-2.6-3.5-3.2-1.7-.7-3.6-.7-5.4,0-1.7.7-3.1,2-3.8,3.8-.7,1.6-.7,3.3-.2,4.9-1.1.9-2,1.8-2.9,2.9-3.5-1.2-7.4.5-8.8,4-.7,1.7-.7,3.6,0,5.4.7,1.6,1.9,2.8,3.4,3.6-.1,1.3-.1,2.6,0,3.9-1.5.7-2.7,2-3.4,3.6ZM53.1,74c-.4-2.1-.4-4.1,0-6.2l.3-2-3.2-1.3c-.5-.2-.9-.6-1.1-1.1-.2-.5-.2-1,0-1.5.4-1,1.6-1.5,2.6-1.1l3.3,1.3,1.1-1.6c1.2-1.7,2.7-3.2,4.5-4.4l1.7-1.1-1.3-3.2c-.2-.5-.2-1,0-1.5.2-.5.6-.9,1.1-1.1.5-.2,1-.2,1.5,0,.5.2.9.6,1.1,1.1l1.2,3.1,2-.3c2-.3,4.1-.3,6.1,0l2,.4,1.3-3.1c.2-.5.6-.9,1.1-1.1.5-.2,1-.2,1.5,0,1,.4,1.5,1.6,1.1,2.6l-1.3,3.1,1.6,1.1c1.7,1.2,3.2,2.7,4.4,4.4l1.1,1.6,3-1.2c1-.4,2.2,0,2.6,1.1.4,1,0,2.2-1.1,2.6l-2.9,1.2.4,2c.4,2.1.4,4.3,0,6.4l-.4,2,3,1.2c1,.4,1.5,1.6,1.1,2.6-.4,1-1.6,1.5-2.6,1.1l-3-1.2-1.1,1.6c-1.2,1.7-2.7,3.2-4.4,4.4l-1.7,1.1,1.3,3.2c.2.5.2,1,0,1.5s-.6.9-1.1,1.1c-1,.4-2.2-.1-2.6-1.1l-1.2-3.1-2,.3c-2.1.4-4.2.4-6.3,0l-2-.4-1.2,2.9c-.4,1-1.6,1.5-2.6,1.1-1-.4-1.5-1.6-1.1-2.6l1.2-3-1.6-1.1c-1.7-1.2-3.2-2.7-4.4-4.4l-1.1-1.7-3.2,1.3c-1,.4-2.2-.1-2.6-1.1-.2-.5-.2-1,0-1.5.2-.5.6-.9,1.1-1.1l3.2-1.3-.3-2Z" fill="#dadcdd"/>
</svg>