<?xml version="1.0" encoding="UTF-8"?>
<svg id="Calque_1" xmlns="http://www.w3.org/2000/svg" baseProfile="tiny" version="1.2" viewBox="0 0 141.7 141.7">
  <!-- Generator: Adobe Illustrator 30.2.0, SVG Export Plug-In . SVG Version: 2.1.1 Build 105)  -->
  <path d="M114,12.5H27.8c-8.4,0-15.3,6.9-15.3,15.3v21.5c0,8.4,6.9,15.3,15.3,15.3h2.8c2.5,0,4.5-2,4.5-4.5s-2-4.5-4.5-4.5h-2.8c-3.5,0-6.3-2.8-6.3-6.3v-21.5c0-3.5,2.8-6.3,6.3-6.3h86.2c3.5,0,6.3,2.8,6.3,6.3v21.5c0,3.5-2.8,6.3-6.3,6.3h-2.8c-2.5,0-4.5,2-4.5,4.5s2,4.5,4.5,4.5h2.8c8.4,0,15.3-6.9,15.3-15.3v-21.5c0-8.4-6.9-15.3-15.3-15.3Z" fill="#dadcdd"/>
  <path d="M114,77.1h-2.8c-2.5,0-4.5,2-4.5,4.5s2,4.5,4.5,4.5h2.8c3.5,0,6.3,2.8,6.3,6.3v21.5c0,3.5-2.8,6.3-6.3,6.3H27.8c-3.5,0-6.3-2.8-6.3-6.3v-21.5c0-3.5,2.8-6.3,6.3-6.3h2.8c2.5,0,4.5-2,4.5-4.5s-2-4.5-4.5-4.5h-2.8c-8.4,0-15.3,6.9-15.3,15.3v21.5c0,8.4,6.9,15.3,15.3,15.3h86.2c8.4,0,15.3-6.9,15.3-15.3v-21.5c0-8.4-6.9-15.3-15.3-15.3Z" fill="#dadcdd"/>
  <path d="M34.4,101.5c-.1.3-.2.5-.3.8s0,.6,0,.9c0,1.2.5,2.3,1.3,3.2s2,1.3,3.2,1.3.6,0,.9,0,.6-.1.8-.3c.3-.1.5-.2.8-.4.2-.2.5-.4.7-.6.8-.8,1.3-2,1.3-3.2s0-.6,0-.9c0-.3-.1-.6-.2-.8-.1-.3-.3-.5-.4-.8-.2-.2-.4-.5-.6-.7-.2-.2-.4-.4-.7-.6-.2-.2-.5-.3-.8-.4-.3-.1-.6-.2-.8-.2-1.5-.3-3,.2-4.1,1.2-.2.2-.4.4-.6.7-.2.2-.3.5-.4.8Z" fill="#dadcdd"/>
  <path d="M39.4,43c.3,0,.6-.1.8-.3.3-.1.5-.2.8-.4.2-.2.5-.4.7-.6.2-.2.4-.4.6-.7.2-.2.3-.5.4-.8.1-.3.2-.5.2-.8,0-.3,0-.6,0-.9,0-1.2-.5-2.3-1.3-3.2-.2-.2-.4-.4-.7-.6-.2-.2-.5-.3-.8-.4-.3-.1-.6-.2-.8-.2-1.5-.3-3,.2-4.1,1.2-.8.8-1.3,2-1.3,3.2s0,.6,0,.9.1.6.3.8c.1.3.2.5.4.8.2.2.3.5.6.7.8.8,2,1.3,3.2,1.3s.6,0,.9,0Z" fill="#dadcdd"/>
  <path d="M44.6,76.5c-.7,1.7-.7,3.6,0,5.4,1.1,2.7,3.6,4.4,6.5,4.4s1.5-.1,2.2-.4c.9,1,1.8,2,2.8,2.8-1,3.4.7,7.2,4.1,8.5.8.3,1.7.5,2.6.5,2.6,0,4.9-1.4,6.1-3.6,1.4.1,2.7.1,4.1,0,1.2,2.3,3.6,3.8,6.2,3.8s1.8-.2,2.6-.5c1.7-.7,3.1-2,3.8-3.8.7-1.6.7-3.3.2-4.9,1-.8,2-1.8,2.8-2.8.7.2,1.4.3,2.1.3,2.9,0,5.4-1.7,6.5-4.4.7-1.7.7-3.6,0-5.4-.6-1.5-1.7-2.7-3.1-3.4.1-1.4.1-2.8,0-4.2,1.4-.8,2.5-1.9,3.1-3.4.7-1.7.7-3.6,0-5.4-1.4-3.4-5.1-5.1-8.5-4.1-.9-1-1.8-2-2.9-2.9,1.1-3.4-.6-7.2-4-8.6-1.7-.7-3.6-.7-5.4,0-1.5.6-2.8,1.8-3.5,3.3-1.3-.1-2.6-.1-3.9,0-.7-1.5-2-2.6-3.5-3.2-1.7-.7-3.6-.7-5.4,0-1.7.7-3.1,2-3.8,3.8-.7,1.6-.7,3.3-.2,4.9-1.1.9-2,1.8-2.9,2.9-3.5-1.2-7.4.5-8.8,4-.7,1.7-.7,3.6,0,5.4.7,1.6,1.9,2.8,3.4,3.6-.1,1.3-.1,2.6,0,3.9-1.5.7-2.7,2-3.4,3.6ZM62.6,67.5c.9-2.2,2.7-4,4.9-4.9.3-.1.6-.3,1-.5,2-.6,4.1-.5,6,.4,2,.8,3.5,2.2,4.5,4,0,.3.2.6.3.9.1.3.3.6.5.9.5,1.8.5,3.7-.1,5.5-.1.2-.3.5-.4.7,0,.2-.1.3-.2.5-1,1.9-2.6,3.4-4.6,4.2-.3.1-.6.3-.9.5-1.8.5-3.6.5-5.4,0-.3-.2-.6-.3-.9-.4-.2-.1-.5-.2-.7-.2-1.9-1-3.3-2.6-4.1-4.5-.9-2.3-.9-4.8,0-7.1Z" fill="#dadcdd"/>
</svg>