<?xml version="1.0" encoding="UTF-8"?>
<svg id="Calque_1" xmlns="http://www.w3.org/2000/svg" baseProfile="tiny" version="1.2" viewBox="0 0 141.7 141.7">
  <!-- Generator: Adobe Illustrator 30.2.0, SVG Export Plug-In . SVG Version: 2.1.1 Build 105)  -->
  <path d="M98.7,66.4H31.6l25.8-25.8c1.8-1.8,1.8-4.6,0-6.4-1.8-1.8-4.6-1.8-6.4,0l-33.4,33.4s0,0,0,0c-.2.2-.4.4-.5.7,0,.1-.1.2-.2.4,0,.1-.2.3-.2.4,0,.2,0,.3-.1.5,0,.1,0,.2-.1.4-.1.6-.1,1.2,0,1.8,0,.1,0,.2.1.4,0,.2,0,.3.1.5,0,.1.1.3.2.4,0,.1.1.2.2.4.2.2.3.5.5.7,0,0,0,0,0,0l33.4,33.4c.9.9,2,1.3,3.2,1.3s2.3-.4,3.2-1.3c1.8-1.8,1.8-4.6,0-6.4l-25.8-25.8h67.1c2.5,0,4.5-2,4.5-4.5s-2-4.5-4.5-4.5Z" fill="#dadcdd"/>
  <path d="M121,27.4c-2.5,0-4.5,2-4.5,4.5v78c0,2.5,2,4.5,4.5,4.5s4.5-2,4.5-4.5V31.9c0-2.5-2-4.5-4.5-4.5Z" fill="#dadcdd"/>
</svg>