<?xml version="1.0" encoding="utf-8"?>
<!-- Generator: Adobe Illustrator 27.0.0, SVG Export Plug-In . SVG Version: 6.00 Build 0)  -->
<svg version="1.1" id="Calque_1" xmlns="http://www.w3.org/2000/svg" xmlns:xlink="http://www.w3.org/1999/xlink" x="0px" y="0px"
	 viewBox="0 0 141.7 141.7" style="enable-background:new 0 0 141.7 141.7;" xml:space="preserve">
<style type="text/css">
	.st0{fill:none;stroke:#24607E;stroke-width:3.9851;stroke-linecap:round;stroke-linejoin:round;stroke-miterlimit:10;}
	.st1{fill:#FFFFFF;stroke:#24607E;stroke-width:3.9851;stroke-linecap:round;stroke-linejoin:round;stroke-miterlimit:10;}
	.st2{fill:#8BB53C;stroke:#24607E;stroke-width:3.9851;stroke-linecap:round;stroke-linejoin:round;stroke-miterlimit:10;}
	.st3{fill:#17A4CC;stroke:#24607E;stroke-width:3.9006;stroke-linecap:round;stroke-linejoin:round;stroke-miterlimit:10;}
</style>
<g>
	<g>
		<g>
			<g>
				<line class="st0" x1="46.9" y1="113.4" x2="93.9" y2="113.4"/>
				<rect x="61.1" y="78.7" class="st1" width="18.6" height="34.7"/>
				<path class="st2" d="M114.8,101.5H26.9c-4.1,0-7.4-3.3-7.4-7.4V35.8c0-4.1,3.3-7.4,7.4-7.4h87.8c4.1,0,7.4,3.3,7.4,7.4V94
					C122.2,98.1,118.9,101.5,114.8,101.5z"/>
				<path class="st3" d="M27.9,90.3c-0.1,0-0.1-0.1-0.1-0.1V38.8c0-2.1,1.7-3.8,3.8-3.8H110c2.1,0,3.8,1.7,3.8,3.8v51.4
					c0,0.1-0.1,0.1-0.1,0.1S27.9,90.3,27.9,90.3z"/>
				<line class="st0" x1="66.4" y1="95.9" x2="74.4" y2="95.9"/>
			</g>
		</g>
	</g>
</g>
</svg>
