<?xml version="1.0" encoding="UTF-8"?>
<svg id="Calque_1" xmlns="http://www.w3.org/2000/svg" baseProfile="tiny" version="1.2" viewBox="0 0 141.7 141.7">
  <!-- Generator: Adobe Illustrator 30.2.0, SVG Export Plug-In . SVG Version: 2.1.1 Build 105)  -->
  <path d="M115.7,34.2h-3.1v-4c0-7.5-6.1-13.6-13.6-13.6H26.1c-7.5,0-13.6,6.1-13.6,13.6v45.6c0,7.5,6.1,13.6,13.6,13.6h3.1v4c0,7.5,6.1,13.6,13.6,13.6h32v9.2h-13.7c-2.5,0-4.5,2-4.5,4.5s2,4.5,4.5,4.5h36.4c2.5,0,4.5-2,4.5-4.5s-2-4.5-4.5-4.5h-13.6v-9.2h31.9c7.5,0,13.6-6.1,13.6-13.6v-45.6c0-7.5-6.1-13.6-13.6-13.6ZM21.5,75.7V30.2c0-2.5,2-4.6,4.6-4.6h72.9c2.5,0,4.6,2,4.6,4.6v4h-60.7c-7.5,0-13.6,6.1-13.6,13.6v32.5h-3.1c-2.5,0-4.6-2-4.6-4.6ZM120.2,93.3c0,2.5-2,4.6-4.6,4.6H42.8c-2.5,0-4.6-2-4.6-4.6v-45.6c0-2.5,2-4.6,4.6-4.6h72.9c2.5,0,4.6,2,4.6,4.6v45.6Z" fill="#dadcdd"/>
</svg>