<?xml version="1.0" encoding="UTF-8"?>
<svg id="Calque_1" xmlns="http://www.w3.org/2000/svg" baseProfile="tiny" version="1.2" viewBox="0 0 141.7 141.7">
  <!-- Generator: Adobe Illustrator 30.2.0, SVG Export Plug-In . SVG Version: 2.1.1 Build 105)  -->
  <path d="M114,17.9H27.8c-8.4,0-15.3,6.9-15.3,15.3v53.9c0,8.4,6.9,15.3,15.3,15.3h38.6v12.5h-17c-2.5,0-4.5,2-4.5,4.5s2,4.5,4.5,4.5h43.1c2.5,0,4.5-2,4.5-4.5s-2-4.5-4.5-4.5h-17v-12.5h38.6c8.4,0,15.3-6.9,15.3-15.3v-53.9c0-8.4-6.9-15.3-15.3-15.3ZM120.2,87c0,3.5-2.8,6.3-6.3,6.3H27.8c-3.5,0-6.3-2.8-6.3-6.3v-53.9c0-3.5,2.8-6.3,6.3-6.3h86.2c3.5,0,6.3,2.8,6.3,6.3v53.9Z" fill="#8CB63C"/>
</svg>