<svg version="1.1" id="Calque_1" xmlns="http://www.w3.org/2000/svg" xmlns:xlink="http://www.w3.org/1999/xlink" x="0px" y="0px"
	 viewBox="0 0 141.7 141.7" style="enable-background:new 0 0 141.7 141.7;" xml:space="preserve">
<g clip-path="url(#clip0_20_68)">
<path d="M22.4 98.6001L67 121.9V72.7001L19.8 49.7001V94.6001C19.9 96.3001 20.8 97.9001 22.4 98.6001Z" fill="#8BB53C" stroke="#24607E" stroke-width="3.9851" stroke-miterlimit="10" stroke-linecap="round" stroke-linejoin="round"/>
<path d="M23.4001 42.9001L71.1001 66.6001L91.8001 56.2001L44.3001 32.6001L23.4001 42.9001Z" fill="#8BB53C" stroke="#24607E" stroke-width="3.9851" stroke-miterlimit="10" stroke-linecap="round" stroke-linejoin="round"/>
<path d="M72.8001 20.3C71.8001 19.8 70.6001 19.8 69.6001 20.3L52.9001 28.5L100.3 52L118.6 42.8L72.8001 20.3Z" fill="#8BB53C" stroke="#24607E" stroke-width="3.9851" stroke-miterlimit="10" stroke-linecap="round" stroke-linejoin="round"/>
<path d="M103.1 59.2001V76.0001C103.1 78.0001 101.4 79.7001 99.4 79.7001H99C97 79.7001 95.3 78.0001 95.3 76.0001V63.1001L75 73.4001V121.9L119.8 99.3001C121.1 98.7001 121.8 97.4001 121.8 96.0001V49.7001L103.1 59.2001Z" fill="#8BB53C" stroke="#24607E" stroke-width="3.9851" stroke-miterlimit="10" stroke-linecap="round" stroke-linejoin="round"/>
<path d="M128.092 110.092C136.025 102.159 136.025 89.2969 128.092 81.3639C120.159 73.431 107.297 73.431 99.3639 81.3639C91.4309 89.2969 91.4309 102.159 99.3639 110.092C107.297 118.025 120.159 118.025 128.092 110.092Z" fill="white" stroke="#17A4CC" stroke-width="3.9"/>
<path d="M100.77 108.441L128.287 80.9236" stroke="#17A4CC" stroke-width="3.9"/>
</g>
<defs>
<clipPath id="clip0_20_68">
<rect width="141.7" height="141.7" fill="white"/>
</clipPath>
</defs>
</svg>
