<?xml version="1.0" encoding="utf-8"?>
<!-- Generator: Adobe Illustrator 27.0.0, SVG Export Plug-In . SVG Version: 6.00 Build 0)  -->
<svg version="1.1" id="Calque_1" xmlns="http://www.w3.org/2000/svg" xmlns:xlink="http://www.w3.org/1999/xlink" x="0px" y="0px"
	 viewBox="0 0 141.7 141.7" style="enable-background:new 0 0 141.7 141.7;" xml:space="preserve">
<style type="text/css">
	.st0{fill:#8BB53C;stroke:#24607E;stroke-width:3.9851;stroke-linecap:round;stroke-linejoin:round;stroke-miterlimit:10;}
</style>
<g>
	<g>
		<path class="st0" d="M22.4,98.6L67,121.9V72.7l-47.2-23v44.9C19.9,96.3,20.8,97.9,22.4,98.6z"/>
		<g>
			<polygon class="st0" points="23.4,42.9 71.1,66.6 91.8,56.2 44.3,32.6 			"/>
			<path class="st0" d="M72.8,20.3c-1-0.5-2.2-0.5-3.2,0l-16.7,8.2L100.3,52l18.3-9.2L72.8,20.3z"/>
		</g>
		<g>
			<path class="st0" d="M103.1,59.2V76c0,2-1.7,3.7-3.7,3.7H99c-2,0-3.7-1.7-3.7-3.7V63.1L75,73.4v48.5l44.8-22.6
				c1.3-0.6,2-1.9,2-3.3V49.7L103.1,59.2z"/>
		</g>
	</g>
</g>
</svg>
