<svg version="1.1" id="Calque_1" xmlns="http://www.w3.org/2000/svg" xmlns:xlink="http://www.w3.org/1999/xlink" x="0px" y="0px"
	 viewBox="0 0 141.7 141.7" style="enable-background:new 0 0 141.7 141.7;" xml:space="preserve">
<g clip-path="url(#clip0_20_68)">
<path d="M22.4 98.6001L67 121.9V72.7001L19.8 49.7001V94.6001C19.9 96.3001 20.8 97.9001 22.4 98.6001Z" fill="#8BB53C" stroke="#24607E" stroke-width="3.9851" stroke-miterlimit="10" stroke-linecap="round" stroke-linejoin="round"/>
<path d="M23.4001 42.9001L71.1001 66.6001L91.8001 56.2001L44.3001 32.6001L23.4001 42.9001Z" fill="#8BB53C" stroke="#24607E" stroke-width="3.9851" stroke-miterlimit="10" stroke-linecap="round" stroke-linejoin="round"/>
<path d="M72.8001 20.3C71.8001 19.8 70.6001 19.8 69.6001 20.3L52.9001 28.5L100.3 52L118.6 42.8L72.8001 20.3Z" fill="#8BB53C" stroke="#24607E" stroke-width="3.9851" stroke-miterlimit="10" stroke-linecap="round" stroke-linejoin="round"/>
<path d="M103.1 59.2001V76.0001C103.1 78.0001 101.4 79.7001 99.4 79.7001H99C97 79.7001 95.3 78.0001 95.3 76.0001V63.1001L75 73.4001V121.9L119.8 99.3001C121.1 98.7001 121.8 97.4001 121.8 96.0001V49.7001L103.1 59.2001Z" fill="#8BB53C" stroke="#24607E" stroke-width="3.9851" stroke-miterlimit="10" stroke-linecap="round" stroke-linejoin="round"/>
<path d="M123.842 112.842C134.122 102.561 134.122 85.8941 123.842 75.6139C113.561 65.3338 96.894 65.3338 86.6139 75.6139C76.3337 85.8941 76.3337 102.561 86.6139 112.842C96.894 123.122 113.561 123.122 123.842 112.842Z" fill="white" stroke="#17A4CC" stroke-width="3.9"/>
<path d="M87.436 110.702L123.095 75.0433" stroke="#17A4CC" stroke-width="3.9"/>
</g>
<defs>
<clipPath id="clip0_20_68">
<rect width="141.7" height="141.7" fill="white"/>
</clipPath>
</defs>
</svg>
