<?xml version="1.0" encoding="UTF-8"?>
<svg id="Calque_1" xmlns="http://www.w3.org/2000/svg" baseProfile="tiny" version="1.2" viewBox="0 0 141.7 141.7">
  <!-- Generator: Adobe Illustrator 30.2.0, SVG Export Plug-In . SVG Version: 2.1.1 Build 105)  -->
  <path d="M67.4,115.6l-1.6,1v-43.2l20.5-11.7c.5-.2,1-.5,1.4-.8l15.9-9.1v7.2c0,2.5,2,4.5,4.5,4.5s4.5-2,4.5-4.5v-8.9c0-5.4-2.8-10.2-7.5-13l-36.4-20.8c-4.7-2.8-10.3-2.8-14.9,0l-36.3,20.8c-4.7,2.5-7.5,7.5-7.5,13v41.6c0,5.4,2.8,10.2,7.5,13l36.4,20.8c2.3,1.4,4.9,2.1,7.5,2.1,2.6,0,5.1-.7,7.5-2.1,0,0,0,0,.1,0l3.3-2.1c2.1-1.3,2.7-4.1,1.4-6.2-1.3-2.1-4.1-2.7-6.2-1.4ZM37.8,35.8l37.8,21.6-14.3,8.2-37.8-21.7,14.3-8.2ZM58.4,24.1c1.8-1.1,4-1.1,5.9,0l34.8,19.9-14.4,8.3-37.8-21.6,11.5-6.6ZM22,96.9c-1.9-1.1-3-3-3-5.2v-39.9l37.8,21.7v43.3l-34.8-19.9Z" fill="#dadcdd"/>
  <path d="M122.5,117.1c5.1-5.4,8.2-12.6,8.2-20.5,0-16.4-13.4-29.8-29.8-29.8s-29.8,13.4-29.8,29.8,13.4,29.8,29.8,29.8,15.2-3.1,20.5-8.2c.2-.1.4-.3.6-.5.2-.2.3-.4.5-.6ZM123.7,96.6c0,5-1.6,9.7-4.4,13.5l-31.9-31.9c3.8-2.8,8.4-4.4,13.5-4.4,12.6,0,22.8,10.2,22.8,22.8ZM78.1,96.6c0-5,1.6-9.7,4.4-13.5l31.9,31.9c-3.8,2.8-8.4,4.4-13.5,4.4-12.6,0-22.8-10.2-22.8-22.8Z" fill="#dadcdd"/>
</svg>