<?xml version="1.0" encoding="UTF-8"?>
<svg id="Calque_1" xmlns="http://www.w3.org/2000/svg" baseProfile="tiny" version="1.2" viewBox="0 0 141.7 141.7">
  <!-- Generator: Adobe Illustrator 30.2.0, SVG Export Plug-In . SVG Version: 2.1.1 Build 105)  -->
  <path d="M56.9,29.1c4.6-1.5,9.3-2.2,14-2.2,12.2,0,24.3,4.9,33.1,13.5l4.5,4.5h-16.1c-2.5,0-4.5,2-4.5,4.5s2,4.5,4.5,4.5h26.9c.3,0,.6,0,.9,0,.1,0,.3,0,.4-.1.2,0,.3,0,.5-.1.2,0,.3-.2.4-.2.1,0,.2-.1.3-.2.5-.3.9-.8,1.2-1.2,0-.1.1-.2.2-.3,0-.1.2-.3.2-.4,0-.1,0-.3.1-.5,0-.1,0-.3.1-.4,0-.3,0-.6,0-.9v-26.9c0-2.5-2-4.5-4.5-4.5s-4.5,2-4.5,4.5v16.1l-4.5-4.5c-10.5-10.2-24.9-16-39.4-16s-11.3.9-16.8,2.7c-2.4.8-3.7,3.3-2.9,5.7s3.3,3.7,5.7,2.9Z" fill="#dadcdd"/>
  <path d="M119.3,66.4c-2.5,0-4.5,2-4.5,4.5,0,4.7-.8,9.4-2.2,14-.8,2.4.5,4.9,2.9,5.7.5.1.9.2,1.4.2,1.9,0,3.7-1.2,4.3-3.1,1.8-5.5,2.7-11.2,2.7-16.8s-2-4.5-4.5-4.5Z" fill="#dadcdd"/>
  <path d="M127.9,121.5L39.7,33.4s0,0,0,0,0,0,0,0L20.2,13.8c-1.8-1.8-4.6-1.8-6.4,0-1.8,1.8-1.8,4.6,0,6.4l16.5,16.5c-8,9.5-12.4,21.5-12.4,34.2s2,4.5,4.5,4.5,4.5-2,4.5-4.5c0-10.3,3.5-20,9.8-27.8l61.9,61.9c-7.8,6.4-17.5,9.8-27.8,9.8s-24.3-4.9-33.1-13.5l-4.5-4.5h16.1c2.5,0,4.5-2,4.5-4.5s-2-4.5-4.5-4.5h-26.9s0,0,0,0c-.3,0-.6,0-.9,0-.1,0-.2,0-.4.1-.2,0-.3,0-.5.1-.1,0-.3.1-.4.2-.1,0-.2.1-.3.2-.5.3-.9.8-1.2,1.2,0,.1-.1.2-.2.3,0,.1-.2.3-.2.4,0,.2,0,.3-.1.5,0,.1,0,.2-.1.4,0,.3,0,.6,0,.9v26.9c0,2.5,2,4.5,4.5,4.5s4.5-2,4.5-4.5v-16.1l4.5,4.5c10.5,10.2,24.9,16,39.4,16s24.6-4.4,34.2-12.4l16.5,16.5c.9.9,2,1.3,3.2,1.3s2.3-.4,3.2-1.3c1.8-1.8,1.8-4.6,0-6.4Z" fill="#dadcdd"/>
</svg>