<svg version="1.1" id="Calque_1" xmlns="http://www.w3.org/2000/svg" xmlns:xlink="http://www.w3.org/1999/xlink" x="0px" y="0px"
	 viewBox="0 0 141.7 141.7" style="enable-background:new 0 0 141.7 141.7;" xml:space="preserve">
<path d="M97.2 89.6999C91.3 97.8999 81.7 103.3 70.9 103.3C53.1 103.3 38.6 88.8999 38.5 71.0999H42.3H49.1L32.2 54.2999L15.5 71.0999H24.4H24.6H26C26.1 95.7999 46.1 115.7 70.8 115.7C85.1 115.7 97.8 109 106 98.5999L102.3 94.8999L97.2 89.6999Z" fill="#8BB53C" stroke="#24607E" stroke-width="4.412" stroke-miterlimit="10" stroke-linecap="round" stroke-linejoin="round"/>
<path d="M119.3 71.1H115.7C115.7 71 115.7 70.9 115.7 70.9C115.7 46.1 95.6 26.1 70.9 26.1C56.5 26.1 43.7 32.9 35.5 43.5L39.3 47.3L44.4 52.4C50.3 44 60 38.6 70.9 38.6C88.8 38.6 103.3 53.1 103.3 71C103.3 71.1 103.3 71.2 103.3 71.2H99.4H92.8L109.6 88L126.4 71.2L119.3 71.1Z" fill="#8BB53C" stroke="#24607E" stroke-width="4.412" stroke-miterlimit="10" stroke-linecap="round" stroke-linejoin="round"/>
<path d="M87.0692 89.9552L95.0899 96.8285L86.4778 103.947C85.1144 105.074 85.017 107.13 86.2678 108.381L92.8008 114.914C94.0538 116.166 96.114 116.066 97.2394 114.698L104.335 106.067L111.495 114.385C112.633 115.707 114.656 115.783 115.89 114.549L123.911 106.528C125.151 105.288 125.067 103.253 123.73 102.119L115.38 95.0344L123.689 88.2426C125.063 87.1189 125.167 85.054 123.911 83.7986L117.383 77.27C116.13 76.0169 114.069 76.1173 112.944 77.4864L106.13 85.7765L99.3311 77.7242C98.198 76.3822 96.1595 76.2964 94.9176 77.5383L86.9 85.5559C85.6642 86.7917 85.7421 88.818 87.0692 89.9552Z" fill="white" stroke="#17A4CC" stroke-width="4"/>
</svg>
