<?xml version="1.0" encoding="UTF-8"?>
<svg id="Calque_1" xmlns="http://www.w3.org/2000/svg" baseProfile="tiny" version="1.2" viewBox="0 0 141.7 141.7">
  <!-- Generator: Adobe Illustrator 30.2.0, SVG Export Plug-In . SVG Version: 2.1.1 Build 105)  -->
  <path d="M92.4,123.8c-2.5,0-4.5-2-4.5-4.5v-10.8c0-9.4-7.6-17-17-17h-32.3c-9.4,0-17,7.6-17,17v10.8c0,2.5-2,4.5-4.5,4.5s-4.5-2-4.5-4.5v-10.8c0-14.4,11.7-26,26-26h32.3c14.4,0,26,11.7,26,26v10.8c0,2.5-2,4.5-4.5,4.5Z" fill="#dadcdd"/>
  <path d="M92.4,69.2c-2,0-3.9-1.4-4.4-3.4-.6-2.4.9-4.8,3.3-5.4,5.9-1.4,10.5-6.1,12.1-12.2,1.2-4.4.6-9-1.8-13-2.3-3.9-6-6.7-10.4-7.8-2.4-.6-3.9-3.1-3.3-5.5.6-2.4,3.1-3.9,5.5-3.3,6.7,1.7,12.4,6,15.9,12,3.5,6,4.5,13.1,2.7,19.9-2.5,9.3-9.6,16.4-18.7,18.6-.4,0-.7.1-1.1.1Z" fill="#dadcdd"/>
  <path d="M124.7,123.8c-2.5,0-4.5-2-4.5-4.5v-10.8c0-7.7-5.3-14.5-12.8-16.4-2.4-.6-3.9-3.1-3.2-5.5.6-2.4,3.1-3.9,5.5-3.2,11.5,3,19.5,13.3,19.5,25.1v10.8c0,2.5-2,4.5-4.5,4.5Z" fill="#dadcdd"/>
  <path d="M54.7,70c-14.4,0-26-11.7-26-26s11.7-26,26-26,26,11.7,26,26-11.7,26-26,26ZM54.7,26.9c-9.4,0-17,7.6-17,17s7.6,17,17,17,17-7.6,17-17-7.6-17-17-17Z" fill="#dadcdd"/>
</svg>