<?xml version="1.0" encoding="UTF-8"?>
<svg id="Calque_1" xmlns="http://www.w3.org/2000/svg" baseProfile="tiny" version="1.2" viewBox="0 0 141.7 141.7">
  <!-- Generator: Adobe Illustrator 30.2.0, SVG Export Plug-In . SVG Version: 2.1.1 Build 105)  -->
  <path d="M113.2,129.9c-2.5,0-4.5-2-4.5-4.5v-12.1c0-10.9-8.8-19.7-19.7-19.7h-36.3c-10.9,0-19.7,8.8-19.7,19.7v12.1c0,2.5-2,4.5-4.5,4.5s-4.5-2-4.5-4.5v-12.1c0-15.8,12.9-28.7,28.7-28.7h36.3c15.8,0,28.7,12.9,28.7,28.7v12.1c0,2.5-2,4.5-4.5,4.5Z" fill="#dadcdd"/>
  <path d="M70.9,69.3c-15.8,0-28.7-12.9-28.7-28.7s12.9-28.7,28.7-28.7,28.7,12.9,28.7,28.7-12.9,28.7-28.7,28.7ZM70.9,20.9c-10.9,0-19.7,8.8-19.7,19.7s8.8,19.7,19.7,19.7,19.7-8.8,19.7-19.7-8.8-19.7-19.7-19.7Z" fill="#dadcdd"/>
</svg>