<svg version="1.1" id="Calque_1" xmlns="http://www.w3.org/2000/svg" xmlns:xlink="http://www.w3.org/1999/xlink" x="0px" y="0px"
	 viewBox="0 0 141.7 141.7" style="enable-background:new 0 0 141.7 141.7;" xml:space="preserve">
<path d="M54.3704 44.8005L54.3704 44.8005L54.3662 44.7944C54.3123 44.7168 54.2936 44.6827 54.2805 44.6492C54.2672 44.6152 54.2503 44.5568 54.2367 44.4305C54.2074 44.1592 54.2038 43.7012 54.2038 42.764V40.9728L54.4535 40.6243C54.7806 40.1676 55.2188 39.854 55.9039 39.6506C56.0976 39.5943 56.283 39.5491 58.3123 39.5267C60.3178 39.5046 64.072 39.5024 71.3435 39.5024L71.3438 39.5024C78.5752 39.4979 82.3323 39.4979 84.3507 39.519C86.3974 39.5403 86.6019 39.5857 86.7955 39.642C87.496 39.8468 87.9891 40.1889 88.3137 40.6333C88.4706 40.8558 88.4953 40.8955 88.5214 41.0525C88.5595 41.2829 88.5686 41.6681 88.5862 42.561L88.5862 42.5618C88.5975 43.0915 88.5946 43.5512 88.5808 43.9022C88.5739 44.078 88.5644 44.2223 88.5533 44.3323C88.5477 44.3872 88.5421 44.4304 88.5368 44.4626C88.5334 44.483 88.5308 44.4955 88.5293 44.5017C88.411 44.8222 88.123 45.1718 87.7055 45.4619C87.2864 45.7531 86.7801 45.9532 86.2915 46.0015L86.2845 46.0023L85.7354 46.0644L85.2916 46.1146V46.5612V71.5799V71.7082L85.3533 71.8207L97.788 94.4528L97.7881 94.4529C101.208 100.676 104.357 106.429 106.676 110.684C107.835 112.811 108.787 114.563 109.462 115.813C109.8 116.437 110.067 116.935 110.257 117.292C110.352 117.47 110.427 117.611 110.481 117.715C110.508 117.767 110.53 117.809 110.545 117.84L110.564 117.877C110.568 117.885 110.57 117.889 110.57 117.89C111.544 120.117 111.463 122.526 110.413 124.319L110.411 124.321C109.32 126.202 107.167 127.668 104.242 128.435C104.077 128.479 103.944 128.516 103.826 128.55C103.533 128.633 103.332 128.69 102.953 128.74C102.411 128.811 101.533 128.859 99.6734 128.89C96.4822 128.945 90.4709 128.951 78.4623 128.962C76.5113 128.964 74.402 128.966 72.1208 128.969C61.6252 128.978 54.1102 128.978 49.1206 128.967C44.1094 128.956 41.6798 128.933 41.3139 128.9L41.3126 128.9C37.1339 128.535 33.9391 126.884 32.4513 124.477L32.45 124.475C31.2921 122.622 31.179 120.201 32.1855 117.89C32.1862 117.889 32.1881 117.885 32.1916 117.877L32.2103 117.84C32.2261 117.809 32.2474 117.767 32.2745 117.715C32.3286 117.611 32.4035 117.47 32.4984 117.292C32.6882 116.935 32.956 116.437 33.2935 115.813C33.9684 114.563 34.9204 112.811 36.0799 110.684C38.3989 106.429 41.5474 100.676 44.9675 94.4529L44.9676 94.4528L57.4023 71.8207L57.4641 71.7082V71.5799V46.5346V46.0346H56.9641H56.5866C56.4356 46.0346 56.0846 45.9489 55.6808 45.7907C55.2804 45.6338 54.9623 45.4582 54.8446 45.3517C54.7057 45.2204 54.4822 44.9667 54.3704 44.8005ZM92.4072 95.6572L92.4071 95.657L79.7708 72.6577L79.7139 46.5778L79.7128 46.0806L79.2156 46.0789L71.4253 46.0523L71.4246 46.0523C69.2846 46.0479 67.3272 46.0501 65.8999 46.0579C65.1865 46.0618 64.6042 46.067 64.1974 46.0736C63.9945 46.0769 63.8325 46.0805 63.7189 46.0845C63.663 46.0865 63.6138 46.0888 63.5757 46.0915C63.5579 46.0928 63.5341 46.0948 63.5103 46.098C63.4996 46.0995 63.4771 46.1028 63.4505 46.1092C63.4377 46.1124 63.4124 46.1189 63.3822 46.1309L63.3811 46.1313C63.3709 46.1353 63.3413 46.1471 63.304 46.17C63.2979 46.1737 63.292 46.1775 63.2863 46.1813C63.2034 46.2369 63.1586 46.3029 63.1411 46.3308C63.1175 46.3681 63.1039 46.4008 63.097 46.4186C63.0833 46.4543 63.0765 46.4842 63.0739 46.4962C63.0679 46.5237 63.065 46.5476 63.0637 46.5589C63.0607 46.5852 63.0586 46.6141 63.0571 46.6398C63.0539 46.6939 63.051 46.7682 63.0483 46.8585C63.0429 47.0406 63.0377 47.3048 63.0329 47.6404C63.0232 48.3125 63.0146 49.2798 63.0075 50.4696C62.9932 52.8497 62.9846 56.1244 62.9846 59.7182V72.6493L50.3485 95.657L50.3484 95.6573C46.8592 102.019 43.6559 107.872 41.3077 112.18C40.1336 114.334 39.173 116.102 38.4973 117.354C38.1594 117.979 37.8924 118.477 37.7052 118.83C37.6117 119.006 37.5375 119.147 37.4842 119.251C37.4395 119.338 37.3939 119.427 37.3725 119.481C37.1879 119.946 37.0924 120.472 37.0828 120.972C37.0733 121.467 37.1473 121.973 37.3347 122.388C37.6017 122.996 38.1292 123.504 38.7711 123.889C39.4193 124.278 40.2177 124.563 41.0827 124.71L41.085 124.71C41.1584 124.722 41.286 124.728 41.4169 124.733C41.5644 124.739 41.7632 124.744 42.0085 124.749C42.4996 124.76 43.1851 124.769 44.036 124.778C45.7384 124.795 48.1088 124.81 50.9237 124.822C56.554 124.845 63.9661 124.857 71.3778 124.857C78.7896 124.857 86.2017 124.845 91.8319 124.822C94.6469 124.81 97.0172 124.795 98.7196 124.778C99.5706 124.769 100.256 124.76 100.747 124.749C100.992 124.744 101.191 124.739 101.339 124.733C101.47 124.728 101.597 124.722 101.671 124.71L101.672 124.71C102.543 124.564 103.344 124.278 103.993 123.889C104.635 123.504 105.162 122.995 105.423 122.384C105.606 121.968 105.671 121.443 105.657 120.938C105.643 120.426 105.545 119.884 105.359 119.424C105.337 119.37 105.292 119.283 105.251 119.202C105.198 119.1 105.124 118.961 105.032 118.786C104.846 118.436 104.58 117.942 104.244 117.319C103.571 116.072 102.613 114.309 101.441 112.16C99.0968 107.861 95.8964 102.014 92.4072 95.6572Z" fill="#8BB53C" stroke="#24607E"/>
<path d="M70.4 15C70.4 16.0493 69.5493 16.9 68.5 16.9C67.4507 16.9 66.6 16.0493 66.6 15C66.6 13.9507 67.4507 13.1 68.5 13.1C69.5493 13.1 70.4 13.9507 70.4 15Z" fill="white" stroke="#8BB53C" stroke-width="1.2"/>
<path d="M80.15 23.5C80.15 26.6204 77.6204 29.15 74.5 29.15C71.3796 29.15 68.85 26.6204 68.85 23.5C68.85 20.3796 71.3796 17.85 74.5 17.85C77.6204 17.85 80.15 20.3796 80.15 23.5Z" fill="white" stroke="#8BB53C" stroke-width="1.7"/>
<path d="M70.75 33.5C70.75 35.0188 69.5188 36.25 68 36.25C66.4812 36.25 65.25 35.0188 65.25 33.5C65.25 31.9812 66.4812 30.75 68 30.75C69.5188 30.75 70.75 31.9812 70.75 33.5Z" fill="white" stroke="#8BB53C" stroke-width="1.5"/>
<path d="M48.6972 105.138C44.074 113.458 40.2059 120.498 40.1129 120.773C39.8806 121.52 39.9736 121.698 40.7054 121.867C41.2397 121.982 44.6316 122 71 122C97.3684 122 100.76 121.982 101.295 121.867C102.026 121.698 102.119 121.52 101.887 120.773C101.794 120.498 97.926 113.458 93.3028 105.138L84.8812 90H71H57.1188L48.6972 105.138ZM72.7889 97.9289C75.0308 98.4889 76.5757 100.142 76.5757 101.956C76.5757 104.524 73.5439 106.524 70.2217 106.169C68.0379 105.938 66.1561 104.658 65.5985 103.022C64.9364 101.067 66.2026 98.9956 68.5839 98.1333C69.9662 97.6267 71.3485 97.5644 72.7889 97.9289ZM60.1158 106.96C61.0683 107.324 61.9395 108.027 62.2996 108.738C62.5087 109.129 62.5668 109.431 62.5784 110.044C62.5784 110.764 62.5435 110.907 62.2067 111.44C60.8708 113.609 57.235 114.116 55.0396 112.436C53.2855 111.093 53.2739 108.978 55.0279 107.644C55.5971 107.2 56.387 106.844 57.1072 106.702C57.3047 106.667 57.8971 106.64 58.4198 106.658C59.2097 106.676 59.4885 106.729 60.1158 106.96ZM74.1015 110.782C75.2515 111.236 75.9252 112.08 75.9252 113.067C75.9136 114.124 75.3096 114.871 74.0783 115.342C73.3813 115.6 73.2535 115.618 72.4288 115.582C71.0929 115.52 70.2217 115.102 69.6293 114.231C69.2111 113.618 69.1879 112.551 69.5712 111.991C69.9894 111.396 70.3844 111.093 71.151 110.8C71.8131 110.542 71.9409 110.524 72.7424 110.56C73.3348 110.578 73.7762 110.658 74.1015 110.782Z" fill="white"/>
</svg>
