<svg version="1.1" id="Calque_1" xmlns="http://www.w3.org/2000/svg" xmlns:xlink="http://www.w3.org/1999/xlink" x="0px" y="0px"
	 viewBox="0 0 141.7 141.7" style="enable-background:new 0 0 141.7 141.7;" xml:space="preserve">
<path d="M91.9131 113H50.0869C48.3898 113 47 111.47 47 109.566V31.4339C47 29.546 48.3752 28 50.0869 28C66.421 28 75.579 28 91.9131 28C93.6102 28 95 29.5298 95 31.4339V109.582C94.9854 111.47 93.6102 113 91.9131 113Z" fill="#8CB63C" stroke="#25607E" stroke-width="4" stroke-miterlimit="10" stroke-linecap="round" stroke-linejoin="round"/>
<path d="M95 42V99H47V42H95Z" fill="white" stroke="#25607E" stroke-width="4"/>
<path d="M66.4301 35H74.3801" stroke="#25607E" stroke-width="3.9851" stroke-miterlimit="10" stroke-linecap="round" stroke-linejoin="round"/>
<path d="M74 106C74 107.654 72.6541 109 71 109C69.3459 109 68 107.654 68 106C68 104.346 69.3459 103 71 103C72.6541 103 74 104.346 74 106Z" fill="#8CB63C" stroke="#25607E" stroke-width="2" stroke-miterlimit="10" stroke-linecap="round" stroke-linejoin="round"/>
</svg>
