<?xml version="1.0" encoding="UTF-8"?>
<svg id="Calque_1" xmlns="http://www.w3.org/2000/svg" baseProfile="tiny" version="1.2" viewBox="0 0 141.7 141.7">
  <!-- Generator: Adobe Illustrator 30.2.1, SVG Export Plug-In . SVG Version: 2.1.1 Build 1)  -->
  <path d="M120,36.7c.6-1.1,2-3.7.4-6.5-1.9-3.1-6-3.4-10.8-3.4-9.5,0-22.5-5.7-32.3-14.2-4.1-3.5-10.3-3.5-14.4,0-9.8,8.5-22.7,14.2-32.2,14.2s-10.1,4.5-10.1,10.1v39.5c0,26.1,15.1,44,46.2,54.7,1.1.4,2.2.6,3.4.6s2.3-.2,3.4-.6c31.1-10.9,46.3-28.8,46.3-54.8s0-.6,0-.9v-38.2c0-.2.2-.4.3-.6ZM110.8,77.3c-.4,21.5-13.2,35.9-40.2,45.4-.3,0-.6.1-.9,0-27.4-9.5-40.2-24.1-40.2-46.2v-39.5c0-.6.5-1.1,1.1-1.1,11.7,0,26.7-6.5,38.1-16.4.4-.3.9-.5,1.3-.5s1,.2,1.3.5c11.4,10,26.4,16.4,38.2,16.4s.8,0,1.2,0c0,.4,0,.7,0,1.1v39.5c0,.3,0,.6,0,.8Z" fill="#dadcdd"/>
  <path d="M70.1,75.2c2.5,0,4.5-2,4.5-4.5v-22.5c0-2.5-2-4.5-4.5-4.5s-4.5,2-4.5,4.5v22.5c0,2.5,2,4.5,4.5,4.5Z" fill="#dadcdd"/>
  <path d="M74.3,91.6c-.1-.3-.2-.5-.4-.8-.2-.2-.3-.5-.6-.7s-.4-.4-.7-.6c-.2-.2-.5-.3-.8-.4-.3-.1-.6-.2-.8-.3-1.5-.3-3,.2-4.1,1.2s-.4.4-.6.7c-.2.2-.3.5-.4.8-.1.3-.2.6-.2.8,0,.3,0,.6,0,.9,0,1.2.5,2.4,1.3,3.2s2,1.3,3.2,1.3.6,0,.9,0c.3,0,.6-.1.8-.3s.5-.2.8-.4c.2-.2.5-.4.7-.6.8-.8,1.3-2,1.3-3.2s0-.6,0-.9c0-.3-.1-.6-.3-.8Z" fill="#dadcdd"/>
</svg>