<?xml version="1.0" encoding="utf-8"?>
<!-- Generator: Adobe Illustrator 26.5.0, SVG Export Plug-In . SVG Version: 6.00 Build 0)  -->
<svg version="1.1" id="Calque_1" xmlns="http://www.w3.org/2000/svg" xmlns:xlink="http://www.w3.org/1999/xlink" x="0px" y="0px"
	 viewBox="0 0 566.93 184.99" style="enable-background:new 0 0 566.93 184.99;" xml:space="preserve">
<style type="text/css">
	.st0{fill:url(#SVGID_1_);}
	.st1{fill:url(#SVGID_00000158024071687999467320000001000996586147966645_);}
	.st2{fill:url(#SVGID_00000067226029587233799980000005081212386608069042_);}
	.st3{fill:url(#SVGID_00000124870277449141958540000006310083072431105446_);}
	.st4{fill:url(#SVGID_00000088843836970390242580000009773401212894370440_);}
	.st5{fill:url(#SVGID_00000088814073014963671440000005063537270969358525_);}
	.st6{fill:url(#SVGID_00000134970457246260273880000014222340419558270379_);}
	.st7{fill:url(#SVGID_00000054968050531331967750000002532928569638562195_);}
	.st8{fill:url(#SVGID_00000150813634754349120410000012242881387789338523_);}
	.st9{fill:url(#SVGID_00000059306802595901888620000010017297098382585275_);}
	.st10{fill:url(#SVGID_00000048485211661958910420000006192697416433328794_);}
	.st11{fill:url(#SVGID_00000158024647466753307900000016175524004247369910_);}
	.st12{fill:url(#SVGID_00000080181409159055500560000002446837083243412870_);}
	.st13{fill:url(#SVGID_00000116958353306510750720000008856568209881661620_);}
	.st14{fill:url(#SVGID_00000172409883037569830400000003009356500623637407_);}
	.st15{fill:url(#SVGID_00000181066759718867905620000007375325337302526887_);}
	.st16{fill:url(#SVGID_00000027578948921236584480000007926089924852507799_);}
	.st17{fill:url(#SVGID_00000055685005686370067450000013409759147993599671_);}
	.st18{fill:url(#SVGID_00000029039269758243438530000008146847336147243430_);}
	.st19{fill:url(#SVGID_00000005267278220174354700000008128165417259401867_);}
	.st20{fill:url(#SVGID_00000022530270219369576960000018104280591848592772_);}
	.st21{fill:url(#SVGID_00000052811624806966962990000014172205550652070589_);}
	.st22{fill:url(#SVGID_00000045592306711945421930000003324027639084039842_);}
	.st23{fill:url(#SVGID_00000126304978328613518070000006268498882232459139_);}
	.st24{fill:url(#SVGID_00000028322190226150253840000016135539068360263558_);}
	.st25{fill:url(#SVGID_00000034065197200800037730000012194055225634949264_);}
	.st26{fill:url(#SVGID_00000160190497319489089370000017995752624460489888_);}
	.st27{fill:url(#SVGID_00000129890659435119412450000015898882100737069483_);}
	.st28{fill:url(#SVGID_00000132081004420336468730000013778359976872628902_);}
	.st29{fill:url(#SVGID_00000168835964826453647270000007720310495397213630_);}
	.st30{fill:url(#SVGID_00000008112429096608894380000011700413777821081497_);}
	.st31{fill:url(#SVGID_00000160898270998906087690000012243559642408471436_);}
	.st32{fill:url(#SVGID_00000115512149089066526330000005117480810932341143_);}
	.st33{fill:url(#SVGID_00000137842811160929445830000007950490268056323201_);}
	.st34{fill:url(#SVGID_00000031164918742085000700000006740643219369878199_);}
	.st35{fill:url(#SVGID_00000059308811953572246050000013757373509552972162_);}
	.st36{fill:#25607D;}
	.st37{fill:#8DBA38;}
</style>
<g>
	<g>
		<g>
			<linearGradient id="SVGID_1_" gradientUnits="userSpaceOnUse" x1="48.3016" y1="82.198" x2="135.0865" y2="117.933">
				<stop  offset="0" style="stop-color:#587641"/>
				<stop  offset="0.4064" style="stop-color:#8DBA38"/>
				<stop  offset="1" style="stop-color:#17A4CC"/>
			</linearGradient>
			<circle class="st0" cx="54.71" cy="84.84" r="3.18"/>
			
				<linearGradient id="SVGID_00000181795368254391902400000004198353380878631834_" gradientUnits="userSpaceOnUse" x1="47.9568" y1="67.8657" x2="134.6629" y2="103.5682" gradientTransform="matrix(0.9518 0.0232 0.0232 0.9888 9.3658 -4.5135)">
				<stop  offset="0" style="stop-color:#587641"/>
				<stop  offset="0.4064" style="stop-color:#8DBA38"/>
				<stop  offset="1" style="stop-color:#17A4CC"/>
			</linearGradient>
			<path style="fill:url(#SVGID_00000181795368254391902400000004198353380878631834_);" d="M93.99,63.62L60.92,79.56
				c-1.01,0.48-1.43,1.69-0.94,2.7L60,82.32c0.48,1.01,1.69,1.43,2.7,0.94l33.07-15.94c1.01-0.48,1.43-1.69,0.94-2.7l-0.03-0.06
				C96.2,63.56,95,63.14,93.99,63.62z"/>
			
				<linearGradient id="SVGID_00000179611949233168210430000006318511963990204056_" gradientUnits="userSpaceOnUse" x1="64.6096" y1="42.5929" x2="151.3944" y2="78.3278">
				<stop  offset="0" style="stop-color:#587641"/>
				<stop  offset="0.4064" style="stop-color:#8DBA38"/>
				<stop  offset="1" style="stop-color:#17A4CC"/>
			</linearGradient>
			<path style="fill:url(#SVGID_00000179611949233168210430000006318511963990204056_);" d="M111.2,55.33l-11.11,5.35
				c-1.02,0.49-1.45,1.72-0.96,2.74v0c0.49,1.02,1.72,1.45,2.74,0.96l11.11-5.35c1.02-0.49,1.45-1.72,0.96-2.74l0,0
				C113.45,55.27,112.22,54.84,111.2,55.33z"/>
		</g>
		<g>
			
				<linearGradient id="SVGID_00000007391265928638052730000014177586352936968354_" gradientUnits="userSpaceOnUse" x1="58.9416" y1="56.3581" x2="145.7265" y2="92.093">
				<stop  offset="0" style="stop-color:#587641"/>
				<stop  offset="0.4064" style="stop-color:#8DBA38"/>
				<stop  offset="1" style="stop-color:#17A4CC"/>
			</linearGradient>
			<circle style="fill:url(#SVGID_00000007391265928638052730000014177586352936968354_);" cx="79.11" cy="64.66" r="3.18"/>
			
				<linearGradient id="SVGID_00000025405540799488036450000018002215630859141274_" gradientUnits="userSpaceOnUse" x1="45.4479" y1="69.8011" x2="131.6694" y2="105.3041" gradientTransform="matrix(0.9344 0.0316 0.0316 0.9848 10.9055 -5.2555)">
				<stop  offset="0" style="stop-color:#587641"/>
				<stop  offset="0.4064" style="stop-color:#8DBA38"/>
				<stop  offset="1" style="stop-color:#17A4CC"/>
			</linearGradient>
			<path style="fill:url(#SVGID_00000025405540799488036450000018002215630859141274_);" d="M63.61,74.41l9.22-4.44
				c1.02-0.49,1.45-1.72,0.96-2.74v0c-0.49-1.02-1.72-1.45-2.74-0.96l-9.22,4.44c-1.02,0.49-1.45,1.72-0.96,2.74l0,0
				C61.36,74.48,62.59,74.91,63.61,74.41z"/>
			
				<linearGradient id="SVGID_00000034800769675105128590000016993730397231482791_" gradientUnits="userSpaceOnUse" x1="52.8214" y1="52.456" x2="139.1559" y2="88.0055" gradientTransform="matrix(0.9472 0.0255 0.0255 0.9877 12.9419 -6.2369)">
				<stop  offset="0" style="stop-color:#587641"/>
				<stop  offset="0.4064" style="stop-color:#8DBA38"/>
				<stop  offset="1" style="stop-color:#17A4CC"/>
			</linearGradient>
			<path style="fill:url(#SVGID_00000034800769675105128590000016993730397231482791_);" d="M87.14,63.07l9.44-4.55
				c1.02-0.49,1.45-1.72,0.96-2.74v0c-0.49-1.02-1.72-1.45-2.74-0.96l-9.44,4.55c-1.02,0.49-1.45,1.72-0.96,2.74l0,0
				C84.89,63.14,86.11,63.57,87.14,63.07z"/>
		</g>
		<g>
			<g>
				
					<linearGradient id="SVGID_00000173862733263044341160000010699296217010394777_" gradientUnits="userSpaceOnUse" x1="59.9103" y1="54.0055" x2="146.6952" y2="89.7405">
					<stop  offset="0" style="stop-color:#587641"/>
					<stop  offset="0.4064" style="stop-color:#8DBA38"/>
					<stop  offset="1" style="stop-color:#17A4CC"/>
				</linearGradient>
				<circle style="fill:url(#SVGID_00000173862733263044341160000010699296217010394777_);" cx="101.02" cy="70.93" r="3.18"/>
				
					<linearGradient id="SVGID_00000129897223234250494880000005644992635468850104_" gradientUnits="userSpaceOnUse" x1="51.4937" y1="74.4458" x2="138.2786" y2="110.1807">
					<stop  offset="0" style="stop-color:#587641"/>
					<stop  offset="0.4064" style="stop-color:#8DBA38"/>
					<stop  offset="1" style="stop-color:#17A4CC"/>
				</linearGradient>
				<circle style="fill:url(#SVGID_00000129897223234250494880000005644992635468850104_);" cx="74.27" cy="83.82" r="3.18"/>
				
					<linearGradient id="SVGID_00000176761451885846961280000006391961517424613002_" gradientUnits="userSpaceOnUse" x1="35.0702" y1="74.5357" x2="121.0931" y2="109.9569" gradientTransform="matrix(0.8879 0.054 0.054 0.974 23.7657 -11.4531)">
					<stop  offset="0" style="stop-color:#587641"/>
					<stop  offset="0.4064" style="stop-color:#8DBA38"/>
					<stop  offset="1" style="stop-color:#17A4CC"/>
				</linearGradient>
				<path style="fill:url(#SVGID_00000176761451885846961280000006391961517424613002_);" d="M82.29,82.24l12.47-6.01
					c1.02-0.49,1.45-1.72,0.96-2.74v0c-0.49-1.02-1.72-1.45-2.74-0.96L80.5,78.54c-1.02,0.49-1.45,1.72-0.96,2.74v0
					C80.04,82.31,81.26,82.74,82.29,82.24z"/>
			</g>
			
				<linearGradient id="SVGID_00000016032910329800317220000006635181663525654701_" gradientUnits="userSpaceOnUse" x1="41.4275" y1="88.8042" x2="127.9889" y2="124.4472" gradientTransform="matrix(0.9594 0.0196 0.0196 0.9906 5.002 -2.4105)">
				<stop  offset="0" style="stop-color:#587641"/>
				<stop  offset="0.4064" style="stop-color:#8DBA38"/>
				<stop  offset="1" style="stop-color:#17A4CC"/>
			</linearGradient>
			<path style="fill:url(#SVGID_00000016032910329800317220000006635181663525654701_);" d="M66.22,85.42l-17.78,8.57
				c-1.02,0.49-1.45,1.72-0.96,2.74v0c0.49,1.02,1.72,1.45,2.74,0.96l17.78-8.57c1.02-0.49,1.45-1.72,0.96-2.74l0,0
				C68.48,85.36,67.25,84.93,66.22,85.42z"/>
			
				<linearGradient id="SVGID_00000015344908389633720850000011997273744677860768_" gradientUnits="userSpaceOnUse" x1="49.8936" y1="51.4754" x2="136.186" y2="87.0076" gradientTransform="matrix(0.9318 0.0329 0.0329 0.9842 19.3335 -9.3171)">
				<stop  offset="0" style="stop-color:#587641"/>
				<stop  offset="0.4064" style="stop-color:#8DBA38"/>
				<stop  offset="1" style="stop-color:#17A4CC"/>
			</linearGradient>
			<path style="fill:url(#SVGID_00000015344908389633720850000011997273744677860768_);" d="M119.24,59.87l-11.95,5.76
				c-1.02,0.49-1.45,1.72-0.96,2.74l0,0c0.49,1.02,1.72,1.45,2.74,0.96l11.95-5.76c1.02-0.49,1.45-1.72,0.96-2.74v0
				C121.5,59.8,120.27,59.38,119.24,59.87z"/>
		</g>
		<g>
			<g>
				
					<linearGradient id="SVGID_00000116198938551851202040000006862838712706536627_" gradientUnits="userSpaceOnUse" x1="52.8687" y1="71.1066" x2="139.6536" y2="106.8415">
					<stop  offset="0" style="stop-color:#587641"/>
					<stop  offset="0.4064" style="stop-color:#8DBA38"/>
					<stop  offset="1" style="stop-color:#17A4CC"/>
				</linearGradient>
				<circle style="fill:url(#SVGID_00000116198938551851202040000006862838712706536627_);" cx="88.06" cy="85.6" r="3.18"/>
				
					<linearGradient id="SVGID_00000157289302236529046270000013137818969760353153_" gradientUnits="userSpaceOnUse" x1="65.5779" y1="40.2412" x2="152.3628" y2="75.9762">
					<stop  offset="0" style="stop-color:#587641"/>
					<stop  offset="0.4064" style="stop-color:#8DBA38"/>
					<stop  offset="1" style="stop-color:#17A4CC"/>
				</linearGradient>
				<circle style="fill:url(#SVGID_00000157289302236529046270000013137818969760353153_);" cx="128.45" cy="66.13" r="3.18"/>
				
					<linearGradient id="SVGID_00000177461310898522464860000018073098839363718057_" gradientUnits="userSpaceOnUse" x1="45.088" y1="62.559" x2="131.7249" y2="98.233" gradientTransform="matrix(0.9261 0.0356 0.0356 0.9828 18.2051 -8.7733)">
					<stop  offset="0" style="stop-color:#587641"/>
					<stop  offset="0.4064" style="stop-color:#8DBA38"/>
					<stop  offset="1" style="stop-color:#17A4CC"/>
				</linearGradient>
				<path style="fill:url(#SVGID_00000177461310898522464860000018073098839363718057_);" d="M120.44,67.71L94.25,80.33
					c-1,0.48-1.42,1.68-0.94,2.68l0.04,0.09c0.48,1,1.68,1.42,2.68,0.94l26.19-12.62c1-0.48,1.42-1.68,0.94-2.68l-0.04-0.09
					C122.64,67.64,121.44,67.23,120.44,67.71z"/>
				
					<linearGradient id="SVGID_00000139994059066849963940000016897835957562081979_" gradientUnits="userSpaceOnUse" x1="26.6836" y1="92.3301" x2="112.6171" y2="127.7145" gradientTransform="matrix(0.8717 0.0618 0.0618 0.9702 22.6801 -10.9299)">
					<stop  offset="0" style="stop-color:#587641"/>
					<stop  offset="0.4064" style="stop-color:#8DBA38"/>
					<stop  offset="1" style="stop-color:#17A4CC"/>
				</linearGradient>
				<path style="fill:url(#SVGID_00000139994059066849963940000016897835957562081979_);" d="M80.02,87.18l-12.67,6.11
					c-1.02,0.49-1.45,1.72-0.96,2.74l0,0c0.49,1.02,1.72,1.45,2.74,0.96l12.67-6.11c1.02-0.49,1.45-1.72,0.96-2.74l0,0
					C82.28,87.12,81.05,86.69,80.02,87.18z"/>
				
					<linearGradient id="SVGID_00000045613422875193298370000011520482901479173254_" gradientUnits="userSpaceOnUse" x1="42.6684" y1="95.8788" x2="129.4532" y2="131.6137">
					<stop  offset="0" style="stop-color:#587641"/>
					<stop  offset="0.4064" style="stop-color:#8DBA38"/>
					<stop  offset="1" style="stop-color:#17A4CC"/>
				</linearGradient>
				<path style="fill:url(#SVGID_00000045613422875193298370000011520482901479173254_);" d="M61.2,96.26l-12.91,6.22
					c-1.02,0.49-1.45,1.72-0.96,2.74v0c0.49,1.02,1.72,1.45,2.74,0.96l12.91-6.22c1.02-0.49,1.45-1.72,0.96-2.74v0
					C63.45,96.19,62.22,95.76,61.2,96.26z"/>
			</g>
		</g>
		<g>
			<g>
				
					<linearGradient id="SVGID_00000057828306478891216300000013717423514102943417_" gradientUnits="userSpaceOnUse" x1="56.1281" y1="63.1909" x2="142.913" y2="98.9258">
					<stop  offset="0" style="stop-color:#587641"/>
					<stop  offset="0.4064" style="stop-color:#8DBA38"/>
					<stop  offset="1" style="stop-color:#17A4CC"/>
				</linearGradient>
				<circle style="fill:url(#SVGID_00000057828306478891216300000013717423514102943417_);" cx="107.83" cy="84.48" r="3.18"/>
				
					<linearGradient id="SVGID_00000134226053643729447990000010658842532706329757_" gradientUnits="userSpaceOnUse" x1="47.7115" y1="83.6311" x2="134.4964" y2="119.3661">
					<stop  offset="0" style="stop-color:#587641"/>
					<stop  offset="0.4064" style="stop-color:#8DBA38"/>
					<stop  offset="1" style="stop-color:#17A4CC"/>
				</linearGradient>
				<circle style="fill:url(#SVGID_00000134226053643729447990000010658842532706329757_);" cx="81.08" cy="97.37" r="3.18"/>
				
					<linearGradient id="SVGID_00000087399959852259468090000006468845871076028348_" gradientUnits="userSpaceOnUse" x1="31.1725" y1="83.8624" x2="117.1896" y2="119.2812" gradientTransform="matrix(0.8871 0.0544 0.0544 0.9738 24.013 -11.5723)">
					<stop  offset="0" style="stop-color:#587641"/>
					<stop  offset="0.4064" style="stop-color:#8DBA38"/>
					<stop  offset="1" style="stop-color:#17A4CC"/>
				</linearGradient>
				<path style="fill:url(#SVGID_00000087399959852259468090000006468845871076028348_);" d="M89.12,95.78l12.45-6
					c1.02-0.49,1.45-1.72,0.96-2.74v0c-0.49-1.02-1.72-1.45-2.74-0.96l-12.45,6c-1.02,0.49-1.45,1.72-0.96,2.74l0,0
					C86.87,95.84,88.1,96.27,89.12,95.78z"/>
			</g>
			
				<linearGradient id="SVGID_00000052062562078632115970000013887293903788607905_" gradientUnits="userSpaceOnUse" x1="38.0084" y1="99.0893" x2="124.6335" y2="134.7584" gradientTransform="matrix(0.966 0.0164 0.0164 0.9921 3.9104 -1.8845)">
				<stop  offset="0" style="stop-color:#587641"/>
				<stop  offset="0.4064" style="stop-color:#8DBA38"/>
				<stop  offset="1" style="stop-color:#17A4CC"/>
			</linearGradient>
			<path style="fill:url(#SVGID_00000052062562078632115970000013887293903788607905_);" d="M73.04,98.96l-21.92,10.57
				c-1.02,0.49-1.45,1.72-0.96,2.74l0,0c0.49,1.02,1.72,1.45,2.74,0.96l21.92-10.57c1.02-0.49,1.45-1.72,0.96-2.74l0,0
				C75.3,98.9,74.07,98.47,73.04,98.96z"/>
			
				<linearGradient id="SVGID_00000052067856048708088530000015098752289734001087_" gradientUnits="userSpaceOnUse" x1="52.0377" y1="54.7833" x2="138.6072" y2="90.4295" gradientTransform="matrix(0.9544 0.022 0.022 0.9894 13.8859 -6.6918)">
				<stop  offset="0" style="stop-color:#587641"/>
				<stop  offset="0.4064" style="stop-color:#8DBA38"/>
				<stop  offset="1" style="stop-color:#17A4CC"/>
			</linearGradient>
			<path style="fill:url(#SVGID_00000052067856048708088530000015098752289734001087_);" d="M135.64,68.8l-21.54,10.38
				c-1.02,0.49-1.45,1.72-0.96,2.74v0c0.49,1.02,1.72,1.45,2.74,0.96l21.54-10.38c1.02-0.49,1.45-1.72,0.96-2.74l0,0
				C137.89,68.74,136.66,68.31,135.64,68.8z"/>
		</g>
		<g>
			<g>
				
					<linearGradient id="SVGID_00000136379071213955899240000006053522738446196876_" gradientUnits="userSpaceOnUse" x1="59.5546" y1="54.8693" x2="146.3395" y2="90.6042">
					<stop  offset="0" style="stop-color:#587641"/>
					<stop  offset="0.4064" style="stop-color:#8DBA38"/>
					<stop  offset="1" style="stop-color:#17A4CC"/>
				</linearGradient>
				<circle style="fill:url(#SVGID_00000136379071213955899240000006053522738446196876_);" cx="128.14" cy="83.11" r="3.18"/>
				
					<linearGradient id="SVGID_00000165919192706059353210000005650650166272456381_" gradientUnits="userSpaceOnUse" x1="51.1381" y1="75.3095" x2="137.923" y2="111.0445">
					<stop  offset="0" style="stop-color:#587641"/>
					<stop  offset="0.4064" style="stop-color:#8DBA38"/>
					<stop  offset="1" style="stop-color:#17A4CC"/>
				</linearGradient>
				<circle style="fill:url(#SVGID_00000165919192706059353210000005650650166272456381_);" cx="101.39" cy="96" r="3.18"/>
				
					<linearGradient id="SVGID_00000087375332145947904440000016835685191455719582_" gradientUnits="userSpaceOnUse" x1="32.3115" y1="76.784" x2="118.3166" y2="112.1979" gradientTransform="matrix(0.8854 0.0552 0.0552 0.9734 28.5591 -13.7631)">
					<stop  offset="0" style="stop-color:#587641"/>
					<stop  offset="0.4064" style="stop-color:#8DBA38"/>
					<stop  offset="1" style="stop-color:#17A4CC"/>
				</linearGradient>
				<path style="fill:url(#SVGID_00000087375332145947904440000016835685191455719582_);" d="M109.45,94.4l12.41-5.98
					c1.02-0.49,1.45-1.72,0.96-2.74v0c-0.49-1.02-1.72-1.45-2.74-0.96l-12.41,5.98c-1.02,0.49-1.45,1.72-0.96,2.74l0,0
					C107.2,94.46,108.43,94.89,109.45,94.4z"/>
				
					<linearGradient id="SVGID_00000022549181502196952710000004795161051676387772_" gradientUnits="userSpaceOnUse" x1="36.4209" y1="61.8818" x2="121.7362" y2="97.0116" gradientTransform="matrix(0.8837 0.0561 0.0561 0.973 35.358 -17.0396)">
					<stop  offset="0" style="stop-color:#587641"/>
					<stop  offset="0.4064" style="stop-color:#8DBA38"/>
					<stop  offset="1" style="stop-color:#17A4CC"/>
				</linearGradient>
				<path style="fill:url(#SVGID_00000022549181502196952710000004795161051676387772_);" d="M136.17,81.52l4.24-2.04
					c1.02-0.49,1.45-1.72,0.96-2.74v0c-0.49-1.02-1.72-1.45-2.74-0.96l-4.24,2.04c-1.02,0.49-1.45,1.72-0.96,2.74v0
					C133.92,81.58,135.15,82.01,136.17,81.52z"/>
			</g>
			
				<linearGradient id="SVGID_00000077308447275041947090000005406187077860499592_" gradientUnits="userSpaceOnUse" x1="40.617" y1="95.1436" x2="127.326" y2="130.8473" gradientTransform="matrix(0.9764 0.0114 0.0114 0.9945 2.9161 -1.4053)">
				<stop  offset="0" style="stop-color:#587641"/>
				<stop  offset="0.4064" style="stop-color:#8DBA38"/>
				<stop  offset="1" style="stop-color:#17A4CC"/>
			</linearGradient>
			<path style="fill:url(#SVGID_00000077308447275041947090000005406187077860499592_);" d="M93.32,97.61L58.4,114.44
				c-1.02,0.49-1.45,1.72-0.96,2.74l0,0c0.49,1.02,1.72,1.45,2.74,0.96l34.92-16.83c1.02-0.49,1.45-1.72,0.96-2.74v0
				C95.57,97.55,94.34,97.12,93.32,97.61z"/>
		</g>
		<g>
			<g>
				
					<linearGradient id="SVGID_00000090255445893007529780000002211318948118731964_" gradientUnits="userSpaceOnUse" x1="52.2253" y1="72.6691" x2="139.0102" y2="108.404">
					<stop  offset="0" style="stop-color:#587641"/>
					<stop  offset="0.4064" style="stop-color:#8DBA38"/>
					<stop  offset="1" style="stop-color:#17A4CC"/>
				</linearGradient>
				<circle style="fill:url(#SVGID_00000090255445893007529780000002211318948118731964_);" cx="114.26" cy="98.21" r="3.18"/>
				
					<linearGradient id="SVGID_00000117649398940966783660000006673768253181143201_" gradientUnits="userSpaceOnUse" x1="38.1656" y1="106.8142" x2="124.9505" y2="142.5492">
					<stop  offset="0" style="stop-color:#587641"/>
					<stop  offset="0.4064" style="stop-color:#8DBA38"/>
					<stop  offset="1" style="stop-color:#17A4CC"/>
				</linearGradient>
				<circle style="fill:url(#SVGID_00000117649398940966783660000006673768253181143201_);" cx="69.58" cy="119.75" r="3.18"/>
				
					<linearGradient id="SVGID_00000149344012049664732900000007970404083979805363_" gradientUnits="userSpaceOnUse" x1="35.2026" y1="94.5243" x2="121.7648" y2="130.1676" gradientTransform="matrix(0.9367 0.0305 0.0305 0.9853 11.6482 -5.6135)">
					<stop  offset="0" style="stop-color:#587641"/>
					<stop  offset="0.4064" style="stop-color:#8DBA38"/>
					<stop  offset="1" style="stop-color:#17A4CC"/>
				</linearGradient>
				<path style="fill:url(#SVGID_00000149344012049664732900000007970404083979805363_);" d="M77.61,118.16l30.35-14.62
					c1.02-0.49,1.45-1.72,0.96-2.74l0,0c-0.49-1.02-1.72-1.45-2.74-0.96l-30.35,14.62c-1.02,0.49-1.45,1.72-0.96,2.74l0,0
					C75.36,118.22,76.59,118.65,77.61,118.16z"/>
			</g>
			
				<linearGradient id="SVGID_00000070836459076932818850000006239129105848853138_" gradientUnits="userSpaceOnUse" x1="45.4003" y1="67.203" x2="131.8636" y2="102.8056" gradientTransform="matrix(0.9441 0.0269 0.0269 0.987 16.4079 -7.9072)">
				<stop  offset="0" style="stop-color:#587641"/>
				<stop  offset="0.4064" style="stop-color:#8DBA38"/>
				<stop  offset="1" style="stop-color:#17A4CC"/>
			</linearGradient>
			<path style="fill:url(#SVGID_00000070836459076932818850000006239129105848853138_);" d="M137.08,84.93l-16.56,7.98
				c-1.02,0.49-1.45,1.72-0.96,2.74l0,0c0.49,1.02,1.72,1.45,2.74,0.96l16.56-7.98c1.02-0.49,1.45-1.72,0.96-2.74v0
				C139.34,84.87,138.11,84.44,137.08,84.93z"/>
		</g>
		<g>
			<g>
				
					<linearGradient id="SVGID_00000167385424793535290770000017252585971719183254_" gradientUnits="userSpaceOnUse" x1="43.3268" y1="94.2798" x2="130.1117" y2="130.0148">
					<stop  offset="0" style="stop-color:#587641"/>
					<stop  offset="0.4064" style="stop-color:#8DBA38"/>
					<stop  offset="1" style="stop-color:#17A4CC"/>
				</linearGradient>
				<circle style="fill:url(#SVGID_00000167385424793535290770000017252585971719183254_);" cx="95.4" cy="115.72" r="3.18"/>
				
					<linearGradient id="SVGID_00000068675214781642079580000004313484714231703442_" gradientUnits="userSpaceOnUse" x1="44.5672" y1="81.3322" x2="131.2446" y2="117.0229" gradientTransform="matrix(0.9727 0.0132 0.0132 0.9937 7.355 -3.5445)">
					<stop  offset="0" style="stop-color:#587641"/>
					<stop  offset="0.4064" style="stop-color:#8DBA38"/>
					<stop  offset="1" style="stop-color:#17A4CC"/>
				</linearGradient>
				<path style="fill:url(#SVGID_00000068675214781642079580000004313484714231703442_);" d="M129.03,97.23l-27.41,13.21
					c-1.02,0.49-1.45,1.72-0.96,2.74l0,0c0.49,1.02,1.72,1.45,2.74,0.96l27.41-13.21c1.02-0.49,1.45-1.72,0.96-2.74v0
					C131.28,97.16,130.05,96.74,129.03,97.23z"/>
			</g>
		</g>
		<g>
			<g>
				
					<linearGradient id="SVGID_00000052070383533852113620000002030595218639491757_" gradientUnits="userSpaceOnUse" x1="50.5412" y1="76.759" x2="137.3261" y2="112.494">
					<stop  offset="0" style="stop-color:#587641"/>
					<stop  offset="0.4064" style="stop-color:#8DBA38"/>
					<stop  offset="1" style="stop-color:#17A4CC"/>
				</linearGradient>
				<circle style="fill:url(#SVGID_00000052070383533852113620000002030595218639491757_);" cx="127.74" cy="108.55" r="3.18"/>
			</g>
			
				<linearGradient id="SVGID_00000012472094967855398050000014916353029457162887_" gradientUnits="userSpaceOnUse" x1="38.4171" y1="90.9745" x2="124.8722" y2="126.5737" gradientTransform="matrix(0.951 0.0236 0.0236 0.9886 10.0469 -4.8418)">
				<stop  offset="0" style="stop-color:#587641"/>
				<stop  offset="0.4064" style="stop-color:#8DBA38"/>
				<stop  offset="1" style="stop-color:#17A4CC"/>
			</linearGradient>
			<path style="fill:url(#SVGID_00000012472094967855398050000014916353029457162887_);" d="M119.73,110.13l-13.44,6.48
				c-1.02,0.49-1.45,1.72-0.96,2.74l0,0c0.49,1.02,1.72,1.45,2.74,0.96l13.44-6.48c1.02-0.49,1.45-1.72,0.96-2.74v0
				C121.98,110.07,120.75,109.64,119.73,110.13z"/>
		</g>
		<g>
			<g>
				
					<linearGradient id="SVGID_00000145769107309061806180000017007138072769152412_" gradientUnits="userSpaceOnUse" x1="45.5773" y1="88.8145" x2="132.3621" y2="124.5494">
					<stop  offset="0" style="stop-color:#587641"/>
					<stop  offset="0.4064" style="stop-color:#8DBA38"/>
					<stop  offset="1" style="stop-color:#17A4CC"/>
				</linearGradient>
				<path style="fill:url(#SVGID_00000145769107309061806180000017007138072769152412_);" d="M116.32,124.75l11.91-5.74
					c0.92-0.44,1.31-1.55,0.87-2.47l-0.18-0.36c-0.44-0.92-1.55-1.31-2.47-0.87l-11.91,5.74c-0.92,0.44-1.31,1.55-0.87,2.47
					l0.18,0.36C114.29,124.81,115.4,125.19,116.32,124.75z"/>
			</g>
		</g>
		<g>
			<g>
				
					<linearGradient id="SVGID_00000092417220077754838730000013377657133121580726_" gradientUnits="userSpaceOnUse" x1="43.431" y1="94.0267" x2="130.2159" y2="129.7617">
					<stop  offset="0" style="stop-color:#587641"/>
					<stop  offset="0.4064" style="stop-color:#8DBA38"/>
					<stop  offset="1" style="stop-color:#17A4CC"/>
				</linearGradient>
				<circle style="fill:url(#SVGID_00000092417220077754838730000013377657133121580726_);" cx="123.98" cy="127.19" r="3.18"/>
			</g>
		</g>
	</g>
	<g>
		<g>
			<g>
				<path class="st36" d="M215.86,73.95c-6.47,0-12.51,3.73-15.46,9.31c-2.77-5.65-8.61-9.31-15.21-9.31
					c-10.11,0-18.65,8.34-18.65,18.21v20.95c0,1.87,1.51,3.4,3.37,3.4c1.77,0,3.26-1.56,3.26-3.4V92.28
					c0-6.43,5.51-11.86,12.02-11.86c6.46,0,11.92,5.23,11.92,11.42v34.41c0,1.87,1.51,3.4,3.37,3.4c1.77,0,3.26-1.56,3.26-3.4V92.28
					c0-6.43,5.51-11.86,12.02-11.86c6.52,0,12.02,5.23,12.02,11.42v34.41c0,1.87,1.51,3.4,3.37,3.4c1.77,0,3.26-1.56,3.26-3.4
					l0-34.44C234.05,81.79,225.91,73.95,215.86,73.95z"/>
				<path class="st36" d="M352.82,55.41c-1.9,0-3.33,1.49-3.33,3.47v24.67c-5.16-5.99-12.74-9.49-20.81-9.49
					c-15.14,0-27.46,12.42-27.46,27.68c0,15.39,12.32,27.91,27.46,27.91c15.2,0,27.57-12.52,27.57-27.91V58.88
					C356.26,56.97,354.71,55.41,352.82,55.41z M328.91,122.93c-11.53,0-20.92-9.51-20.92-21.19c0-11.82,9.19-21.08,20.92-21.08
					c10.34,0,19.18,7.74,20.58,18.02c0.01,0.18,0.03,0.36,0.06,0.55c0.02,0.15,0.05,0.31,0.05,0.49l0.01,0.16
					c0.1,0.59,0.1,1.21,0.1,1.85C349.71,113.42,340.38,122.93,328.91,122.93z"/>
				<path class="st36" d="M407.25,86.94c-1.98,0-3.37,1.35-3.37,3.29v13.31c0,11.57-7.13,19.65-17.34,19.65
					c-10.01,0-17.55-8.31-17.55-19.32V77.24c0-1.81-1.46-3.29-3.26-3.29c-1.89,0-3.37,1.44-3.37,3.29v26.53
					c0,14.83,10.39,26.01,24.18,26.01c13.66,0,23.96-11.18,23.96-26.01V90.23C410.5,88.42,409.04,86.94,407.25,86.94z"/>
				<path class="st36" d="M435.74,123l-0.16-0.01c-7.75,0-12.02-5.03-12.02-14.16V58.74c0-1.9-1.43-3.4-3.26-3.4
					c-1.89,0-3.37,1.49-3.37,3.4v50.96c0,12.44,6.65,19.86,17.78,19.86c2.7,0,3.91-1.6,3.91-3.18
					C438.62,125.06,438.12,123.4,435.74,123z"/>
				<path class="st36" d="M462.61,123.01l-0.16-0.01c-7.75,0-12.02-5.03-12.02-14.16V58.75c0-1.9-1.43-3.4-3.26-3.4
					c-1.89,0-3.37,1.49-3.37,3.4v50.96c0,12.44,6.65,19.86,17.78,19.86c2.7,0,3.91-1.6,3.91-3.18
					C465.49,125.07,464.99,123.41,462.61,123.01z"/>
				<path class="st36" d="M294.09,105.23c-1.49,0-2.75,0.95-3.24,2.27l-0.01,0c-2.5,8.79-10.58,15.23-20.18,15.23
					c-11.59,0-20.98-9.39-20.98-20.98c0-11.59,9.39-20.98,20.98-20.98c6.13,0,11.65,2.63,15.49,6.83l-14.44,6.95
					c-1.57,0.76-2.24,2.65-1.47,4.23c0.76,1.57,2.65,2.24,4.23,1.47l14.19-6.83l1.04-0.5l3.2-1.54l0.2-0.1
					c1-0.49,1.69-1.51,1.69-2.7c0-0.51-0.14-0.98-0.36-1.39c-0.08-0.12-0.15-0.25-0.23-0.38c-0.51-0.8-1.04-1.57-1.63-2.31
					c-5.11-6.48-13.02-10.64-21.91-10.64c-15.41,0-27.9,12.49-27.9,27.9c0,15.41,12.49,27.9,27.9,27.9
					c12.64,0,23.32-8.41,26.74-19.95c0,0,0.15-0.65,0.15-1C297.56,106.79,296.01,105.23,294.09,105.23z"/>
			</g>
			<path class="st36" d="M492.58,74.35c-15.07,0-27.33,12.41-27.33,27.67s12.06,27.67,26.89,27.67c8.31,0,15.78-3.59,20.93-9.96
				v3.24c0,2,1.45,3.56,3.31,3.56c2.02,0,3.42-1.47,3.42-3.56v-20.94C519.8,86.77,507.59,74.35,492.58,74.35z M513.29,102.02v1.24
				c-0.12,0.59-0.22,1.14-0.22,1.55v0.26c-1.56,10.4-10.17,17.93-20.49,17.93c-11.48,0-20.82-9.41-20.82-20.98
				c0-11.63,9.34-21.09,20.82-21.09C504.19,80.93,513.29,90.19,513.29,102.02z"/>
		</g>
		<circle class="st37" cx="263.08" cy="102.26" r="4.39"/>
		<circle class="st37" cx="169.86" cy="125.38" r="4.39"/>
	</g>
</g>
</svg>
