<?xml version="1.0" encoding="utf-8"?>
<!-- Generator: Adobe Illustrator 27.0.0, SVG Export Plug-In . SVG Version: 6.00 Build 0)  -->
<svg version="1.1" id="Calque_1" xmlns="http://www.w3.org/2000/svg" xmlns:xlink="http://www.w3.org/1999/xlink" x="0px" y="0px"
	 viewBox="0 0 141.7 141.7" style="enable-background:new 0 0 141.7 141.7;" xml:space="preserve">
<style type="text/css">
	.st0{fill:#8BB53C;}
	.st1{fill:#24607E;}
	.st2{fill:#FFFFFF;}
	.st3{fill:#8BB53C;stroke:#24607E;stroke-width:2.8835;stroke-linecap:round;stroke-linejoin:round;stroke-miterlimit:10;}
	.st4{fill:#FFFFFF;stroke:#24607E;stroke-width:2.8119;stroke-linecap:round;stroke-linejoin:round;stroke-miterlimit:10;}
	.st5{fill:#FFFFFF;stroke:#24607E;stroke-width:2.8835;stroke-linecap:round;stroke-linejoin:round;stroke-miterlimit:10;}
	.st6{fill:#18A1C9;stroke:#24607E;stroke-width:3.4518;stroke-linecap:round;stroke-linejoin:round;stroke-miterlimit:10;}
</style>
<g>
	<path class="st0" d="M120.8,82.7V29.4c0-3.6-2.9-6.6-6.6-6.6H49c-3.6,0-6.6,2.9-6.6,6.6v17.3h2.9v-7.2c0-0.8,0.6-1.4,1.4-1.4h70
		c0.8,0,1.4,0.6,1.4,1.4v46c0,0.8-0.6,1.4-1.4,1.4H105v2.4h9.2C117.9,89.3,120.8,86.4,120.8,82.7z M67.4,35.6c-1.8,0-3.3-1-4.1-2.5
		c-0.8,1.5-2.4,2.5-4.1,2.5c-1.8,0-3.3-1-4.2-2.5c-0.8,1.5-2.4,2.5-4.2,2.5c-2.6,0-4.7-2.1-4.7-4.7c0-2.6,2.1-4.7,4.7-4.7
		c1.8,0,3.3,1,4.2,2.5c0.8-1.5,2.4-2.5,4.2-2.5c1.8,0,3.3,1,4.1,2.5c0.8-1.5,2.4-2.5,4.1-2.5c2.6,0,4.7,2.1,4.7,4.7
		C72.1,33.5,70,35.6,67.4,35.6z M116.7,33.4h-43c-0.8,0-1.4-0.6-1.4-1.4v-2.2c0-0.8,0.6-1.4,1.4-1.4h43c0.8,0,1.4,0.6,1.4,1.4V32
		C118.1,32.8,117.5,33.4,116.7,33.4z"/>
	<path class="st1" d="M114.2,20H49c-5.2,0-9.4,4.2-9.4,9.4v17.3H41V29.4c0-4.4,3.6-8,8-8h65.2c4.4,0,8,3.6,8,8v53.3c0,4.5-3.6,8-8,8
		H105v1.4h9.2c5.2,0,9.4-4.2,9.4-9.4V29.4C123.6,24.2,119.4,20,114.2,20z"/>
	<path class="st1" d="M42.4,29.4c0-3.6,2.9-6.6,6.6-6.6h65.2c3.6,0,6.6,2.9,6.6,6.6v53.3c0,3.7-2.9,6.6-6.6,6.6H105v1.4h9.2
		c4.4,0,8-3.5,8-8V29.4c0-4.4-3.6-8-8-8H49c-4.4,0-8,3.6-8,8v17.3h1.4V29.4z"/>
	<path class="st2" d="M105,59v25.1h10.3V40.9H48.1v5.8h44.6C99.5,46.7,105,52.2,105,59z"/>
	<path class="st1" d="M46.7,39.5h70v46H105v1.4h11.7c0.8,0,1.4-0.6,1.4-1.4v-46c0-0.8-0.6-1.4-1.4-1.4h-70c-0.8,0-1.4,0.6-1.4,1.4
		v7.2h1.4V39.5z"/>
	<polygon class="st1" points="116.7,39.5 46.7,39.5 46.7,46.7 48.1,46.7 48.1,40.9 115.3,40.9 115.3,84.1 105,84.1 105,85.5 
		116.7,85.5 	"/>
	<path class="st2" d="M50.8,29c-1,0-1.9,0.8-1.9,1.9c0,1,0.8,1.9,1.9,1.9c1,0,1.9-0.8,1.9-1.9C52.7,29.9,51.8,29,50.8,29z"/>
	<path class="st1" d="M54.9,28.7c-0.8-1.5-2.4-2.5-4.2-2.5c-2.6,0-4.7,2.1-4.7,4.7c0,2.6,2.1,4.7,4.7,4.7c1.8,0,3.3-1,4.2-2.5
		c-0.4-0.7-0.6-1.4-0.6-2.2C54.4,30.1,54.6,29.3,54.9,28.7z M50.8,34.2c-1.8,0-3.3-1.5-3.3-3.3c0-1.8,1.5-3.3,3.3-3.3
		c1.8,0,3.3,1.5,3.3,3.3C54.1,32.7,52.6,34.2,50.8,34.2z"/>
	<path class="st1" d="M50.8,27.6c-1.8,0-3.3,1.5-3.3,3.3c0,1.8,1.5,3.3,3.3,3.3c1.8,0,3.3-1.5,3.3-3.3
		C54.1,29.1,52.6,27.6,50.8,27.6z M50.8,32.8c-1,0-1.9-0.8-1.9-1.9c0-1,0.8-1.9,1.9-1.9c1,0,1.9,0.8,1.9,1.9
		C52.7,31.9,51.8,32.8,50.8,32.8z"/>
	<path class="st2" d="M59.1,29c-1,0-1.9,0.8-1.9,1.9c0,1,0.8,1.9,1.9,1.9c1,0,1.9-0.8,1.9-1.9C61,29.9,60.1,29,59.1,29z"/>
	<path class="st1" d="M63.2,28.7c-0.8-1.5-2.4-2.5-4.1-2.5c-1.8,0-3.3,1-4.2,2.5c0.4,0.7,0.6,1.4,0.6,2.2c0,0.8-0.2,1.6-0.6,2.2
		c0.8,1.5,2.4,2.5,4.2,2.5c1.8,0,3.3-1,4.1-2.5c-0.4-0.7-0.6-1.4-0.6-2.2C62.7,30.1,62.9,29.3,63.2,28.7z M59.1,34.2
		c-1.8,0-3.3-1.5-3.3-3.3c0-1.8,1.5-3.3,3.3-3.3c1.8,0,3.3,1.5,3.3,3.3C62.4,32.7,60.9,34.2,59.1,34.2z"/>
	<path class="st1" d="M54.9,28.7c-0.4,0.7-0.6,1.4-0.6,2.2c0,0.8,0.2,1.6,0.6,2.2c0.4-0.7,0.6-1.4,0.6-2.2
		C55.5,30.1,55.3,29.3,54.9,28.7z"/>
	<path class="st1" d="M59.1,27.6c-1.8,0-3.3,1.5-3.3,3.3c0,1.8,1.5,3.3,3.3,3.3c1.8,0,3.3-1.5,3.3-3.3
		C62.4,29.1,60.9,27.6,59.1,27.6z M59.1,32.8c-1,0-1.9-0.8-1.9-1.9c0-1,0.8-1.9,1.9-1.9c1,0,1.9,0.8,1.9,1.9
		C61,31.9,60.1,32.8,59.1,32.8z"/>
	<path class="st2" d="M67.4,29c-1,0-1.9,0.8-1.9,1.9c0,1,0.8,1.9,1.9,1.9c1,0,1.9-0.8,1.9-1.9C69.3,29.9,68.4,29,67.4,29z"/>
	<path class="st1" d="M67.4,26.2c-1.8,0-3.3,1-4.1,2.5c0.4,0.7,0.6,1.4,0.6,2.2c0,0.8-0.2,1.6-0.6,2.2c0.8,1.5,2.4,2.5,4.1,2.5
		c2.6,0,4.7-2.1,4.7-4.7C72.1,28.3,70,26.2,67.4,26.2z M67.4,34.2c-1.8,0-3.3-1.5-3.3-3.3c0-1.8,1.5-3.3,3.3-3.3
		c1.8,0,3.3,1.5,3.3,3.3C70.7,32.7,69.2,34.2,67.4,34.2z"/>
	<path class="st1" d="M63.2,28.7c-0.4,0.7-0.6,1.4-0.6,2.2c0,0.8,0.2,1.6,0.6,2.2c0.4-0.7,0.6-1.4,0.6-2.2
		C63.8,30.1,63.6,29.3,63.2,28.7z"/>
	<path class="st1" d="M67.4,27.6c-1.8,0-3.3,1.5-3.3,3.3c0,1.8,1.5,3.3,3.3,3.3c1.8,0,3.3-1.5,3.3-3.3
		C70.7,29.1,69.2,27.6,67.4,27.6z M67.4,32.8c-1,0-1.9-0.8-1.9-1.9c0-1,0.8-1.9,1.9-1.9c1,0,1.9,0.8,1.9,1.9
		C69.3,31.9,68.4,32.8,67.4,32.8z"/>
	<path class="st1" d="M118.1,29.8c0-0.8-0.6-1.4-1.4-1.4h-43c-0.8,0-1.4,0.6-1.4,1.4V32c0,0.8,0.6,1.4,1.4,1.4h43
		c0.8,0,1.4-0.6,1.4-1.4V29.8z M116.7,32h-43v-2.2h43V32z"/>
	<rect x="73.7" y="29.8" class="st1" width="43" height="2.2"/>
</g>
<g>
	<path class="st3" d="M92.8,120.3H27.5c-4.4,0-8-3.6-8-8V59c0-4.4,3.6-8,8-8h65.2c4.4,0,8,3.6,8,8v53.3
		C100.7,116.7,97.2,120.3,92.8,120.3z"/>
	<rect x="25.3" y="69" class="st4" width="70" height="46"/>
	<g>
		<circle class="st5" cx="29.4" cy="60.5" r="3.3"/>
		<circle class="st5" cx="37.7" cy="60.5" r="3.3"/>
		<circle class="st5" cx="46" cy="60.5" r="3.3"/>
		<rect x="52.2" y="59.3" class="st5" width="43" height="2.2"/>
	</g>
</g>
<path class="st6" d="M78,94.6v-4.9c0-0.7-0.6-1.3-1.3-1.3h-2.6c-0.3,0-0.6-0.2-0.7-0.5c-0.2-0.8-0.5-1.5-0.9-2.2
	c-0.1-0.3-0.1-0.6,0.1-0.8l1.9-1.9c0.5-0.5,0.5-1.3,0-1.8L71,77.8c-0.5-0.5-1.3-0.5-1.8,0l-1.9,1.9c-0.2,0.2-0.5,0.3-0.8,0.1
	c-0.7-0.4-1.4-0.7-2.2-0.9c-0.3-0.1-0.5-0.4-0.5-0.7v-2.6c0-0.7-0.6-1.3-1.3-1.3h-4.9c-0.7,0-1.3,0.6-1.3,1.3v2.6
	c0,0.3-0.2,0.6-0.5,0.7c-0.8,0.2-1.5,0.5-2.2,0.9c-0.3,0.1-0.6,0.1-0.8-0.1l-1.9-1.9c-0.5-0.5-1.3-0.5-1.8,0l-3.5,3.5
	c-0.5,0.5-0.5,1.3,0,1.8l1.9,1.9c0.2,0.2,0.3,0.5,0.1,0.8c-0.4,0.7-0.7,1.4-0.9,2.2c-0.1,0.3-0.3,0.5-0.6,0.5h-2.6
	c-0.7,0-1.3,0.6-1.3,1.3v4.9c0,0.7,0.6,1.3,1.3,1.3h2.6c0.3,0,0.6,0.2,0.6,0.5c0.2,0.8,0.5,1.5,0.9,2.2c0.1,0.3,0.1,0.6-0.1,0.8
	l-1.9,1.9c-0.5,0.5-0.5,1.3,0,1.8l3.5,3.5c0.5,0.5,1.3,0.5,1.8,0l1.9-1.9c0.2-0.2,0.5-0.3,0.8-0.1c0.7,0.4,1.4,0.7,2.2,0.9
	c0.3,0.1,0.5,0.3,0.5,0.6v2.6c0,0.7,0.6,1.3,1.3,1.3h4.9c0.7,0,1.3-0.6,1.3-1.3v-2.6c0-0.3,0.2-0.6,0.5-0.6c0.8-0.2,1.5-0.5,2.2-0.9
	c0.3-0.1,0.6-0.1,0.8,0.1l1.9,1.9c0.5,0.5,1.3,0.5,1.8,0l3.5-3.5c0.5-0.5,0.5-1.3,0-1.8l-1.9-1.9c-0.2-0.2-0.3-0.5-0.1-0.8
	c0.4-0.7,0.7-1.4,0.9-2.2c0.1-0.3,0.3-0.5,0.7-0.5h2.6C77.4,95.9,78,95.3,78,94.6z M60.1,99.1c-3.9,0-7-3.1-7-7s3.1-7,7-7s7,3.1,7,7
	S64,99.1,60.1,99.1z"/>
</svg>
