<?xml version="1.0" encoding="utf-8"?>
<!-- Generator: Adobe Illustrator 27.0.0, SVG Export Plug-In . SVG Version: 6.00 Build 0)  -->
<svg version="1.1" id="Calque_1" xmlns="http://www.w3.org/2000/svg" xmlns:xlink="http://www.w3.org/1999/xlink" x="0px" y="0px"
	 viewBox="0 0 141.7 141.7" style="enable-background:new 0 0 141.7 141.7;" xml:space="preserve">
<style type="text/css">
	.st0{fill:#8BB53C;stroke:#24607E;stroke-width:4.412;stroke-linecap:round;stroke-linejoin:round;stroke-miterlimit:10;}
</style>
<g>
	<path class="st0" d="M97.2,89.7c-5.9,8.2-15.5,13.6-26.3,13.6c-17.8,0-32.3-14.4-32.4-32.2h3.8h6.8L32.2,54.3L15.5,71.1h8.9h0.2H26
		c0.1,24.7,20.1,44.6,44.8,44.6c14.3,0,27-6.7,35.2-17.1l-3.7-3.7L97.2,89.7z"/>
	<path class="st0" d="M119.3,71.1L119.3,71.1h-3.6l0,0c0-0.1,0-0.2,0-0.2c0-24.8-20.1-44.8-44.8-44.8c-14.4,0-27.2,6.8-35.4,17.4
		l3.8,3.8l5.1,5.1C50.3,44,60,38.6,70.9,38.6c17.9,0,32.4,14.5,32.4,32.4c0,0.1,0,0.2,0,0.2l0,0h-3.9l0,0h-6.6L109.6,88l16.8-16.8
		L119.3,71.1L119.3,71.1z"/>
</g>
</svg>
